<?xml version="1.0" standalone="no"?>
 <!DOCTYPE svg PUBLIC "-//W3C//DTD SVG 1.1//EN" 
 "http://www.w3.org/Graphics/SVG/1.1/DTD/svg11.dtd"> 
<svg
  xmlns:svg="http://www.w3.org/2000/svg"
  xmlns="http://www.w3.org/2000/svg"
  xmlns:xlink="http://www.w3.org/1999/xlink"
  version="1.1"
  width="29.700220cm" height="21.000720cm" viewBox="0 0 116930 82680">
<title>SVG Picture created as BedoPadPcb-F_SilkS.svg date 2021/07/10 22:28:46 </title>
  <desc>Picture generated by PCBNEW </desc>
<g style="fill:#000000; fill-opacity:1;stroke:#000000; stroke-opacity:1;
stroke-linecap:round; stroke-linejoin:round;"
 transform="translate(0 0) scale(1 1)">
</g>
<g style="fill:#000000; fill-opacity:0.0; 
stroke:#000000; stroke-width:-0.000393701; stroke-opacity:1; 
stroke-linecap:round; stroke-linejoin:round;">
</g>
<g style="fill:#000000; fill-opacity:0.0; 
stroke:#000000; stroke-width:39.3701; stroke-opacity:1; 
stroke-linecap:round; stroke-linejoin:round;">
</g>
<g style="fill:#000000; fill-opacity:0.0; 
stroke:#000000; stroke-width:59.0551; stroke-opacity:1; 
stroke-linecap:round; stroke-linejoin:round;">
<rect x="69685.9" y="65357.2" width="42519.7" height="12598.4" rx="0" />
</g>
<g style="fill:#000000; fill-opacity:0.0; 
stroke:#000000; stroke-width:39.3701; stroke-opacity:1; 
stroke-linecap:round; stroke-linejoin:round;">
</g>
<g style="fill:#000000; fill-opacity:0.0; 
stroke:#000000; stroke-width:59.0551; stroke-opacity:1; 
stroke-linecap:round; stroke-linejoin:round;">
<rect x="3937.01" y="3937.01" width="109056" height="74806" rx="0" />
</g>
<g style="fill:#000000; fill-opacity:0.0; 
stroke:#000000; stroke-width:39.3701; stroke-opacity:1; 
stroke-linecap:round; stroke-linejoin:round;">
</g>
<g style="fill:#000000; fill-opacity:0.0; 
stroke:#000000; stroke-width:59.0551; stroke-opacity:1; 
stroke-linecap:round; stroke-linejoin:round;">
<rect x="4724.41" y="4724.41" width="107481" height="73231.2" rx="0" />
</g>
<g style="fill:#000000; fill-opacity:0.0; 
stroke:#000000; stroke-width:39.3701; stroke-opacity:1; 
stroke-linecap:round; stroke-linejoin:round;">
</g>
<g style="fill:#000000; fill-opacity:0.0; 
stroke:#000000; stroke-width:59.0551; stroke-opacity:1; 
stroke-linecap:round; stroke-linejoin:round;">
<path d="M23622 4724
L23622 3937
" />
</g>
<g style="fill:#000000; fill-opacity:0.0; 
stroke:#000000; stroke-width:39.3701; stroke-opacity:1; 
stroke-linecap:round; stroke-linejoin:round;">
</g>
<g style="fill:#000000; fill-opacity:0.0; 
stroke:#000000; stroke-width:59.0551; stroke-opacity:1; 
stroke-linecap:round; stroke-linejoin:round;">
<path d="M43307 4724
L43307 3937
" />
</g>
<g style="fill:#000000; fill-opacity:0.0; 
stroke:#000000; stroke-width:39.3701; stroke-opacity:1; 
stroke-linecap:round; stroke-linejoin:round;">
</g>
<g style="fill:#000000; fill-opacity:0.0; 
stroke:#000000; stroke-width:59.0551; stroke-opacity:1; 
stroke-linecap:round; stroke-linejoin:round;">
<path d="M62992 4724
L62992 3937
" />
</g>
<g style="fill:#000000; fill-opacity:0.0; 
stroke:#000000; stroke-width:39.3701; stroke-opacity:1; 
stroke-linecap:round; stroke-linejoin:round;">
</g>
<g style="fill:#000000; fill-opacity:0.0; 
stroke:#000000; stroke-width:59.0551; stroke-opacity:1; 
stroke-linecap:round; stroke-linejoin:round;">
<path d="M82677 4724
L82677 3937
" />
</g>
<g style="fill:#000000; fill-opacity:0.0; 
stroke:#000000; stroke-width:39.3701; stroke-opacity:1; 
stroke-linecap:round; stroke-linejoin:round;">
</g>
<g style="fill:#000000; fill-opacity:0.0; 
stroke:#000000; stroke-width:59.0551; stroke-opacity:1; 
stroke-linecap:round; stroke-linejoin:round;">
<path d="M102362 4724
L102362 3937
" />
</g>
<g style="fill:#000000; fill-opacity:0.0; 
stroke:#000000; stroke-width:39.3701; stroke-opacity:1; 
stroke-linecap:round; stroke-linejoin:round;">
</g>
<g style="fill:#000000; fill-opacity:0.0; 
stroke:#000000; stroke-width:59.0551; stroke-opacity:1; 
stroke-linecap:round; stroke-linejoin:round;">
<text x="13779.5" y="4586.61"
textLength="564.211" font-size="682.415" lengthAdjust="spacingAndGlyphs"
text-anchor="start" opacity="0">1</text>
<path d="M14199 4562
L13906 4562
" />
<path d="M14052 4562
L14052 4050
L14004 4123
L13955 4172
L13906 4196
" />
</g>
<g style="fill:#000000; fill-opacity:0.0; 
stroke:#000000; stroke-width:39.3701; stroke-opacity:1; 
stroke-linecap:round; stroke-linejoin:round;">
</g>
<g style="fill:#000000; fill-opacity:0.0; 
stroke:#000000; stroke-width:59.0551; stroke-opacity:1; 
stroke-linecap:round; stroke-linejoin:round;">
<text x="33464.6" y="4586.61"
textLength="546.494" font-size="682.415" lengthAdjust="spacingAndGlyphs"
text-anchor="start" opacity="0">2</text>
<path d="M33591 4099
L33615 4074
L33664 4050
L33786 4050
L33835 4074
L33859 4099
L33884 4147
L33884 4196
L33859 4269
L33567 4562
L33884 4562
" />
</g>
<g style="fill:#000000; fill-opacity:0.0; 
stroke:#000000; stroke-width:39.3701; stroke-opacity:1; 
stroke-linecap:round; stroke-linejoin:round;">
</g>
<g style="fill:#000000; fill-opacity:0.0; 
stroke:#000000; stroke-width:59.0551; stroke-opacity:1; 
stroke-linecap:round; stroke-linejoin:round;">
<text x="53149.6" y="4586.61"
textLength="546.494" font-size="682.415" lengthAdjust="spacingAndGlyphs"
text-anchor="start" opacity="0">3</text>
<path d="M53252 4050
L53569 4050
L53398 4245
L53471 4245
L53520 4269
L53544 4294
L53569 4342
L53569 4464
L53544 4513
L53520 4537
L53471 4562
L53325 4562
L53276 4537
L53252 4513
" />
</g>
<g style="fill:#000000; fill-opacity:0.0; 
stroke:#000000; stroke-width:39.3701; stroke-opacity:1; 
stroke-linecap:round; stroke-linejoin:round;">
</g>
<g style="fill:#000000; fill-opacity:0.0; 
stroke:#000000; stroke-width:59.0551; stroke-opacity:1; 
stroke-linecap:round; stroke-linejoin:round;">
<text x="72834.6" y="4586.61"
textLength="546.494" font-size="682.415" lengthAdjust="spacingAndGlyphs"
text-anchor="start" opacity="0">4</text>
<path d="M73205 4221
L73205 4562
" />
<path d="M73083 4026
L72961 4391
L73278 4391
" />
</g>
<g style="fill:#000000; fill-opacity:0.0; 
stroke:#000000; stroke-width:39.3701; stroke-opacity:1; 
stroke-linecap:round; stroke-linejoin:round;">
</g>
<g style="fill:#000000; fill-opacity:0.0; 
stroke:#000000; stroke-width:59.0551; stroke-opacity:1; 
stroke-linecap:round; stroke-linejoin:round;">
<text x="92519.7" y="4586.61"
textLength="546.494" font-size="682.415" lengthAdjust="spacingAndGlyphs"
text-anchor="start" opacity="0">5</text>
<path d="M92914 4050
L92671 4050
L92646 4294
L92671 4269
L92719 4245
L92841 4245
L92890 4269
L92914 4294
L92939 4342
L92939 4464
L92914 4513
L92890 4537
L92841 4562
L92719 4562
L92671 4537
L92646 4513
" />
</g>
<g style="fill:#000000; fill-opacity:0.0; 
stroke:#000000; stroke-width:39.3701; stroke-opacity:1; 
stroke-linecap:round; stroke-linejoin:round;">
</g>
<g style="fill:#000000; fill-opacity:0.0; 
stroke:#000000; stroke-width:59.0551; stroke-opacity:1; 
stroke-linecap:round; stroke-linejoin:round;">
<text x="112205" y="4586.61"
textLength="546.494" font-size="682.415" lengthAdjust="spacingAndGlyphs"
text-anchor="start" opacity="0">6</text>
<path d="M112575 4050
L112477 4050
L112429 4074
L112404 4099
L112356 4172
L112331 4269
L112331 4464
L112356 4513
L112380 4537
L112429 4562
L112526 4562
L112575 4537
L112599 4513
L112624 4464
L112624 4342
L112599 4294
L112575 4269
L112526 4245
L112429 4245
L112380 4269
L112356 4294
L112331 4342
" />
</g>
<g style="fill:#000000; fill-opacity:0.0; 
stroke:#000000; stroke-width:39.3701; stroke-opacity:1; 
stroke-linecap:round; stroke-linejoin:round;">
</g>
<g style="fill:#000000; fill-opacity:0.0; 
stroke:#000000; stroke-width:59.0551; stroke-opacity:1; 
stroke-linecap:round; stroke-linejoin:round;">
<path d="M23622 77955
L23622 78742
" />
</g>
<g style="fill:#000000; fill-opacity:0.0; 
stroke:#000000; stroke-width:39.3701; stroke-opacity:1; 
stroke-linecap:round; stroke-linejoin:round;">
</g>
<g style="fill:#000000; fill-opacity:0.0; 
stroke:#000000; stroke-width:59.0551; stroke-opacity:1; 
stroke-linecap:round; stroke-linejoin:round;">
<path d="M43307 77955
L43307 78742
" />
</g>
<g style="fill:#000000; fill-opacity:0.0; 
stroke:#000000; stroke-width:39.3701; stroke-opacity:1; 
stroke-linecap:round; stroke-linejoin:round;">
</g>
<g style="fill:#000000; fill-opacity:0.0; 
stroke:#000000; stroke-width:59.0551; stroke-opacity:1; 
stroke-linecap:round; stroke-linejoin:round;">
<path d="M62992 77955
L62992 78742
" />
</g>
<g style="fill:#000000; fill-opacity:0.0; 
stroke:#000000; stroke-width:39.3701; stroke-opacity:1; 
stroke-linecap:round; stroke-linejoin:round;">
</g>
<g style="fill:#000000; fill-opacity:0.0; 
stroke:#000000; stroke-width:59.0551; stroke-opacity:1; 
stroke-linecap:round; stroke-linejoin:round;">
<path d="M82677 77955
L82677 78742
" />
</g>
<g style="fill:#000000; fill-opacity:0.0; 
stroke:#000000; stroke-width:39.3701; stroke-opacity:1; 
stroke-linecap:round; stroke-linejoin:round;">
</g>
<g style="fill:#000000; fill-opacity:0.0; 
stroke:#000000; stroke-width:59.0551; stroke-opacity:1; 
stroke-linecap:round; stroke-linejoin:round;">
<path d="M102362 77955
L102362 78742
" />
</g>
<g style="fill:#000000; fill-opacity:0.0; 
stroke:#000000; stroke-width:39.3701; stroke-opacity:1; 
stroke-linecap:round; stroke-linejoin:round;">
</g>
<g style="fill:#000000; fill-opacity:0.0; 
stroke:#000000; stroke-width:59.0551; stroke-opacity:1; 
stroke-linecap:round; stroke-linejoin:round;">
<text x="13779.5" y="78605.2"
textLength="546.494" font-size="682.415" lengthAdjust="spacingAndGlyphs"
text-anchor="start" opacity="0">1</text>
<path d="M14199 78580
L13906 78580
" />
<path d="M14052 78580
L14052 78069
L14004 78142
L13955 78190
L13906 78215
" />
</g>
<g style="fill:#000000; fill-opacity:0.0; 
stroke:#000000; stroke-width:39.3701; stroke-opacity:1; 
stroke-linecap:round; stroke-linejoin:round;">
</g>
<g style="fill:#000000; fill-opacity:0.0; 
stroke:#000000; stroke-width:59.0551; stroke-opacity:1; 
stroke-linecap:round; stroke-linejoin:round;">
<text x="33464.6" y="78605.2"
textLength="546.494" font-size="682.415" lengthAdjust="spacingAndGlyphs"
text-anchor="start" opacity="0">2</text>
<path d="M33591 78117
L33615 78093
L33664 78069
L33786 78069
L33835 78093
L33859 78117
L33884 78166
L33884 78215
L33859 78288
L33567 78580
L33884 78580
" />
</g>
<g style="fill:#000000; fill-opacity:0.0; 
stroke:#000000; stroke-width:39.3701; stroke-opacity:1; 
stroke-linecap:round; stroke-linejoin:round;">
</g>
<g style="fill:#000000; fill-opacity:0.0; 
stroke:#000000; stroke-width:59.0551; stroke-opacity:1; 
stroke-linecap:round; stroke-linejoin:round;">
<text x="53149.6" y="78605.2"
textLength="546.494" font-size="682.415" lengthAdjust="spacingAndGlyphs"
text-anchor="start" opacity="0">3</text>
<path d="M53252 78069
L53569 78069
L53398 78263
L53471 78263
L53520 78288
L53544 78312
L53569 78361
L53569 78483
L53544 78532
L53520 78556
L53471 78580
L53325 78580
L53276 78556
L53252 78532
" />
</g>
<g style="fill:#000000; fill-opacity:0.0; 
stroke:#000000; stroke-width:39.3701; stroke-opacity:1; 
stroke-linecap:round; stroke-linejoin:round;">
</g>
<g style="fill:#000000; fill-opacity:0.0; 
stroke:#000000; stroke-width:59.0551; stroke-opacity:1; 
stroke-linecap:round; stroke-linejoin:round;">
<text x="72834.6" y="78605.2"
textLength="546.494" font-size="682.415" lengthAdjust="spacingAndGlyphs"
text-anchor="start" opacity="0">4</text>
<path d="M73205 78239
L73205 78580
" />
<path d="M73083 78044
L72961 78410
L73278 78410
" />
</g>
<g style="fill:#000000; fill-opacity:0.0; 
stroke:#000000; stroke-width:39.3701; stroke-opacity:1; 
stroke-linecap:round; stroke-linejoin:round;">
</g>
<g style="fill:#000000; fill-opacity:0.0; 
stroke:#000000; stroke-width:59.0551; stroke-opacity:1; 
stroke-linecap:round; stroke-linejoin:round;">
<text x="92519.7" y="78605.2"
textLength="546.494" font-size="682.415" lengthAdjust="spacingAndGlyphs"
text-anchor="start" opacity="0">5</text>
<path d="M92914 78069
L92671 78069
L92646 78312
L92671 78288
L92719 78263
L92841 78263
L92890 78288
L92914 78312
L92939 78361
L92939 78483
L92914 78532
L92890 78556
L92841 78580
L92719 78580
L92671 78556
L92646 78532
" />
</g>
<g style="fill:#000000; fill-opacity:0.0; 
stroke:#000000; stroke-width:39.3701; stroke-opacity:1; 
stroke-linecap:round; stroke-linejoin:round;">
</g>
<g style="fill:#000000; fill-opacity:0.0; 
stroke:#000000; stroke-width:59.0551; stroke-opacity:1; 
stroke-linecap:round; stroke-linejoin:round;">
<text x="112205" y="78605.2"
textLength="546.494" font-size="682.415" lengthAdjust="spacingAndGlyphs"
text-anchor="start" opacity="0">6</text>
<path d="M112575 78069
L112477 78069
L112429 78093
L112404 78117
L112356 78190
L112331 78288
L112331 78483
L112356 78532
L112380 78556
L112429 78580
L112526 78580
L112575 78556
L112599 78532
L112624 78483
L112624 78361
L112599 78312
L112575 78288
L112526 78263
L112429 78263
L112380 78288
L112356 78312
L112331 78361
" />
</g>
<g style="fill:#000000; fill-opacity:0.0; 
stroke:#000000; stroke-width:39.3701; stroke-opacity:1; 
stroke-linecap:round; stroke-linejoin:round;">
</g>
<g style="fill:#000000; fill-opacity:0.0; 
stroke:#000000; stroke-width:59.0551; stroke-opacity:1; 
stroke-linecap:round; stroke-linejoin:round;">
<path d="M3937 23622
L4724 23622
" />
</g>
<g style="fill:#000000; fill-opacity:0.0; 
stroke:#000000; stroke-width:39.3701; stroke-opacity:1; 
stroke-linecap:round; stroke-linejoin:round;">
</g>
<g style="fill:#000000; fill-opacity:0.0; 
stroke:#000000; stroke-width:59.0551; stroke-opacity:1; 
stroke-linecap:round; stroke-linejoin:round;">
<path d="M3937 43307
L4724 43307
" />
</g>
<g style="fill:#000000; fill-opacity:0.0; 
stroke:#000000; stroke-width:39.3701; stroke-opacity:1; 
stroke-linecap:round; stroke-linejoin:round;">
</g>
<g style="fill:#000000; fill-opacity:0.0; 
stroke:#000000; stroke-width:59.0551; stroke-opacity:1; 
stroke-linecap:round; stroke-linejoin:round;">
<path d="M3937 62992
L4724 62992
" />
</g>
<g style="fill:#000000; fill-opacity:0.0; 
stroke:#000000; stroke-width:39.3701; stroke-opacity:1; 
stroke-linecap:round; stroke-linejoin:round;">
</g>
<g style="fill:#000000; fill-opacity:0.0; 
stroke:#000000; stroke-width:59.0551; stroke-opacity:1; 
stroke-linecap:round; stroke-linejoin:round;">
<text x="4330.71" y="14035.4"
textLength="497.75" font-size="682.415" lengthAdjust="spacingAndGlyphs"
text-anchor="middle" opacity="0">A</text>
<path d="M4208 13864
L4452 13864
" />
<path d="M4160 14011
L4330 13499
L4501 14011
" />
</g>
<g style="fill:#000000; fill-opacity:0.0; 
stroke:#000000; stroke-width:39.3701; stroke-opacity:1; 
stroke-linecap:round; stroke-linejoin:round;">
</g>
<g style="fill:#000000; fill-opacity:0.0; 
stroke:#000000; stroke-width:59.0551; stroke-opacity:1; 
stroke-linecap:round; stroke-linejoin:round;">
<text x="4330.71" y="33720.5"
textLength="570.866" font-size="682.415" lengthAdjust="spacingAndGlyphs"
text-anchor="middle" opacity="0">B</text>
<path d="M4367 33428
L4440 33452
L4464 33476
L4489 33525
L4489 33598
L4464 33647
L4440 33671
L4391 33696
L4196 33696
L4196 33184
L4367 33184
L4416 33208
L4440 33233
L4464 33281
L4464 33330
L4440 33379
L4416 33403
L4367 33428
L4196 33428
" />
</g>
<g style="fill:#000000; fill-opacity:0.0; 
stroke:#000000; stroke-width:39.3701; stroke-opacity:1; 
stroke-linecap:round; stroke-linejoin:round;">
</g>
<g style="fill:#000000; fill-opacity:0.0; 
stroke:#000000; stroke-width:59.0551; stroke-opacity:1; 
stroke-linecap:round; stroke-linejoin:round;">
<text x="4330.71" y="53405.5"
textLength="570.866" font-size="682.415" lengthAdjust="spacingAndGlyphs"
text-anchor="middle" opacity="0">C</text>
<path d="M4489 53332
L4464 53356
L4391 53381
L4342 53381
L4269 53356
L4221 53308
L4196 53259
L4172 53161
L4172 53088
L4196 52991
L4221 52942
L4269 52893
L4342 52869
L4391 52869
L4464 52893
L4489 52918
" />
</g>
<g style="fill:#000000; fill-opacity:0.0; 
stroke:#000000; stroke-width:39.3701; stroke-opacity:1; 
stroke-linecap:round; stroke-linejoin:round;">
</g>
<g style="fill:#000000; fill-opacity:0.0; 
stroke:#000000; stroke-width:59.0551; stroke-opacity:1; 
stroke-linecap:round; stroke-linejoin:round;">
<text x="4330.71" y="73090.6"
textLength="570.866" font-size="682.415" lengthAdjust="spacingAndGlyphs"
text-anchor="middle" opacity="0">D</text>
<path d="M4196 73066
L4196 72554
L4318 72554
L4391 72578
L4440 72627
L4464 72676
L4489 72773
L4489 72846
L4464 72944
L4440 72993
L4391 73041
L4318 73066
L4196 73066
" />
</g>
<g style="fill:#000000; fill-opacity:0.0; 
stroke:#000000; stroke-width:39.3701; stroke-opacity:1; 
stroke-linecap:round; stroke-linejoin:round;">
</g>
<g style="fill:#000000; fill-opacity:0.0; 
stroke:#000000; stroke-width:59.0551; stroke-opacity:1; 
stroke-linecap:round; stroke-linejoin:round;">
<path d="M112992 23622
L112205 23622
" />
</g>
<g style="fill:#000000; fill-opacity:0.0; 
stroke:#000000; stroke-width:39.3701; stroke-opacity:1; 
stroke-linecap:round; stroke-linejoin:round;">
</g>
<g style="fill:#000000; fill-opacity:0.0; 
stroke:#000000; stroke-width:59.0551; stroke-opacity:1; 
stroke-linecap:round; stroke-linejoin:round;">
<path d="M112992 43307
L112205 43307
" />
</g>
<g style="fill:#000000; fill-opacity:0.0; 
stroke:#000000; stroke-width:39.3701; stroke-opacity:1; 
stroke-linecap:round; stroke-linejoin:round;">
</g>
<g style="fill:#000000; fill-opacity:0.0; 
stroke:#000000; stroke-width:59.0551; stroke-opacity:1; 
stroke-linecap:round; stroke-linejoin:round;">
<path d="M112992 62992
L112205 62992
" />
</g>
<g style="fill:#000000; fill-opacity:0.0; 
stroke:#000000; stroke-width:39.3701; stroke-opacity:1; 
stroke-linecap:round; stroke-linejoin:round;">
</g>
<g style="fill:#000000; fill-opacity:0.0; 
stroke:#000000; stroke-width:59.0551; stroke-opacity:1; 
stroke-linecap:round; stroke-linejoin:round;">
<text x="112599" y="14035.4"
textLength="497.75" font-size="682.415" lengthAdjust="spacingAndGlyphs"
text-anchor="middle" opacity="0">A</text>
<path d="M112477 13864
L112721 13864
" />
<path d="M112428 14011
L112599 13499
L112769 14011
" />
</g>
<g style="fill:#000000; fill-opacity:0.0; 
stroke:#000000; stroke-width:39.3701; stroke-opacity:1; 
stroke-linecap:round; stroke-linejoin:round;">
</g>
<g style="fill:#000000; fill-opacity:0.0; 
stroke:#000000; stroke-width:59.0551; stroke-opacity:1; 
stroke-linecap:round; stroke-linejoin:round;">
<text x="112599" y="33720.5"
textLength="570.866" font-size="682.415" lengthAdjust="spacingAndGlyphs"
text-anchor="middle" opacity="0">B</text>
<path d="M112635 33428
L112708 33452
L112733 33476
L112757 33525
L112757 33598
L112733 33647
L112708 33671
L112660 33696
L112465 33696
L112465 33184
L112635 33184
L112684 33208
L112708 33233
L112733 33281
L112733 33330
L112708 33379
L112684 33403
L112635 33428
L112465 33428
" />
</g>
<g style="fill:#000000; fill-opacity:0.0; 
stroke:#000000; stroke-width:39.3701; stroke-opacity:1; 
stroke-linecap:round; stroke-linejoin:round;">
</g>
<g style="fill:#000000; fill-opacity:0.0; 
stroke:#000000; stroke-width:59.0551; stroke-opacity:1; 
stroke-linecap:round; stroke-linejoin:round;">
<text x="112599" y="53405.5"
textLength="570.866" font-size="682.415" lengthAdjust="spacingAndGlyphs"
text-anchor="middle" opacity="0">C</text>
<path d="M112757 53332
L112733 53356
L112660 53381
L112611 53381
L112538 53356
L112489 53308
L112465 53259
L112440 53161
L112440 53088
L112465 52991
L112489 52942
L112538 52893
L112611 52869
L112660 52869
L112733 52893
L112757 52918
" />
</g>
<g style="fill:#000000; fill-opacity:0.0; 
stroke:#000000; stroke-width:39.3701; stroke-opacity:1; 
stroke-linecap:round; stroke-linejoin:round;">
</g>
<g style="fill:#000000; fill-opacity:0.0; 
stroke:#000000; stroke-width:59.0551; stroke-opacity:1; 
stroke-linecap:round; stroke-linejoin:round;">
<text x="112599" y="73090.6"
textLength="570.866" font-size="682.415" lengthAdjust="spacingAndGlyphs"
text-anchor="middle" opacity="0">D</text>
<path d="M112465 73066
L112465 72554
L112587 72554
L112660 72578
L112708 72627
L112733 72676
L112757 72773
L112757 72846
L112733 72944
L112708 72993
L112660 73041
L112587 73066
L112465 73066
" />
</g>
<g style="fill:#000000; fill-opacity:0.0; 
stroke:#000000; stroke-width:39.3701; stroke-opacity:1; 
stroke-linecap:round; stroke-linejoin:round;">
</g>
<g style="fill:#000000; fill-opacity:0.0; 
stroke:#000000; stroke-width:59.0551; stroke-opacity:1; 
stroke-linecap:round; stroke-linejoin:round;">
<text x="78741" y="76321.7"
textLength="2758.72" font-size="787.402" lengthAdjust="spacingAndGlyphs"
text-anchor="start" opacity="0">Date: </text>
<path d="M78911 76293
L78911 75703
L79051 75703
L79136 75731
L79192 75787
L79220 75843
L79248 75956
L79248 76040
L79220 76153
L79192 76209
L79136 76265
L79051 76293
L78911 76293
" />
<path d="M79754 76293
L79754 75984
L79726 75928
L79670 75899
L79557 75899
L79501 75928
" />
<path d="M79754 76265
L79698 76293
L79557 76293
L79501 76265
L79473 76209
L79473 76153
L79501 76096
L79557 76068
L79698 76068
L79754 76040
" />
<path d="M79951 75899
L80176 75899
" />
<path d="M80036 75703
L80036 76209
L80064 76265
L80120 76293
L80176 76293
" />
<path d="M80598 76265
L80542 76293
L80429 76293
L80373 76265
L80345 76209
L80345 75984
L80373 75928
L80429 75899
L80542 75899
L80598 75928
L80626 75984
L80626 76040
L80345 76096
" />
<path d="M80879 76237
L80907 76265
L80879 76293
L80851 76265
L80879 76237
L80879 76293
" />
<path d="M80879 75928
L80907 75956
L80879 75984
L80851 75956
L80879 75928
L80879 75984
" />
</g>
<g style="fill:#000000; fill-opacity:0.0; 
stroke:#000000; stroke-width:39.3701; stroke-opacity:1; 
stroke-linecap:round; stroke-linejoin:round;">
</g>
<g style="fill:#000000; fill-opacity:0.0; 
stroke:#000000; stroke-width:59.0551; stroke-opacity:1; 
stroke-linecap:round; stroke-linejoin:round;">
<path d="M69685 76577
L112205 76577
" />
</g>
<g style="fill:#000000; fill-opacity:0.0; 
stroke:#000000; stroke-width:39.3701; stroke-opacity:1; 
stroke-linecap:round; stroke-linejoin:round;">
</g>
<g style="fill:#000000; fill-opacity:0.0; 
stroke:#000000; stroke-width:59.0551; stroke-opacity:1; 
stroke-linecap:round; stroke-linejoin:round;">
<text x="70079.6" y="77424.1"
textLength="14091.7" font-size="787.402" lengthAdjust="spacingAndGlyphs"
text-anchor="start" opacity="0">KiCad E.D.A.  kicad (5.1.10)-1</text>
<path d="M70249 77395
L70249 76805
" />
<path d="M70587 77395
L70334 77058
" />
<path d="M70587 76805
L70249 77142
" />
<path d="M70840 77395
L70840 77002
" />
<path d="M70840 76805
L70812 76833
L70840 76861
L70868 76833
L70840 76805
L70840 76861
" />
<path d="M71458 77339
L71430 77367
L71346 77395
L71290 77395
L71205 77367
L71149 77311
L71121 77255
L71093 77142
L71093 77058
L71121 76946
L71149 76889
L71205 76833
L71290 76805
L71346 76805
L71430 76833
L71458 76861
" />
<path d="M71965 77395
L71965 77086
L71937 77030
L71880 77002
L71768 77002
L71712 77030
" />
<path d="M71965 77367
L71908 77395
L71768 77395
L71712 77367
L71683 77311
L71683 77255
L71712 77199
L71768 77171
L71908 77171
L71965 77142
" />
<path d="M72499 77395
L72499 76805
" />
<path d="M72499 77367
L72443 77395
L72330 77395
L72274 77367
L72246 77339
L72218 77283
L72218 77114
L72246 77058
L72274 77030
L72330 77002
L72443 77002
L72499 77030
" />
<path d="M73230 77086
L73427 77086
" />
<path d="M73511 77395
L73230 77395
L73230 76805
L73511 76805
" />
<path d="M73764 77339
L73793 77367
L73764 77395
L73736 77367
L73764 77339
L73764 77395
" />
<path d="M74046 77395
L74046 76805
L74186 76805
L74271 76833
L74327 76889
L74355 76946
L74383 77058
L74383 77142
L74355 77255
L74327 77311
L74271 77367
L74186 77395
L74046 77395
" />
<path d="M74636 77339
L74664 77367
L74636 77395
L74608 77367
L74636 77339
L74636 77395
" />
<path d="M74889 77227
L75171 77227
" />
<path d="M74833 77395
L75030 76805
L75227 77395
" />
<path d="M75424 77339
L75452 77367
L75424 77395
L75395 77367
L75424 77339
L75424 77395
" />
<path d="M76605 77395
L76605 76805
" />
<path d="M76661 77171
L76830 77395
" />
<path d="M76830 77002
L76605 77227
" />
<path d="M77083 77395
L77083 77002
" />
<path d="M77083 76805
L77055 76833
L77083 76861
L77111 76833
L77083 76805
L77083 76861
" />
<path d="M77617 77367
L77561 77395
L77448 77395
L77392 77367
L77364 77339
L77336 77283
L77336 77114
L77364 77058
L77392 77030
L77448 77002
L77561 77002
L77617 77030
" />
<path d="M78123 77395
L78123 77086
L78095 77030
L78039 77002
L77926 77002
L77870 77030
" />
<path d="M78123 77367
L78067 77395
L77926 77395
L77870 77367
L77842 77311
L77842 77255
L77870 77199
L77926 77171
L78067 77171
L78123 77142
" />
<path d="M78658 77395
L78658 76805
" />
<path d="M78658 77367
L78601 77395
L78489 77395
L78433 77367
L78404 77339
L78376 77283
L78376 77114
L78404 77058
L78433 77030
L78489 77002
L78601 77002
L78658 77030
" />
<path d="M79557 77620
L79529 77592
L79473 77508
L79445 77452
L79417 77367
L79389 77227
L79389 77114
L79417 76974
L79445 76889
L79473 76833
L79529 76749
L79557 76721
" />
<path d="M80064 76805
L79782 76805
L79754 77086
L79782 77058
L79839 77030
L79979 77030
L80036 77058
L80064 77086
L80092 77142
L80092 77283
L80064 77339
L80036 77367
L79979 77395
L79839 77395
L79782 77367
L79754 77339
" />
<path d="M80345 77339
L80373 77367
L80345 77395
L80317 77367
L80345 77339
L80345 77395
" />
<path d="M80935 77395
L80598 77395
" />
<path d="M80767 77395
L80767 76805
L80710 76889
L80654 76946
L80598 76974
" />
<path d="M81188 77339
L81217 77367
L81188 77395
L81160 77367
L81188 77339
L81188 77395
" />
<path d="M81779 77395
L81442 77395
" />
<path d="M81610 77395
L81610 76805
L81554 76889
L81498 76946
L81442 76974
" />
<path d="M82145 76805
L82201 76805
L82257 76833
L82285 76861
L82313 76917
L82341 77030
L82341 77171
L82313 77283
L82285 77339
L82257 77367
L82201 77395
L82145 77395
L82088 77367
L82060 77339
L82032 77283
L82004 77171
L82004 77030
L82032 76917
L82060 76861
L82088 76833
L82145 76805
" />
<path d="M82538 77620
L82566 77592
L82623 77508
L82651 77452
L82679 77367
L82707 77227
L82707 77114
L82679 76974
L82651 76889
L82623 76833
L82566 76749
L82538 76721
" />
<path d="M82988 77171
L83438 77171
" />
<path d="M84029 77395
L83691 77395
" />
<path d="M83860 77395
L83860 76805
L83804 76889
L83748 76946
L83691 76974
" />
</g>
<g style="fill:#000000; fill-opacity:0.0; 
stroke:#000000; stroke-width:39.3701; stroke-opacity:1; 
stroke-linecap:round; stroke-linejoin:round;">
</g>
<g style="fill:#000000; fill-opacity:0.0; 
stroke:#000000; stroke-width:59.0551; stroke-opacity:1; 
stroke-linecap:round; stroke-linejoin:round;">
<path d="M69685 75396
L112205 75396
" />
</g>
<g style="fill:#000000; fill-opacity:0.0; 
stroke:#000000; stroke-width:39.3701; stroke-opacity:1; 
stroke-linecap:round; stroke-linejoin:round;">
</g>
<g style="fill:#000000; fill-opacity:0.0; 
stroke:#000000; stroke-width:118.11; stroke-opacity:1; 
stroke-linecap:round; stroke-linejoin:round;">
<text x="103544" y="76321.7"
textLength="2336.9" font-size="787.402" lengthAdjust="spacingAndGlyphs"
text-anchor="start" opacity="0">Rev: </text>
<path d="M104099 76293
L103902 76012
" />
<path d="M103761 76293
L103761 75703
L103986 75703
L104042 75731
L104070 75759
L104099 75815
L104099 75899
L104070 75956
L104042 75984
L103986 76012
L103761 76012
" />
<path d="M104577 76265
L104520 76293
L104408 76293
L104352 76265
L104323 76209
L104323 75984
L104352 75928
L104408 75899
L104520 75899
L104577 75928
L104605 75984
L104605 76040
L104323 76096
" />
<path d="M104802 75899
L104942 76293
L105083 75899
" />
<path d="M105308 76237
L105336 76265
L105308 76293
L105280 76265
L105308 76237
L105308 76293
" />
<path d="M105308 75928
L105336 75956
L105308 75984
L105280 75956
L105308 75928
L105308 75984
" />
</g>
<g style="fill:#000000; fill-opacity:0.0; 
stroke:#000000; stroke-width:39.3701; stroke-opacity:1; 
stroke-linecap:round; stroke-linejoin:round;">
</g>
<g style="fill:#000000; fill-opacity:0.0; 
stroke:#000000; stroke-width:59.0551; stroke-opacity:1; 
stroke-linecap:round; stroke-linejoin:round;">
<text x="70079.6" y="76321.7"
textLength="3781.21" font-size="787.402" lengthAdjust="spacingAndGlyphs"
text-anchor="start" opacity="0">Size: A4</text>
<path d="M70221 76265
L70305 76293
L70446 76293
L70502 76265
L70530 76237
L70559 76181
L70559 76124
L70530 76068
L70502 76040
L70446 76012
L70334 75984
L70277 75956
L70249 75928
L70221 75871
L70221 75815
L70249 75759
L70277 75731
L70334 75703
L70474 75703
L70559 75731
" />
<path d="M70812 76293
L70812 75899
" />
<path d="M70812 75703
L70784 75731
L70812 75759
L70840 75731
L70812 75703
L70812 75759
" />
<path d="M71037 75899
L71346 75899
L71037 76293
L71346 76293
" />
<path d="M71796 76265
L71740 76293
L71627 76293
L71571 76265
L71543 76209
L71543 75984
L71571 75928
L71627 75899
L71740 75899
L71796 75928
L71824 75984
L71824 76040
L71543 76096
" />
<path d="M72077 76237
L72105 76265
L72077 76293
L72049 76265
L72077 76237
L72077 76293
" />
<path d="M72077 75928
L72105 75956
L72077 75984
L72049 75956
L72077 75928
L72077 75984
" />
<path d="M72780 76124
L73061 76124
" />
<path d="M72724 76293
L72921 75703
L73118 76293
" />
<path d="M73568 75899
L73568 76293
" />
<path d="M73427 75674
L73286 76096
L73652 76096
" />
</g>
<g style="fill:#000000; fill-opacity:0.0; 
stroke:#000000; stroke-width:39.3701; stroke-opacity:1; 
stroke-linecap:round; stroke-linejoin:round;">
</g>
<g style="fill:#000000; fill-opacity:0.0; 
stroke:#000000; stroke-width:59.0551; stroke-opacity:1; 
stroke-linecap:round; stroke-linejoin:round;">
<text x="103544" y="77424.1"
textLength="3349.27" font-size="787.402" lengthAdjust="spacingAndGlyphs"
text-anchor="start" opacity="0">Id: 1/1</text>
<path d="M103714 77395
L103714 76805
" />
<path d="M104248 77395
L104248 76805
" />
<path d="M104248 77367
L104192 77395
L104079 77395
L104023 77367
L103995 77339
L103967 77283
L103967 77114
L103995 77058
L104023 77030
L104079 77002
L104192 77002
L104248 77030
" />
<path d="M104529 77339
L104557 77367
L104529 77395
L104501 77367
L104529 77339
L104529 77395
" />
<path d="M104529 77030
L104557 77058
L104529 77086
L104501 77058
L104529 77030
L104529 77086
" />
<path d="M105570 77395
L105232 77395
" />
<path d="M105401 77395
L105401 76805
L105345 76889
L105289 76946
L105232 76974
" />
<path d="M106245 76777
L105739 77536
" />
<path d="M106751 77395
L106413 77395
" />
<path d="M106582 77395
L106582 76805
L106526 76889
L106470 76946
L106413 76974
" />
</g>
<g style="fill:#000000; fill-opacity:0.0; 
stroke:#000000; stroke-width:39.3701; stroke-opacity:1; 
stroke-linecap:round; stroke-linejoin:round;">
</g>
<g style="fill:#000000; fill-opacity:0.0; 
stroke:#000000; stroke-width:59.0551; stroke-opacity:1; 
stroke-linecap:round; stroke-linejoin:round;">
<path d="M69685 73821
L112205 73821
" />
</g>
<g style="fill:#000000; fill-opacity:0.0; 
stroke:#000000; stroke-width:39.3701; stroke-opacity:1; 
stroke-linecap:round; stroke-linejoin:round;">
</g>
<g style="fill:#000000; fill-opacity:0.0; 
stroke:#000000; stroke-width:157.48; stroke-opacity:1; 
stroke-linecap:round; stroke-linejoin:round;">
<text x="70079.6" y="74924.1"
textLength="3701.14" font-size="1049.87" lengthAdjust="spacingAndGlyphs"
text-anchor="start" opacity="0">Title: </text>
<path d="M70360 74099
L70810 74099
" />
<path d="M70486 74886
L70585 74099
" />
<path d="M70974 74886
L71039 74361
" />
<path d="M71072 74099
L71030 74136
L71063 74174
L71105 74136
L71072 74099
L71063 74174
" />
<path d="M71302 74361
L71602 74361
" />
<path d="M71447 74099
L71363 74774
L71391 74849
L71461 74886
L71536 74886
" />
<path d="M71911 74886
L71841 74849
L71813 74774
L71897 74099
" />
<path d="M72516 74849
L72436 74886
L72286 74886
L72216 74849
L72187 74774
L72225 74474
L72272 74399
L72352 74361
L72501 74361
L72572 74399
L72600 74474
L72591 74549
L72206 74624
" />
<path d="M72895 74811
L72928 74849
L72886 74886
L72853 74849
L72895 74811
L72886 74886
" />
<path d="M72947 74399
L72980 74436
L72937 74474
L72905 74436
L72947 74399
L72937 74474
" />
</g>
<g style="fill:#000000; fill-opacity:0.0; 
stroke:#000000; stroke-width:39.3701; stroke-opacity:1; 
stroke-linecap:round; stroke-linejoin:round;">
</g>
<g style="fill:#000000; fill-opacity:0.0; 
stroke:#000000; stroke-width:59.0551; stroke-opacity:1; 
stroke-linecap:round; stroke-linejoin:round;">
<text x="70079.6" y="73408.3"
textLength="12634.4" font-size="787.402" lengthAdjust="spacingAndGlyphs"
text-anchor="start" opacity="0">File: BedoPadPcb.kicad_pcb</text>
<path d="M70446 73070
L70249 73070
" />
<path d="M70249 73380
L70249 72789
L70530 72789
" />
<path d="M70755 73380
L70755 72986
" />
<path d="M70755 72789
L70727 72817
L70755 72845
L70784 72817
L70755 72789
L70755 72845
" />
<path d="M71121 73380
L71065 73352
L71037 73295
L71037 72789
" />
<path d="M71571 73352
L71515 73380
L71402 73380
L71346 73352
L71318 73295
L71318 73070
L71346 73014
L71402 72986
L71515 72986
L71571 73014
L71599 73070
L71599 73127
L71318 73183
" />
<path d="M71852 73323
L71880 73352
L71852 73380
L71824 73352
L71852 73323
L71852 73380
" />
<path d="M71852 73014
L71880 73042
L71852 73070
L71824 73042
L71852 73014
L71852 73070
" />
<path d="M72780 73070
L72865 73099
L72893 73127
L72921 73183
L72921 73267
L72893 73323
L72865 73352
L72808 73380
L72583 73380
L72583 72789
L72780 72789
L72836 72817
L72865 72845
L72893 72902
L72893 72958
L72865 73014
L72836 73042
L72780 73070
L72583 73070
" />
<path d="M73399 73352
L73343 73380
L73230 73380
L73174 73352
L73146 73295
L73146 73070
L73174 73014
L73230 72986
L73343 72986
L73399 73014
L73427 73070
L73427 73127
L73146 73183
" />
<path d="M73933 73380
L73933 72789
" />
<path d="M73933 73352
L73877 73380
L73764 73380
L73708 73352
L73680 73323
L73652 73267
L73652 73099
L73680 73042
L73708 73014
L73764 72986
L73877 72986
L73933 73014
" />
<path d="M74299 73380
L74242 73352
L74214 73323
L74186 73267
L74186 73099
L74214 73042
L74242 73014
L74299 72986
L74383 72986
L74439 73014
L74467 73042
L74496 73099
L74496 73267
L74467 73323
L74439 73352
L74383 73380
L74299 73380
" />
<path d="M74749 73380
L74749 72789
L74974 72789
L75030 72817
L75058 72845
L75086 72902
L75086 72986
L75058 73042
L75030 73070
L74974 73099
L74749 73099
" />
<path d="M75592 73380
L75592 73070
L75564 73014
L75508 72986
L75395 72986
L75339 73014
" />
<path d="M75592 73352
L75536 73380
L75395 73380
L75339 73352
L75311 73295
L75311 73239
L75339 73183
L75395 73155
L75536 73155
L75592 73127
" />
<path d="M76127 73380
L76127 72789
" />
<path d="M76127 73352
L76070 73380
L75958 73380
L75902 73352
L75874 73323
L75845 73267
L75845 73099
L75874 73042
L75902 73014
L75958 72986
L76070 72986
L76127 73014
" />
<path d="M76408 73380
L76408 72789
L76633 72789
L76689 72817
L76717 72845
L76745 72902
L76745 72986
L76717 73042
L76689 73070
L76633 73099
L76408 73099
" />
<path d="M77251 73352
L77195 73380
L77083 73380
L77027 73352
L76998 73323
L76970 73267
L76970 73099
L76998 73042
L77027 73014
L77083 72986
L77195 72986
L77251 73014
" />
<path d="M77505 73380
L77505 72789
" />
<path d="M77505 73014
L77561 72986
L77673 72986
L77730 73014
L77758 73042
L77786 73099
L77786 73267
L77758 73323
L77730 73352
L77673 73380
L77561 73380
L77505 73352
" />
<path d="M78039 73323
L78067 73352
L78039 73380
L78011 73352
L78039 73323
L78039 73380
" />
<path d="M78320 73380
L78320 72789
" />
<path d="M78376 73155
L78545 73380
" />
<path d="M78545 72986
L78320 73211
" />
<path d="M78798 73380
L78798 72986
" />
<path d="M78798 72789
L78770 72817
L78798 72845
L78826 72817
L78798 72789
L78798 72845
" />
<path d="M79332 73352
L79276 73380
L79164 73380
L79108 73352
L79079 73323
L79051 73267
L79051 73099
L79079 73042
L79108 73014
L79164 72986
L79276 72986
L79332 73014
" />
<path d="M79839 73380
L79839 73070
L79811 73014
L79754 72986
L79642 72986
L79586 73014
" />
<path d="M79839 73352
L79782 73380
L79642 73380
L79586 73352
L79557 73295
L79557 73239
L79586 73183
L79642 73155
L79782 73155
L79839 73127
" />
<path d="M80373 73380
L80373 72789
" />
<path d="M80373 73352
L80317 73380
L80204 73380
L80148 73352
L80120 73323
L80092 73267
L80092 73099
L80120 73042
L80148 73014
L80204 72986
L80317 72986
L80373 73014
" />
<path d="M80514 73436
L80964 73436
" />
<path d="M81104 72986
L81104 73577
" />
<path d="M81104 73014
L81160 72986
L81273 72986
L81329 73014
L81357 73042
L81385 73099
L81385 73267
L81357 73323
L81329 73352
L81273 73380
L81160 73380
L81104 73352
" />
<path d="M81892 73352
L81835 73380
L81723 73380
L81667 73352
L81638 73323
L81610 73267
L81610 73099
L81638 73042
L81667 73014
L81723 72986
L81835 72986
L81892 73014
" />
<path d="M82145 73380
L82145 72789
" />
<path d="M82145 73014
L82201 72986
L82313 72986
L82370 73014
L82398 73042
L82426 73099
L82426 73267
L82398 73323
L82370 73352
L82313 73380
L82201 73380
L82145 73352
" />
</g>
<g style="fill:#000000; fill-opacity:0.0; 
stroke:#000000; stroke-width:39.3701; stroke-opacity:1; 
stroke-linecap:round; stroke-linejoin:round;">
</g>
<g style="fill:#000000; fill-opacity:0.0; 
stroke:#000000; stroke-width:59.0551; stroke-opacity:1; 
stroke-linecap:round; stroke-linejoin:round;">
<path d="M69685 71459
L112205 71459
" />
</g>
<g style="fill:#000000; fill-opacity:0.0; 
stroke:#000000; stroke-width:39.3701; stroke-opacity:1; 
stroke-linecap:round; stroke-linejoin:round;">
</g>
<g style="fill:#000000; fill-opacity:0.0; 
stroke:#000000; stroke-width:59.0551; stroke-opacity:1; 
stroke-linecap:round; stroke-linejoin:round;">
<text x="70079.6" y="72345.4"
textLength="3236.78" font-size="787.402" lengthAdjust="spacingAndGlyphs"
text-anchor="start" opacity="0">Sheet: </text>
<path d="M70221 72289
L70305 72317
L70446 72317
L70502 72289
L70530 72260
L70559 72204
L70559 72148
L70530 72092
L70502 72064
L70446 72036
L70334 72007
L70277 71979
L70249 71951
L70221 71895
L70221 71839
L70249 71782
L70277 71754
L70334 71726
L70474 71726
L70559 71754
" />
<path d="M70812 72317
L70812 71726
" />
<path d="M71065 72317
L71065 72007
L71037 71951
L70980 71923
L70896 71923
L70840 71951
L70812 71979
" />
<path d="M71571 72289
L71515 72317
L71402 72317
L71346 72289
L71318 72232
L71318 72007
L71346 71951
L71402 71923
L71515 71923
L71571 71951
L71599 72007
L71599 72064
L71318 72120
" />
<path d="M72077 72289
L72021 72317
L71908 72317
L71852 72289
L71824 72232
L71824 72007
L71852 71951
L71908 71923
L72021 71923
L72077 71951
L72105 72007
L72105 72064
L71824 72120
" />
<path d="M72274 71923
L72499 71923
" />
<path d="M72358 71726
L72358 72232
L72386 72289
L72443 72317
L72499 72317
" />
<path d="M72696 72260
L72724 72289
L72696 72317
L72668 72289
L72696 72260
L72696 72317
" />
<path d="M72696 71951
L72724 71979
L72696 72007
L72668 71979
L72696 71951
L72696 72007
" />
</g>
<g style="fill:#000000; fill-opacity:0.0; 
stroke:#000000; stroke-width:39.3701; stroke-opacity:1; 
stroke-linecap:round; stroke-linejoin:round;">
</g>
<g style="fill:#000000; fill-opacity:0.0; 
stroke:#000000; stroke-width:59.0551; stroke-opacity:1; 
stroke-linecap:round; stroke-linejoin:round;">
<path d="M77559 75396
L77559 76577
" />
</g>
<g style="fill:#000000; fill-opacity:0.0; 
stroke:#000000; stroke-width:39.3701; stroke-opacity:1; 
stroke-linecap:round; stroke-linejoin:round;">
</g>
<g style="fill:#000000; fill-opacity:0.0; 
stroke:#000000; stroke-width:59.0551; stroke-opacity:1; 
stroke-linecap:round; stroke-linejoin:round;">
<path d="M102756 75396
L102756 77955
" />
</g>
<g style="fill:#008484; fill-opacity:0.0; 
stroke:#008484; stroke-width:59.0551; stroke-opacity:1; 
stroke-linecap:round; stroke-linejoin:round;">
</g>
<g style="fill:#008484; fill-opacity:0.0; 
stroke:#008484; stroke-width:47.2441; stroke-opacity:1; 
stroke-linecap:round; stroke-linejoin:round;">
<path d="M16500 21900
L16500 21500
" />
<path d="M17350 21050
L16900 21050
" />
<path d="M17350 21900
L17350 21050
" />
<path d="M16500 21900
L17350 21900
" />
</g>
<g style="fill:#008484; fill-opacity:0.0; 
stroke:#008484; stroke-width:59.0551; stroke-opacity:1; 
stroke-linecap:round; stroke-linejoin:round;">
<g transform="rotate(-90 10800 23000)">
<text x="10800" y="23196.9"
textLength="1840.08" font-size="524.934" lengthAdjust="spacingAndGlyphs"
text-anchor="middle" opacity="0">RESET</text>
</g>
<path d="M10978 23571
L10790 23703
" />
<path d="M10978 23796
L10584 23796
L10584 23646
L10603 23609
L10621 23590
L10659 23571
L10715 23571
L10753 23590
L10771 23609
L10790 23646
L10790 23796
" />
<path d="M10771 23403
L10771 23271
" />
<path d="M10978 23215
L10978 23403
L10584 23403
L10584 23215
" />
<path d="M10959 23065
L10978 23009
L10978 22915
L10959 22878
L10940 22859
L10903 22840
L10865 22840
L10828 22859
L10809 22878
L10790 22915
L10771 22990
L10753 23028
L10734 23046
L10696 23065
L10659 23065
L10621 23046
L10603 23028
L10584 22990
L10584 22896
L10603 22840
" />
<path d="M10771 22671
L10771 22540
" />
<path d="M10978 22484
L10978 22671
L10584 22671
L10584 22484
" />
<path d="M10584 22371
L10584 22146
" />
<path d="M10978 22259
L10584 22259
" />
<text x="21500" y="35446.9"
textLength="1276.62" font-size="524.934" lengthAdjust="spacingAndGlyphs"
text-anchor="middle" opacity="0">GND</text>
<path d="M21200 35053
L21162 35034
L21106 35034
L21050 35053
L21012 35090
L20993 35128
L20975 35203
L20975 35259
L20993 35334
L21012 35371
L21050 35409
L21106 35428
L21143 35428
L21200 35409
L21218 35390
L21218 35259
L21143 35259
" />
<path d="M21387 35428
L21387 35034
L21612 35428
L21612 35034
" />
<path d="M21799 35428
L21799 35034
L21893 35034
L21949 35053
L21987 35090
L22006 35128
L22024 35203
L22024 35259
L22006 35334
L21987 35371
L21949 35409
L21893 35428
L21799 35428
" />
</g>
<g style="fill:#008484; fill-opacity:0.0; 
stroke:#008484; stroke-width:47.2441; stroke-opacity:1; 
stroke-linecap:round; stroke-linejoin:round;">
<path d="M21000 34750
L21000 34000
" />
<path d="M22000 34750
L21000 34750
" />
<path d="M22000 34000
L22000 34750
" />
<path d="M21000 34000
L22000 34000
" />
</g>
<g style="fill:#008484; fill-opacity:1.0; 
stroke:#008484; stroke-width:3.93701; stroke-opacity:1; 
stroke-linecap:round; stroke-linejoin:round;">
<path style="fill:#008484; fill-opacity:1.0; 
stroke:#008484; stroke-width:3.93701; stroke-opacity:1; 
stroke-linecap:round; stroke-linejoin:round;fill-rule:evenodd;"
d="M 16313.8,57967.6
16328.6,57978.9
16347.9,57995.4
16357.7,58004.3
16402.4,58045.2
16384.1,58064.3
16371.6,58076.4
16363.1,58082.9
16361.9,58083.3
16355.8,58078.9
16342.7,58067
16324.7,58049.7
16313,58038
16268,57992.6
16283.6,57978
16296.5,57967.8
16306,57963.3
16306.1,57963.3
Z" /> 
<path style="fill:#008484; fill-opacity:1.0; 
stroke:#008484; stroke-width:3.93701; stroke-opacity:1; 
stroke-linecap:round; stroke-linejoin:round;fill-rule:evenodd;"
d="M 16228.6,58034.6
16242.2,58046.6
16259.5,58063.3
16277.9,58082.2
16294.9,58100.7
16308,58116
16314.7,58125.6
16315,58126.9
16310.1,58135.3
16298,58146.6
16295.7,58148.4
16276.4,58162.7
16227.9,58112
16179.4,58061.3
16197.6,58045.6
16211,58035.2
16220.5,58030.1
16221.3,58030
Z" /> 
<path style="fill:#008484; fill-opacity:1.0; 
stroke:#008484; stroke-width:3.93701; stroke-opacity:1; 
stroke-linecap:round; stroke-linejoin:round;fill-rule:evenodd;"
d="M 14115.3,58054.3
14129.2,58065.7
14148.2,58082.4
14161.2,58094.3
14209,58138.6
14190.8,58157.6
14178.3,58169.7
14169.7,58176.3
14168.6,58176.7
14162.5,58172.2
14149.3,58160.3
14131.3,58142.9
14118.5,58130.2
14072.4,58083.7
14088.2,58066.8
14100,58055.5
14108.1,58050.1
14108.7,58050
Z" /> 
<path style="fill:#008484; fill-opacity:1.0; 
stroke:#008484; stroke-width:3.93701; stroke-opacity:1; 
stroke-linecap:round; stroke-linejoin:round;fill-rule:evenodd;"
d="M 15301.9,58074.3
15315.9,58085.4
15333.8,58100.9
15352.6,58118.2
15369.9,58134.8
15382.7,58148.2
15388.3,58155.8
15388.3,58156.2
15383.5,58162.8
15371.6,58173.2
15369.3,58174.9
15350.3,58189
15302.2,58140.5
15254.1,58092.1
15271,58081.1
15285.1,58073.1
15294.5,58070
Z" /> 
<path style="fill:#008484; fill-opacity:1.0; 
stroke:#008484; stroke-width:3.93701; stroke-opacity:1; 
stroke-linecap:round; stroke-linejoin:round;fill-rule:evenodd;"
d="M 15126,58156.7
15125.5,58190
14581.7,58190
14581.7,58123.3
15126.4,58123.3
Z" /> 
<path style="fill:#008484; fill-opacity:1.0; 
stroke:#008484; stroke-width:3.93701; stroke-opacity:1; 
stroke-linecap:round; stroke-linejoin:round;fill-rule:evenodd;"
d="M 13044.8,58081
13058.5,58092.7
13077,58109.7
13089.1,58121.2
13135.2,58165.7
13117.2,58184.5
13104.8,58196.3
13096.5,58202.4
13095.4,58202.6
13089.4,58197.9
13076.3,58185.6
13058,58167.9
13043.2,58153.2
12994.7,58104.4
13014.2,58090.6
13028.3,58081.3
13037.6,58076.8
13038.3,58076.7
Z" /> 
<path style="fill:#008484; fill-opacity:1.0; 
stroke:#008484; stroke-width:3.93701; stroke-opacity:1; 
stroke-linecap:round; stroke-linejoin:round;fill-rule:evenodd;"
d="M 14077.6,58166.6
14098.1,58187.7
14113.9,58205.7
14123.3,58218.4
14125,58223.3
14117.3,58231.1
14103.7,58241.4
14103.1,58241.8
14085,58254.3
14036.8,58203.2
13988.6,58152.2
14007.6,58134.1
14026.5,58116
Z" /> 
<path style="fill:#008484; fill-opacity:1.0; 
stroke:#008484; stroke-width:3.93701; stroke-opacity:1; 
stroke-linecap:round; stroke-linejoin:round;fill-rule:evenodd;"
d="M 15256.4,58182.5
15305,58228.8
15288.8,58246.1
15277.1,58257.6
15269.3,58263.2
15268.7,58263.3
15262.6,58258.9
15249.5,58246.8
15231.3,58229.3
15217.2,58215
15169.6,58166.7
15188.7,58151.4
15207.8,58136.1
Z" /> 
<path style="fill:#008484; fill-opacity:1.0; 
stroke:#008484; stroke-width:3.93701; stroke-opacity:1; 
stroke-linecap:round; stroke-linejoin:round;fill-rule:evenodd;"
d="M 12980.3,58168.9
12998.6,58184.7
13017.7,58203.1
13035.2,58221.6
13048.4,58237.3
13054.8,58247.6
13055,58248.8
13050.4,58255.2
13039.4,58265.3
13026.6,58275.4
13016.4,58281.9
13013.6,58282.6
13008.5,58277.8
12996.2,58265.3
12978.9,58247.4
12964.7,58232.5
12917.7,58183.2
12936,58165.7
12954.2,58148.3
Z" /> 
<path style="fill:#008484; fill-opacity:1.0; 
stroke:#008484; stroke-width:3.93701; stroke-opacity:1; 
stroke-linecap:round; stroke-linejoin:round;fill-rule:evenodd;"
d="M 13871,58361.2
13892.6,58373.2
13919.8,58390.1
13950.3,58410.4
13982.2,58432.5
14013.2,58454.8
14041.3,58476
14064.4,58494.4
14080.4,58508.5
14087,58516.6
14083.2,58522.7
14072.6,58533.5
14058.6,58546
14045.1,58556.7
14035.6,58562.7
14034,58563
14028.2,58558.8
14014.7,58548
13996.1,58532.6
13988.3,58526.1
13964.7,58507.2
13934.2,58484.2
13901.1,58460.3
13875,58442.2
13848.7,58423.8
13827.3,58407.8
13812.6,58395.6
13806.8,58388.9
13806.8,58388.5
13811.7,58379.4
13821.4,58365.2
13822.8,58363.2
13836.9,58344.1
Z" /> 
<path style="fill:#008484; fill-opacity:1.0; 
stroke:#008484; stroke-width:3.93701; stroke-opacity:1; 
stroke-linecap:round; stroke-linejoin:round;fill-rule:evenodd;"
d="M 12697.6,58255.2
12706.2,58259.2
12723.3,58268.7
12745.4,58283.3
12773.5,58304
12808.8,58331.4
12852.3,58366.4
12885,58393.3
12960.5,58453.9
13028.2,58504.9
13089,58546.6
13143.6,58579.6
13192.7,58604.5
13222.3,58616.6
13244.1,58624.8
13260.5,58631.2
13267.9,58634.6
13267.9,58634.6
13265.5,58640.2
13256,58651.6
13242.3,58665.9
13227.5,58680.1
13214.3,58691.2
13205.9,58696.5
13205.3,58696.6
13195.6,58693.3
13180,58685.2
13175,58682.2
13125.5,58651.2
13077,58618.9
13027.1,58583.4
12973.4,58543.2
12913.4,58496.3
12883.6,58472.5
12844.6,58441.5
12807.4,58412.5
12773.9,58386.8
12745.6,58365.7
12724.3,58350.6
12712.1,58342.8
12693.5,58333.8
12681.3,58331.1
12670.3,58334
12665.3,58336.5
12655.9,58343.8
12638.7,58359.1
12615.3,58381.3
12587,58408.7
12555.5,58440
12531.2,58464.6
12499,58497.1
12469.9,58526.3
12445.1,58550.7
12426,58569.2
12413.8,58580.4
12410,58583.3
12403.2,58579
12390.2,58567.8
12377.1,58555.5
12348.7,58527.6
12383.5,58504.4
12398.7,58492.7
12421.2,58473.3
12449.1,58447.9
12480.3,58418.3
12512.9,58386.4
12522.3,58377.1
12564.1,58336.1
12599.3,58303.2
12627.3,58279
12647.6,58264
12654.2,58260.4
12672.2,58253
12684.5,58251.3
Z" /> 
<path style="fill:#008484; fill-opacity:1.0; 
stroke:#008484; stroke-width:3.93701; stroke-opacity:1; 
stroke-linecap:round; stroke-linejoin:round;fill-rule:evenodd;"
d="M 15268.3,58409.8
15086.7,58411.6
14905,58413.3
14900.6,58470
14889.6,58550
14868.9,58621.6
14838.1,58686.2
14796.4,58745.4
14764.6,58780.1
14743.7,58799.4
14718.4,58820.4
14691.7,58840.8
14666.9,58858.2
14647.2,58870.2
14640.1,58873.4
14630.8,58871.1
14615.9,58861.7
14605,58852.9
14591.5,58839.4
14584.8,58829.5
14585.3,58826.1
14594.2,58821.4
14611.1,58811.9
14632.4,58799.4
14634.4,58798.2
14685.5,58761
14731.4,58713.8
14770.6,58659.1
14801.7,58599.4
14823.4,58537.2
14834.1,58474.9
14835,58451.9
14835,58410
14448.3,58410
14448.3,58350
15268.3,58350
Z" /> 
<path style="fill:#008484; fill-opacity:1.0; 
stroke:#008484; stroke-width:3.93701; stroke-opacity:1; 
stroke-linecap:round; stroke-linejoin:round;fill-rule:evenodd;"
d="M 16191.1,58166.2
16204.1,58173.7
16221.5,58188.5
16221.7,58188.7
16251.7,58215.5
16239.6,58234.4
16229.8,58251.8
16218.5,58274.8
16213.2,58286.7
16188.1,58341.9
16159.6,58399.5
16129.9,58455.7
16100.9,58506.7
16076.3,58545.9
16043.8,58590.7
16003.7,58639.2
15959.6,58687.8
15914.7,58732.8
15872.4,58770.6
15864.6,58777
15841.4,58794.5
15814,58813.9
15784.9,58833.4
15756.4,58851.7
15731.1,58867.1
15711.2,58878.1
15699.2,58883.2
15697.9,58883.3
15689.2,58878.5
15676.3,58866
15668.1,58856.4
15656.5,58840.8
15649.8,58830
15649.2,58827.2
15656,58823.2
15671.1,58815.3
15685.6,58807.9
15736.2,58779.2
15790.2,58742.7
15843.5,58701.7
15891.8,58659.2
15904.4,58646.9
15973,58570.5
16032.7,58487.6
16084.9,58396.3
16100.3,58365.1
16115.7,58332.1
16130,58300.1
16142,58271.5
16150.7,58248.9
16154.8,58235.1
16155,58233.2
16148.5,58232.5
16130,58232
16100.8,58231.4
16062,58231
16015,58230.6
15961.1,58230.3
15901.6,58230.1
15837.7,58230
15831.7,58230
15508.3,58230
15508.3,58170
15816.7,58169.9
15880.8,58169.8
15941.9,58169.6
15998.4,58169.2
16048.8,58168.7
16091.6,58168
16125.3,58167.3
16148.5,58166.6
16158.3,58165.9
16177.6,58164.2
Z" /> 
<path style="fill:#008484; fill-opacity:1.0; 
stroke:#008484; stroke-width:3.93701; stroke-opacity:1; 
stroke-linecap:round; stroke-linejoin:round;fill-rule:evenodd;"
d="M 13750,58079.6
13770.3,58082.9
13784.5,58086.7
13788.3,58088.7
13788.9,58096.1
13789.4,58115.5
13789.8,58146
13790,58186.2
13790.2,58235.1
13790.3,58291.4
13790.2,58354
13790,58421.7
13789.7,58488.3
13787.8,58883.3
13715,58883.3
13715,58074.9
Z" /> 
</g>
<g style="fill:#008484; fill-opacity:1.0; 
stroke:#008484; stroke-width:80; stroke-opacity:1; 
stroke-linecap:round; stroke-linejoin:round;">
</g>
<g style="fill:#008484; fill-opacity:0.0; 
stroke:#008484; stroke-width:80; stroke-opacity:1; 
stroke-linecap:round; stroke-linejoin:round;">
<path d="M24237 42525
L25137 42525
" />
<path d="M24237 43725
L24237 42525
" />
<path d="M25137 43725
L24237 43725
" />
<path d="M25137 42525
L25137 43725
" />
</g>
<g style="fill:#008484; fill-opacity:0.0; 
stroke:#008484; stroke-width:59.0551; stroke-opacity:1; 
stroke-linecap:round; stroke-linejoin:round;">
<path d="M24254 43636
L25081 43636
" />
<path d="M25120 43636
L25081 43636
" />
<path d="M25081 43636
L25120 43636
" />
<path d="M25120 43558
L24254 43558
" />
<path d="M24254 43479
L25120 43479
" />
</g>
<g style="fill:#008484; fill-opacity:0.0; 
stroke:#008484; stroke-width:80; stroke-opacity:1; 
stroke-linecap:round; stroke-linejoin:round;">
<path d="M19237 53462
L20137 53462
" />
<path d="M19237 54662
L19237 53462
" />
<path d="M20137 54662
L19237 54662
" />
<path d="M20137 53462
L20137 54662
" />
</g>
<g style="fill:#008484; fill-opacity:0.0; 
stroke:#008484; stroke-width:59.0551; stroke-opacity:1; 
stroke-linecap:round; stroke-linejoin:round;">
<path d="M19254 54574
L20081 54574
" />
<path d="M20120 54574
L20081 54574
" />
<path d="M20081 54574
L20120 54574
" />
<path d="M20120 54495
L19254 54495
" />
<path d="M19254 54416
L20120 54416
" />
</g>
<g style="fill:#008484; fill-opacity:0.0; 
stroke:#008484; stroke-width:80; stroke-opacity:1; 
stroke-linecap:round; stroke-linejoin:round;">
<path d="M26737 53462
L27637 53462
" />
<path d="M26737 54662
L26737 53462
" />
<path d="M27637 54662
L26737 54662
" />
<path d="M27637 53462
L27637 54662
" />
</g>
<g style="fill:#008484; fill-opacity:0.0; 
stroke:#008484; stroke-width:59.0551; stroke-opacity:1; 
stroke-linecap:round; stroke-linejoin:round;">
<path d="M26754 54574
L27581 54574
" />
<path d="M27620 54574
L27581 54574
" />
<path d="M27581 54574
L27620 54574
" />
<path d="M27620 54495
L26754 54495
" />
<path d="M26754 54416
L27620 54416
" />
</g>
<g style="fill:#008484; fill-opacity:0.0; 
stroke:#008484; stroke-width:80; stroke-opacity:1; 
stroke-linecap:round; stroke-linejoin:round;">
<path d="M41737 23462
L42637 23462
" />
<path d="M41737 24662
L41737 23462
" />
<path d="M42637 24662
L41737 24662
" />
<path d="M42637 23462
L42637 24662
" />
</g>
<g style="fill:#008484; fill-opacity:0.0; 
stroke:#008484; stroke-width:59.0551; stroke-opacity:1; 
stroke-linecap:round; stroke-linejoin:round;">
<path d="M41754 24574
L42581 24574
" />
<path d="M42620 24574
L42581 24574
" />
<path d="M42581 24574
L42620 24574
" />
<path d="M42620 24495
L41754 24495
" />
<path d="M41754 24416
L42620 24416
" />
</g>
<g style="fill:#008484; fill-opacity:0.0; 
stroke:#008484; stroke-width:80; stroke-opacity:1; 
stroke-linecap:round; stroke-linejoin:round;">
<path d="M41737 30962
L42637 30962
" />
<path d="M41737 32162
L41737 30962
" />
<path d="M42637 32162
L41737 32162
" />
<path d="M42637 30962
L42637 32162
" />
</g>
<g style="fill:#008484; fill-opacity:0.0; 
stroke:#008484; stroke-width:59.0551; stroke-opacity:1; 
stroke-linecap:round; stroke-linejoin:round;">
<path d="M41754 32074
L42581 32074
" />
<path d="M42620 32074
L42581 32074
" />
<path d="M42581 32074
L42620 32074
" />
<path d="M42620 31995
L41754 31995
" />
<path d="M41754 31916
L42620 31916
" />
</g>
<g style="fill:#008484; fill-opacity:0.0; 
stroke:#008484; stroke-width:80; stroke-opacity:1; 
stroke-linecap:round; stroke-linejoin:round;">
<path d="M41737 38462
L42637 38462
" />
<path d="M41737 39662
L41737 38462
" />
<path d="M42637 39662
L41737 39662
" />
<path d="M42637 38462
L42637 39662
" />
</g>
<g style="fill:#008484; fill-opacity:0.0; 
stroke:#008484; stroke-width:59.0551; stroke-opacity:1; 
stroke-linecap:round; stroke-linejoin:round;">
<path d="M41754 39574
L42581 39574
" />
<path d="M42620 39574
L42581 39574
" />
<path d="M42581 39574
L42620 39574
" />
<path d="M42620 39495
L41754 39495
" />
<path d="M41754 39416
L42620 39416
" />
</g>
<g style="fill:#008484; fill-opacity:0.0; 
stroke:#008484; stroke-width:80; stroke-opacity:1; 
stroke-linecap:round; stroke-linejoin:round;">
<path d="M41737 45962
L42637 45962
" />
<path d="M41737 47162
L41737 45962
" />
<path d="M42637 47162
L41737 47162
" />
<path d="M42637 45962
L42637 47162
" />
</g>
<g style="fill:#008484; fill-opacity:0.0; 
stroke:#008484; stroke-width:59.0551; stroke-opacity:1; 
stroke-linecap:round; stroke-linejoin:round;">
<path d="M41754 47074
L42581 47074
" />
<path d="M42620 47074
L42581 47074
" />
<path d="M42581 47074
L42620 47074
" />
<path d="M42620 46995
L41754 46995
" />
<path d="M41754 46916
L42620 46916
" />
</g>
<g style="fill:#008484; fill-opacity:0.0; 
stroke:#008484; stroke-width:80; stroke-opacity:1; 
stroke-linecap:round; stroke-linejoin:round;">
<path d="M41737 53462
L42637 53462
" />
<path d="M41737 54662
L41737 53462
" />
<path d="M42637 54662
L41737 54662
" />
<path d="M42637 53462
L42637 54662
" />
</g>
<g style="fill:#008484; fill-opacity:0.0; 
stroke:#008484; stroke-width:59.0551; stroke-opacity:1; 
stroke-linecap:round; stroke-linejoin:round;">
<path d="M41754 54574
L42581 54574
" />
<path d="M42620 54574
L42581 54574
" />
<path d="M42581 54574
L42620 54574
" />
<path d="M42620 54495
L41754 54495
" />
<path d="M41754 54416
L42620 54416
" />
</g>
<g style="fill:#008484; fill-opacity:0.0; 
stroke:#008484; stroke-width:80; stroke-opacity:1; 
stroke-linecap:round; stroke-linejoin:round;">
<path d="M49237 23462
L50137 23462
" />
<path d="M49237 24662
L49237 23462
" />
<path d="M50137 24662
L49237 24662
" />
<path d="M50137 23462
L50137 24662
" />
</g>
<g style="fill:#008484; fill-opacity:0.0; 
stroke:#008484; stroke-width:59.0551; stroke-opacity:1; 
stroke-linecap:round; stroke-linejoin:round;">
<path d="M49254 24574
L50081 24574
" />
<path d="M50120 24574
L50081 24574
" />
<path d="M50081 24574
L50120 24574
" />
<path d="M50120 24495
L49254 24495
" />
<path d="M49254 24416
L50120 24416
" />
</g>
<g style="fill:#008484; fill-opacity:0.0; 
stroke:#008484; stroke-width:80; stroke-opacity:1; 
stroke-linecap:round; stroke-linejoin:round;">
<path d="M49237 30962
L50137 30962
" />
<path d="M49237 32162
L49237 30962
" />
<path d="M50137 32162
L49237 32162
" />
<path d="M50137 30962
L50137 32162
" />
</g>
<g style="fill:#008484; fill-opacity:0.0; 
stroke:#008484; stroke-width:59.0551; stroke-opacity:1; 
stroke-linecap:round; stroke-linejoin:round;">
<path d="M49254 32074
L50081 32074
" />
<path d="M50120 32074
L50081 32074
" />
<path d="M50081 32074
L50120 32074
" />
<path d="M50120 31995
L49254 31995
" />
<path d="M49254 31916
L50120 31916
" />
</g>
<g style="fill:#008484; fill-opacity:0.0; 
stroke:#008484; stroke-width:80; stroke-opacity:1; 
stroke-linecap:round; stroke-linejoin:round;">
<path d="M49237 38462
L50137 38462
" />
<path d="M49237 39662
L49237 38462
" />
<path d="M50137 39662
L49237 39662
" />
<path d="M50137 38462
L50137 39662
" />
</g>
<g style="fill:#008484; fill-opacity:0.0; 
stroke:#008484; stroke-width:59.0551; stroke-opacity:1; 
stroke-linecap:round; stroke-linejoin:round;">
<path d="M49254 39574
L50081 39574
" />
<path d="M50120 39574
L50081 39574
" />
<path d="M50081 39574
L50120 39574
" />
<path d="M50120 39495
L49254 39495
" />
<path d="M49254 39416
L50120 39416
" />
</g>
<g style="fill:#008484; fill-opacity:0.0; 
stroke:#008484; stroke-width:80; stroke-opacity:1; 
stroke-linecap:round; stroke-linejoin:round;">
<path d="M49237 45962
L50137 45962
" />
<path d="M49237 47162
L49237 45962
" />
<path d="M50137 47162
L49237 47162
" />
<path d="M50137 45962
L50137 47162
" />
</g>
<g style="fill:#008484; fill-opacity:0.0; 
stroke:#008484; stroke-width:59.0551; stroke-opacity:1; 
stroke-linecap:round; stroke-linejoin:round;">
<path d="M49254 47074
L50081 47074
" />
<path d="M50120 47074
L50081 47074
" />
<path d="M50081 47074
L50120 47074
" />
<path d="M50120 46995
L49254 46995
" />
<path d="M49254 46916
L50120 46916
" />
</g>
<g style="fill:#008484; fill-opacity:0.0; 
stroke:#008484; stroke-width:80; stroke-opacity:1; 
stroke-linecap:round; stroke-linejoin:round;">
<path d="M49237 53462
L50137 53462
" />
<path d="M49237 54662
L49237 53462
" />
<path d="M50137 54662
L49237 54662
" />
<path d="M50137 53462
L50137 54662
" />
</g>
<g style="fill:#008484; fill-opacity:0.0; 
stroke:#008484; stroke-width:59.0551; stroke-opacity:1; 
stroke-linecap:round; stroke-linejoin:round;">
<path d="M49254 54574
L50081 54574
" />
<path d="M50120 54574
L50081 54574
" />
<path d="M50081 54574
L50120 54574
" />
<path d="M50120 54495
L49254 54495
" />
<path d="M49254 54416
L50120 54416
" />
</g>
<g style="fill:#008484; fill-opacity:0.0; 
stroke:#008484; stroke-width:80; stroke-opacity:1; 
stroke-linecap:round; stroke-linejoin:round;">
<path d="M56737 23462
L57637 23462
" />
<path d="M56737 24662
L56737 23462
" />
<path d="M57637 24662
L56737 24662
" />
<path d="M57637 23462
L57637 24662
" />
</g>
<g style="fill:#008484; fill-opacity:0.0; 
stroke:#008484; stroke-width:59.0551; stroke-opacity:1; 
stroke-linecap:round; stroke-linejoin:round;">
<path d="M56754 24574
L57581 24574
" />
<path d="M57620 24574
L57581 24574
" />
<path d="M57581 24574
L57620 24574
" />
<path d="M57620 24495
L56754 24495
" />
<path d="M56754 24416
L57620 24416
" />
</g>
<g style="fill:#008484; fill-opacity:0.0; 
stroke:#008484; stroke-width:80; stroke-opacity:1; 
stroke-linecap:round; stroke-linejoin:round;">
<path d="M56737 30962
L57637 30962
" />
<path d="M56737 32162
L56737 30962
" />
<path d="M57637 32162
L56737 32162
" />
<path d="M57637 30962
L57637 32162
" />
</g>
<g style="fill:#008484; fill-opacity:0.0; 
stroke:#008484; stroke-width:59.0551; stroke-opacity:1; 
stroke-linecap:round; stroke-linejoin:round;">
<path d="M56754 32074
L57581 32074
" />
<path d="M57620 32074
L57581 32074
" />
<path d="M57581 32074
L57620 32074
" />
<path d="M57620 31995
L56754 31995
" />
<path d="M56754 31916
L57620 31916
" />
</g>
<g style="fill:#008484; fill-opacity:0.0; 
stroke:#008484; stroke-width:80; stroke-opacity:1; 
stroke-linecap:round; stroke-linejoin:round;">
<path d="M56737 38462
L57637 38462
" />
<path d="M56737 39662
L56737 38462
" />
<path d="M57637 39662
L56737 39662
" />
<path d="M57637 38462
L57637 39662
" />
</g>
<g style="fill:#008484; fill-opacity:0.0; 
stroke:#008484; stroke-width:59.0551; stroke-opacity:1; 
stroke-linecap:round; stroke-linejoin:round;">
<path d="M56754 39574
L57581 39574
" />
<path d="M57620 39574
L57581 39574
" />
<path d="M57581 39574
L57620 39574
" />
<path d="M57620 39495
L56754 39495
" />
<path d="M56754 39416
L57620 39416
" />
</g>
<g style="fill:#008484; fill-opacity:0.0; 
stroke:#008484; stroke-width:80; stroke-opacity:1; 
stroke-linecap:round; stroke-linejoin:round;">
<path d="M56737 45962
L57637 45962
" />
<path d="M56737 47162
L56737 45962
" />
<path d="M57637 47162
L56737 47162
" />
<path d="M57637 45962
L57637 47162
" />
</g>
<g style="fill:#008484; fill-opacity:0.0; 
stroke:#008484; stroke-width:59.0551; stroke-opacity:1; 
stroke-linecap:round; stroke-linejoin:round;">
<path d="M56754 47074
L57581 47074
" />
<path d="M57620 47074
L57581 47074
" />
<path d="M57581 47074
L57620 47074
" />
<path d="M57620 46995
L56754 46995
" />
<path d="M56754 46916
L57620 46916
" />
</g>
<g style="fill:#008484; fill-opacity:0.0; 
stroke:#008484; stroke-width:80; stroke-opacity:1; 
stroke-linecap:round; stroke-linejoin:round;">
<path d="M56737 53462
L57637 53462
" />
<path d="M56737 54662
L56737 53462
" />
<path d="M57637 54662
L56737 54662
" />
<path d="M57637 53462
L57637 54662
" />
</g>
<g style="fill:#008484; fill-opacity:0.0; 
stroke:#008484; stroke-width:59.0551; stroke-opacity:1; 
stroke-linecap:round; stroke-linejoin:round;">
<path d="M56754 54574
L57581 54574
" />
<path d="M57620 54574
L57581 54574
" />
<path d="M57581 54574
L57620 54574
" />
<path d="M57620 54495
L56754 54495
" />
<path d="M56754 54416
L57620 54416
" />
<path d="M16492 32935
L16831 32935
" />
<path d="M23382 32935
L23047 32935
" />
<path d="M16492 32600
L16492 32935
" />
<path d="M23382 32581
L23382 32935
" />
<path d="M16492 21045
L16807 21045
" />
<path d="M23382 21045
L23047 21045
" />
<path d="M16492 21045
L16492 21380
" />
<path d="M23382 21045
L23382 21380
" />
<path d="M21413 18841
L21413 19352
" />
<path d="M21413 19352
L18461 19352
" />
<path d="M18461 19352
L18461 18841
" />
<path d="M18461 18841
L21413 18841
" />
<path d="M20134 18978
L19740 18978
" />
<path d="M19740 18978
L19937 19234
" />
<path d="M19937 19234
L20134 18978
" />
<path d="M20075 19037
L19799 19037
" />
<path d="M20035 19096
L19839 19096
" />
<path d="M19996 19156
L19878 19156
" />
<path d="M11956 23043
L11168 23043
" />
<path d="M11956 23831
L11956 23043
" />
<path d="M11168 23831
L11956 23831
" />
<path d="M11168 23043
L11168 23831
" />
<path d="M11956 22106
L11168 22106
" />
<path d="M11956 22893
L11956 22106
" />
<path d="M11168 22893
L11956 22893
" />
<path d="M11168 22106
L11168 22893
" />
</g>
<g style="fill:#008484; fill-opacity:0.0; 
stroke:#008484; stroke-width:47.2441; stroke-opacity:1; 
stroke-linecap:round; stroke-linejoin:round;">
<path d="M19803 42500
L20196 42500
" />
<path d="M20000 42303
L20000 42696
" />
<path d="M22401 43877
L22401 44822
" />
<path d="M22401 41988
L22401 43011
" />
<path d="M22401 40177
L22401 41122
" />
<path d="M17165 40885
L17047 41003
" />
<path d="M16929 40885
L17165 40885
" />
<path d="M17047 41003
L16929 40885
" />
<path d="M17598 40177
L17598 44822
" />
<path d="M19212 40177
L17598 40177
" />
<path d="M19212 44822
L17598 44822
" />
<path d="M22401 44822
L20787 44822
" />
<path d="M20787 40177
L22401 40177
" />
<circle cx="20000" cy="42500" r="1181.1" /> 
</g>
<g style="fill:#008484; fill-opacity:0.0; 
stroke:#008484; stroke-width:59.0551; stroke-opacity:1; 
stroke-linecap:round; stroke-linejoin:round;">
<text x="27675" y="39418.7"
textLength="1764.06" font-size="524.934" lengthAdjust="spacingAndGlyphs"
text-anchor="middle" opacity="0">REF**</text>
<path d="M27150 39399
L27018 39212
" />
<path d="M26925 39399
L26925 39006
L27075 39006
L27112 39025
L27131 39043
L27150 39081
L27150 39137
L27131 39174
L27112 39193
L27075 39212
L26925 39212
" />
<path d="M27318 39193
L27450 39193
" />
<path d="M27506 39399
L27318 39399
L27318 39006
L27506 39006
" />
<path d="M27806 39193
L27675 39193
" />
<path d="M27675 39399
L27675 39006
L27862 39006
" />
<path d="M28068 39006
L28068 39099
" />
<path d="M27974 39062
L28068 39099
L28162 39062
" />
<path d="M28012 39174
L28068 39099
L28124 39174
" />
<path d="M28368 39006
L28368 39099
" />
<path d="M28274 39062
L28368 39099
L28462 39062
" />
<path d="M28312 39174
L28368 39099
L28424 39174
" />
<text x="58125" y="58518.7"
textLength="1764.06" font-size="524.934" lengthAdjust="spacingAndGlyphs"
text-anchor="middle" opacity="0">REF**</text>
<path d="M57600 58499
L57468 58312
" />
<path d="M57375 58499
L57375 58106
L57525 58106
L57562 58125
L57581 58143
L57600 58181
L57600 58237
L57581 58274
L57562 58293
L57525 58312
L57375 58312
" />
<path d="M57768 58293
L57900 58293
" />
<path d="M57956 58499
L57768 58499
L57768 58106
L57956 58106
" />
<path d="M58256 58293
L58125 58293
" />
<path d="M58125 58499
L58125 58106
L58312 58106
" />
<path d="M58518 58106
L58518 58199
" />
<path d="M58424 58162
L58518 58199
L58612 58162
" />
<path d="M58462 58274
L58518 58199
L58574 58274
" />
<path d="M58818 58106
L58818 58199
" />
<path d="M58724 58162
L58818 58199
L58912 58162
" />
<path d="M58762 58274
L58818 58199
L58874 58274
" />
<text x="10625" y="58518.7"
textLength="1764.06" font-size="524.934" lengthAdjust="spacingAndGlyphs"
text-anchor="middle" opacity="0">REF**</text>
<path d="M10100 58499
L9968 58312
" />
<path d="M9875 58499
L9875 58106
L10025 58106
L10062 58125
L10081 58143
L10100 58181
L10100 58237
L10081 58274
L10062 58293
L10025 58312
L9875 58312
" />
<path d="M10268 58293
L10400 58293
" />
<path d="M10456 58499
L10268 58499
L10268 58106
L10456 58106
" />
<path d="M10756 58293
L10625 58293
" />
<path d="M10625 58499
L10625 58106
L10812 58106
" />
<path d="M11018 58106
L11018 58199
" />
<path d="M10924 58162
L11018 58199
L11112 58162
" />
<path d="M10962 58274
L11018 58199
L11074 58274
" />
<path d="M11318 58106
L11318 58199
" />
<path d="M11224 58162
L11318 58199
L11412 58162
" />
<path d="M11262 58274
L11318 58199
L11374 58274
" />
<text x="10625" y="21018.7"
textLength="1764.06" font-size="524.934" lengthAdjust="spacingAndGlyphs"
text-anchor="middle" opacity="0">REF**</text>
<path d="M10100 20999
L9968 20812
" />
<path d="M9875 20999
L9875 20606
L10025 20606
L10062 20625
L10081 20643
L10100 20681
L10100 20737
L10081 20774
L10062 20793
L10025 20812
L9875 20812
" />
<path d="M10268 20793
L10400 20793
" />
<path d="M10456 20999
L10268 20999
L10268 20606
L10456 20606
" />
<path d="M10756 20793
L10625 20793
" />
<path d="M10625 20999
L10625 20606
L10812 20606
" />
<path d="M11018 20606
L11018 20699
" />
<path d="M10924 20662
L11018 20699
L11112 20662
" />
<path d="M10962 20774
L11018 20699
L11074 20774
" />
<path d="M11318 20606
L11318 20699
" />
<path d="M11224 20662
L11318 20699
L11412 20662
" />
<path d="M11262 20774
L11318 20699
L11374 20774
" />
<text x="58125" y="21018.7"
textLength="1764.06" font-size="524.934" lengthAdjust="spacingAndGlyphs"
text-anchor="middle" opacity="0">REF**</text>
<path d="M57600 20999
L57468 20812
" />
<path d="M57375 20999
L57375 20606
L57525 20606
L57562 20625
L57581 20643
L57600 20681
L57600 20737
L57581 20774
L57562 20793
L57525 20812
L57375 20812
" />
<path d="M57768 20793
L57900 20793
" />
<path d="M57956 20999
L57768 20999
L57768 20606
L57956 20606
" />
<path d="M58256 20793
L58125 20793
" />
<path d="M58125 20999
L58125 20606
L58312 20606
" />
<path d="M58518 20606
L58518 20699
" />
<path d="M58424 20662
L58518 20699
L58612 20662
" />
<path d="M58462 20774
L58518 20699
L58574 20774
" />
<path d="M58818 20606
L58818 20699
" />
<path d="M58724 20662
L58818 20699
L58912 20662
" />
<path d="M58762 20774
L58818 20699
L58874 20774
" />
</g>
<g style="fill:#008484; fill-opacity:0.0; 
stroke:#008484; stroke-width:47.2441; stroke-opacity:1; 
stroke-linecap:round; stroke-linejoin:round;">
<text x="19957.2" y="19874.5"
textLength="2143.7" font-size="393.701" lengthAdjust="spacingAndGlyphs"
text-anchor="middle" opacity="0">MicroUSB</text>
<path d="M18994 19860
L18994 19565
L19092 19776
L19190 19565
L19190 19860
" />
<path d="M19331 19860
L19331 19663
" />
<path d="M19331 19565
L19317 19579
L19331 19593
L19345 19579
L19331 19565
L19331 19593
" />
<path d="M19598 19846
L19570 19860
L19514 19860
L19486 19846
L19472 19832
L19458 19804
L19458 19719
L19472 19691
L19486 19677
L19514 19663
L19570 19663
L19598 19677
" />
<path d="M19725 19860
L19725 19663
" />
<path d="M19725 19719
L19739 19691
L19753 19677
L19781 19663
L19809 19663
" />
<path d="M19950 19860
L19922 19846
L19907 19832
L19893 19804
L19893 19719
L19907 19691
L19922 19677
L19950 19663
L19992 19663
L20020 19677
L20034 19691
L20048 19719
L20048 19804
L20034 19832
L20020 19846
L19992 19860
L19950 19860
" />
<path d="M20175 19565
L20175 19804
L20189 19832
L20203 19846
L20231 19860
L20287 19860
L20315 19846
L20329 19832
L20343 19804
L20343 19565
" />
<path d="M20470 19846
L20512 19860
L20582 19860
L20611 19846
L20625 19832
L20639 19804
L20639 19776
L20625 19747
L20611 19733
L20582 19719
L20526 19705
L20498 19691
L20484 19677
L20470 19649
L20470 19621
L20484 19593
L20498 19579
L20526 19565
L20596 19565
L20639 19579
" />
<path d="M20864 19705
L20906 19719
L20920 19733
L20934 19762
L20934 19804
L20920 19832
L20906 19846
L20878 19860
L20765 19860
L20765 19565
L20864 19565
L20892 19579
L20906 19593
L20920 19621
L20920 19649
L20906 19677
L20892 19691
L20864 19705
L20765 19705
" />
<text x="19957.2" y="19874.5"
textLength="2128.35" font-size="393.701" lengthAdjust="spacingAndGlyphs"
text-anchor="middle" opacity="0">MicroUSB</text>
<path d="M18994 19860
L18994 19565
L19092 19776
L19190 19565
L19190 19860
" />
<path d="M19331 19860
L19331 19663
" />
<path d="M19331 19565
L19317 19579
L19331 19593
L19345 19579
L19331 19565
L19331 19593
" />
<path d="M19598 19846
L19570 19860
L19514 19860
L19486 19846
L19472 19832
L19458 19804
L19458 19719
L19472 19691
L19486 19677
L19514 19663
L19570 19663
L19598 19677
" />
<path d="M19725 19860
L19725 19663
" />
<path d="M19725 19719
L19739 19691
L19753 19677
L19781 19663
L19809 19663
" />
<path d="M19950 19860
L19922 19846
L19907 19832
L19893 19804
L19893 19719
L19907 19691
L19922 19677
L19950 19663
L19992 19663
L20020 19677
L20034 19691
L20048 19719
L20048 19804
L20034 19832
L20020 19846
L19992 19860
L19950 19860
" />
<path d="M20175 19565
L20175 19804
L20189 19832
L20203 19846
L20231 19860
L20287 19860
L20315 19846
L20329 19832
L20343 19804
L20343 19565
" />
<path d="M20470 19846
L20512 19860
L20582 19860
L20611 19846
L20625 19832
L20639 19804
L20639 19776
L20625 19747
L20611 19733
L20582 19719
L20526 19705
L20498 19691
L20484 19677
L20470 19649
L20470 19621
L20484 19593
L20498 19579
L20526 19565
L20596 19565
L20639 19579
" />
<path d="M20864 19705
L20906 19719
L20920 19733
L20934 19762
L20934 19804
L20920 19832
L20906 19846
L20878 19860
L20765 19860
L20765 19565
L20864 19565
L20892 19579
L20906 19593
L20920 19621
L20920 19649
L20906 19677
L20892 19691
L20864 19705
L20765 19705
" />
</g>
<g style="fill:#008484; fill-opacity:0.0; 
stroke:#008484; stroke-width:49.2126; stroke-opacity:1; 
stroke-linecap:round; stroke-linejoin:round;">
<text x="18085.1" y="31587.1"
textLength="1103.97" font-size="351.706" lengthAdjust="spacingAndGlyphs"
text-anchor="middle" opacity="0">B4/8</text>
<path d="M17714 31418
L17752 31432
L17764 31446
L17777 31474
L17777 31516
L17764 31544
L17752 31558
L17727 31573
L17626 31573
L17626 31277
L17714 31277
L17739 31291
L17752 31305
L17764 31334
L17764 31362
L17752 31390
L17739 31404
L17714 31418
L17626 31418
" />
<path d="M18003 31376
L18003 31573
" />
<path d="M17940 31263
L17877 31474
L18041 31474
" />
<path d="M18330 31263
L18103 31643
" />
<path d="M18455 31404
L18430 31390
L18418 31376
L18405 31348
L18405 31334
L18418 31305
L18430 31291
L18455 31277
L18505 31277
L18531 31291
L18543 31305
L18556 31334
L18556 31348
L18543 31376
L18531 31390
L18505 31404
L18455 31404
L18430 31418
L18418 31432
L18405 31460
L18405 31516
L18418 31544
L18430 31558
L18455 31573
L18505 31573
L18531 31558
L18543 31544
L18556 31516
L18556 31460
L18543 31432
L18531 31418
L18505 31404
" />
<text x="18301.7" y="22650.1"
textLength="1621.53" font-size="351.706" lengthAdjust="spacingAndGlyphs"
text-anchor="middle" opacity="0">D2/RX1</text>
<path d="M17585 22636
L17585 22340
L17648 22340
L17686 22354
L17711 22382
L17723 22411
L17736 22467
L17736 22509
L17723 22565
L17711 22593
L17686 22621
L17648 22636
L17585 22636
" />
<path d="M17836 22368
L17849 22354
L17874 22340
L17937 22340
L17962 22354
L17975 22368
L17987 22397
L17987 22425
L17975 22467
L17824 22636
L17987 22636
" />
<path d="M18289 22326
L18063 22706
" />
<path d="M18527 22636
L18439 22495
" />
<path d="M18377 22636
L18377 22340
L18477 22340
L18502 22354
L18515 22368
L18527 22397
L18527 22439
L18515 22467
L18502 22481
L18477 22495
L18377 22495
" />
<path d="M18615 22340
L18791 22636
" />
<path d="M18791 22340
L18615 22636
" />
<path d="M19030 22636
L18879 22636
" />
<path d="M18954 22636
L18954 22340
L18929 22382
L18904 22411
L18879 22425
" />
<text x="18085.1" y="32571.4"
textLength="1106.53" font-size="351.706" lengthAdjust="spacingAndGlyphs"
text-anchor="middle" opacity="0">B5/9</text>
<path d="M17714 32402
L17752 32416
L17764 32430
L17777 32458
L17777 32501
L17764 32529
L17752 32543
L17727 32557
L17626 32557
L17626 32262
L17714 32262
L17739 32276
L17752 32290
L17764 32318
L17764 32346
L17752 32374
L17739 32388
L17714 32402
L17626 32402
" />
<path d="M18016 32262
L17890 32262
L17877 32402
L17890 32388
L17915 32374
L17978 32374
L18003 32388
L18016 32402
L18028 32430
L18028 32501
L18016 32529
L18003 32543
L17978 32557
L17915 32557
L17890 32543
L17877 32529
" />
<path d="M18330 32247
L18103 32627
" />
<path d="M18430 32557
L18480 32557
L18505 32543
L18518 32529
L18543 32486
L18556 32430
L18556 32318
L18543 32290
L18531 32276
L18505 32262
L18455 32262
L18430 32276
L18418 32290
L18405 32318
L18405 32388
L18418 32416
L18430 32430
L18455 32444
L18505 32444
L18531 32430
L18543 32416
L18556 32388
" />
<text x="18085.1" y="28575.3"
textLength="1106.53" font-size="351.706" lengthAdjust="spacingAndGlyphs"
text-anchor="middle" opacity="0">C6/5</text>
<path d="M17777 28533
L17764 28547
L17727 28561
L17702 28561
L17664 28547
L17639 28519
L17626 28490
L17614 28434
L17614 28392
L17626 28336
L17639 28308
L17664 28280
L17702 28265
L17727 28265
L17764 28280
L17777 28294
" />
<path d="M18003 28265
L17953 28265
L17928 28280
L17915 28294
L17890 28336
L17877 28392
L17877 28504
L17890 28533
L17903 28547
L17928 28561
L17978 28561
L18003 28547
L18016 28533
L18028 28504
L18028 28434
L18016 28406
L18003 28392
L17978 28378
L17928 28378
L17903 28392
L17890 28406
L17877 28434
" />
<path d="M18330 28251
L18103 28631
" />
<path d="M18543 28265
L18418 28265
L18405 28406
L18418 28392
L18443 28378
L18505 28378
L18531 28392
L18543 28406
L18556 28434
L18556 28504
L18543 28533
L18531 28547
L18505 28561
L18443 28561
L18418 28547
L18405 28533
" />
<text x="18577.3" y="26587.1"
textLength="2111.41" font-size="351.706" lengthAdjust="spacingAndGlyphs"
text-anchor="middle" opacity="0">SCL/D0/3</text>
<path d="M17603 26558
L17641 26573
L17704 26573
L17729 26558
L17741 26544
L17754 26516
L17754 26488
L17741 26460
L17729 26446
L17704 26432
L17654 26418
L17628 26404
L17616 26390
L17603 26362
L17603 26334
L17616 26305
L17628 26291
L17654 26277
L17716 26277
L17754 26291
" />
<path d="M18018 26544
L18005 26558
L17968 26573
L17942 26573
L17905 26558
L17880 26530
L17867 26502
L17855 26446
L17855 26404
L17867 26348
L17880 26319
L17905 26291
L17942 26277
L17968 26277
L18005 26291
L18018 26305
" />
<path d="M18256 26573
L18131 26573
L18131 26277
" />
<path d="M18533 26263
L18307 26643
" />
<path d="M18621 26573
L18621 26277
L18684 26277
L18721 26291
L18746 26319
L18759 26348
L18771 26404
L18771 26446
L18759 26502
L18746 26530
L18721 26558
L18684 26573
L18621 26573
" />
<path d="M18935 26277
L18960 26277
L18985 26291
L18998 26305
L19010 26334
L19023 26390
L19023 26460
L19010 26516
L18998 26544
L18985 26558
L18960 26573
L18935 26573
L18910 26558
L18897 26544
L18885 26516
L18872 26460
L18872 26390
L18885 26334
L18897 26305
L18910 26291
L18935 26277
" />
<path d="M19324 26263
L19098 26643
" />
<path d="M19387 26277
L19550 26277
L19462 26390
L19500 26390
L19525 26404
L19538 26418
L19550 26446
L19550 26516
L19538 26544
L19525 26558
L19500 26573
L19425 26573
L19400 26558
L19387 26544
" />
<text x="18577.3" y="25602.9"
textLength="2123.97" font-size="351.706" lengthAdjust="spacingAndGlyphs"
text-anchor="middle" opacity="0">SDA/D1/2</text>
<path d="M17597 25574
L17635 25588
L17697 25588
L17723 25574
L17735 25560
L17748 25532
L17748 25504
L17735 25476
L17723 25462
L17697 25448
L17647 25434
L17622 25420
L17610 25406
L17597 25377
L17597 25349
L17610 25321
L17622 25307
L17647 25293
L17710 25293
L17748 25307
" />
<path d="M17861 25588
L17861 25293
L17924 25293
L17961 25307
L17986 25335
L17999 25363
L18012 25420
L18012 25462
L17999 25518
L17986 25546
L17961 25574
L17924 25588
L17861 25588
" />
<path d="M18112 25504
L18238 25504
" />
<path d="M18087 25588
L18175 25293
L18263 25588
" />
<path d="M18539 25279
L18313 25659
" />
<path d="M18627 25588
L18627 25293
L18690 25293
L18727 25307
L18753 25335
L18765 25363
L18778 25420
L18778 25462
L18765 25518
L18753 25546
L18727 25574
L18690 25588
L18627 25588
" />
<path d="M19029 25588
L18878 25588
" />
<path d="M18954 25588
L18954 25293
L18928 25335
L18903 25363
L18878 25377
" />
<path d="M19330 25279
L19104 25659
" />
<path d="M19406 25321
L19418 25307
L19443 25293
L19506 25293
L19531 25307
L19544 25321
L19557 25349
L19557 25377
L19544 25420
L19393 25588
L19557 25588
" />
<text x="18085.1" y="27571.4"
textLength="1106.53" font-size="351.706" lengthAdjust="spacingAndGlyphs"
text-anchor="middle" opacity="0">D4/4</text>
<path d="M17626 27557
L17626 27262
L17689 27262
L17727 27276
L17752 27304
L17764 27332
L17777 27388
L17777 27430
L17764 27486
L17752 27515
L17727 27543
L17689 27557
L17626 27557
" />
<path d="M18003 27360
L18003 27557
" />
<path d="M17940 27247
L17877 27458
L18041 27458
" />
<path d="M18330 27247
L18103 27627
" />
<path d="M18531 27360
L18531 27557
" />
<path d="M18468 27247
L18405 27458
L18568 27458
" />
<text x="18301.7" y="21646.2"
textLength="1558.73" font-size="351.706" lengthAdjust="spacingAndGlyphs"
text-anchor="middle" opacity="0">D3/TX0</text>
<path d="M17617 21632
L17617 21336
L17679 21336
L17717 21350
L17742 21379
L17755 21407
L17767 21463
L17767 21505
L17755 21561
L17742 21589
L17717 21618
L17679 21632
L17617 21632
" />
<path d="M17855 21336
L18019 21336
L17931 21449
L17968 21449
L17993 21463
L18006 21477
L18019 21505
L18019 21575
L18006 21603
L17993 21618
L17968 21632
L17893 21632
L17868 21618
L17855 21603
" />
<path d="M18320 21322
L18094 21702
" />
<path d="M18370 21336
L18521 21336
" />
<path d="M18446 21632
L18446 21336
" />
<path d="M18584 21336
L18760 21632
" />
<path d="M18760 21336
L18584 21632
" />
<path d="M18910 21336
L18936 21336
L18961 21350
L18973 21364
L18986 21393
L18998 21449
L18998 21519
L18986 21575
L18973 21603
L18961 21618
L18936 21632
L18910 21632
L18885 21618
L18873 21603
L18860 21575
L18848 21519
L18848 21449
L18860 21393
L18873 21364
L18885 21350
L18910 21336
" />
<text x="17986.7" y="24618.6"
textLength="867.876" font-size="351.706" lengthAdjust="spacingAndGlyphs"
text-anchor="middle" opacity="0">GND</text>
<path d="M17785 24323
L17760 24309
L17722 24309
L17685 24323
L17660 24351
L17647 24379
L17635 24435
L17635 24477
L17647 24534
L17660 24562
L17685 24590
L17722 24604
L17748 24604
L17785 24590
L17798 24576
L17798 24477
L17748 24477
" />
<path d="M17911 24604
L17911 24309
L18062 24604
L18062 24309
" />
<path d="M18187 24604
L18187 24309
L18250 24309
L18288 24323
L18313 24351
L18325 24379
L18338 24435
L18338 24477
L18325 24534
L18313 24562
L18288 24590
L18250 24604
L18187 24604
" />
<text x="17986.7" y="23654"
textLength="867.876" font-size="351.706" lengthAdjust="spacingAndGlyphs"
text-anchor="middle" opacity="0">GND</text>
<path d="M17785 23358
L17760 23344
L17722 23344
L17685 23358
L17660 23386
L17647 23415
L17635 23471
L17635 23513
L17647 23569
L17660 23597
L17685 23625
L17722 23639
L17748 23639
L17785 23625
L17798 23611
L17798 23513
L17748 23513
" />
<path d="M17911 23639
L17911 23344
L18062 23639
L18062 23344
" />
<path d="M18187 23639
L18187 23344
L18250 23344
L18288 23358
L18313 23386
L18325 23415
L18338 23471
L18338 23513
L18325 23569
L18313 23597
L18288 23625
L18250 23639
L18187 23639
" />
<text x="18085.1" y="29579.2"
textLength="1106.53" font-size="351.706" lengthAdjust="spacingAndGlyphs"
text-anchor="middle" opacity="0">D7/6</text>
<path d="M17626 29565
L17626 29269
L17689 29269
L17727 29283
L17752 29312
L17764 29340
L17777 29396
L17777 29438
L17764 29494
L17752 29522
L17727 29551
L17689 29565
L17626 29565
" />
<path d="M17865 29269
L18041 29269
L17928 29565
" />
<path d="M18330 29255
L18103 29635
" />
<path d="M18531 29269
L18480 29269
L18455 29283
L18443 29298
L18418 29340
L18405 29396
L18405 29508
L18418 29537
L18430 29551
L18455 29565
L18505 29565
L18531 29551
L18543 29537
L18556 29508
L18556 29438
L18543 29410
L18531 29396
L18505 29382
L18455 29382
L18430 29396
L18418 29410
L18405 29438
" />
<text x="18085.1" y="30583.2"
textLength="1081.41" font-size="351.706" lengthAdjust="spacingAndGlyphs"
text-anchor="middle" opacity="0">E6/7</text>
<path d="M17639 30414
L17727 30414
" />
<path d="M17764 30569
L17639 30569
L17639 30273
L17764 30273
" />
<path d="M17990 30273
L17940 30273
L17915 30287
L17903 30301
L17877 30344
L17865 30400
L17865 30512
L17877 30540
L17890 30555
L17915 30569
L17965 30569
L17990 30555
L18003 30540
L18016 30512
L18016 30442
L18003 30414
L17990 30400
L17965 30386
L17915 30386
L17890 30400
L17877 30414
L17865 30442
" />
<path d="M18317 30259
L18091 30639
" />
<path d="M18380 30273
L18556 30273
L18443 30569
" />
<text x="21667.8" y="31646.2"
textLength="1357.75" font-size="351.706" lengthAdjust="spacingAndGlyphs"
text-anchor="middle" opacity="0">16/B2</text>
<path d="M21221 31632
L21071 31632
" />
<path d="M21146 31632
L21146 31336
L21121 31379
L21096 31407
L21071 31421
" />
<path d="M21447 31336
L21397 31336
L21372 31350
L21360 31364
L21334 31407
L21322 31463
L21322 31575
L21334 31603
L21347 31618
L21372 31632
L21422 31632
L21447 31618
L21460 31603
L21473 31575
L21473 31505
L21460 31477
L21447 31463
L21422 31449
L21372 31449
L21347 31463
L21334 31477
L21322 31505
" />
<path d="M21774 31322
L21548 31702
" />
<path d="M21950 31477
L21988 31491
L22000 31505
L22013 31533
L22013 31575
L22000 31603
L21988 31618
L21962 31632
L21862 31632
L21862 31336
L21950 31336
L21975 31350
L21988 31364
L22000 31393
L22000 31421
L21988 31449
L21975 31463
L21950 31477
L21862 31477
" />
<path d="M22113 31364
L22126 31350
L22151 31336
L22214 31336
L22239 31350
L22251 31364
L22264 31393
L22264 31421
L22251 31463
L22101 31632
L22264 31632
" />
<text x="21667.8" y="32630.4"
textLength="1357.75" font-size="351.706" lengthAdjust="spacingAndGlyphs"
text-anchor="middle" opacity="0">10/B6</text>
<path d="M21221 32616
L21071 32616
" />
<path d="M21146 32616
L21146 32321
L21121 32363
L21096 32391
L21071 32405
" />
<path d="M21385 32321
L21410 32321
L21435 32335
L21447 32349
L21460 32377
L21473 32433
L21473 32503
L21460 32560
L21447 32588
L21435 32602
L21410 32616
L21385 32616
L21360 32602
L21347 32588
L21334 32560
L21322 32503
L21322 32433
L21334 32377
L21347 32349
L21360 32335
L21385 32321
" />
<path d="M21774 32307
L21548 32686
" />
<path d="M21950 32461
L21988 32475
L22000 32489
L22013 32517
L22013 32560
L22000 32588
L21988 32602
L21962 32616
L21862 32616
L21862 32321
L21950 32321
L21975 32335
L21988 32349
L22000 32377
L22000 32405
L21988 32433
L21975 32447
L21950 32461
L21862 32461
" />
<path d="M22239 32321
L22189 32321
L22163 32335
L22151 32349
L22126 32391
L22113 32447
L22113 32560
L22126 32588
L22138 32602
L22163 32616
L22214 32616
L22239 32602
L22251 32588
L22264 32560
L22264 32489
L22251 32461
L22239 32447
L22214 32433
L22163 32433
L22138 32447
L22126 32461
L22113 32489
" />
<text x="21667.8" y="30642.2"
textLength="1357.75" font-size="351.706" lengthAdjust="spacingAndGlyphs"
text-anchor="middle" opacity="0">14/B3</text>
<path d="M21221 30628
L21071 30628
" />
<path d="M21146 30628
L21146 30332
L21121 30375
L21096 30403
L21071 30417
" />
<path d="M21447 30431
L21447 30628
" />
<path d="M21385 30318
L21322 30529
L21485 30529
" />
<path d="M21774 30318
L21548 30698
" />
<path d="M21950 30473
L21988 30487
L22000 30501
L22013 30529
L22013 30571
L22000 30600
L21988 30614
L21962 30628
L21862 30628
L21862 30332
L21950 30332
L21975 30346
L21988 30361
L22000 30389
L22000 30417
L21988 30445
L21975 30459
L21950 30473
L21862 30473
" />
<path d="M22101 30332
L22264 30332
L22176 30445
L22214 30445
L22239 30459
L22251 30473
L22264 30501
L22264 30571
L22251 30600
L22239 30614
L22214 30628
L22138 30628
L22113 30614
L22101 30600
" />
<text x="21667.8" y="29638.3"
textLength="1357.75" font-size="351.706" lengthAdjust="spacingAndGlyphs"
text-anchor="middle" opacity="0">15/B1</text>
<path d="M21221 29624
L21071 29624
" />
<path d="M21146 29624
L21146 29328
L21121 29371
L21096 29399
L21071 29413
" />
<path d="M21460 29328
L21334 29328
L21322 29469
L21334 29455
L21360 29441
L21422 29441
L21447 29455
L21460 29469
L21473 29497
L21473 29567
L21460 29596
L21447 29610
L21422 29624
L21360 29624
L21334 29610
L21322 29596
" />
<path d="M21774 29314
L21548 29694
" />
<path d="M21950 29469
L21988 29483
L22000 29497
L22013 29525
L22013 29567
L22000 29596
L21988 29610
L21962 29624
L21862 29624
L21862 29328
L21950 29328
L21975 29343
L21988 29357
L22000 29385
L22000 29413
L21988 29441
L21975 29455
L21950 29469
L21862 29469
" />
<path d="M22264 29624
L22113 29624
" />
<path d="M22189 29624
L22189 29328
L22163 29371
L22138 29399
L22113 29413
" />
<text x="21667.8" y="28634.4"
textLength="1294.95" font-size="351.706" lengthAdjust="spacingAndGlyphs"
text-anchor="middle" opacity="0">A0/F7</text>
<path d="M21102 28535
L21228 28535
" />
<path d="M21077 28620
L21165 28325
L21253 28620
" />
<path d="M21391 28325
L21416 28325
L21441 28339
L21454 28353
L21466 28381
L21479 28437
L21479 28507
L21466 28564
L21454 28592
L21441 28606
L21416 28620
L21391 28620
L21366 28606
L21353 28592
L21341 28564
L21328 28507
L21328 28437
L21341 28381
L21353 28353
L21366 28339
L21391 28325
" />
<path d="M21780 28310
L21554 28690
" />
<path d="M21956 28465
L21868 28465
" />
<path d="M21868 28620
L21868 28325
L21994 28325
" />
<path d="M22069 28325
L22245 28325
L22132 28620
" />
<text x="21667.8" y="27630.4"
textLength="1294.95" font-size="351.706" lengthAdjust="spacingAndGlyphs"
text-anchor="middle" opacity="0">A1/F6</text>
<path d="M21102 27531
L21228 27531
" />
<path d="M21077 27616
L21165 27321
L21253 27616
" />
<path d="M21479 27616
L21328 27616
" />
<path d="M21404 27616
L21404 27321
L21378 27363
L21353 27391
L21328 27405
" />
<path d="M21780 27307
L21554 27686
" />
<path d="M21956 27461
L21868 27461
" />
<path d="M21868 27616
L21868 27321
L21994 27321
" />
<path d="M22207 27321
L22157 27321
L22132 27335
L22120 27349
L22094 27391
L22082 27447
L22082 27560
L22094 27588
L22107 27602
L22132 27616
L22182 27616
L22207 27602
L22220 27588
L22233 27560
L22233 27489
L22220 27461
L22207 27447
L22182 27433
L22132 27433
L22107 27447
L22094 27461
L22082 27489
" />
<text x="21667.8" y="26646.2"
textLength="1294.95" font-size="351.706" lengthAdjust="spacingAndGlyphs"
text-anchor="middle" opacity="0">A2/F5</text>
<path d="M21102 26547
L21228 26547
" />
<path d="M21077 26632
L21165 26336
L21253 26632
" />
<path d="M21328 26364
L21341 26350
L21366 26336
L21429 26336
L21454 26350
L21466 26364
L21479 26393
L21479 26421
L21466 26463
L21316 26632
L21479 26632
" />
<path d="M21780 26322
L21554 26702
" />
<path d="M21956 26477
L21868 26477
" />
<path d="M21868 26632
L21868 26336
L21994 26336
" />
<path d="M22220 26336
L22094 26336
L22082 26477
L22094 26463
L22120 26449
L22182 26449
L22207 26463
L22220 26477
L22233 26505
L22233 26575
L22220 26603
L22207 26618
L22182 26632
L22120 26632
L22094 26618
L22082 26603
" />
<text x="21667.8" y="25661.9"
textLength="1294.95" font-size="351.706" lengthAdjust="spacingAndGlyphs"
text-anchor="middle" opacity="0">A3/F4</text>
<path d="M21102 25563
L21228 25563
" />
<path d="M21077 25647
L21165 25352
L21253 25647
" />
<path d="M21316 25352
L21479 25352
L21391 25465
L21429 25465
L21454 25479
L21466 25493
L21479 25521
L21479 25591
L21466 25619
L21454 25633
L21429 25647
L21353 25647
L21328 25633
L21316 25619
" />
<path d="M21780 25338
L21554 25718
" />
<path d="M21956 25493
L21868 25493
" />
<path d="M21868 25647
L21868 25352
L21994 25352
" />
<path d="M22207 25450
L22207 25647
" />
<path d="M22145 25338
L22082 25549
L22245 25549
" />
<text x="21904" y="24598.9"
textLength="817.632" font-size="351.706" lengthAdjust="spacingAndGlyphs"
text-anchor="middle" opacity="0">VCC</text>
<path d="M21552 24289
L21640 24584
L21728 24289
" />
<path d="M21966 24556
L21954 24570
L21916 24584
L21891 24584
L21853 24570
L21828 24542
L21816 24514
L21803 24458
L21803 24416
L21816 24359
L21828 24331
L21853 24303
L21891 24289
L21916 24289
L21954 24303
L21966 24317
" />
<path d="M22230 24556
L22218 24570
L22180 24584
L22155 24584
L22117 24570
L22092 24542
L22079 24514
L22067 24458
L22067 24416
L22079 24359
L22092 24331
L22117 24303
L22155 24289
L22180 24289
L22218 24303
L22230 24317
" />
<text x="21904" y="23634.4"
textLength="779.949" font-size="351.706" lengthAdjust="spacingAndGlyphs"
text-anchor="middle" opacity="0">RST</text>
<path d="M21759 23620
L21671 23479
" />
<path d="M21608 23620
L21608 23325
L21709 23325
L21734 23339
L21747 23353
L21759 23381
L21759 23423
L21747 23451
L21734 23465
L21709 23479
L21608 23479
" />
<path d="M21860 23606
L21897 23620
L21960 23620
L21985 23606
L21998 23592
L22010 23564
L22010 23535
L21998 23507
L21985 23493
L21960 23479
L21910 23465
L21885 23451
L21872 23437
L21860 23409
L21860 23381
L21872 23353
L21885 23339
L21910 23325
L21973 23325
L22010 23339
" />
<path d="M22086 23325
L22236 23325
" />
<path d="M22161 23620
L22161 23325
" />
<text x="21904" y="22630.4"
textLength="867.876" font-size="351.706" lengthAdjust="spacingAndGlyphs"
text-anchor="middle" opacity="0">GND</text>
<path d="M21703 22335
L21677 22321
L21640 22321
L21602 22335
L21577 22363
L21564 22391
L21552 22447
L21552 22489
L21564 22546
L21577 22574
L21602 22602
L21640 22616
L21665 22616
L21703 22602
L21715 22588
L21715 22489
L21665 22489
" />
<path d="M21828 22616
L21828 22321
L21979 22616
L21979 22321
" />
<path d="M22105 22616
L22105 22321
L22167 22321
L22205 22335
L22230 22363
L22243 22391
L22255 22447
L22255 22489
L22243 22546
L22230 22574
L22205 22602
L22167 22616
L22105 22616
" />
<text x="21904" y="21626.5"
textLength="855.315" font-size="351.706" lengthAdjust="spacingAndGlyphs"
text-anchor="middle" opacity="0">RAW</text>
<path d="M21721 21612
L21633 21471
" />
<path d="M21571 21612
L21571 21317
L21671 21317
L21696 21331
L21709 21345
L21721 21373
L21721 21415
L21709 21443
L21696 21457
L21671 21471
L21571 21471
" />
<path d="M21822 21528
L21947 21528
" />
<path d="M21797 21612
L21885 21317
L21973 21612
" />
<path d="M22035 21317
L22098 21612
L22148 21401
L22199 21612
L22262 21317
" />
</g>
<g style="fill:#008484; fill-opacity:0.0; 
stroke:#008484; stroke-width:59.0551; stroke-opacity:1; 
stroke-linecap:round; stroke-linejoin:round;">
<text x="20000" y="33961.6"
textLength="1545.04" font-size="524.934" lengthAdjust="spacingAndGlyphs"
text-anchor="middle" opacity="0">OLED</text>
<path d="M19428 33549
L19503 33549
L19540 33567
L19578 33605
L19596 33680
L19596 33811
L19578 33886
L19540 33924
L19503 33942
L19428 33942
L19390 33924
L19353 33886
L19334 33811
L19334 33680
L19353 33605
L19390 33567
L19428 33549
" />
<path d="M19953 33942
L19765 33942
L19765 33549
" />
<path d="M20084 33736
L20215 33736
" />
<path d="M20271 33942
L20084 33942
L20084 33549
L20271 33549
" />
<path d="M20440 33942
L20440 33549
L20534 33549
L20590 33567
L20628 33605
L20646 33642
L20665 33717
L20665 33774
L20646 33849
L20628 33886
L20590 33924
L20534 33942
L20440 33942
" />
<g >
</g>
</g>
<g style="fill:#000000; fill-opacity:0.0; 
stroke:#000000; stroke-width:59.0551; stroke-opacity:1; 
stroke-linecap:round; stroke-linejoin:round;">
</g>
<g style="fill:#C2C200; fill-opacity:0.0; 
stroke:#C2C200; stroke-width:59.0551; stroke-opacity:1; 
stroke-linecap:round; stroke-linejoin:round;">
</g>
<g style="fill:#C2C200; fill-opacity:0.0; 
stroke:#C2C200; stroke-width:19.685; stroke-opacity:1; 
stroke-linecap:round; stroke-linejoin:round;">
<path d="M9375 58437.5 A937.5 937.5 0.0 0 0 10312.5 59375" />
<path d="M10312.5 19375 A937.5 937.5 0.0 0 0 9375 20312.5" />
<path d="M59375 20312.5 A937.5 937.5 0.0 0 0 58437.5 19375" />
<path d="M58437.5 59375 A937.5 937.5 0.0 0 0 59375 58437.5" />
</g>
<g style="fill:#C2C200; fill-opacity:0.0; 
stroke:#C2C200; stroke-width:39.3701; stroke-opacity:1; 
stroke-linecap:round; stroke-linejoin:round;">
<path d="M59375 20312
L59375 58437
" />
<path d="M10312 19375
L58437 19375
" />
<path d="M9375 58437
L9375 20312
" />
<path d="M58437 59375
L10312 59375
" />
<g >
</g>
<g >
</g>
<g >
</g>
<g >
</g>
<g >
</g>
<g >
</g>
<g >
</g>
<g >
</g>
<g >
</g>
<g >
</g>
<g >
</g>
<g >
</g>
<g >
</g>
<g >
</g>
<g >
</g>
<g >
</g>
<g >
</g>
<g >
</g>
<g >
</g>
<g >
</g>
<g >
</g>
<g >
</g>
<g >
</g>
<g >
</g>
<g >
</g>
<g >
</g>
<g >
</g>
<g >
</g>
<g >
</g>
<g >
</g>
<g >
</g>
<g >
</g>
<g >
</g>
<g >
</g>
<g >
</g>
<g >
</g>
<g >
</g>
<g >
</g>
<g >
</g>
<g >
</g>
<g >
</g>
<g >
</g>
<g >
</g>
<g >
</g>
<g >
</g>
<g >
</g>
<g >
</g>
<g >
</g>
<g >
</g>
<g >
</g>
</g> 
</svg>
