<?xml version="1.0" standalone="no"?>
 <!DOCTYPE svg PUBLIC "-//W3C//DTD SVG 1.1//EN" 
 "http://www.w3.org/Graphics/SVG/1.1/DTD/svg11.dtd"> 
<svg
  xmlns:svg="http://www.w3.org/2000/svg"
  xmlns="http://www.w3.org/2000/svg"
  xmlns:xlink="http://www.w3.org/1999/xlink"
  version="1.1"
  width="12.954000cm" height="10.167620cm" viewBox="0 0 51000 40030">
<title>SVG Picture created as plate-maker-Edge_Cuts.svg date 2021/08/05 22:38:44 </title>
  <desc>Picture generated by PCBNEW </desc>
<g style="fill:#000000; fill-opacity:1;stroke:#000000; stroke-opacity:1;
stroke-linecap:round; stroke-linejoin:round;"
 transform="translate(0 0) scale(1 1)">
</g>
<g style="fill:#000000; fill-opacity:0.0; 
stroke:#000000; stroke-width:-0.000393701; stroke-opacity:1; 
stroke-linecap:round; stroke-linejoin:round;">
</g>
<g style="fill:#000000; fill-opacity:0.0; 
stroke:#000000; stroke-width:19.685; stroke-opacity:1; 
stroke-linecap:round; stroke-linejoin:round;">
<path d="M8529 13894
L8529 15744
" />
<path d="M7329 13894
L8529 13894
" />
<path d="M7329 394
L7329 13894
" />
<path d="M14829 394
L7329 394
" />
<path d="M14829 13894
L14829 394
" />
<path d="M13729 13894
L14829 13894
" />
<path d="M13729 15744
L13729 13894
" />
<path d="M8779 15744
L8529 15744
" />
<path d="M8779 15744
L13729 15744
" />
<circle cx="49254.3" cy="38769.7" r="441.942" /> 
<circle cx="1754.31" cy="38769.7" r="441.942" /> 
<circle cx="49254.3" cy="1269.69" r="441.942" /> 
<circle cx="1754.31" cy="1269.69" r="441.942" /> 
<path d="M504.312 39082.2 A937.5 937.5 0.0 0 0 1441.81 40019.7" />
<path d="M1441.81 19.6854 A937.5 937.5 0.0 0 0 504.312 957.185" />
<path d="M50504.3 957.185 A937.5 937.5 0.0 0 0 49566.8 19.6854" />
<path d="M49566.8 40019.7 A937.5 937.5 0.0 0 0 50504.3 39082.2" />
</g>
<g style="fill:#000000; fill-opacity:0.0; 
stroke:#000000; stroke-width:39.3701; stroke-opacity:1; 
stroke-linecap:round; stroke-linejoin:round;">
<path d="M50504 957
L50504 39082
" />
<path d="M1441 19
L49566 19
" />
<path d="M504 39082
L504 957
" />
<path d="M49566 40019
L1441 40019
" />
</g>
<g style="fill:#000000; fill-opacity:0.0; 
stroke:#000000; stroke-width:47.2441; stroke-opacity:1; 
stroke-linecap:round; stroke-linejoin:round;">
<path d="M8373 20388
L8373 25900
" />
<path d="M8373 25900
L13885 25900
" />
<path d="M13885 25900
L13885 20388
" />
<path d="M13885 20388
L8373 20388
" />
<path d="M42123 24138
L42123 29650
" />
<path d="M42123 29650
L47635 29650
" />
<path d="M47635 29650
L47635 24138
" />
<path d="M47635 24138
L42123 24138
" />
<path d="M4623 31638
L4623 37150
" />
<path d="M4623 37150
L10135 37150
" />
<path d="M10135 37150
L10135 31638
" />
<path d="M10135 31638
L4623 31638
" />
<path d="M12123 31638
L12123 37150
" />
<path d="M12123 37150
L17635 37150
" />
<path d="M17635 37150
L17635 31638
" />
<path d="M17635 31638
L12123 31638
" />
<path d="M27123 1638
L27123 7150
" />
<path d="M27123 7150
L32635 7150
" />
<path d="M32635 7150
L32635 1638
" />
<path d="M32635 1638
L27123 1638
" />
<path d="M27123 9138
L27123 14650
" />
<path d="M27123 14650
L32635 14650
" />
<path d="M32635 14650
L32635 9138
" />
<path d="M32635 9138
L27123 9138
" />
<path d="M27123 16638
L27123 22150
" />
<path d="M27123 22150
L32635 22150
" />
<path d="M32635 22150
L32635 16638
" />
<path d="M32635 16638
L27123 16638
" />
<path d="M27123 24138
L27123 29650
" />
<path d="M27123 29650
L32635 29650
" />
<path d="M32635 29650
L32635 24138
" />
<path d="M32635 24138
L27123 24138
" />
<path d="M27123 31638
L27123 37150
" />
<path d="M27123 37150
L32635 37150
" />
<path d="M32635 37150
L32635 31638
" />
<path d="M32635 31638
L27123 31638
" />
<path d="M34623 1638
L34623 7150
" />
<path d="M34623 7150
L40135 7150
" />
<path d="M40135 7150
L40135 1638
" />
<path d="M40135 1638
L34623 1638
" />
<path d="M34623 9138
L34623 14650
" />
<path d="M34623 14650
L40135 14650
" />
<path d="M40135 14650
L40135 9138
" />
<path d="M40135 9138
L34623 9138
" />
<path d="M34623 16638
L34623 22150
" />
<path d="M34623 22150
L40135 22150
" />
<path d="M40135 22150
L40135 16638
" />
<path d="M40135 16638
L34623 16638
" />
<path d="M34623 24138
L34623 29650
" />
<path d="M34623 29650
L40135 29650
" />
<path d="M40135 29650
L40135 24138
" />
<path d="M40135 24138
L34623 24138
" />
<path d="M34623 31638
L34623 37150
" />
<path d="M34623 37150
L40135 37150
" />
<path d="M40135 37150
L40135 31638
" />
<path d="M40135 31638
L34623 31638
" />
<path d="M42123 1638
L42123 7150
" />
<path d="M42123 7150
L47635 7150
" />
<path d="M47635 7150
L47635 1638
" />
<path d="M47635 1638
L42123 1638
" />
<path d="M42123 9138
L42123 14650
" />
<path d="M42123 14650
L47635 14650
" />
<path d="M47635 14650
L47635 9138
" />
<path d="M47635 9138
L42123 9138
" />
<path d="M42123 16638
L42123 22150
" />
<path d="M42123 22150
L47635 22150
" />
<path d="M47635 22150
L47635 16638
" />
<path d="M47635 16638
L42123 16638
" />
<path d="M42123 31638
L42123 37150
" />
<path d="M42123 37150
L47635 37150
" />
<path d="M47635 37150
L47635 31638
" />
<path d="M47635 31638
L42123 31638
" />
<g >
</g>
<g >
</g>
<g >
</g>
<g >
</g>
<g >
</g>
<g >
</g>
<g >
</g>
<g >
</g>
<g >
</g>
<g >
</g>
<g >
</g>
<g >
</g>
<g >
</g>
<g >
</g>
<g >
</g>
<g >
</g>
<g >
</g>
<g >
</g>
<g >
</g>
<g >
</g>
<g >
</g>
<g >
</g>
<g >
</g>
</g> 
</svg>
