<?xml version="1.0" standalone="no"?>
 <!DOCTYPE svg PUBLIC "-//W3C//DTD SVG 1.1//EN" 
 "http://www.w3.org/Graphics/SVG/1.1/DTD/svg11.dtd"> 
<svg
  xmlns:svg="http://www.w3.org/2000/svg"
  xmlns="http://www.w3.org/2000/svg"
  xmlns:xlink="http://www.w3.org/1999/xlink"
  version="1.1"
  width="12.954000cm" height="11.394440cm" viewBox="0 0 51000 44860">
<title>SVG Picture created as plate-maker-Edge_Cuts.svg date 2021/07/13 19:57:50 </title>
  <desc>Picture generated by PCBNEW </desc>
<g style="fill:#000000; fill-opacity:1;stroke:#000000; stroke-opacity:1;
stroke-linecap:round; stroke-linejoin:round;"
 transform="translate(0 0) scale(1 1)">
</g>
<g style="fill:#000000; fill-opacity:0.0; 
stroke:#000000; stroke-width:-0.000393701; stroke-opacity:1; 
stroke-linecap:round; stroke-linejoin:round;">
</g>
<g style="fill:#000000; fill-opacity:0.0; 
stroke:#000000; stroke-width:19.685; stroke-opacity:1; 
stroke-linecap:round; stroke-linejoin:round;">
<path d="M13529 16088
L13529 1038
" />
<path d="M8729 16088
L13529 16088
" />
<path d="M8729 1038
L8729 16088
" />
<path d="M13529 1038
L8729 1038
" />
<path d="M47629 7688
L47629 2188
" />
<path d="M42129 7688
L42129 2188
" />
<path d="M47629 2188
L42129 2188
" />
<path d="M47629 7688
L42129 7688
" />
<path d="M40129 7688
L40129 2188
" />
<path d="M34629 7688
L34629 2188
" />
<path d="M40129 2188
L34629 2188
" />
<path d="M40129 7688
L34629 7688
" />
<path d="M32629 7688
L32629 2188
" />
<path d="M27129 7688
L27129 2188
" />
<path d="M32629 2188
L27129 2188
" />
<path d="M32629 7688
L27129 7688
" />
<path d="M32629 15188
L32629 9688
" />
<path d="M27129 15188
L27129 9688
" />
<path d="M32629 9688
L27129 9688
" />
<path d="M32629 15188
L27129 15188
" />
<path d="M40129 15188
L40129 9688
" />
<path d="M34629 15188
L34629 9688
" />
<path d="M40129 9688
L34629 9688
" />
<path d="M40129 15188
L34629 15188
" />
<path d="M47629 15188
L47629 9688
" />
<path d="M42129 15188
L42129 9688
" />
<path d="M47629 9688
L42129 9688
" />
<path d="M47629 15188
L42129 15188
" />
<path d="M47629 22688
L47629 17188
" />
<path d="M42129 22688
L42129 17188
" />
<path d="M47629 17188
L42129 17188
" />
<path d="M47629 22688
L42129 22688
" />
<path d="M40129 22688
L40129 17188
" />
<path d="M34629 22688
L34629 17188
" />
<path d="M40129 17188
L34629 17188
" />
<path d="M40129 22688
L34629 22688
" />
<path d="M32629 22688
L32629 17188
" />
<path d="M27129 22688
L27129 17188
" />
<path d="M32629 17188
L27129 17188
" />
<path d="M32629 22688
L27129 22688
" />
<path d="M32629 30188
L32629 24688
" />
<path d="M27129 30188
L27129 24688
" />
<path d="M32629 24688
L27129 24688
" />
<path d="M32629 30188
L27129 30188
" />
<path d="M40129 30188
L40129 24688
" />
<path d="M34629 30188
L34629 24688
" />
<path d="M40129 24688
L34629 24688
" />
<path d="M40129 30188
L34629 30188
" />
<path d="M47629 30188
L47629 24688
" />
<path d="M42129 30188
L42129 24688
" />
<path d="M47629 24688
L42129 24688
" />
<path d="M47629 30188
L42129 30188
" />
<path d="M47629 37688
L47629 32188
" />
<path d="M42129 37688
L42129 32188
" />
<path d="M47629 32188
L42129 32188
" />
<path d="M47629 37688
L42129 37688
" />
<path d="M40129 37688
L40129 32188
" />
<path d="M34629 37688
L34629 32188
" />
<path d="M40129 32188
L34629 32188
" />
<path d="M40129 37688
L34629 37688
" />
<path d="M32629 37688
L32629 32188
" />
<path d="M27129 37688
L27129 32188
" />
<path d="M32629 32188
L27129 32188
" />
<path d="M32629 37688
L27129 37688
" />
<path d="M17629 37688
L17629 32188
" />
<path d="M12129 37688
L12129 32188
" />
<path d="M17629 32188
L12129 32188
" />
<path d="M17629 37688
L12129 37688
" />
<path d="M10129 37688
L10129 32188
" />
<path d="M4629 37688
L10129 37688
" />
<path d="M4629 32188
L4629 37688
" />
<path d="M10129 32188
L4629 32188
" />
<path d="M13679 21238
L13679 26188
" />
<path d="M8579 21238
L13679 21238
" />
<path d="M8579 26188
L8579 21238
" />
<path d="M13679 26188
L8579 26188
" />
<circle cx="49254.3" cy="39313.5" r="441.942" /> 
<circle cx="1754.31" cy="39313.5" r="441.942" /> 
<circle cx="18802.5" cy="20216" r="443.905" /> 
<circle cx="49254.3" cy="1813.48" r="441.942" /> 
<circle cx="1754.31" cy="1813.48" r="441.942" /> 
<path d="M504.312 39626 A937.5 937.5 0.0 0 0 1441.81 40563.5" />
<path d="M1441.81 563.485 A937.5 937.5 0.0 0 0 504.312 1500.98" />
<path d="M50504.3 1500.98 A937.5 937.5 0.0 0 0 49566.8 563.485" />
<path d="M49566.8 40563.5 A937.5 937.5 0.0 0 0 50504.3 39626" />
</g>
<g style="fill:#000000; fill-opacity:0.0; 
stroke:#000000; stroke-width:39.3701; stroke-opacity:1; 
stroke-linecap:round; stroke-linejoin:round;">
<path d="M50504 1500
L50504 39625
" />
<path d="M1441 563
L49566 563
" />
<path d="M504 39625
L504 1500
" />
<path d="M49566 40563
L1441 40563
" />
<g >
</g>
<g >
</g>
<g >
</g>
<g >
</g>
<g >
</g>
<g >
</g>
<g >
</g>
<g >
</g>
<g >
</g>
<g >
</g>
<g >
</g>
<g >
</g>
<g >
</g>
<g >
</g>
<g >
</g>
<g >
</g>
<g >
</g>
<g >
</g>
<g >
</g>
<g >
</g>
<g >
</g>
<g >
</g>
<g >
</g>
<g >
</g>
<g >
</g>
<g >
</g>
<g >
</g>
<g >
</g>
<g >
</g>
<g >
</g>
<g >
</g>
<g >
</g>
<g >
</g>
<g >
</g>
<g >
</g>
<g >
</g>
<g >
</g>
<g >
</g>
<g >
</g>
<g >
</g>
<g >
</g>
<g >
</g>
<g >
</g>
<g >
</g>
<g >
</g>
<g >
</g>
<g >
</g>
<g >
</g>
<g >
</g>
<g >
</g>
</g> 
</svg>
