%TF.GenerationSoftware,KiCad,Pcbnew,(5.1.10)-1*%
%TF.CreationDate,2021-08-05T22:39:10+03:00*%
%TF.ProjectId,plate-maker,706c6174-652d-46d6-916b-65722e6b6963,rev?*%
%TF.SameCoordinates,Original*%
%TF.FileFunction,Soldermask,Bot*%
%TF.FilePolarity,Negative*%
%FSLAX46Y46*%
G04 Gerber Fmt 4.6, Leading zero omitted, Abs format (unit mm)*
G04 Created by KiCad (PCBNEW (5.1.10)-1) date 2021-08-05 22:39:10*
%MOMM*%
%LPD*%
G01*
G04 APERTURE LIST*
%ADD10C,4.200000*%
%ADD11C,0.254000*%
%ADD12C,0.100000*%
G04 APERTURE END LIST*
D10*
%TO.C,REF\u002A\u002A*%
X147637500Y-147637500D03*
%TD*%
%TO.C,REF\u002A\u002A*%
X26987500Y-147637500D03*
%TD*%
%TO.C,REF\u002A\u002A*%
X26987500Y-52387500D03*
%TD*%
%TO.C,REF\u002A\u002A*%
X147637500Y-52387500D03*
%TD*%
D11*
X105532689Y-128731876D02*
X105696350Y-128781522D01*
X105847172Y-128862138D01*
X105979370Y-128970630D01*
X106087862Y-129102828D01*
X106168478Y-129253650D01*
X106218124Y-129417311D01*
X106235500Y-129593734D01*
X106235500Y-143456266D01*
X106218124Y-143632689D01*
X106168478Y-143796350D01*
X106087862Y-143947172D01*
X105979370Y-144079370D01*
X105847172Y-144187862D01*
X105696350Y-144268478D01*
X105532689Y-144318124D01*
X105356266Y-144335500D01*
X91493734Y-144335500D01*
X91317311Y-144318124D01*
X91153650Y-144268478D01*
X91002828Y-144187862D01*
X90870630Y-144079370D01*
X90762138Y-143947172D01*
X90681522Y-143796350D01*
X90631876Y-143632689D01*
X90614500Y-143456266D01*
X90614500Y-129593734D01*
X90621269Y-129525000D01*
X91425000Y-129525000D01*
X91425000Y-143525000D01*
X105425000Y-143525000D01*
X105425000Y-129525000D01*
X91425000Y-129525000D01*
X90621269Y-129525000D01*
X90631876Y-129417311D01*
X90681522Y-129253650D01*
X90762138Y-129102828D01*
X90870630Y-128970630D01*
X91002828Y-128862138D01*
X91153650Y-128781522D01*
X91317311Y-128731876D01*
X91493734Y-128714500D01*
X105356266Y-128714500D01*
X105532689Y-128731876D01*
D12*
G36*
X105532689Y-128731876D02*
G01*
X105696350Y-128781522D01*
X105847172Y-128862138D01*
X105979370Y-128970630D01*
X106087862Y-129102828D01*
X106168478Y-129253650D01*
X106218124Y-129417311D01*
X106235500Y-129593734D01*
X106235500Y-143456266D01*
X106218124Y-143632689D01*
X106168478Y-143796350D01*
X106087862Y-143947172D01*
X105979370Y-144079370D01*
X105847172Y-144187862D01*
X105696350Y-144268478D01*
X105532689Y-144318124D01*
X105356266Y-144335500D01*
X91493734Y-144335500D01*
X91317311Y-144318124D01*
X91153650Y-144268478D01*
X91002828Y-144187862D01*
X90870630Y-144079370D01*
X90762138Y-143947172D01*
X90681522Y-143796350D01*
X90631876Y-143632689D01*
X90614500Y-143456266D01*
X90614500Y-129593734D01*
X90621269Y-129525000D01*
X91425000Y-129525000D01*
X91425000Y-143525000D01*
X105425000Y-143525000D01*
X105425000Y-129525000D01*
X91425000Y-129525000D01*
X90621269Y-129525000D01*
X90631876Y-129417311D01*
X90681522Y-129253650D01*
X90762138Y-129102828D01*
X90870630Y-128970630D01*
X91002828Y-128862138D01*
X91153650Y-128781522D01*
X91317311Y-128731876D01*
X91493734Y-128714500D01*
X105356266Y-128714500D01*
X105532689Y-128731876D01*
G37*
D11*
X124582689Y-128731876D02*
X124746350Y-128781522D01*
X124897172Y-128862138D01*
X125029370Y-128970630D01*
X125137862Y-129102828D01*
X125218478Y-129253650D01*
X125268124Y-129417311D01*
X125285500Y-129593734D01*
X125285500Y-143456266D01*
X125268124Y-143632689D01*
X125218478Y-143796350D01*
X125137862Y-143947172D01*
X125029370Y-144079370D01*
X124897172Y-144187862D01*
X124746350Y-144268478D01*
X124582689Y-144318124D01*
X124406266Y-144335500D01*
X110543734Y-144335500D01*
X110367311Y-144318124D01*
X110203650Y-144268478D01*
X110052828Y-144187862D01*
X109920630Y-144079370D01*
X109812138Y-143947172D01*
X109731522Y-143796350D01*
X109681876Y-143632689D01*
X109664500Y-143456266D01*
X109664500Y-129593734D01*
X109671269Y-129525000D01*
X110475000Y-129525000D01*
X110475000Y-143525000D01*
X124475000Y-143525000D01*
X124475000Y-129525000D01*
X110475000Y-129525000D01*
X109671269Y-129525000D01*
X109681876Y-129417311D01*
X109731522Y-129253650D01*
X109812138Y-129102828D01*
X109920630Y-128970630D01*
X110052828Y-128862138D01*
X110203650Y-128781522D01*
X110367311Y-128731876D01*
X110543734Y-128714500D01*
X124406266Y-128714500D01*
X124582689Y-128731876D01*
D12*
G36*
X124582689Y-128731876D02*
G01*
X124746350Y-128781522D01*
X124897172Y-128862138D01*
X125029370Y-128970630D01*
X125137862Y-129102828D01*
X125218478Y-129253650D01*
X125268124Y-129417311D01*
X125285500Y-129593734D01*
X125285500Y-143456266D01*
X125268124Y-143632689D01*
X125218478Y-143796350D01*
X125137862Y-143947172D01*
X125029370Y-144079370D01*
X124897172Y-144187862D01*
X124746350Y-144268478D01*
X124582689Y-144318124D01*
X124406266Y-144335500D01*
X110543734Y-144335500D01*
X110367311Y-144318124D01*
X110203650Y-144268478D01*
X110052828Y-144187862D01*
X109920630Y-144079370D01*
X109812138Y-143947172D01*
X109731522Y-143796350D01*
X109681876Y-143632689D01*
X109664500Y-143456266D01*
X109664500Y-129593734D01*
X109671269Y-129525000D01*
X110475000Y-129525000D01*
X110475000Y-143525000D01*
X124475000Y-143525000D01*
X124475000Y-129525000D01*
X110475000Y-129525000D01*
X109671269Y-129525000D01*
X109681876Y-129417311D01*
X109731522Y-129253650D01*
X109812138Y-129102828D01*
X109920630Y-128970630D01*
X110052828Y-128862138D01*
X110203650Y-128781522D01*
X110367311Y-128731876D01*
X110543734Y-128714500D01*
X124406266Y-128714500D01*
X124582689Y-128731876D01*
G37*
D11*
X143632689Y-128731876D02*
X143796350Y-128781522D01*
X143947172Y-128862138D01*
X144079370Y-128970630D01*
X144187862Y-129102828D01*
X144268478Y-129253650D01*
X144318124Y-129417311D01*
X144335500Y-129593734D01*
X144335500Y-143456266D01*
X144318124Y-143632689D01*
X144268478Y-143796350D01*
X144187862Y-143947172D01*
X144079370Y-144079370D01*
X143947172Y-144187862D01*
X143796350Y-144268478D01*
X143632689Y-144318124D01*
X143456266Y-144335500D01*
X129593734Y-144335500D01*
X129417311Y-144318124D01*
X129253650Y-144268478D01*
X129102828Y-144187862D01*
X128970630Y-144079370D01*
X128862138Y-143947172D01*
X128781522Y-143796350D01*
X128731876Y-143632689D01*
X128714500Y-143456266D01*
X128714500Y-129593734D01*
X128721269Y-129525000D01*
X129525000Y-129525000D01*
X129525000Y-143525000D01*
X143525000Y-143525000D01*
X143525000Y-129525000D01*
X129525000Y-129525000D01*
X128721269Y-129525000D01*
X128731876Y-129417311D01*
X128781522Y-129253650D01*
X128862138Y-129102828D01*
X128970630Y-128970630D01*
X129102828Y-128862138D01*
X129253650Y-128781522D01*
X129417311Y-128731876D01*
X129593734Y-128714500D01*
X143456266Y-128714500D01*
X143632689Y-128731876D01*
D12*
G36*
X143632689Y-128731876D02*
G01*
X143796350Y-128781522D01*
X143947172Y-128862138D01*
X144079370Y-128970630D01*
X144187862Y-129102828D01*
X144268478Y-129253650D01*
X144318124Y-129417311D01*
X144335500Y-129593734D01*
X144335500Y-143456266D01*
X144318124Y-143632689D01*
X144268478Y-143796350D01*
X144187862Y-143947172D01*
X144079370Y-144079370D01*
X143947172Y-144187862D01*
X143796350Y-144268478D01*
X143632689Y-144318124D01*
X143456266Y-144335500D01*
X129593734Y-144335500D01*
X129417311Y-144318124D01*
X129253650Y-144268478D01*
X129102828Y-144187862D01*
X128970630Y-144079370D01*
X128862138Y-143947172D01*
X128781522Y-143796350D01*
X128731876Y-143632689D01*
X128714500Y-143456266D01*
X128714500Y-129593734D01*
X128721269Y-129525000D01*
X129525000Y-129525000D01*
X129525000Y-143525000D01*
X143525000Y-143525000D01*
X143525000Y-129525000D01*
X129525000Y-129525000D01*
X128721269Y-129525000D01*
X128731876Y-129417311D01*
X128781522Y-129253650D01*
X128862138Y-129102828D01*
X128970630Y-128970630D01*
X129102828Y-128862138D01*
X129253650Y-128781522D01*
X129417311Y-128731876D01*
X129593734Y-128714500D01*
X143456266Y-128714500D01*
X143632689Y-128731876D01*
G37*
D11*
X143632689Y-109681876D02*
X143796350Y-109731522D01*
X143947172Y-109812138D01*
X144079370Y-109920630D01*
X144187862Y-110052828D01*
X144268478Y-110203650D01*
X144318124Y-110367311D01*
X144335500Y-110543734D01*
X144335500Y-124406266D01*
X144318124Y-124582689D01*
X144268478Y-124746350D01*
X144187862Y-124897172D01*
X144079370Y-125029370D01*
X143947172Y-125137862D01*
X143796350Y-125218478D01*
X143632689Y-125268124D01*
X143456266Y-125285500D01*
X129593734Y-125285500D01*
X129417311Y-125268124D01*
X129253650Y-125218478D01*
X129102828Y-125137862D01*
X128970630Y-125029370D01*
X128862138Y-124897172D01*
X128781522Y-124746350D01*
X128731876Y-124582689D01*
X128714500Y-124406266D01*
X128714500Y-110543734D01*
X128721269Y-110475000D01*
X129525000Y-110475000D01*
X129525000Y-124475000D01*
X143525000Y-124475000D01*
X143525000Y-110475000D01*
X129525000Y-110475000D01*
X128721269Y-110475000D01*
X128731876Y-110367311D01*
X128781522Y-110203650D01*
X128862138Y-110052828D01*
X128970630Y-109920630D01*
X129102828Y-109812138D01*
X129253650Y-109731522D01*
X129417311Y-109681876D01*
X129593734Y-109664500D01*
X143456266Y-109664500D01*
X143632689Y-109681876D01*
D12*
G36*
X143632689Y-109681876D02*
G01*
X143796350Y-109731522D01*
X143947172Y-109812138D01*
X144079370Y-109920630D01*
X144187862Y-110052828D01*
X144268478Y-110203650D01*
X144318124Y-110367311D01*
X144335500Y-110543734D01*
X144335500Y-124406266D01*
X144318124Y-124582689D01*
X144268478Y-124746350D01*
X144187862Y-124897172D01*
X144079370Y-125029370D01*
X143947172Y-125137862D01*
X143796350Y-125218478D01*
X143632689Y-125268124D01*
X143456266Y-125285500D01*
X129593734Y-125285500D01*
X129417311Y-125268124D01*
X129253650Y-125218478D01*
X129102828Y-125137862D01*
X128970630Y-125029370D01*
X128862138Y-124897172D01*
X128781522Y-124746350D01*
X128731876Y-124582689D01*
X128714500Y-124406266D01*
X128714500Y-110543734D01*
X128721269Y-110475000D01*
X129525000Y-110475000D01*
X129525000Y-124475000D01*
X143525000Y-124475000D01*
X143525000Y-110475000D01*
X129525000Y-110475000D01*
X128721269Y-110475000D01*
X128731876Y-110367311D01*
X128781522Y-110203650D01*
X128862138Y-110052828D01*
X128970630Y-109920630D01*
X129102828Y-109812138D01*
X129253650Y-109731522D01*
X129417311Y-109681876D01*
X129593734Y-109664500D01*
X143456266Y-109664500D01*
X143632689Y-109681876D01*
G37*
D11*
X124582689Y-109681876D02*
X124746350Y-109731522D01*
X124897172Y-109812138D01*
X125029370Y-109920630D01*
X125137862Y-110052828D01*
X125218478Y-110203650D01*
X125268124Y-110367311D01*
X125285500Y-110543734D01*
X125285500Y-124406266D01*
X125268124Y-124582689D01*
X125218478Y-124746350D01*
X125137862Y-124897172D01*
X125029370Y-125029370D01*
X124897172Y-125137862D01*
X124746350Y-125218478D01*
X124582689Y-125268124D01*
X124406266Y-125285500D01*
X110543734Y-125285500D01*
X110367311Y-125268124D01*
X110203650Y-125218478D01*
X110052828Y-125137862D01*
X109920630Y-125029370D01*
X109812138Y-124897172D01*
X109731522Y-124746350D01*
X109681876Y-124582689D01*
X109664500Y-124406266D01*
X109664500Y-110543734D01*
X109671269Y-110475000D01*
X110475000Y-110475000D01*
X110475000Y-124475000D01*
X124475000Y-124475000D01*
X124475000Y-110475000D01*
X110475000Y-110475000D01*
X109671269Y-110475000D01*
X109681876Y-110367311D01*
X109731522Y-110203650D01*
X109812138Y-110052828D01*
X109920630Y-109920630D01*
X110052828Y-109812138D01*
X110203650Y-109731522D01*
X110367311Y-109681876D01*
X110543734Y-109664500D01*
X124406266Y-109664500D01*
X124582689Y-109681876D01*
D12*
G36*
X124582689Y-109681876D02*
G01*
X124746350Y-109731522D01*
X124897172Y-109812138D01*
X125029370Y-109920630D01*
X125137862Y-110052828D01*
X125218478Y-110203650D01*
X125268124Y-110367311D01*
X125285500Y-110543734D01*
X125285500Y-124406266D01*
X125268124Y-124582689D01*
X125218478Y-124746350D01*
X125137862Y-124897172D01*
X125029370Y-125029370D01*
X124897172Y-125137862D01*
X124746350Y-125218478D01*
X124582689Y-125268124D01*
X124406266Y-125285500D01*
X110543734Y-125285500D01*
X110367311Y-125268124D01*
X110203650Y-125218478D01*
X110052828Y-125137862D01*
X109920630Y-125029370D01*
X109812138Y-124897172D01*
X109731522Y-124746350D01*
X109681876Y-124582689D01*
X109664500Y-124406266D01*
X109664500Y-110543734D01*
X109671269Y-110475000D01*
X110475000Y-110475000D01*
X110475000Y-124475000D01*
X124475000Y-124475000D01*
X124475000Y-110475000D01*
X110475000Y-110475000D01*
X109671269Y-110475000D01*
X109681876Y-110367311D01*
X109731522Y-110203650D01*
X109812138Y-110052828D01*
X109920630Y-109920630D01*
X110052828Y-109812138D01*
X110203650Y-109731522D01*
X110367311Y-109681876D01*
X110543734Y-109664500D01*
X124406266Y-109664500D01*
X124582689Y-109681876D01*
G37*
D11*
X105532689Y-109681876D02*
X105696350Y-109731522D01*
X105847172Y-109812138D01*
X105979370Y-109920630D01*
X106087862Y-110052828D01*
X106168478Y-110203650D01*
X106218124Y-110367311D01*
X106235500Y-110543734D01*
X106235500Y-124406266D01*
X106218124Y-124582689D01*
X106168478Y-124746350D01*
X106087862Y-124897172D01*
X105979370Y-125029370D01*
X105847172Y-125137862D01*
X105696350Y-125218478D01*
X105532689Y-125268124D01*
X105356266Y-125285500D01*
X91493734Y-125285500D01*
X91317311Y-125268124D01*
X91153650Y-125218478D01*
X91002828Y-125137862D01*
X90870630Y-125029370D01*
X90762138Y-124897172D01*
X90681522Y-124746350D01*
X90631876Y-124582689D01*
X90614500Y-124406266D01*
X90614500Y-110543734D01*
X90621269Y-110475000D01*
X91425000Y-110475000D01*
X91425000Y-124475000D01*
X105425000Y-124475000D01*
X105425000Y-110475000D01*
X91425000Y-110475000D01*
X90621269Y-110475000D01*
X90631876Y-110367311D01*
X90681522Y-110203650D01*
X90762138Y-110052828D01*
X90870630Y-109920630D01*
X91002828Y-109812138D01*
X91153650Y-109731522D01*
X91317311Y-109681876D01*
X91493734Y-109664500D01*
X105356266Y-109664500D01*
X105532689Y-109681876D01*
D12*
G36*
X105532689Y-109681876D02*
G01*
X105696350Y-109731522D01*
X105847172Y-109812138D01*
X105979370Y-109920630D01*
X106087862Y-110052828D01*
X106168478Y-110203650D01*
X106218124Y-110367311D01*
X106235500Y-110543734D01*
X106235500Y-124406266D01*
X106218124Y-124582689D01*
X106168478Y-124746350D01*
X106087862Y-124897172D01*
X105979370Y-125029370D01*
X105847172Y-125137862D01*
X105696350Y-125218478D01*
X105532689Y-125268124D01*
X105356266Y-125285500D01*
X91493734Y-125285500D01*
X91317311Y-125268124D01*
X91153650Y-125218478D01*
X91002828Y-125137862D01*
X90870630Y-125029370D01*
X90762138Y-124897172D01*
X90681522Y-124746350D01*
X90631876Y-124582689D01*
X90614500Y-124406266D01*
X90614500Y-110543734D01*
X90621269Y-110475000D01*
X91425000Y-110475000D01*
X91425000Y-124475000D01*
X105425000Y-124475000D01*
X105425000Y-110475000D01*
X91425000Y-110475000D01*
X90621269Y-110475000D01*
X90631876Y-110367311D01*
X90681522Y-110203650D01*
X90762138Y-110052828D01*
X90870630Y-109920630D01*
X91002828Y-109812138D01*
X91153650Y-109731522D01*
X91317311Y-109681876D01*
X91493734Y-109664500D01*
X105356266Y-109664500D01*
X105532689Y-109681876D01*
G37*
D11*
X105532689Y-90631876D02*
X105696350Y-90681522D01*
X105847172Y-90762138D01*
X105979370Y-90870630D01*
X106087862Y-91002828D01*
X106168478Y-91153650D01*
X106218124Y-91317311D01*
X106235500Y-91493734D01*
X106235500Y-105356266D01*
X106218124Y-105532689D01*
X106168478Y-105696350D01*
X106087862Y-105847172D01*
X105979370Y-105979370D01*
X105847172Y-106087862D01*
X105696350Y-106168478D01*
X105532689Y-106218124D01*
X105356266Y-106235500D01*
X91493734Y-106235500D01*
X91317311Y-106218124D01*
X91153650Y-106168478D01*
X91002828Y-106087862D01*
X90870630Y-105979370D01*
X90762138Y-105847172D01*
X90681522Y-105696350D01*
X90631876Y-105532689D01*
X90614500Y-105356266D01*
X90614500Y-91493734D01*
X90621269Y-91425000D01*
X91425000Y-91425000D01*
X91425000Y-105425000D01*
X105425000Y-105425000D01*
X105425000Y-91425000D01*
X91425000Y-91425000D01*
X90621269Y-91425000D01*
X90631876Y-91317311D01*
X90681522Y-91153650D01*
X90762138Y-91002828D01*
X90870630Y-90870630D01*
X91002828Y-90762138D01*
X91153650Y-90681522D01*
X91317311Y-90631876D01*
X91493734Y-90614500D01*
X105356266Y-90614500D01*
X105532689Y-90631876D01*
D12*
G36*
X105532689Y-90631876D02*
G01*
X105696350Y-90681522D01*
X105847172Y-90762138D01*
X105979370Y-90870630D01*
X106087862Y-91002828D01*
X106168478Y-91153650D01*
X106218124Y-91317311D01*
X106235500Y-91493734D01*
X106235500Y-105356266D01*
X106218124Y-105532689D01*
X106168478Y-105696350D01*
X106087862Y-105847172D01*
X105979370Y-105979370D01*
X105847172Y-106087862D01*
X105696350Y-106168478D01*
X105532689Y-106218124D01*
X105356266Y-106235500D01*
X91493734Y-106235500D01*
X91317311Y-106218124D01*
X91153650Y-106168478D01*
X91002828Y-106087862D01*
X90870630Y-105979370D01*
X90762138Y-105847172D01*
X90681522Y-105696350D01*
X90631876Y-105532689D01*
X90614500Y-105356266D01*
X90614500Y-91493734D01*
X90621269Y-91425000D01*
X91425000Y-91425000D01*
X91425000Y-105425000D01*
X105425000Y-105425000D01*
X105425000Y-91425000D01*
X91425000Y-91425000D01*
X90621269Y-91425000D01*
X90631876Y-91317311D01*
X90681522Y-91153650D01*
X90762138Y-91002828D01*
X90870630Y-90870630D01*
X91002828Y-90762138D01*
X91153650Y-90681522D01*
X91317311Y-90631876D01*
X91493734Y-90614500D01*
X105356266Y-90614500D01*
X105532689Y-90631876D01*
G37*
D11*
X124582689Y-90631876D02*
X124746350Y-90681522D01*
X124897172Y-90762138D01*
X125029370Y-90870630D01*
X125137862Y-91002828D01*
X125218478Y-91153650D01*
X125268124Y-91317311D01*
X125285500Y-91493734D01*
X125285500Y-105356266D01*
X125268124Y-105532689D01*
X125218478Y-105696350D01*
X125137862Y-105847172D01*
X125029370Y-105979370D01*
X124897172Y-106087862D01*
X124746350Y-106168478D01*
X124582689Y-106218124D01*
X124406266Y-106235500D01*
X110543734Y-106235500D01*
X110367311Y-106218124D01*
X110203650Y-106168478D01*
X110052828Y-106087862D01*
X109920630Y-105979370D01*
X109812138Y-105847172D01*
X109731522Y-105696350D01*
X109681876Y-105532689D01*
X109664500Y-105356266D01*
X109664500Y-91493734D01*
X109671269Y-91425000D01*
X110475000Y-91425000D01*
X110475000Y-105425000D01*
X124475000Y-105425000D01*
X124475000Y-91425000D01*
X110475000Y-91425000D01*
X109671269Y-91425000D01*
X109681876Y-91317311D01*
X109731522Y-91153650D01*
X109812138Y-91002828D01*
X109920630Y-90870630D01*
X110052828Y-90762138D01*
X110203650Y-90681522D01*
X110367311Y-90631876D01*
X110543734Y-90614500D01*
X124406266Y-90614500D01*
X124582689Y-90631876D01*
D12*
G36*
X124582689Y-90631876D02*
G01*
X124746350Y-90681522D01*
X124897172Y-90762138D01*
X125029370Y-90870630D01*
X125137862Y-91002828D01*
X125218478Y-91153650D01*
X125268124Y-91317311D01*
X125285500Y-91493734D01*
X125285500Y-105356266D01*
X125268124Y-105532689D01*
X125218478Y-105696350D01*
X125137862Y-105847172D01*
X125029370Y-105979370D01*
X124897172Y-106087862D01*
X124746350Y-106168478D01*
X124582689Y-106218124D01*
X124406266Y-106235500D01*
X110543734Y-106235500D01*
X110367311Y-106218124D01*
X110203650Y-106168478D01*
X110052828Y-106087862D01*
X109920630Y-105979370D01*
X109812138Y-105847172D01*
X109731522Y-105696350D01*
X109681876Y-105532689D01*
X109664500Y-105356266D01*
X109664500Y-91493734D01*
X109671269Y-91425000D01*
X110475000Y-91425000D01*
X110475000Y-105425000D01*
X124475000Y-105425000D01*
X124475000Y-91425000D01*
X110475000Y-91425000D01*
X109671269Y-91425000D01*
X109681876Y-91317311D01*
X109731522Y-91153650D01*
X109812138Y-91002828D01*
X109920630Y-90870630D01*
X110052828Y-90762138D01*
X110203650Y-90681522D01*
X110367311Y-90631876D01*
X110543734Y-90614500D01*
X124406266Y-90614500D01*
X124582689Y-90631876D01*
G37*
D11*
X143632689Y-90631876D02*
X143796350Y-90681522D01*
X143947172Y-90762138D01*
X144079370Y-90870630D01*
X144187862Y-91002828D01*
X144268478Y-91153650D01*
X144318124Y-91317311D01*
X144335500Y-91493734D01*
X144335500Y-105356266D01*
X144318124Y-105532689D01*
X144268478Y-105696350D01*
X144187862Y-105847172D01*
X144079370Y-105979370D01*
X143947172Y-106087862D01*
X143796350Y-106168478D01*
X143632689Y-106218124D01*
X143456266Y-106235500D01*
X129593734Y-106235500D01*
X129417311Y-106218124D01*
X129253650Y-106168478D01*
X129102828Y-106087862D01*
X128970630Y-105979370D01*
X128862138Y-105847172D01*
X128781522Y-105696350D01*
X128731876Y-105532689D01*
X128714500Y-105356266D01*
X128714500Y-91493734D01*
X128721269Y-91425000D01*
X129525000Y-91425000D01*
X129525000Y-105425000D01*
X143525000Y-105425000D01*
X143525000Y-91425000D01*
X129525000Y-91425000D01*
X128721269Y-91425000D01*
X128731876Y-91317311D01*
X128781522Y-91153650D01*
X128862138Y-91002828D01*
X128970630Y-90870630D01*
X129102828Y-90762138D01*
X129253650Y-90681522D01*
X129417311Y-90631876D01*
X129593734Y-90614500D01*
X143456266Y-90614500D01*
X143632689Y-90631876D01*
D12*
G36*
X143632689Y-90631876D02*
G01*
X143796350Y-90681522D01*
X143947172Y-90762138D01*
X144079370Y-90870630D01*
X144187862Y-91002828D01*
X144268478Y-91153650D01*
X144318124Y-91317311D01*
X144335500Y-91493734D01*
X144335500Y-105356266D01*
X144318124Y-105532689D01*
X144268478Y-105696350D01*
X144187862Y-105847172D01*
X144079370Y-105979370D01*
X143947172Y-106087862D01*
X143796350Y-106168478D01*
X143632689Y-106218124D01*
X143456266Y-106235500D01*
X129593734Y-106235500D01*
X129417311Y-106218124D01*
X129253650Y-106168478D01*
X129102828Y-106087862D01*
X128970630Y-105979370D01*
X128862138Y-105847172D01*
X128781522Y-105696350D01*
X128731876Y-105532689D01*
X128714500Y-105356266D01*
X128714500Y-91493734D01*
X128721269Y-91425000D01*
X129525000Y-91425000D01*
X129525000Y-105425000D01*
X143525000Y-105425000D01*
X143525000Y-91425000D01*
X129525000Y-91425000D01*
X128721269Y-91425000D01*
X128731876Y-91317311D01*
X128781522Y-91153650D01*
X128862138Y-91002828D01*
X128970630Y-90870630D01*
X129102828Y-90762138D01*
X129253650Y-90681522D01*
X129417311Y-90631876D01*
X129593734Y-90614500D01*
X143456266Y-90614500D01*
X143632689Y-90631876D01*
G37*
D11*
X143632689Y-71581876D02*
X143796350Y-71631522D01*
X143947172Y-71712138D01*
X144079370Y-71820630D01*
X144187862Y-71952828D01*
X144268478Y-72103650D01*
X144318124Y-72267311D01*
X144335500Y-72443734D01*
X144335500Y-86306266D01*
X144318124Y-86482689D01*
X144268478Y-86646350D01*
X144187862Y-86797172D01*
X144079370Y-86929370D01*
X143947172Y-87037862D01*
X143796350Y-87118478D01*
X143632689Y-87168124D01*
X143456266Y-87185500D01*
X129593734Y-87185500D01*
X129417311Y-87168124D01*
X129253650Y-87118478D01*
X129102828Y-87037862D01*
X128970630Y-86929370D01*
X128862138Y-86797172D01*
X128781522Y-86646350D01*
X128731876Y-86482689D01*
X128714500Y-86306266D01*
X128714500Y-72443734D01*
X128721269Y-72375000D01*
X129525000Y-72375000D01*
X129525000Y-86375000D01*
X143525000Y-86375000D01*
X143525000Y-72375000D01*
X129525000Y-72375000D01*
X128721269Y-72375000D01*
X128731876Y-72267311D01*
X128781522Y-72103650D01*
X128862138Y-71952828D01*
X128970630Y-71820630D01*
X129102828Y-71712138D01*
X129253650Y-71631522D01*
X129417311Y-71581876D01*
X129593734Y-71564500D01*
X143456266Y-71564500D01*
X143632689Y-71581876D01*
D12*
G36*
X143632689Y-71581876D02*
G01*
X143796350Y-71631522D01*
X143947172Y-71712138D01*
X144079370Y-71820630D01*
X144187862Y-71952828D01*
X144268478Y-72103650D01*
X144318124Y-72267311D01*
X144335500Y-72443734D01*
X144335500Y-86306266D01*
X144318124Y-86482689D01*
X144268478Y-86646350D01*
X144187862Y-86797172D01*
X144079370Y-86929370D01*
X143947172Y-87037862D01*
X143796350Y-87118478D01*
X143632689Y-87168124D01*
X143456266Y-87185500D01*
X129593734Y-87185500D01*
X129417311Y-87168124D01*
X129253650Y-87118478D01*
X129102828Y-87037862D01*
X128970630Y-86929370D01*
X128862138Y-86797172D01*
X128781522Y-86646350D01*
X128731876Y-86482689D01*
X128714500Y-86306266D01*
X128714500Y-72443734D01*
X128721269Y-72375000D01*
X129525000Y-72375000D01*
X129525000Y-86375000D01*
X143525000Y-86375000D01*
X143525000Y-72375000D01*
X129525000Y-72375000D01*
X128721269Y-72375000D01*
X128731876Y-72267311D01*
X128781522Y-72103650D01*
X128862138Y-71952828D01*
X128970630Y-71820630D01*
X129102828Y-71712138D01*
X129253650Y-71631522D01*
X129417311Y-71581876D01*
X129593734Y-71564500D01*
X143456266Y-71564500D01*
X143632689Y-71581876D01*
G37*
D11*
X124582689Y-71581876D02*
X124746350Y-71631522D01*
X124897172Y-71712138D01*
X125029370Y-71820630D01*
X125137862Y-71952828D01*
X125218478Y-72103650D01*
X125268124Y-72267311D01*
X125285500Y-72443734D01*
X125285500Y-86306266D01*
X125268124Y-86482689D01*
X125218478Y-86646350D01*
X125137862Y-86797172D01*
X125029370Y-86929370D01*
X124897172Y-87037862D01*
X124746350Y-87118478D01*
X124582689Y-87168124D01*
X124406266Y-87185500D01*
X110543734Y-87185500D01*
X110367311Y-87168124D01*
X110203650Y-87118478D01*
X110052828Y-87037862D01*
X109920630Y-86929370D01*
X109812138Y-86797172D01*
X109731522Y-86646350D01*
X109681876Y-86482689D01*
X109664500Y-86306266D01*
X109664500Y-72443734D01*
X109671269Y-72375000D01*
X110475000Y-72375000D01*
X110475000Y-86375000D01*
X124475000Y-86375000D01*
X124475000Y-72375000D01*
X110475000Y-72375000D01*
X109671269Y-72375000D01*
X109681876Y-72267311D01*
X109731522Y-72103650D01*
X109812138Y-71952828D01*
X109920630Y-71820630D01*
X110052828Y-71712138D01*
X110203650Y-71631522D01*
X110367311Y-71581876D01*
X110543734Y-71564500D01*
X124406266Y-71564500D01*
X124582689Y-71581876D01*
D12*
G36*
X124582689Y-71581876D02*
G01*
X124746350Y-71631522D01*
X124897172Y-71712138D01*
X125029370Y-71820630D01*
X125137862Y-71952828D01*
X125218478Y-72103650D01*
X125268124Y-72267311D01*
X125285500Y-72443734D01*
X125285500Y-86306266D01*
X125268124Y-86482689D01*
X125218478Y-86646350D01*
X125137862Y-86797172D01*
X125029370Y-86929370D01*
X124897172Y-87037862D01*
X124746350Y-87118478D01*
X124582689Y-87168124D01*
X124406266Y-87185500D01*
X110543734Y-87185500D01*
X110367311Y-87168124D01*
X110203650Y-87118478D01*
X110052828Y-87037862D01*
X109920630Y-86929370D01*
X109812138Y-86797172D01*
X109731522Y-86646350D01*
X109681876Y-86482689D01*
X109664500Y-86306266D01*
X109664500Y-72443734D01*
X109671269Y-72375000D01*
X110475000Y-72375000D01*
X110475000Y-86375000D01*
X124475000Y-86375000D01*
X124475000Y-72375000D01*
X110475000Y-72375000D01*
X109671269Y-72375000D01*
X109681876Y-72267311D01*
X109731522Y-72103650D01*
X109812138Y-71952828D01*
X109920630Y-71820630D01*
X110052828Y-71712138D01*
X110203650Y-71631522D01*
X110367311Y-71581876D01*
X110543734Y-71564500D01*
X124406266Y-71564500D01*
X124582689Y-71581876D01*
G37*
D11*
X105532689Y-71581876D02*
X105696350Y-71631522D01*
X105847172Y-71712138D01*
X105979370Y-71820630D01*
X106087862Y-71952828D01*
X106168478Y-72103650D01*
X106218124Y-72267311D01*
X106235500Y-72443734D01*
X106235500Y-86306266D01*
X106218124Y-86482689D01*
X106168478Y-86646350D01*
X106087862Y-86797172D01*
X105979370Y-86929370D01*
X105847172Y-87037862D01*
X105696350Y-87118478D01*
X105532689Y-87168124D01*
X105356266Y-87185500D01*
X91493734Y-87185500D01*
X91317311Y-87168124D01*
X91153650Y-87118478D01*
X91002828Y-87037862D01*
X90870630Y-86929370D01*
X90762138Y-86797172D01*
X90681522Y-86646350D01*
X90631876Y-86482689D01*
X90614500Y-86306266D01*
X90614500Y-72443734D01*
X90621269Y-72375000D01*
X91425000Y-72375000D01*
X91425000Y-86375000D01*
X105425000Y-86375000D01*
X105425000Y-72375000D01*
X91425000Y-72375000D01*
X90621269Y-72375000D01*
X90631876Y-72267311D01*
X90681522Y-72103650D01*
X90762138Y-71952828D01*
X90870630Y-71820630D01*
X91002828Y-71712138D01*
X91153650Y-71631522D01*
X91317311Y-71581876D01*
X91493734Y-71564500D01*
X105356266Y-71564500D01*
X105532689Y-71581876D01*
D12*
G36*
X105532689Y-71581876D02*
G01*
X105696350Y-71631522D01*
X105847172Y-71712138D01*
X105979370Y-71820630D01*
X106087862Y-71952828D01*
X106168478Y-72103650D01*
X106218124Y-72267311D01*
X106235500Y-72443734D01*
X106235500Y-86306266D01*
X106218124Y-86482689D01*
X106168478Y-86646350D01*
X106087862Y-86797172D01*
X105979370Y-86929370D01*
X105847172Y-87037862D01*
X105696350Y-87118478D01*
X105532689Y-87168124D01*
X105356266Y-87185500D01*
X91493734Y-87185500D01*
X91317311Y-87168124D01*
X91153650Y-87118478D01*
X91002828Y-87037862D01*
X90870630Y-86929370D01*
X90762138Y-86797172D01*
X90681522Y-86646350D01*
X90631876Y-86482689D01*
X90614500Y-86306266D01*
X90614500Y-72443734D01*
X90621269Y-72375000D01*
X91425000Y-72375000D01*
X91425000Y-86375000D01*
X105425000Y-86375000D01*
X105425000Y-72375000D01*
X91425000Y-72375000D01*
X90621269Y-72375000D01*
X90631876Y-72267311D01*
X90681522Y-72103650D01*
X90762138Y-71952828D01*
X90870630Y-71820630D01*
X91002828Y-71712138D01*
X91153650Y-71631522D01*
X91317311Y-71581876D01*
X91493734Y-71564500D01*
X105356266Y-71564500D01*
X105532689Y-71581876D01*
G37*
D11*
X105532689Y-52531876D02*
X105696350Y-52581522D01*
X105847172Y-52662138D01*
X105979370Y-52770630D01*
X106087862Y-52902828D01*
X106168478Y-53053650D01*
X106218124Y-53217311D01*
X106235500Y-53393734D01*
X106235500Y-67256266D01*
X106218124Y-67432689D01*
X106168478Y-67596350D01*
X106087862Y-67747172D01*
X105979370Y-67879370D01*
X105847172Y-67987862D01*
X105696350Y-68068478D01*
X105532689Y-68118124D01*
X105356266Y-68135500D01*
X91493734Y-68135500D01*
X91317311Y-68118124D01*
X91153650Y-68068478D01*
X91002828Y-67987862D01*
X90870630Y-67879370D01*
X90762138Y-67747172D01*
X90681522Y-67596350D01*
X90631876Y-67432689D01*
X90614500Y-67256266D01*
X90614500Y-53393734D01*
X90621269Y-53325000D01*
X91425000Y-53325000D01*
X91425000Y-67325000D01*
X105425000Y-67325000D01*
X105425000Y-53325000D01*
X91425000Y-53325000D01*
X90621269Y-53325000D01*
X90631876Y-53217311D01*
X90681522Y-53053650D01*
X90762138Y-52902828D01*
X90870630Y-52770630D01*
X91002828Y-52662138D01*
X91153650Y-52581522D01*
X91317311Y-52531876D01*
X91493734Y-52514500D01*
X105356266Y-52514500D01*
X105532689Y-52531876D01*
D12*
G36*
X105532689Y-52531876D02*
G01*
X105696350Y-52581522D01*
X105847172Y-52662138D01*
X105979370Y-52770630D01*
X106087862Y-52902828D01*
X106168478Y-53053650D01*
X106218124Y-53217311D01*
X106235500Y-53393734D01*
X106235500Y-67256266D01*
X106218124Y-67432689D01*
X106168478Y-67596350D01*
X106087862Y-67747172D01*
X105979370Y-67879370D01*
X105847172Y-67987862D01*
X105696350Y-68068478D01*
X105532689Y-68118124D01*
X105356266Y-68135500D01*
X91493734Y-68135500D01*
X91317311Y-68118124D01*
X91153650Y-68068478D01*
X91002828Y-67987862D01*
X90870630Y-67879370D01*
X90762138Y-67747172D01*
X90681522Y-67596350D01*
X90631876Y-67432689D01*
X90614500Y-67256266D01*
X90614500Y-53393734D01*
X90621269Y-53325000D01*
X91425000Y-53325000D01*
X91425000Y-67325000D01*
X105425000Y-67325000D01*
X105425000Y-53325000D01*
X91425000Y-53325000D01*
X90621269Y-53325000D01*
X90631876Y-53217311D01*
X90681522Y-53053650D01*
X90762138Y-52902828D01*
X90870630Y-52770630D01*
X91002828Y-52662138D01*
X91153650Y-52581522D01*
X91317311Y-52531876D01*
X91493734Y-52514500D01*
X105356266Y-52514500D01*
X105532689Y-52531876D01*
G37*
D11*
X124582689Y-52531876D02*
X124746350Y-52581522D01*
X124897172Y-52662138D01*
X125029370Y-52770630D01*
X125137862Y-52902828D01*
X125218478Y-53053650D01*
X125268124Y-53217311D01*
X125285500Y-53393734D01*
X125285500Y-67256266D01*
X125268124Y-67432689D01*
X125218478Y-67596350D01*
X125137862Y-67747172D01*
X125029370Y-67879370D01*
X124897172Y-67987862D01*
X124746350Y-68068478D01*
X124582689Y-68118124D01*
X124406266Y-68135500D01*
X110543734Y-68135500D01*
X110367311Y-68118124D01*
X110203650Y-68068478D01*
X110052828Y-67987862D01*
X109920630Y-67879370D01*
X109812138Y-67747172D01*
X109731522Y-67596350D01*
X109681876Y-67432689D01*
X109664500Y-67256266D01*
X109664500Y-53393734D01*
X109671269Y-53325000D01*
X110475000Y-53325000D01*
X110475000Y-67325000D01*
X124475000Y-67325000D01*
X124475000Y-53325000D01*
X110475000Y-53325000D01*
X109671269Y-53325000D01*
X109681876Y-53217311D01*
X109731522Y-53053650D01*
X109812138Y-52902828D01*
X109920630Y-52770630D01*
X110052828Y-52662138D01*
X110203650Y-52581522D01*
X110367311Y-52531876D01*
X110543734Y-52514500D01*
X124406266Y-52514500D01*
X124582689Y-52531876D01*
D12*
G36*
X124582689Y-52531876D02*
G01*
X124746350Y-52581522D01*
X124897172Y-52662138D01*
X125029370Y-52770630D01*
X125137862Y-52902828D01*
X125218478Y-53053650D01*
X125268124Y-53217311D01*
X125285500Y-53393734D01*
X125285500Y-67256266D01*
X125268124Y-67432689D01*
X125218478Y-67596350D01*
X125137862Y-67747172D01*
X125029370Y-67879370D01*
X124897172Y-67987862D01*
X124746350Y-68068478D01*
X124582689Y-68118124D01*
X124406266Y-68135500D01*
X110543734Y-68135500D01*
X110367311Y-68118124D01*
X110203650Y-68068478D01*
X110052828Y-67987862D01*
X109920630Y-67879370D01*
X109812138Y-67747172D01*
X109731522Y-67596350D01*
X109681876Y-67432689D01*
X109664500Y-67256266D01*
X109664500Y-53393734D01*
X109671269Y-53325000D01*
X110475000Y-53325000D01*
X110475000Y-67325000D01*
X124475000Y-67325000D01*
X124475000Y-53325000D01*
X110475000Y-53325000D01*
X109671269Y-53325000D01*
X109681876Y-53217311D01*
X109731522Y-53053650D01*
X109812138Y-52902828D01*
X109920630Y-52770630D01*
X110052828Y-52662138D01*
X110203650Y-52581522D01*
X110367311Y-52531876D01*
X110543734Y-52514500D01*
X124406266Y-52514500D01*
X124582689Y-52531876D01*
G37*
D11*
X143632689Y-52531876D02*
X143796350Y-52581522D01*
X143947172Y-52662138D01*
X144079370Y-52770630D01*
X144187862Y-52902828D01*
X144268478Y-53053650D01*
X144318124Y-53217311D01*
X144335500Y-53393734D01*
X144335500Y-67256266D01*
X144318124Y-67432689D01*
X144268478Y-67596350D01*
X144187862Y-67747172D01*
X144079370Y-67879370D01*
X143947172Y-67987862D01*
X143796350Y-68068478D01*
X143632689Y-68118124D01*
X143456266Y-68135500D01*
X129593734Y-68135500D01*
X129417311Y-68118124D01*
X129253650Y-68068478D01*
X129102828Y-67987862D01*
X128970630Y-67879370D01*
X128862138Y-67747172D01*
X128781522Y-67596350D01*
X128731876Y-67432689D01*
X128714500Y-67256266D01*
X128714500Y-53393734D01*
X128721269Y-53325000D01*
X129525000Y-53325000D01*
X129525000Y-67325000D01*
X143525000Y-67325000D01*
X143525000Y-53325000D01*
X129525000Y-53325000D01*
X128721269Y-53325000D01*
X128731876Y-53217311D01*
X128781522Y-53053650D01*
X128862138Y-52902828D01*
X128970630Y-52770630D01*
X129102828Y-52662138D01*
X129253650Y-52581522D01*
X129417311Y-52531876D01*
X129593734Y-52514500D01*
X143456266Y-52514500D01*
X143632689Y-52531876D01*
D12*
G36*
X143632689Y-52531876D02*
G01*
X143796350Y-52581522D01*
X143947172Y-52662138D01*
X144079370Y-52770630D01*
X144187862Y-52902828D01*
X144268478Y-53053650D01*
X144318124Y-53217311D01*
X144335500Y-53393734D01*
X144335500Y-67256266D01*
X144318124Y-67432689D01*
X144268478Y-67596350D01*
X144187862Y-67747172D01*
X144079370Y-67879370D01*
X143947172Y-67987862D01*
X143796350Y-68068478D01*
X143632689Y-68118124D01*
X143456266Y-68135500D01*
X129593734Y-68135500D01*
X129417311Y-68118124D01*
X129253650Y-68068478D01*
X129102828Y-67987862D01*
X128970630Y-67879370D01*
X128862138Y-67747172D01*
X128781522Y-67596350D01*
X128731876Y-67432689D01*
X128714500Y-67256266D01*
X128714500Y-53393734D01*
X128721269Y-53325000D01*
X129525000Y-53325000D01*
X129525000Y-67325000D01*
X143525000Y-67325000D01*
X143525000Y-53325000D01*
X129525000Y-53325000D01*
X128721269Y-53325000D01*
X128731876Y-53217311D01*
X128781522Y-53053650D01*
X128862138Y-52902828D01*
X128970630Y-52770630D01*
X129102828Y-52662138D01*
X129253650Y-52581522D01*
X129417311Y-52531876D01*
X129593734Y-52514500D01*
X143456266Y-52514500D01*
X143632689Y-52531876D01*
G37*
D11*
X48382689Y-128731876D02*
X48546350Y-128781522D01*
X48697172Y-128862138D01*
X48829370Y-128970630D01*
X48937862Y-129102828D01*
X49018478Y-129253650D01*
X49068124Y-129417311D01*
X49085500Y-129593734D01*
X49085500Y-143456266D01*
X49068124Y-143632689D01*
X49018478Y-143796350D01*
X48937862Y-143947172D01*
X48829370Y-144079370D01*
X48697172Y-144187862D01*
X48546350Y-144268478D01*
X48382689Y-144318124D01*
X48206266Y-144335500D01*
X34343734Y-144335500D01*
X34167311Y-144318124D01*
X34003650Y-144268478D01*
X33852828Y-144187862D01*
X33720630Y-144079370D01*
X33612138Y-143947172D01*
X33531522Y-143796350D01*
X33481876Y-143632689D01*
X33464500Y-143456266D01*
X33464500Y-129593734D01*
X33471269Y-129525000D01*
X34275000Y-129525000D01*
X34275000Y-143525000D01*
X48275000Y-143525000D01*
X48275000Y-129525000D01*
X34275000Y-129525000D01*
X33471269Y-129525000D01*
X33481876Y-129417311D01*
X33531522Y-129253650D01*
X33612138Y-129102828D01*
X33720630Y-128970630D01*
X33852828Y-128862138D01*
X34003650Y-128781522D01*
X34167311Y-128731876D01*
X34343734Y-128714500D01*
X48206266Y-128714500D01*
X48382689Y-128731876D01*
D12*
G36*
X48382689Y-128731876D02*
G01*
X48546350Y-128781522D01*
X48697172Y-128862138D01*
X48829370Y-128970630D01*
X48937862Y-129102828D01*
X49018478Y-129253650D01*
X49068124Y-129417311D01*
X49085500Y-129593734D01*
X49085500Y-143456266D01*
X49068124Y-143632689D01*
X49018478Y-143796350D01*
X48937862Y-143947172D01*
X48829370Y-144079370D01*
X48697172Y-144187862D01*
X48546350Y-144268478D01*
X48382689Y-144318124D01*
X48206266Y-144335500D01*
X34343734Y-144335500D01*
X34167311Y-144318124D01*
X34003650Y-144268478D01*
X33852828Y-144187862D01*
X33720630Y-144079370D01*
X33612138Y-143947172D01*
X33531522Y-143796350D01*
X33481876Y-143632689D01*
X33464500Y-143456266D01*
X33464500Y-129593734D01*
X33471269Y-129525000D01*
X34275000Y-129525000D01*
X34275000Y-143525000D01*
X48275000Y-143525000D01*
X48275000Y-129525000D01*
X34275000Y-129525000D01*
X33471269Y-129525000D01*
X33481876Y-129417311D01*
X33531522Y-129253650D01*
X33612138Y-129102828D01*
X33720630Y-128970630D01*
X33852828Y-128862138D01*
X34003650Y-128781522D01*
X34167311Y-128731876D01*
X34343734Y-128714500D01*
X48206266Y-128714500D01*
X48382689Y-128731876D01*
G37*
D11*
X67432689Y-128731876D02*
X67596350Y-128781522D01*
X67747172Y-128862138D01*
X67879370Y-128970630D01*
X67987862Y-129102828D01*
X68068478Y-129253650D01*
X68118124Y-129417311D01*
X68135500Y-129593734D01*
X68135500Y-143456266D01*
X68118124Y-143632689D01*
X68068478Y-143796350D01*
X67987862Y-143947172D01*
X67879370Y-144079370D01*
X67747172Y-144187862D01*
X67596350Y-144268478D01*
X67432689Y-144318124D01*
X67256266Y-144335500D01*
X53393734Y-144335500D01*
X53217311Y-144318124D01*
X53053650Y-144268478D01*
X52902828Y-144187862D01*
X52770630Y-144079370D01*
X52662138Y-143947172D01*
X52581522Y-143796350D01*
X52531876Y-143632689D01*
X52514500Y-143456266D01*
X52514500Y-129593734D01*
X52521269Y-129525000D01*
X53325000Y-129525000D01*
X53325000Y-143525000D01*
X67325000Y-143525000D01*
X67325000Y-129525000D01*
X53325000Y-129525000D01*
X52521269Y-129525000D01*
X52531876Y-129417311D01*
X52581522Y-129253650D01*
X52662138Y-129102828D01*
X52770630Y-128970630D01*
X52902828Y-128862138D01*
X53053650Y-128781522D01*
X53217311Y-128731876D01*
X53393734Y-128714500D01*
X67256266Y-128714500D01*
X67432689Y-128731876D01*
D12*
G36*
X67432689Y-128731876D02*
G01*
X67596350Y-128781522D01*
X67747172Y-128862138D01*
X67879370Y-128970630D01*
X67987862Y-129102828D01*
X68068478Y-129253650D01*
X68118124Y-129417311D01*
X68135500Y-129593734D01*
X68135500Y-143456266D01*
X68118124Y-143632689D01*
X68068478Y-143796350D01*
X67987862Y-143947172D01*
X67879370Y-144079370D01*
X67747172Y-144187862D01*
X67596350Y-144268478D01*
X67432689Y-144318124D01*
X67256266Y-144335500D01*
X53393734Y-144335500D01*
X53217311Y-144318124D01*
X53053650Y-144268478D01*
X52902828Y-144187862D01*
X52770630Y-144079370D01*
X52662138Y-143947172D01*
X52581522Y-143796350D01*
X52531876Y-143632689D01*
X52514500Y-143456266D01*
X52514500Y-129593734D01*
X52521269Y-129525000D01*
X53325000Y-129525000D01*
X53325000Y-143525000D01*
X67325000Y-143525000D01*
X67325000Y-129525000D01*
X53325000Y-129525000D01*
X52521269Y-129525000D01*
X52531876Y-129417311D01*
X52581522Y-129253650D01*
X52662138Y-129102828D01*
X52770630Y-128970630D01*
X52902828Y-128862138D01*
X53053650Y-128781522D01*
X53217311Y-128731876D01*
X53393734Y-128714500D01*
X67256266Y-128714500D01*
X67432689Y-128731876D01*
G37*
D11*
X57907689Y-100156876D02*
X58071350Y-100206522D01*
X58222172Y-100287138D01*
X58354370Y-100395630D01*
X58462862Y-100527828D01*
X58543478Y-100678650D01*
X58593124Y-100842311D01*
X58610500Y-101018734D01*
X58610500Y-114881266D01*
X58593124Y-115057689D01*
X58543478Y-115221350D01*
X58462862Y-115372172D01*
X58354370Y-115504370D01*
X58222172Y-115612862D01*
X58071350Y-115693478D01*
X57907689Y-115743124D01*
X57731266Y-115760500D01*
X43868734Y-115760500D01*
X43692311Y-115743124D01*
X43528650Y-115693478D01*
X43377828Y-115612862D01*
X43245630Y-115504370D01*
X43137138Y-115372172D01*
X43056522Y-115221350D01*
X43006876Y-115057689D01*
X42989500Y-114881266D01*
X42989500Y-101018734D01*
X42996269Y-100950000D01*
X43800000Y-100950000D01*
X43800000Y-114950000D01*
X57800000Y-114950000D01*
X57800000Y-100950000D01*
X43800000Y-100950000D01*
X42996269Y-100950000D01*
X43006876Y-100842311D01*
X43056522Y-100678650D01*
X43137138Y-100527828D01*
X43245630Y-100395630D01*
X43377828Y-100287138D01*
X43528650Y-100206522D01*
X43692311Y-100156876D01*
X43868734Y-100139500D01*
X57731266Y-100139500D01*
X57907689Y-100156876D01*
D12*
G36*
X57907689Y-100156876D02*
G01*
X58071350Y-100206522D01*
X58222172Y-100287138D01*
X58354370Y-100395630D01*
X58462862Y-100527828D01*
X58543478Y-100678650D01*
X58593124Y-100842311D01*
X58610500Y-101018734D01*
X58610500Y-114881266D01*
X58593124Y-115057689D01*
X58543478Y-115221350D01*
X58462862Y-115372172D01*
X58354370Y-115504370D01*
X58222172Y-115612862D01*
X58071350Y-115693478D01*
X57907689Y-115743124D01*
X57731266Y-115760500D01*
X43868734Y-115760500D01*
X43692311Y-115743124D01*
X43528650Y-115693478D01*
X43377828Y-115612862D01*
X43245630Y-115504370D01*
X43137138Y-115372172D01*
X43056522Y-115221350D01*
X43006876Y-115057689D01*
X42989500Y-114881266D01*
X42989500Y-101018734D01*
X42996269Y-100950000D01*
X43800000Y-100950000D01*
X43800000Y-114950000D01*
X57800000Y-114950000D01*
X57800000Y-100950000D01*
X43800000Y-100950000D01*
X42996269Y-100950000D01*
X43006876Y-100842311D01*
X43056522Y-100678650D01*
X43137138Y-100527828D01*
X43245630Y-100395630D01*
X43377828Y-100287138D01*
X43528650Y-100206522D01*
X43692311Y-100156876D01*
X43868734Y-100139500D01*
X57731266Y-100139500D01*
X57907689Y-100156876D01*
G37*
M02*
