%TF.GenerationSoftware,KiCad,Pcbnew,(5.1.10)-1*%
%TF.CreationDate,2021-07-10T22:05:52+03:00*%
%TF.ProjectId,BedoPadPcb,4265646f-5061-4645-9063-622e6b696361,rev?*%
%TF.SameCoordinates,Original*%
%TF.FileFunction,Legend,Bot*%
%TF.FilePolarity,Positive*%
%FSLAX46Y46*%
G04 Gerber Fmt 4.6, Leading zero omitted, Abs format (unit mm)*
G04 Created by KiCad (PCBNEW (5.1.10)-1) date 2021-07-10 22:05:52*
%MOMM*%
%LPD*%
G01*
G04 APERTURE LIST*
%ADD10C,0.150000*%
%ADD11C,0.010000*%
%ADD12C,0.400000*%
%ADD13C,0.500000*%
%ADD14C,3.500000*%
%ADD15C,1.000000*%
%ADD16C,3.000000*%
%ADD17C,0.800000*%
%ADD18C,0.300000*%
G04 APERTURE END LIST*
D10*
X27884380Y-57094619D02*
X27408190Y-56761285D01*
X27884380Y-56523190D02*
X26884380Y-56523190D01*
X26884380Y-56904142D01*
X26932000Y-56999380D01*
X26979619Y-57047000D01*
X27074857Y-57094619D01*
X27217714Y-57094619D01*
X27312952Y-57047000D01*
X27360571Y-56999380D01*
X27408190Y-56904142D01*
X27408190Y-56523190D01*
X27360571Y-57523190D02*
X27360571Y-57856523D01*
X27884380Y-57999380D02*
X27884380Y-57523190D01*
X26884380Y-57523190D01*
X26884380Y-57999380D01*
X27836761Y-58380333D02*
X27884380Y-58523190D01*
X27884380Y-58761285D01*
X27836761Y-58856523D01*
X27789142Y-58904142D01*
X27693904Y-58951761D01*
X27598666Y-58951761D01*
X27503428Y-58904142D01*
X27455809Y-58856523D01*
X27408190Y-58761285D01*
X27360571Y-58570809D01*
X27312952Y-58475571D01*
X27265333Y-58427952D01*
X27170095Y-58380333D01*
X27074857Y-58380333D01*
X26979619Y-58427952D01*
X26932000Y-58475571D01*
X26884380Y-58570809D01*
X26884380Y-58808904D01*
X26932000Y-58951761D01*
X27360571Y-59380333D02*
X27360571Y-59713666D01*
X27884380Y-59856523D02*
X27884380Y-59380333D01*
X26884380Y-59380333D01*
X26884380Y-59856523D01*
X26884380Y-60142238D02*
X26884380Y-60713666D01*
X27884380Y-60427952D02*
X26884380Y-60427952D01*
X32948571Y-72747761D02*
X32996190Y-72890619D01*
X33043809Y-72938238D01*
X33139047Y-72985857D01*
X33281904Y-72985857D01*
X33377142Y-72938238D01*
X33424761Y-72890619D01*
X33472380Y-72795380D01*
X33472380Y-72414428D01*
X32472380Y-72414428D01*
X32472380Y-72747761D01*
X32520000Y-72843000D01*
X32567619Y-72890619D01*
X32662857Y-72938238D01*
X32758095Y-72938238D01*
X32853333Y-72890619D01*
X32900952Y-72843000D01*
X32948571Y-72747761D01*
X32948571Y-72414428D01*
X33424761Y-73795380D02*
X33472380Y-73700142D01*
X33472380Y-73509666D01*
X33424761Y-73414428D01*
X33329523Y-73366809D01*
X32948571Y-73366809D01*
X32853333Y-73414428D01*
X32805714Y-73509666D01*
X32805714Y-73700142D01*
X32853333Y-73795380D01*
X32948571Y-73843000D01*
X33043809Y-73843000D01*
X33139047Y-73366809D01*
X33472380Y-74700142D02*
X32472380Y-74700142D01*
X33424761Y-74700142D02*
X33472380Y-74604904D01*
X33472380Y-74414428D01*
X33424761Y-74319190D01*
X33377142Y-74271571D01*
X33281904Y-74223952D01*
X32996190Y-74223952D01*
X32900952Y-74271571D01*
X32853333Y-74319190D01*
X32805714Y-74414428D01*
X32805714Y-74604904D01*
X32853333Y-74700142D01*
X33472380Y-75319190D02*
X33424761Y-75223952D01*
X33377142Y-75176333D01*
X33281904Y-75128714D01*
X32996190Y-75128714D01*
X32900952Y-75176333D01*
X32853333Y-75223952D01*
X32805714Y-75319190D01*
X32805714Y-75462047D01*
X32853333Y-75557285D01*
X32900952Y-75604904D01*
X32996190Y-75652523D01*
X33281904Y-75652523D01*
X33377142Y-75604904D01*
X33424761Y-75557285D01*
X33472380Y-75462047D01*
X33472380Y-75319190D01*
X33472380Y-76081095D02*
X32472380Y-76081095D01*
X32472380Y-76462047D01*
X32520000Y-76557285D01*
X32567619Y-76604904D01*
X32662857Y-76652523D01*
X32805714Y-76652523D01*
X32900952Y-76604904D01*
X32948571Y-76557285D01*
X32996190Y-76462047D01*
X32996190Y-76081095D01*
X33472380Y-77509666D02*
X32948571Y-77509666D01*
X32853333Y-77462047D01*
X32805714Y-77366809D01*
X32805714Y-77176333D01*
X32853333Y-77081095D01*
X33424761Y-77509666D02*
X33472380Y-77414428D01*
X33472380Y-77176333D01*
X33424761Y-77081095D01*
X33329523Y-77033476D01*
X33234285Y-77033476D01*
X33139047Y-77081095D01*
X33091428Y-77176333D01*
X33091428Y-77414428D01*
X33043809Y-77509666D01*
X33472380Y-78414428D02*
X32472380Y-78414428D01*
X33424761Y-78414428D02*
X33472380Y-78319190D01*
X33472380Y-78128714D01*
X33424761Y-78033476D01*
X33377142Y-77985857D01*
X33281904Y-77938238D01*
X32996190Y-77938238D01*
X32900952Y-77985857D01*
X32853333Y-78033476D01*
X32805714Y-78128714D01*
X32805714Y-78319190D01*
X32853333Y-78414428D01*
X33472380Y-79652523D02*
X32472380Y-79652523D01*
X33186666Y-79985857D01*
X32472380Y-80319190D01*
X33472380Y-80319190D01*
X33472380Y-80795380D02*
X32472380Y-80795380D01*
X33472380Y-81366809D02*
X32900952Y-80938238D01*
X32472380Y-81366809D02*
X33043809Y-80795380D01*
X33472380Y-82319190D02*
X33472380Y-81747761D01*
X33472380Y-82033476D02*
X32472380Y-82033476D01*
X32615238Y-81938238D01*
X32710476Y-81843000D01*
X32758095Y-81747761D01*
D11*
%TO.C,G\u002A\u002A\u002A*%
G36*
X147174152Y-66138642D02*
G01*
X147203026Y-66176183D01*
X147244760Y-66225108D01*
X147267311Y-66250139D01*
X147371256Y-66363576D01*
X147419711Y-66317153D01*
X147450476Y-66285392D01*
X147467171Y-66263709D01*
X147468166Y-66260744D01*
X147456909Y-66245280D01*
X147426655Y-66211889D01*
X147382677Y-66166262D01*
X147352998Y-66136472D01*
X147237830Y-66022186D01*
X147200598Y-66061818D01*
X147174585Y-66094553D01*
X147163376Y-66118663D01*
X147163366Y-66119075D01*
X147174152Y-66138642D01*
G37*
X147174152Y-66138642D02*
X147203026Y-66176183D01*
X147244760Y-66225108D01*
X147267311Y-66250139D01*
X147371256Y-66363576D01*
X147419711Y-66317153D01*
X147450476Y-66285392D01*
X147467171Y-66263709D01*
X147468166Y-66260744D01*
X147456909Y-66245280D01*
X147426655Y-66211889D01*
X147382677Y-66166262D01*
X147352998Y-66136472D01*
X147237830Y-66022186D01*
X147200598Y-66061818D01*
X147174585Y-66094553D01*
X147163376Y-66118663D01*
X147163366Y-66119075D01*
X147174152Y-66138642D01*
G36*
X147344330Y-65922159D02*
G01*
X147374772Y-65956677D01*
X147417349Y-66000575D01*
X147465386Y-66047390D01*
X147512207Y-66090661D01*
X147551137Y-66123927D01*
X147575500Y-66140725D01*
X147578709Y-66141599D01*
X147600256Y-66129135D01*
X147628965Y-66098537D01*
X147633491Y-66092600D01*
X147669718Y-66043601D01*
X147540920Y-65920378D01*
X147412121Y-65797155D01*
X147372410Y-65843321D01*
X147346018Y-65877565D01*
X147332991Y-65901447D01*
X147332699Y-65903481D01*
X147344330Y-65922159D01*
G37*
X147344330Y-65922159D02*
X147374772Y-65956677D01*
X147417349Y-66000575D01*
X147465386Y-66047390D01*
X147512207Y-66090661D01*
X147551137Y-66123927D01*
X147575500Y-66140725D01*
X147578709Y-66141599D01*
X147600256Y-66129135D01*
X147628965Y-66098537D01*
X147633491Y-66092600D01*
X147669718Y-66043601D01*
X147540920Y-65920378D01*
X147412121Y-65797155D01*
X147372410Y-65843321D01*
X147346018Y-65877565D01*
X147332991Y-65901447D01*
X147332699Y-65903481D01*
X147344330Y-65922159D01*
G36*
X147394304Y-60554310D02*
G01*
X147423375Y-60589713D01*
X147465699Y-60637819D01*
X147495961Y-60670945D01*
X147608422Y-60792414D01*
X147656827Y-60746039D01*
X147687574Y-60714293D01*
X147704246Y-60692627D01*
X147705233Y-60689677D01*
X147693968Y-60674254D01*
X147663642Y-60640814D01*
X147619464Y-60594963D01*
X147587128Y-60562491D01*
X147469023Y-60445291D01*
X147426261Y-60485464D01*
X147397509Y-60515591D01*
X147383710Y-60536175D01*
X147383499Y-60537557D01*
X147394304Y-60554310D01*
G37*
X147394304Y-60554310D02*
X147423375Y-60589713D01*
X147465699Y-60637819D01*
X147495961Y-60670945D01*
X147608422Y-60792414D01*
X147656827Y-60746039D01*
X147687574Y-60714293D01*
X147704246Y-60692627D01*
X147705233Y-60689677D01*
X147693968Y-60674254D01*
X147663642Y-60640814D01*
X147619464Y-60594963D01*
X147587128Y-60562491D01*
X147469023Y-60445291D01*
X147426261Y-60485464D01*
X147397509Y-60515591D01*
X147383710Y-60536175D01*
X147383499Y-60537557D01*
X147394304Y-60554310D01*
G36*
X147445159Y-63568448D02*
G01*
X147473462Y-63603995D01*
X147512797Y-63649248D01*
X147556752Y-63697225D01*
X147598916Y-63740948D01*
X147632877Y-63773435D01*
X147652222Y-63787708D01*
X147653190Y-63787866D01*
X147670127Y-63775572D01*
X147696310Y-63745396D01*
X147700717Y-63739553D01*
X147736436Y-63691240D01*
X147613460Y-63569084D01*
X147490483Y-63446928D01*
X147462391Y-63489801D01*
X147442238Y-63525719D01*
X147434300Y-63549584D01*
X147445159Y-63568448D01*
G37*
X147445159Y-63568448D02*
X147473462Y-63603995D01*
X147512797Y-63649248D01*
X147556752Y-63697225D01*
X147598916Y-63740948D01*
X147632877Y-63773435D01*
X147652222Y-63787708D01*
X147653190Y-63787866D01*
X147670127Y-63775572D01*
X147696310Y-63745396D01*
X147700717Y-63739553D01*
X147736436Y-63691240D01*
X147613460Y-63569084D01*
X147490483Y-63446928D01*
X147462391Y-63489801D01*
X147442238Y-63525719D01*
X147434300Y-63549584D01*
X147445159Y-63568448D01*
G36*
X147654433Y-63121530D02*
G01*
X147739100Y-63120393D01*
X147739100Y-61738933D01*
X147569766Y-61738933D01*
X147569766Y-63122666D01*
X147654433Y-63121530D01*
G37*
X147654433Y-63121530D02*
X147739100Y-63120393D01*
X147739100Y-61738933D01*
X147569766Y-61738933D01*
X147569766Y-63122666D01*
X147654433Y-63121530D01*
G36*
X147462269Y-57835365D02*
G01*
X147491934Y-57870049D01*
X147535062Y-57917057D01*
X147564332Y-57947776D01*
X147677430Y-58064926D01*
X147725198Y-58019161D01*
X147755211Y-57987799D01*
X147770559Y-57966610D01*
X147771121Y-57963865D01*
X147759073Y-57948676D01*
X147728011Y-57915216D01*
X147683093Y-57868936D01*
X147645535Y-57831199D01*
X147521795Y-57708066D01*
X147486514Y-57757613D01*
X147463089Y-57793489D01*
X147451500Y-57817076D01*
X147451233Y-57818893D01*
X147462269Y-57835365D01*
G37*
X147462269Y-57835365D02*
X147491934Y-57870049D01*
X147535062Y-57917057D01*
X147564332Y-57947776D01*
X147677430Y-58064926D01*
X147725198Y-58019161D01*
X147755211Y-57987799D01*
X147770559Y-57966610D01*
X147771121Y-57963865D01*
X147759073Y-57948676D01*
X147728011Y-57915216D01*
X147683093Y-57868936D01*
X147645535Y-57831199D01*
X147521795Y-57708066D01*
X147486514Y-57757613D01*
X147463089Y-57793489D01*
X147451500Y-57817076D01*
X147451233Y-57818893D01*
X147462269Y-57835365D01*
G36*
X147679664Y-60458649D02*
G01*
X147733255Y-60510590D01*
X147778919Y-60550810D01*
X147811178Y-60574734D01*
X147823716Y-60579031D01*
X147843385Y-60559371D01*
X147869719Y-60524953D01*
X147870754Y-60523454D01*
X147902385Y-60477400D01*
X147772726Y-60355034D01*
X147643066Y-60232669D01*
X147597043Y-60280707D01*
X147551019Y-60328746D01*
X147679664Y-60458649D01*
G37*
X147679664Y-60458649D02*
X147733255Y-60510590D01*
X147778919Y-60550810D01*
X147811178Y-60574734D01*
X147823716Y-60579031D01*
X147843385Y-60559371D01*
X147869719Y-60524953D01*
X147870754Y-60523454D01*
X147902385Y-60477400D01*
X147772726Y-60355034D01*
X147643066Y-60232669D01*
X147597043Y-60280707D01*
X147551019Y-60328746D01*
X147679664Y-60458649D01*
G36*
X147719959Y-63452767D02*
G01*
X147837759Y-63576200D01*
X147881562Y-63535148D01*
X147910688Y-63505262D01*
X147925049Y-63485445D01*
X147925366Y-63483924D01*
X147914035Y-63468530D01*
X147883470Y-63435104D01*
X147838812Y-63389126D01*
X147802600Y-63353076D01*
X147679833Y-63232400D01*
X147640996Y-63280867D01*
X147602160Y-63329334D01*
X147719959Y-63452767D01*
G37*
X147719959Y-63452767D02*
X147837759Y-63576200D01*
X147881562Y-63535148D01*
X147910688Y-63505262D01*
X147925049Y-63485445D01*
X147925366Y-63483924D01*
X147914035Y-63468530D01*
X147883470Y-63435104D01*
X147838812Y-63389126D01*
X147802600Y-63353076D01*
X147679833Y-63232400D01*
X147640996Y-63280867D01*
X147602160Y-63329334D01*
X147719959Y-63452767D01*
G36*
X147685603Y-57671528D02*
G01*
X147725550Y-57717919D01*
X147772485Y-57766566D01*
X147819415Y-57810927D01*
X147859347Y-57844461D01*
X147885286Y-57860624D01*
X147888364Y-57861199D01*
X147904622Y-57849390D01*
X147930257Y-57821545D01*
X147955977Y-57789037D01*
X147972487Y-57763239D01*
X147974283Y-57756052D01*
X147962026Y-57743073D01*
X147930441Y-57711947D01*
X147884788Y-57667815D01*
X147847149Y-57631814D01*
X147721897Y-57512494D01*
X147677485Y-57558850D01*
X147633074Y-57605205D01*
X147685603Y-57671528D01*
G37*
X147685603Y-57671528D02*
X147725550Y-57717919D01*
X147772485Y-57766566D01*
X147819415Y-57810927D01*
X147859347Y-57844461D01*
X147885286Y-57860624D01*
X147888364Y-57861199D01*
X147904622Y-57849390D01*
X147930257Y-57821545D01*
X147955977Y-57789037D01*
X147972487Y-57763239D01*
X147974283Y-57756052D01*
X147962026Y-57743073D01*
X147930441Y-57711947D01*
X147884788Y-57667815D01*
X147847149Y-57631814D01*
X147721897Y-57512494D01*
X147677485Y-57558850D01*
X147633074Y-57605205D01*
X147685603Y-57671528D01*
G36*
X148173897Y-59933769D02*
G01*
X148204525Y-59988722D01*
X148247480Y-60057682D01*
X148298908Y-60135293D01*
X148354953Y-60216198D01*
X148411761Y-60295040D01*
X148465477Y-60366463D01*
X148512245Y-60425110D01*
X148548211Y-60465623D01*
X148568695Y-60482374D01*
X148584058Y-60472909D01*
X148611635Y-60445782D01*
X148643224Y-60410352D01*
X148670624Y-60375980D01*
X148685634Y-60352026D01*
X148686465Y-60347963D01*
X148675904Y-60333175D01*
X148648517Y-60298943D01*
X148609424Y-60251617D01*
X148592855Y-60231866D01*
X148544904Y-60171945D01*
X148486495Y-60094495D01*
X148425663Y-60010363D01*
X148379610Y-59944000D01*
X148332986Y-59877290D01*
X148292185Y-59822747D01*
X148261276Y-59785541D01*
X148244325Y-59770841D01*
X148243372Y-59770849D01*
X148220148Y-59783344D01*
X148184068Y-59807770D01*
X148179084Y-59811419D01*
X148130499Y-59847339D01*
X148173897Y-59933769D01*
G37*
X148173897Y-59933769D02*
X148204525Y-59988722D01*
X148247480Y-60057682D01*
X148298908Y-60135293D01*
X148354953Y-60216198D01*
X148411761Y-60295040D01*
X148465477Y-60366463D01*
X148512245Y-60425110D01*
X148548211Y-60465623D01*
X148568695Y-60482374D01*
X148584058Y-60472909D01*
X148611635Y-60445782D01*
X148643224Y-60410352D01*
X148670624Y-60375980D01*
X148685634Y-60352026D01*
X148686465Y-60347963D01*
X148675904Y-60333175D01*
X148648517Y-60298943D01*
X148609424Y-60251617D01*
X148592855Y-60231866D01*
X148544904Y-60171945D01*
X148486495Y-60094495D01*
X148425663Y-60010363D01*
X148379610Y-59944000D01*
X148332986Y-59877290D01*
X148292185Y-59822747D01*
X148261276Y-59785541D01*
X148244325Y-59770841D01*
X148243372Y-59770849D01*
X148220148Y-59783344D01*
X148184068Y-59807770D01*
X148179084Y-59811419D01*
X148130499Y-59847339D01*
X148173897Y-59933769D01*
G36*
X147904826Y-56953320D02*
G01*
X147914946Y-56975254D01*
X147938972Y-57018672D01*
X147976189Y-57074787D01*
X148028619Y-57146300D01*
X148098288Y-57235911D01*
X148187221Y-57346321D01*
X148255391Y-57429400D01*
X148409471Y-57621144D01*
X148538851Y-57793196D01*
X148644846Y-57947544D01*
X148728775Y-58086175D01*
X148791953Y-58211080D01*
X148822585Y-58286040D01*
X148843384Y-58341576D01*
X148859806Y-58383197D01*
X148868325Y-58401969D01*
X148868357Y-58402010D01*
X148882632Y-58395955D01*
X148911599Y-58371794D01*
X148947815Y-58337053D01*
X148983836Y-58299256D01*
X149012217Y-58265928D01*
X149025514Y-58244595D01*
X149025748Y-58242907D01*
X149017365Y-58218253D01*
X148996839Y-58178582D01*
X148989410Y-58165999D01*
X148910636Y-58040229D01*
X148828443Y-57917038D01*
X148738412Y-57790285D01*
X148636120Y-57653826D01*
X148517147Y-57501518D01*
X148456752Y-57425877D01*
X148377903Y-57326746D01*
X148304221Y-57232375D01*
X148238988Y-57147098D01*
X148185480Y-57075254D01*
X148146979Y-57021177D01*
X148127249Y-56990140D01*
X148104309Y-56943005D01*
X148097396Y-56911935D01*
X148104790Y-56884150D01*
X148111265Y-56871287D01*
X148129636Y-56847437D01*
X148168727Y-56803839D01*
X148224914Y-56744289D01*
X148294572Y-56672582D01*
X148374077Y-56592513D01*
X148436534Y-56530685D01*
X148519188Y-56449018D01*
X148593196Y-56375055D01*
X148655301Y-56312120D01*
X148702249Y-56263534D01*
X148730784Y-56232621D01*
X148738166Y-56222865D01*
X148727204Y-56205629D01*
X148698770Y-56172527D01*
X148667398Y-56139374D01*
X148596629Y-56067266D01*
X148537772Y-56155666D01*
X148508028Y-56194220D01*
X148458591Y-56251371D01*
X148394058Y-56322111D01*
X148319022Y-56401433D01*
X148238079Y-56484329D01*
X148214383Y-56508097D01*
X148110107Y-56614235D01*
X148026538Y-56703706D01*
X147965081Y-56774918D01*
X147927144Y-56826283D01*
X147917829Y-56843138D01*
X147899001Y-56888835D01*
X147894784Y-56920208D01*
X147904826Y-56953320D01*
G37*
X147904826Y-56953320D02*
X147914946Y-56975254D01*
X147938972Y-57018672D01*
X147976189Y-57074787D01*
X148028619Y-57146300D01*
X148098288Y-57235911D01*
X148187221Y-57346321D01*
X148255391Y-57429400D01*
X148409471Y-57621144D01*
X148538851Y-57793196D01*
X148644846Y-57947544D01*
X148728775Y-58086175D01*
X148791953Y-58211080D01*
X148822585Y-58286040D01*
X148843384Y-58341576D01*
X148859806Y-58383197D01*
X148868325Y-58401969D01*
X148868357Y-58402010D01*
X148882632Y-58395955D01*
X148911599Y-58371794D01*
X148947815Y-58337053D01*
X148983836Y-58299256D01*
X149012217Y-58265928D01*
X149025514Y-58244595D01*
X149025748Y-58242907D01*
X149017365Y-58218253D01*
X148996839Y-58178582D01*
X148989410Y-58165999D01*
X148910636Y-58040229D01*
X148828443Y-57917038D01*
X148738412Y-57790285D01*
X148636120Y-57653826D01*
X148517147Y-57501518D01*
X148456752Y-57425877D01*
X148377903Y-57326746D01*
X148304221Y-57232375D01*
X148238988Y-57147098D01*
X148185480Y-57075254D01*
X148146979Y-57021177D01*
X148127249Y-56990140D01*
X148104309Y-56943005D01*
X148097396Y-56911935D01*
X148104790Y-56884150D01*
X148111265Y-56871287D01*
X148129636Y-56847437D01*
X148168727Y-56803839D01*
X148224914Y-56744289D01*
X148294572Y-56672582D01*
X148374077Y-56592513D01*
X148436534Y-56530685D01*
X148519188Y-56449018D01*
X148593196Y-56375055D01*
X148655301Y-56312120D01*
X148702249Y-56263534D01*
X148730784Y-56232621D01*
X148738166Y-56222865D01*
X148727204Y-56205629D01*
X148698770Y-56172527D01*
X148667398Y-56139374D01*
X148596629Y-56067266D01*
X148537772Y-56155666D01*
X148508028Y-56194220D01*
X148458591Y-56251371D01*
X148394058Y-56322111D01*
X148319022Y-56401433D01*
X148238079Y-56484329D01*
X148214383Y-56508097D01*
X148110107Y-56614235D01*
X148026538Y-56703706D01*
X147965081Y-56774918D01*
X147927144Y-56826283D01*
X147917829Y-56843138D01*
X147899001Y-56888835D01*
X147894784Y-56920208D01*
X147904826Y-56953320D01*
G36*
X148297355Y-63483066D02*
G01*
X148301861Y-63021633D01*
X148306366Y-62560200D01*
X148450300Y-62549141D01*
X148653590Y-62521006D01*
X148835435Y-62468586D01*
X148999570Y-62390242D01*
X149149731Y-62284334D01*
X149237940Y-62203623D01*
X149286886Y-62150554D01*
X149340281Y-62086134D01*
X149392080Y-62018428D01*
X149436233Y-61955502D01*
X149466695Y-61905422D01*
X149475006Y-61887436D01*
X149469029Y-61863660D01*
X149445183Y-61825769D01*
X149422774Y-61798200D01*
X149388450Y-61763931D01*
X149363307Y-61746935D01*
X149354909Y-61748282D01*
X149342938Y-61770850D01*
X149318639Y-61813630D01*
X149287053Y-61867759D01*
X149283972Y-61872975D01*
X149189348Y-62002679D01*
X149069459Y-62119159D01*
X148930585Y-62218778D01*
X148779006Y-62297898D01*
X148621001Y-62352883D01*
X148462850Y-62380097D01*
X148404408Y-62382400D01*
X148297900Y-62382400D01*
X148297900Y-61400266D01*
X148145500Y-61400266D01*
X148145500Y-63483066D01*
X148297355Y-63483066D01*
G37*
X148297355Y-63483066D02*
X148301861Y-63021633D01*
X148306366Y-62560200D01*
X148450300Y-62549141D01*
X148653590Y-62521006D01*
X148835435Y-62468586D01*
X148999570Y-62390242D01*
X149149731Y-62284334D01*
X149237940Y-62203623D01*
X149286886Y-62150554D01*
X149340281Y-62086134D01*
X149392080Y-62018428D01*
X149436233Y-61955502D01*
X149466695Y-61905422D01*
X149475006Y-61887436D01*
X149469029Y-61863660D01*
X149445183Y-61825769D01*
X149422774Y-61798200D01*
X149388450Y-61763931D01*
X149363307Y-61746935D01*
X149354909Y-61748282D01*
X149342938Y-61770850D01*
X149318639Y-61813630D01*
X149287053Y-61867759D01*
X149283972Y-61872975D01*
X149189348Y-62002679D01*
X149069459Y-62119159D01*
X148930585Y-62218778D01*
X148779006Y-62297898D01*
X148621001Y-62352883D01*
X148462850Y-62380097D01*
X148404408Y-62382400D01*
X148297900Y-62382400D01*
X148297900Y-61400266D01*
X148145500Y-61400266D01*
X148145500Y-63483066D01*
X148297355Y-63483066D01*
G36*
X147678713Y-65827002D02*
G01*
X147697729Y-65859825D01*
X147735374Y-65904078D01*
X147735780Y-65904533D01*
X147803885Y-65980733D01*
X147851926Y-65950139D01*
X147896177Y-65925270D01*
X147954467Y-65896565D01*
X147984633Y-65883008D01*
X148124998Y-65819211D01*
X148271352Y-65747002D01*
X148414061Y-65671468D01*
X148543490Y-65597694D01*
X148643106Y-65535382D01*
X148756849Y-65452644D01*
X148880073Y-65350985D01*
X149003510Y-65238899D01*
X149117889Y-65124880D01*
X149213941Y-65017421D01*
X149230038Y-64997587D01*
X149274646Y-64938654D01*
X149323743Y-64869139D01*
X149373421Y-64795172D01*
X149419769Y-64722883D01*
X149458878Y-64658402D01*
X149486837Y-64607858D01*
X149499737Y-64577380D01*
X149500166Y-64574105D01*
X149487812Y-64552103D01*
X149456232Y-64519347D01*
X149431652Y-64498448D01*
X149392073Y-64468980D01*
X149364690Y-64452113D01*
X149357489Y-64450458D01*
X149347401Y-64467839D01*
X149327236Y-64506188D01*
X149308613Y-64542814D01*
X149235636Y-64671345D01*
X149143042Y-64808711D01*
X149038794Y-64944090D01*
X148930854Y-65066662D01*
X148899688Y-65098575D01*
X148705631Y-65272963D01*
X148494980Y-65424493D01*
X148263104Y-65557122D01*
X148183820Y-65596340D01*
X148100143Y-65635493D01*
X148018676Y-65671742D01*
X147946022Y-65702249D01*
X147888784Y-65724177D01*
X147853565Y-65734687D01*
X147848780Y-65735199D01*
X147847174Y-65718809D01*
X147845675Y-65671807D01*
X147844314Y-65597449D01*
X147843123Y-65498990D01*
X147842134Y-65379686D01*
X147841380Y-65242791D01*
X147840891Y-65091562D01*
X147840701Y-64929253D01*
X147840700Y-64913933D01*
X147840700Y-64092666D01*
X147688300Y-64092666D01*
X147688152Y-64875833D01*
X147687904Y-65038751D01*
X147687253Y-65193879D01*
X147686244Y-65337385D01*
X147684922Y-65465437D01*
X147683334Y-65574205D01*
X147681524Y-65659858D01*
X147679538Y-65718564D01*
X147677840Y-65743666D01*
X147673643Y-65792614D01*
X147678713Y-65827002D01*
G37*
X147678713Y-65827002D02*
X147697729Y-65859825D01*
X147735374Y-65904078D01*
X147735780Y-65904533D01*
X147803885Y-65980733D01*
X147851926Y-65950139D01*
X147896177Y-65925270D01*
X147954467Y-65896565D01*
X147984633Y-65883008D01*
X148124998Y-65819211D01*
X148271352Y-65747002D01*
X148414061Y-65671468D01*
X148543490Y-65597694D01*
X148643106Y-65535382D01*
X148756849Y-65452644D01*
X148880073Y-65350985D01*
X149003510Y-65238899D01*
X149117889Y-65124880D01*
X149213941Y-65017421D01*
X149230038Y-64997587D01*
X149274646Y-64938654D01*
X149323743Y-64869139D01*
X149373421Y-64795172D01*
X149419769Y-64722883D01*
X149458878Y-64658402D01*
X149486837Y-64607858D01*
X149499737Y-64577380D01*
X149500166Y-64574105D01*
X149487812Y-64552103D01*
X149456232Y-64519347D01*
X149431652Y-64498448D01*
X149392073Y-64468980D01*
X149364690Y-64452113D01*
X149357489Y-64450458D01*
X149347401Y-64467839D01*
X149327236Y-64506188D01*
X149308613Y-64542814D01*
X149235636Y-64671345D01*
X149143042Y-64808711D01*
X149038794Y-64944090D01*
X148930854Y-65066662D01*
X148899688Y-65098575D01*
X148705631Y-65272963D01*
X148494980Y-65424493D01*
X148263104Y-65557122D01*
X148183820Y-65596340D01*
X148100143Y-65635493D01*
X148018676Y-65671742D01*
X147946022Y-65702249D01*
X147888784Y-65724177D01*
X147853565Y-65734687D01*
X147848780Y-65735199D01*
X147847174Y-65718809D01*
X147845675Y-65671807D01*
X147844314Y-65597449D01*
X147843123Y-65498990D01*
X147842134Y-65379686D01*
X147841380Y-65242791D01*
X147840891Y-65091562D01*
X147840701Y-64929253D01*
X147840700Y-64913933D01*
X147840700Y-64092666D01*
X147688300Y-64092666D01*
X147688152Y-64875833D01*
X147687904Y-65038751D01*
X147687253Y-65193879D01*
X147686244Y-65337385D01*
X147684922Y-65465437D01*
X147683334Y-65574205D01*
X147681524Y-65659858D01*
X147679538Y-65718564D01*
X147677840Y-65743666D01*
X147673643Y-65792614D01*
X147678713Y-65827002D01*
G36*
X147458562Y-59626500D02*
G01*
X147467176Y-59678004D01*
X147476635Y-59714041D01*
X147481910Y-59723866D01*
X147500498Y-59725314D01*
X147549961Y-59726523D01*
X147627307Y-59727482D01*
X147729547Y-59728181D01*
X147853689Y-59728608D01*
X147996743Y-59728755D01*
X148155717Y-59728609D01*
X148327620Y-59728160D01*
X148496866Y-59727460D01*
X149500166Y-59722587D01*
X149500166Y-59537600D01*
X147446870Y-59537600D01*
X147458562Y-59626500D01*
G37*
X147458562Y-59626500D02*
X147467176Y-59678004D01*
X147476635Y-59714041D01*
X147481910Y-59723866D01*
X147500498Y-59725314D01*
X147549961Y-59726523D01*
X147627307Y-59727482D01*
X147729547Y-59728181D01*
X147853689Y-59728608D01*
X147996743Y-59728755D01*
X148155717Y-59728609D01*
X148327620Y-59728160D01*
X148496866Y-59727460D01*
X149500166Y-59722587D01*
X149500166Y-59537600D01*
X147446870Y-59537600D01*
X147458562Y-59626500D01*
%TO.C,REF\u002A\u002A*%
G36*
X138692931Y-148002814D02*
G01*
X139137555Y-148086635D01*
X139265053Y-148395920D01*
X139392551Y-148705206D01*
X139140246Y-149076246D01*
X139069996Y-149180157D01*
X139007272Y-149274087D01*
X138954938Y-149353652D01*
X138915857Y-149414470D01*
X138892893Y-149452157D01*
X138887942Y-149462421D01*
X138900676Y-149480910D01*
X138935882Y-149520420D01*
X138989062Y-149576522D01*
X139055718Y-149644787D01*
X139131354Y-149720786D01*
X139211472Y-149800092D01*
X139291574Y-149878275D01*
X139367164Y-149950907D01*
X139433745Y-150013559D01*
X139486818Y-150061803D01*
X139521887Y-150091210D01*
X139533623Y-150098241D01*
X139555260Y-150088123D01*
X139602662Y-150059759D01*
X139671193Y-150016129D01*
X139756215Y-149960218D01*
X139853093Y-149895006D01*
X139908350Y-149857219D01*
X140009248Y-149788343D01*
X140100299Y-149727140D01*
X140176970Y-149676578D01*
X140234728Y-149639628D01*
X140269043Y-149619258D01*
X140276254Y-149616197D01*
X140296748Y-149623136D01*
X140344513Y-149642051D01*
X140412832Y-149670087D01*
X140494989Y-149704391D01*
X140584270Y-149742109D01*
X140673958Y-149780387D01*
X140757338Y-149816370D01*
X140827694Y-149847206D01*
X140878310Y-149870039D01*
X140902471Y-149882017D01*
X140903422Y-149882724D01*
X140908036Y-149901531D01*
X140918328Y-149951618D01*
X140933287Y-150027793D01*
X140951901Y-150124865D01*
X140973159Y-150237643D01*
X140985418Y-150303442D01*
X141008362Y-150423950D01*
X141030195Y-150532797D01*
X141049722Y-150624476D01*
X141065748Y-150693481D01*
X141077079Y-150734304D01*
X141080674Y-150742511D01*
X141105006Y-150750548D01*
X141159959Y-150757033D01*
X141239108Y-150761970D01*
X141336026Y-150765364D01*
X141444287Y-150767218D01*
X141557465Y-150767538D01*
X141669135Y-150766327D01*
X141772868Y-150763590D01*
X141862241Y-150759331D01*
X141930826Y-150753555D01*
X141972197Y-150746267D01*
X141980810Y-150741895D01*
X141991133Y-150715764D01*
X142005892Y-150660393D01*
X142023352Y-150583107D01*
X142041780Y-150491230D01*
X142047741Y-150459158D01*
X142076066Y-150304524D01*
X142098876Y-150182375D01*
X142117080Y-150088673D01*
X142131583Y-150019384D01*
X142143292Y-149970471D01*
X142153115Y-149937897D01*
X142161956Y-149917628D01*
X142170724Y-149905626D01*
X142172457Y-149903947D01*
X142200371Y-149887184D01*
X142254695Y-149861614D01*
X142328777Y-149829788D01*
X142415965Y-149794260D01*
X142509608Y-149757583D01*
X142603052Y-149722311D01*
X142689647Y-149690996D01*
X142762740Y-149666193D01*
X142815678Y-149650454D01*
X142841811Y-149646332D01*
X142842726Y-149646676D01*
X142864086Y-149660641D01*
X142911084Y-149692322D01*
X142978827Y-149738391D01*
X143062423Y-149795518D01*
X143156982Y-149860373D01*
X143183854Y-149878843D01*
X143281275Y-149944699D01*
X143370163Y-150002650D01*
X143445412Y-150049538D01*
X143501920Y-150082207D01*
X143534581Y-150097500D01*
X143538593Y-150098241D01*
X143559684Y-150085392D01*
X143601464Y-150049888D01*
X143659445Y-149996293D01*
X143729135Y-149929171D01*
X143806045Y-149853087D01*
X143885683Y-149772604D01*
X143963561Y-149692287D01*
X144035186Y-149616699D01*
X144096070Y-149550405D01*
X144141721Y-149497969D01*
X144167650Y-149463955D01*
X144171883Y-149454545D01*
X144161912Y-149432643D01*
X144135020Y-149387800D01*
X144095736Y-149327321D01*
X144064117Y-149280789D01*
X144006098Y-149196475D01*
X143937784Y-149096626D01*
X143869579Y-148996473D01*
X143833075Y-148942627D01*
X143709800Y-148760371D01*
X143792520Y-148607381D01*
X143828759Y-148537682D01*
X143856926Y-148478414D01*
X143872991Y-148438311D01*
X143875226Y-148428103D01*
X143858722Y-148415829D01*
X143812082Y-148391613D01*
X143739609Y-148357263D01*
X143645606Y-148314588D01*
X143534374Y-148265394D01*
X143410215Y-148211490D01*
X143277432Y-148154684D01*
X143140327Y-148096782D01*
X143003202Y-148039593D01*
X142870358Y-147984924D01*
X142746098Y-147934584D01*
X142634725Y-147890380D01*
X142540539Y-147854119D01*
X142467844Y-147827609D01*
X142420941Y-147812658D01*
X142404833Y-147810254D01*
X142384286Y-147829311D01*
X142350933Y-147871036D01*
X142311702Y-147926706D01*
X142308599Y-147931378D01*
X142193423Y-148075264D01*
X142059053Y-148191283D01*
X141909784Y-148278430D01*
X141749913Y-148335699D01*
X141583737Y-148362086D01*
X141415552Y-148356585D01*
X141249655Y-148318190D01*
X141090342Y-148245895D01*
X141055487Y-148224626D01*
X140914737Y-148113996D01*
X140801714Y-147983302D01*
X140717003Y-147837064D01*
X140661194Y-147679808D01*
X140634874Y-147516057D01*
X140638630Y-147350333D01*
X140673050Y-147187162D01*
X140738723Y-147031065D01*
X140836235Y-146886567D01*
X140875813Y-146841869D01*
X140999703Y-146728112D01*
X141130124Y-146645218D01*
X141276315Y-146588356D01*
X141421088Y-146556687D01*
X141583860Y-146548869D01*
X141747440Y-146574938D01*
X141906298Y-146632245D01*
X142054906Y-146718144D01*
X142187735Y-146829986D01*
X142299256Y-146965123D01*
X142311011Y-146982883D01*
X142349508Y-147039150D01*
X142382863Y-147081923D01*
X142404160Y-147102372D01*
X142404833Y-147102669D01*
X142427871Y-147098279D01*
X142480157Y-147080876D01*
X142557390Y-147052268D01*
X142655268Y-147014265D01*
X142769491Y-146968674D01*
X142895758Y-146917303D01*
X143029767Y-146861962D01*
X143167218Y-146804458D01*
X143303808Y-146746601D01*
X143435237Y-146690198D01*
X143557205Y-146637058D01*
X143665409Y-146588990D01*
X143755549Y-146547801D01*
X143823323Y-146515301D01*
X143864430Y-146493297D01*
X143875226Y-146484436D01*
X143866819Y-146457360D01*
X143844272Y-146406697D01*
X143811613Y-146341183D01*
X143792520Y-146305159D01*
X143709800Y-146152168D01*
X143833075Y-145969912D01*
X143896228Y-145876875D01*
X143965727Y-145775015D01*
X144031165Y-145679562D01*
X144064117Y-145631750D01*
X144109273Y-145564505D01*
X144145057Y-145507564D01*
X144166938Y-145468354D01*
X144171563Y-145455619D01*
X144159085Y-145437083D01*
X144124252Y-145396059D01*
X144070678Y-145336525D01*
X144001983Y-145262458D01*
X143921781Y-145177835D01*
X143870286Y-145124315D01*
X143778286Y-145030681D01*
X143695999Y-144949759D01*
X143626945Y-144884823D01*
X143574644Y-144839142D01*
X143542616Y-144815989D01*
X143536116Y-144813768D01*
X143511394Y-144824076D01*
X143461405Y-144852561D01*
X143391212Y-144896063D01*
X143305875Y-144951423D01*
X143210456Y-145015480D01*
X143183854Y-145033697D01*
X143087167Y-145100073D01*
X143000117Y-145159622D01*
X142927595Y-145209016D01*
X142874493Y-145244925D01*
X142845703Y-145264019D01*
X142842726Y-145265864D01*
X142819782Y-145263105D01*
X142769336Y-145248462D01*
X142698041Y-145224487D01*
X142612547Y-145193734D01*
X142519507Y-145158756D01*
X142425574Y-145122107D01*
X142337399Y-145086339D01*
X142261634Y-145054006D01*
X142204931Y-145027662D01*
X142173943Y-145009858D01*
X142172457Y-145008593D01*
X142163601Y-144997706D01*
X142154843Y-144979318D01*
X142145277Y-144949394D01*
X142133996Y-144903897D01*
X142120093Y-144838791D01*
X142102663Y-144750039D01*
X142080798Y-144633607D01*
X142053591Y-144485458D01*
X142047741Y-144453382D01*
X142029374Y-144358314D01*
X142011405Y-144275435D01*
X141995569Y-144212070D01*
X141983600Y-144175542D01*
X141980810Y-144170644D01*
X141956072Y-144162573D01*
X141900790Y-144156013D01*
X141821389Y-144150967D01*
X141724296Y-144147441D01*
X141615938Y-144145439D01*
X141502740Y-144144964D01*
X141391128Y-144146023D01*
X141287529Y-144148618D01*
X141198368Y-144152754D01*
X141130072Y-144158437D01*
X141089066Y-144165669D01*
X141080674Y-144170029D01*
X141072208Y-144194302D01*
X141058435Y-144249574D01*
X141040550Y-144330338D01*
X141019748Y-144431088D01*
X140997223Y-144546317D01*
X140985418Y-144609098D01*
X140963151Y-144728213D01*
X140942979Y-144834435D01*
X140925915Y-144922573D01*
X140912969Y-144987434D01*
X140905155Y-145023826D01*
X140903422Y-145029816D01*
X140883890Y-145039939D01*
X140836843Y-145061338D01*
X140769003Y-145091161D01*
X140687091Y-145126555D01*
X140597828Y-145164668D01*
X140507935Y-145202647D01*
X140424135Y-145237640D01*
X140353147Y-145266794D01*
X140301694Y-145287257D01*
X140276497Y-145296177D01*
X140275396Y-145296343D01*
X140255519Y-145286231D01*
X140209777Y-145257883D01*
X140142717Y-145214277D01*
X140058884Y-145158394D01*
X139962826Y-145093213D01*
X139907650Y-145055321D01*
X139806481Y-144986275D01*
X139714630Y-144924950D01*
X139636744Y-144874337D01*
X139577469Y-144837429D01*
X139541451Y-144817218D01*
X139533377Y-144814299D01*
X139514584Y-144826847D01*
X139474457Y-144861537D01*
X139417493Y-144913937D01*
X139348185Y-144979616D01*
X139271031Y-145054144D01*
X139190525Y-145133087D01*
X139111163Y-145212017D01*
X139037440Y-145286500D01*
X138973852Y-145352106D01*
X138924894Y-145404404D01*
X138895061Y-145438961D01*
X138887942Y-145450522D01*
X138897953Y-145469346D01*
X138926078Y-145514369D01*
X138969454Y-145581213D01*
X139025218Y-145665501D01*
X139090506Y-145762856D01*
X139140246Y-145836293D01*
X139392551Y-146207333D01*
X139137555Y-146825905D01*
X138692931Y-146909725D01*
X138248307Y-146993546D01*
X138248307Y-147918994D01*
X138692931Y-148002814D01*
G37*
X138692931Y-148002814D02*
X139137555Y-148086635D01*
X139265053Y-148395920D01*
X139392551Y-148705206D01*
X139140246Y-149076246D01*
X139069996Y-149180157D01*
X139007272Y-149274087D01*
X138954938Y-149353652D01*
X138915857Y-149414470D01*
X138892893Y-149452157D01*
X138887942Y-149462421D01*
X138900676Y-149480910D01*
X138935882Y-149520420D01*
X138989062Y-149576522D01*
X139055718Y-149644787D01*
X139131354Y-149720786D01*
X139211472Y-149800092D01*
X139291574Y-149878275D01*
X139367164Y-149950907D01*
X139433745Y-150013559D01*
X139486818Y-150061803D01*
X139521887Y-150091210D01*
X139533623Y-150098241D01*
X139555260Y-150088123D01*
X139602662Y-150059759D01*
X139671193Y-150016129D01*
X139756215Y-149960218D01*
X139853093Y-149895006D01*
X139908350Y-149857219D01*
X140009248Y-149788343D01*
X140100299Y-149727140D01*
X140176970Y-149676578D01*
X140234728Y-149639628D01*
X140269043Y-149619258D01*
X140276254Y-149616197D01*
X140296748Y-149623136D01*
X140344513Y-149642051D01*
X140412832Y-149670087D01*
X140494989Y-149704391D01*
X140584270Y-149742109D01*
X140673958Y-149780387D01*
X140757338Y-149816370D01*
X140827694Y-149847206D01*
X140878310Y-149870039D01*
X140902471Y-149882017D01*
X140903422Y-149882724D01*
X140908036Y-149901531D01*
X140918328Y-149951618D01*
X140933287Y-150027793D01*
X140951901Y-150124865D01*
X140973159Y-150237643D01*
X140985418Y-150303442D01*
X141008362Y-150423950D01*
X141030195Y-150532797D01*
X141049722Y-150624476D01*
X141065748Y-150693481D01*
X141077079Y-150734304D01*
X141080674Y-150742511D01*
X141105006Y-150750548D01*
X141159959Y-150757033D01*
X141239108Y-150761970D01*
X141336026Y-150765364D01*
X141444287Y-150767218D01*
X141557465Y-150767538D01*
X141669135Y-150766327D01*
X141772868Y-150763590D01*
X141862241Y-150759331D01*
X141930826Y-150753555D01*
X141972197Y-150746267D01*
X141980810Y-150741895D01*
X141991133Y-150715764D01*
X142005892Y-150660393D01*
X142023352Y-150583107D01*
X142041780Y-150491230D01*
X142047741Y-150459158D01*
X142076066Y-150304524D01*
X142098876Y-150182375D01*
X142117080Y-150088673D01*
X142131583Y-150019384D01*
X142143292Y-149970471D01*
X142153115Y-149937897D01*
X142161956Y-149917628D01*
X142170724Y-149905626D01*
X142172457Y-149903947D01*
X142200371Y-149887184D01*
X142254695Y-149861614D01*
X142328777Y-149829788D01*
X142415965Y-149794260D01*
X142509608Y-149757583D01*
X142603052Y-149722311D01*
X142689647Y-149690996D01*
X142762740Y-149666193D01*
X142815678Y-149650454D01*
X142841811Y-149646332D01*
X142842726Y-149646676D01*
X142864086Y-149660641D01*
X142911084Y-149692322D01*
X142978827Y-149738391D01*
X143062423Y-149795518D01*
X143156982Y-149860373D01*
X143183854Y-149878843D01*
X143281275Y-149944699D01*
X143370163Y-150002650D01*
X143445412Y-150049538D01*
X143501920Y-150082207D01*
X143534581Y-150097500D01*
X143538593Y-150098241D01*
X143559684Y-150085392D01*
X143601464Y-150049888D01*
X143659445Y-149996293D01*
X143729135Y-149929171D01*
X143806045Y-149853087D01*
X143885683Y-149772604D01*
X143963561Y-149692287D01*
X144035186Y-149616699D01*
X144096070Y-149550405D01*
X144141721Y-149497969D01*
X144167650Y-149463955D01*
X144171883Y-149454545D01*
X144161912Y-149432643D01*
X144135020Y-149387800D01*
X144095736Y-149327321D01*
X144064117Y-149280789D01*
X144006098Y-149196475D01*
X143937784Y-149096626D01*
X143869579Y-148996473D01*
X143833075Y-148942627D01*
X143709800Y-148760371D01*
X143792520Y-148607381D01*
X143828759Y-148537682D01*
X143856926Y-148478414D01*
X143872991Y-148438311D01*
X143875226Y-148428103D01*
X143858722Y-148415829D01*
X143812082Y-148391613D01*
X143739609Y-148357263D01*
X143645606Y-148314588D01*
X143534374Y-148265394D01*
X143410215Y-148211490D01*
X143277432Y-148154684D01*
X143140327Y-148096782D01*
X143003202Y-148039593D01*
X142870358Y-147984924D01*
X142746098Y-147934584D01*
X142634725Y-147890380D01*
X142540539Y-147854119D01*
X142467844Y-147827609D01*
X142420941Y-147812658D01*
X142404833Y-147810254D01*
X142384286Y-147829311D01*
X142350933Y-147871036D01*
X142311702Y-147926706D01*
X142308599Y-147931378D01*
X142193423Y-148075264D01*
X142059053Y-148191283D01*
X141909784Y-148278430D01*
X141749913Y-148335699D01*
X141583737Y-148362086D01*
X141415552Y-148356585D01*
X141249655Y-148318190D01*
X141090342Y-148245895D01*
X141055487Y-148224626D01*
X140914737Y-148113996D01*
X140801714Y-147983302D01*
X140717003Y-147837064D01*
X140661194Y-147679808D01*
X140634874Y-147516057D01*
X140638630Y-147350333D01*
X140673050Y-147187162D01*
X140738723Y-147031065D01*
X140836235Y-146886567D01*
X140875813Y-146841869D01*
X140999703Y-146728112D01*
X141130124Y-146645218D01*
X141276315Y-146588356D01*
X141421088Y-146556687D01*
X141583860Y-146548869D01*
X141747440Y-146574938D01*
X141906298Y-146632245D01*
X142054906Y-146718144D01*
X142187735Y-146829986D01*
X142299256Y-146965123D01*
X142311011Y-146982883D01*
X142349508Y-147039150D01*
X142382863Y-147081923D01*
X142404160Y-147102372D01*
X142404833Y-147102669D01*
X142427871Y-147098279D01*
X142480157Y-147080876D01*
X142557390Y-147052268D01*
X142655268Y-147014265D01*
X142769491Y-146968674D01*
X142895758Y-146917303D01*
X143029767Y-146861962D01*
X143167218Y-146804458D01*
X143303808Y-146746601D01*
X143435237Y-146690198D01*
X143557205Y-146637058D01*
X143665409Y-146588990D01*
X143755549Y-146547801D01*
X143823323Y-146515301D01*
X143864430Y-146493297D01*
X143875226Y-146484436D01*
X143866819Y-146457360D01*
X143844272Y-146406697D01*
X143811613Y-146341183D01*
X143792520Y-146305159D01*
X143709800Y-146152168D01*
X143833075Y-145969912D01*
X143896228Y-145876875D01*
X143965727Y-145775015D01*
X144031165Y-145679562D01*
X144064117Y-145631750D01*
X144109273Y-145564505D01*
X144145057Y-145507564D01*
X144166938Y-145468354D01*
X144171563Y-145455619D01*
X144159085Y-145437083D01*
X144124252Y-145396059D01*
X144070678Y-145336525D01*
X144001983Y-145262458D01*
X143921781Y-145177835D01*
X143870286Y-145124315D01*
X143778286Y-145030681D01*
X143695999Y-144949759D01*
X143626945Y-144884823D01*
X143574644Y-144839142D01*
X143542616Y-144815989D01*
X143536116Y-144813768D01*
X143511394Y-144824076D01*
X143461405Y-144852561D01*
X143391212Y-144896063D01*
X143305875Y-144951423D01*
X143210456Y-145015480D01*
X143183854Y-145033697D01*
X143087167Y-145100073D01*
X143000117Y-145159622D01*
X142927595Y-145209016D01*
X142874493Y-145244925D01*
X142845703Y-145264019D01*
X142842726Y-145265864D01*
X142819782Y-145263105D01*
X142769336Y-145248462D01*
X142698041Y-145224487D01*
X142612547Y-145193734D01*
X142519507Y-145158756D01*
X142425574Y-145122107D01*
X142337399Y-145086339D01*
X142261634Y-145054006D01*
X142204931Y-145027662D01*
X142173943Y-145009858D01*
X142172457Y-145008593D01*
X142163601Y-144997706D01*
X142154843Y-144979318D01*
X142145277Y-144949394D01*
X142133996Y-144903897D01*
X142120093Y-144838791D01*
X142102663Y-144750039D01*
X142080798Y-144633607D01*
X142053591Y-144485458D01*
X142047741Y-144453382D01*
X142029374Y-144358314D01*
X142011405Y-144275435D01*
X141995569Y-144212070D01*
X141983600Y-144175542D01*
X141980810Y-144170644D01*
X141956072Y-144162573D01*
X141900790Y-144156013D01*
X141821389Y-144150967D01*
X141724296Y-144147441D01*
X141615938Y-144145439D01*
X141502740Y-144144964D01*
X141391128Y-144146023D01*
X141287529Y-144148618D01*
X141198368Y-144152754D01*
X141130072Y-144158437D01*
X141089066Y-144165669D01*
X141080674Y-144170029D01*
X141072208Y-144194302D01*
X141058435Y-144249574D01*
X141040550Y-144330338D01*
X141019748Y-144431088D01*
X140997223Y-144546317D01*
X140985418Y-144609098D01*
X140963151Y-144728213D01*
X140942979Y-144834435D01*
X140925915Y-144922573D01*
X140912969Y-144987434D01*
X140905155Y-145023826D01*
X140903422Y-145029816D01*
X140883890Y-145039939D01*
X140836843Y-145061338D01*
X140769003Y-145091161D01*
X140687091Y-145126555D01*
X140597828Y-145164668D01*
X140507935Y-145202647D01*
X140424135Y-145237640D01*
X140353147Y-145266794D01*
X140301694Y-145287257D01*
X140276497Y-145296177D01*
X140275396Y-145296343D01*
X140255519Y-145286231D01*
X140209777Y-145257883D01*
X140142717Y-145214277D01*
X140058884Y-145158394D01*
X139962826Y-145093213D01*
X139907650Y-145055321D01*
X139806481Y-144986275D01*
X139714630Y-144924950D01*
X139636744Y-144874337D01*
X139577469Y-144837429D01*
X139541451Y-144817218D01*
X139533377Y-144814299D01*
X139514584Y-144826847D01*
X139474457Y-144861537D01*
X139417493Y-144913937D01*
X139348185Y-144979616D01*
X139271031Y-145054144D01*
X139190525Y-145133087D01*
X139111163Y-145212017D01*
X139037440Y-145286500D01*
X138973852Y-145352106D01*
X138924894Y-145404404D01*
X138895061Y-145438961D01*
X138887942Y-145450522D01*
X138897953Y-145469346D01*
X138926078Y-145514369D01*
X138969454Y-145581213D01*
X139025218Y-145665501D01*
X139090506Y-145762856D01*
X139140246Y-145836293D01*
X139392551Y-146207333D01*
X139137555Y-146825905D01*
X138692931Y-146909725D01*
X138248307Y-146993546D01*
X138248307Y-147918994D01*
X138692931Y-148002814D01*
%TO.C,G\u002A\u002A\u002A*%
G36*
X27619814Y-68810236D02*
G01*
X27652133Y-68867866D01*
X27681653Y-68877367D01*
X27752758Y-68885718D01*
X27869548Y-68892976D01*
X28036126Y-68899200D01*
X28256591Y-68904446D01*
X28535045Y-68908771D01*
X28875589Y-68912234D01*
X29282324Y-68914890D01*
X29759351Y-68916797D01*
X30310770Y-68918013D01*
X30940683Y-68918595D01*
X31289776Y-68918666D01*
X31928970Y-68918543D01*
X32488789Y-68918111D01*
X32974524Y-68917272D01*
X33391468Y-68915931D01*
X33744912Y-68913991D01*
X34040148Y-68911356D01*
X34282466Y-68907930D01*
X34477159Y-68903615D01*
X34629518Y-68898316D01*
X34744834Y-68891937D01*
X34828400Y-68884381D01*
X34885507Y-68875551D01*
X34921446Y-68865352D01*
X34941509Y-68853687D01*
X34943142Y-68852142D01*
X35001882Y-68764232D01*
X34991259Y-68670459D01*
X34943766Y-68589419D01*
X34877865Y-68495333D01*
X31290399Y-68495333D01*
X30619245Y-68495616D01*
X30028654Y-68496505D01*
X29514528Y-68498056D01*
X29072764Y-68500326D01*
X28699262Y-68503374D01*
X28389923Y-68507256D01*
X28140644Y-68512029D01*
X27947325Y-68517750D01*
X27805866Y-68524478D01*
X27712165Y-68532269D01*
X27662123Y-68541180D01*
X27652133Y-68546133D01*
X27613015Y-68625293D01*
X27601333Y-68707000D01*
X27619814Y-68810236D01*
G37*
X27619814Y-68810236D02*
X27652133Y-68867866D01*
X27681653Y-68877367D01*
X27752758Y-68885718D01*
X27869548Y-68892976D01*
X28036126Y-68899200D01*
X28256591Y-68904446D01*
X28535045Y-68908771D01*
X28875589Y-68912234D01*
X29282324Y-68914890D01*
X29759351Y-68916797D01*
X30310770Y-68918013D01*
X30940683Y-68918595D01*
X31289776Y-68918666D01*
X31928970Y-68918543D01*
X32488789Y-68918111D01*
X32974524Y-68917272D01*
X33391468Y-68915931D01*
X33744912Y-68913991D01*
X34040148Y-68911356D01*
X34282466Y-68907930D01*
X34477159Y-68903615D01*
X34629518Y-68898316D01*
X34744834Y-68891937D01*
X34828400Y-68884381D01*
X34885507Y-68875551D01*
X34921446Y-68865352D01*
X34941509Y-68853687D01*
X34943142Y-68852142D01*
X35001882Y-68764232D01*
X34991259Y-68670459D01*
X34943766Y-68589419D01*
X34877865Y-68495333D01*
X31290399Y-68495333D01*
X30619245Y-68495616D01*
X30028654Y-68496505D01*
X29514528Y-68498056D01*
X29072764Y-68500326D01*
X28699262Y-68503374D01*
X28389923Y-68507256D01*
X28140644Y-68512029D01*
X27947325Y-68517750D01*
X27805866Y-68524478D01*
X27712165Y-68532269D01*
X27662123Y-68541180D01*
X27652133Y-68546133D01*
X27613015Y-68625293D01*
X27601333Y-68707000D01*
X27619814Y-68810236D01*
G36*
X28538175Y-66955304D02*
G01*
X28546096Y-66971729D01*
X28598658Y-67077166D01*
X31260724Y-67088070D01*
X31804393Y-67090152D01*
X32269672Y-67091515D01*
X32662837Y-67092024D01*
X32990165Y-67091541D01*
X33257929Y-67089931D01*
X33472406Y-67087057D01*
X33639871Y-67082784D01*
X33766600Y-67076974D01*
X33858867Y-67069492D01*
X33922950Y-67060202D01*
X33965122Y-67048966D01*
X33991659Y-67035650D01*
X34000562Y-67028592D01*
X34070696Y-66919953D01*
X34057389Y-66800196D01*
X34025416Y-66746153D01*
X34009981Y-66731549D01*
X33982655Y-66719114D01*
X33937228Y-66708708D01*
X33867489Y-66700195D01*
X33767228Y-66693434D01*
X33630236Y-66688288D01*
X33450302Y-66684618D01*
X33221216Y-66682286D01*
X32936768Y-66681153D01*
X32590748Y-66681081D01*
X32176945Y-66681931D01*
X31689150Y-66683565D01*
X31289491Y-66685145D01*
X30746832Y-66687432D01*
X30282570Y-66689642D01*
X29890434Y-66691994D01*
X29564154Y-66694710D01*
X29297462Y-66698008D01*
X29084087Y-66702108D01*
X28917759Y-66707231D01*
X28792209Y-66713596D01*
X28701167Y-66721423D01*
X28638362Y-66730933D01*
X28597526Y-66742345D01*
X28572389Y-66755878D01*
X28556679Y-66771754D01*
X28550009Y-66781229D01*
X28515317Y-66864646D01*
X28538175Y-66955304D01*
G37*
X28538175Y-66955304D02*
X28546096Y-66971729D01*
X28598658Y-67077166D01*
X31260724Y-67088070D01*
X31804393Y-67090152D01*
X32269672Y-67091515D01*
X32662837Y-67092024D01*
X32990165Y-67091541D01*
X33257929Y-67089931D01*
X33472406Y-67087057D01*
X33639871Y-67082784D01*
X33766600Y-67076974D01*
X33858867Y-67069492D01*
X33922950Y-67060202D01*
X33965122Y-67048966D01*
X33991659Y-67035650D01*
X34000562Y-67028592D01*
X34070696Y-66919953D01*
X34057389Y-66800196D01*
X34025416Y-66746153D01*
X34009981Y-66731549D01*
X33982655Y-66719114D01*
X33937228Y-66708708D01*
X33867489Y-66700195D01*
X33767228Y-66693434D01*
X33630236Y-66688288D01*
X33450302Y-66684618D01*
X33221216Y-66682286D01*
X32936768Y-66681153D01*
X32590748Y-66681081D01*
X32176945Y-66681931D01*
X31689150Y-66683565D01*
X31289491Y-66685145D01*
X30746832Y-66687432D01*
X30282570Y-66689642D01*
X29890434Y-66691994D01*
X29564154Y-66694710D01*
X29297462Y-66698008D01*
X29084087Y-66702108D01*
X28917759Y-66707231D01*
X28792209Y-66713596D01*
X28701167Y-66721423D01*
X28638362Y-66730933D01*
X28597526Y-66742345D01*
X28572389Y-66755878D01*
X28556679Y-66771754D01*
X28550009Y-66781229D01*
X28515317Y-66864646D01*
X28538175Y-66955304D01*
G36*
X28538175Y-69706970D02*
G01*
X28546096Y-69723395D01*
X28598658Y-69828833D01*
X31260724Y-69839737D01*
X31804393Y-69841819D01*
X32269672Y-69843182D01*
X32662837Y-69843691D01*
X32990165Y-69843208D01*
X33257929Y-69841598D01*
X33472406Y-69838724D01*
X33639871Y-69834451D01*
X33766600Y-69828641D01*
X33858867Y-69821159D01*
X33922950Y-69811868D01*
X33965122Y-69800633D01*
X33991659Y-69787317D01*
X34000562Y-69780259D01*
X34070696Y-69671620D01*
X34057389Y-69551863D01*
X34025416Y-69497820D01*
X34009981Y-69483216D01*
X33982655Y-69470780D01*
X33937228Y-69460375D01*
X33867489Y-69451861D01*
X33767228Y-69445101D01*
X33630236Y-69439955D01*
X33450302Y-69436285D01*
X33221216Y-69433953D01*
X32936768Y-69432820D01*
X32590748Y-69432748D01*
X32176945Y-69433598D01*
X31689150Y-69435231D01*
X31289491Y-69436812D01*
X30746832Y-69439099D01*
X30282570Y-69441308D01*
X29890434Y-69443661D01*
X29564154Y-69446376D01*
X29297462Y-69449674D01*
X29084087Y-69453775D01*
X28917759Y-69458897D01*
X28792209Y-69465263D01*
X28701167Y-69473090D01*
X28638362Y-69482600D01*
X28597526Y-69494011D01*
X28572389Y-69507545D01*
X28556679Y-69523420D01*
X28550009Y-69532895D01*
X28515317Y-69616313D01*
X28538175Y-69706970D01*
G37*
X28538175Y-69706970D02*
X28546096Y-69723395D01*
X28598658Y-69828833D01*
X31260724Y-69839737D01*
X31804393Y-69841819D01*
X32269672Y-69843182D01*
X32662837Y-69843691D01*
X32990165Y-69843208D01*
X33257929Y-69841598D01*
X33472406Y-69838724D01*
X33639871Y-69834451D01*
X33766600Y-69828641D01*
X33858867Y-69821159D01*
X33922950Y-69811868D01*
X33965122Y-69800633D01*
X33991659Y-69787317D01*
X34000562Y-69780259D01*
X34070696Y-69671620D01*
X34057389Y-69551863D01*
X34025416Y-69497820D01*
X34009981Y-69483216D01*
X33982655Y-69470780D01*
X33937228Y-69460375D01*
X33867489Y-69451861D01*
X33767228Y-69445101D01*
X33630236Y-69439955D01*
X33450302Y-69436285D01*
X33221216Y-69433953D01*
X32936768Y-69432820D01*
X32590748Y-69432748D01*
X32176945Y-69433598D01*
X31689150Y-69435231D01*
X31289491Y-69436812D01*
X30746832Y-69439099D01*
X30282570Y-69441308D01*
X29890434Y-69443661D01*
X29564154Y-69446376D01*
X29297462Y-69449674D01*
X29084087Y-69453775D01*
X28917759Y-69458897D01*
X28792209Y-69465263D01*
X28701167Y-69473090D01*
X28638362Y-69482600D01*
X28597526Y-69494011D01*
X28572389Y-69507545D01*
X28556679Y-69523420D01*
X28550009Y-69532895D01*
X28515317Y-69616313D01*
X28538175Y-69706970D01*
G36*
X29449690Y-67871952D02*
G01*
X29506333Y-67945000D01*
X29530302Y-67966165D01*
X29561182Y-67983476D01*
X29607093Y-67997320D01*
X29676160Y-68008084D01*
X29776502Y-68016153D01*
X29916242Y-68021915D01*
X30103503Y-68025757D01*
X30346406Y-68028066D01*
X30653073Y-68029227D01*
X31031626Y-68029629D01*
X31284333Y-68029666D01*
X31707782Y-68029526D01*
X32054687Y-68028848D01*
X32333169Y-68027244D01*
X32551350Y-68024329D01*
X32717353Y-68019715D01*
X32839300Y-68013016D01*
X32925311Y-68003846D01*
X32983510Y-67991816D01*
X33022018Y-67976541D01*
X33048958Y-67957633D01*
X33062333Y-67945000D01*
X33125126Y-67861189D01*
X33147000Y-67796833D01*
X33118976Y-67721714D01*
X33062333Y-67648666D01*
X33038364Y-67627501D01*
X33007484Y-67610189D01*
X32961572Y-67596345D01*
X32892506Y-67585582D01*
X32792164Y-67577513D01*
X32652423Y-67571750D01*
X32465163Y-67567908D01*
X32222260Y-67565600D01*
X31915593Y-67564438D01*
X31537040Y-67564037D01*
X31284333Y-67564000D01*
X30860884Y-67564140D01*
X30513979Y-67564818D01*
X30235497Y-67566421D01*
X30017315Y-67569337D01*
X29851312Y-67573950D01*
X29729366Y-67580649D01*
X29643354Y-67589820D01*
X29585156Y-67601850D01*
X29546647Y-67617125D01*
X29519708Y-67636033D01*
X29506333Y-67648666D01*
X29443540Y-67732477D01*
X29421666Y-67796833D01*
X29449690Y-67871952D01*
G37*
X29449690Y-67871952D02*
X29506333Y-67945000D01*
X29530302Y-67966165D01*
X29561182Y-67983476D01*
X29607093Y-67997320D01*
X29676160Y-68008084D01*
X29776502Y-68016153D01*
X29916242Y-68021915D01*
X30103503Y-68025757D01*
X30346406Y-68028066D01*
X30653073Y-68029227D01*
X31031626Y-68029629D01*
X31284333Y-68029666D01*
X31707782Y-68029526D01*
X32054687Y-68028848D01*
X32333169Y-68027244D01*
X32551350Y-68024329D01*
X32717353Y-68019715D01*
X32839300Y-68013016D01*
X32925311Y-68003846D01*
X32983510Y-67991816D01*
X33022018Y-67976541D01*
X33048958Y-67957633D01*
X33062333Y-67945000D01*
X33125126Y-67861189D01*
X33147000Y-67796833D01*
X33118976Y-67721714D01*
X33062333Y-67648666D01*
X33038364Y-67627501D01*
X33007484Y-67610189D01*
X32961572Y-67596345D01*
X32892506Y-67585582D01*
X32792164Y-67577513D01*
X32652423Y-67571750D01*
X32465163Y-67567908D01*
X32222260Y-67565600D01*
X31915593Y-67564438D01*
X31537040Y-67564037D01*
X31284333Y-67564000D01*
X30860884Y-67564140D01*
X30513979Y-67564818D01*
X30235497Y-67566421D01*
X30017315Y-67569337D01*
X29851312Y-67573950D01*
X29729366Y-67580649D01*
X29643354Y-67589820D01*
X29585156Y-67601850D01*
X29546647Y-67617125D01*
X29519708Y-67636033D01*
X29506333Y-67648666D01*
X29443540Y-67732477D01*
X29421666Y-67796833D01*
X29449690Y-67871952D01*
G36*
X29433364Y-70494589D02*
G01*
X29467016Y-70561976D01*
X29530725Y-70675500D01*
X31260914Y-70686563D01*
X31692536Y-70689065D01*
X32047394Y-70690354D01*
X32333385Y-70690169D01*
X32558407Y-70688251D01*
X32730358Y-70684339D01*
X32857136Y-70678175D01*
X32946636Y-70669499D01*
X33006758Y-70658050D01*
X33045399Y-70643568D01*
X33069052Y-70627086D01*
X33138306Y-70520135D01*
X33125420Y-70396214D01*
X33101275Y-70347416D01*
X33085718Y-70329109D01*
X33057245Y-70314078D01*
X33008120Y-70302002D01*
X32930604Y-70292561D01*
X32816959Y-70285436D01*
X32659450Y-70280307D01*
X32450336Y-70276853D01*
X32181882Y-70274755D01*
X31846349Y-70273693D01*
X31436000Y-70273345D01*
X31309957Y-70273333D01*
X30879462Y-70273440D01*
X30525675Y-70274016D01*
X30240640Y-70275441D01*
X30016398Y-70278098D01*
X29844992Y-70282367D01*
X29718464Y-70288630D01*
X29628856Y-70297267D01*
X29568211Y-70308661D01*
X29528570Y-70323193D01*
X29501977Y-70341243D01*
X29482548Y-70360892D01*
X29430992Y-70430975D01*
X29433364Y-70494589D01*
G37*
X29433364Y-70494589D02*
X29467016Y-70561976D01*
X29530725Y-70675500D01*
X31260914Y-70686563D01*
X31692536Y-70689065D01*
X32047394Y-70690354D01*
X32333385Y-70690169D01*
X32558407Y-70688251D01*
X32730358Y-70684339D01*
X32857136Y-70678175D01*
X32946636Y-70669499D01*
X33006758Y-70658050D01*
X33045399Y-70643568D01*
X33069052Y-70627086D01*
X33138306Y-70520135D01*
X33125420Y-70396214D01*
X33101275Y-70347416D01*
X33085718Y-70329109D01*
X33057245Y-70314078D01*
X33008120Y-70302002D01*
X32930604Y-70292561D01*
X32816959Y-70285436D01*
X32659450Y-70280307D01*
X32450336Y-70276853D01*
X32181882Y-70274755D01*
X31846349Y-70273693D01*
X31436000Y-70273345D01*
X31309957Y-70273333D01*
X30879462Y-70273440D01*
X30525675Y-70274016D01*
X30240640Y-70275441D01*
X30016398Y-70278098D01*
X29844992Y-70282367D01*
X29718464Y-70288630D01*
X29628856Y-70297267D01*
X29568211Y-70308661D01*
X29528570Y-70323193D01*
X29501977Y-70341243D01*
X29482548Y-70360892D01*
X29430992Y-70430975D01*
X29433364Y-70494589D01*
G36*
X30372940Y-66015617D02*
G01*
X30378015Y-66030698D01*
X30418473Y-66145833D01*
X31264041Y-66157346D01*
X31554876Y-66160665D01*
X31772554Y-66161082D01*
X31928556Y-66157817D01*
X32034365Y-66150090D01*
X32101462Y-66137123D01*
X32141331Y-66118135D01*
X32162637Y-66096338D01*
X32212539Y-65970330D01*
X32181883Y-65850683D01*
X32149142Y-65810190D01*
X32113095Y-65786279D01*
X32051938Y-65768698D01*
X31954018Y-65756547D01*
X31807682Y-65748927D01*
X31601279Y-65744937D01*
X31323154Y-65743677D01*
X31287870Y-65743666D01*
X31008602Y-65744201D01*
X30801572Y-65746620D01*
X30654358Y-65752147D01*
X30554533Y-65762007D01*
X30489674Y-65777423D01*
X30447356Y-65799620D01*
X30415339Y-65829615D01*
X30362627Y-65916338D01*
X30372940Y-66015617D01*
G37*
X30372940Y-66015617D02*
X30378015Y-66030698D01*
X30418473Y-66145833D01*
X31264041Y-66157346D01*
X31554876Y-66160665D01*
X31772554Y-66161082D01*
X31928556Y-66157817D01*
X32034365Y-66150090D01*
X32101462Y-66137123D01*
X32141331Y-66118135D01*
X32162637Y-66096338D01*
X32212539Y-65970330D01*
X32181883Y-65850683D01*
X32149142Y-65810190D01*
X32113095Y-65786279D01*
X32051938Y-65768698D01*
X31954018Y-65756547D01*
X31807682Y-65748927D01*
X31601279Y-65744937D01*
X31323154Y-65743677D01*
X31287870Y-65743666D01*
X31008602Y-65744201D01*
X30801572Y-65746620D01*
X30654358Y-65752147D01*
X30554533Y-65762007D01*
X30489674Y-65777423D01*
X30447356Y-65799620D01*
X30415339Y-65829615D01*
X30362627Y-65916338D01*
X30372940Y-66015617D01*
G36*
X31032898Y-64772281D02*
G01*
X31043908Y-64880420D01*
X31068332Y-64946204D01*
X31111142Y-64990754D01*
X31124419Y-65000432D01*
X31258983Y-65060532D01*
X31380008Y-65038444D01*
X31453666Y-64981666D01*
X31499392Y-64920202D01*
X31525449Y-64834905D01*
X31536683Y-64702896D01*
X31538333Y-64581900D01*
X31535392Y-64415372D01*
X31522951Y-64311438D01*
X31495584Y-64248125D01*
X31447865Y-64203460D01*
X31444247Y-64200900D01*
X31349634Y-64150837D01*
X31284333Y-64135000D01*
X31201255Y-64158163D01*
X31124419Y-64200900D01*
X31076563Y-64243522D01*
X31048261Y-64302413D01*
X31034544Y-64398691D01*
X31030440Y-64553477D01*
X31030333Y-64600666D01*
X31032898Y-64772281D01*
G37*
X31032898Y-64772281D02*
X31043908Y-64880420D01*
X31068332Y-64946204D01*
X31111142Y-64990754D01*
X31124419Y-65000432D01*
X31258983Y-65060532D01*
X31380008Y-65038444D01*
X31453666Y-64981666D01*
X31499392Y-64920202D01*
X31525449Y-64834905D01*
X31536683Y-64702896D01*
X31538333Y-64581900D01*
X31535392Y-64415372D01*
X31522951Y-64311438D01*
X31495584Y-64248125D01*
X31447865Y-64203460D01*
X31444247Y-64200900D01*
X31349634Y-64150837D01*
X31284333Y-64135000D01*
X31201255Y-64158163D01*
X31124419Y-64200900D01*
X31076563Y-64243522D01*
X31048261Y-64302413D01*
X31034544Y-64398691D01*
X31030440Y-64553477D01*
X31030333Y-64600666D01*
X31032898Y-64772281D01*
G36*
X31030353Y-90466710D02*
G01*
X31030419Y-91845285D01*
X31030540Y-93143920D01*
X31030725Y-94364981D01*
X31030983Y-95510831D01*
X31031322Y-96583834D01*
X31031752Y-97586353D01*
X31032282Y-98520754D01*
X31032920Y-99389399D01*
X31033676Y-100194652D01*
X31034557Y-100938878D01*
X31035574Y-101624441D01*
X31036735Y-102253704D01*
X31038049Y-102829031D01*
X31039525Y-103352786D01*
X31041171Y-103827333D01*
X31042997Y-104255037D01*
X31045012Y-104638260D01*
X31047225Y-104979367D01*
X31049644Y-105280722D01*
X31052278Y-105544688D01*
X31055136Y-105773630D01*
X31058228Y-105969912D01*
X31061562Y-106135897D01*
X31065146Y-106273949D01*
X31068991Y-106386433D01*
X31073104Y-106475711D01*
X31077496Y-106544149D01*
X31082173Y-106594110D01*
X31087147Y-106627958D01*
X31092424Y-106648056D01*
X31096857Y-106655809D01*
X31187771Y-106705655D01*
X31284333Y-106722333D01*
X31397549Y-106699745D01*
X31471809Y-106655809D01*
X31477336Y-106644979D01*
X31482551Y-106622285D01*
X31487464Y-106585362D01*
X31492083Y-106531848D01*
X31496417Y-106459377D01*
X31500475Y-106365586D01*
X31504266Y-106248111D01*
X31507800Y-106104588D01*
X31511084Y-105932654D01*
X31514127Y-105729943D01*
X31516940Y-105494093D01*
X31519529Y-105222740D01*
X31521906Y-104913519D01*
X31524077Y-104564067D01*
X31526053Y-104172019D01*
X31527842Y-103735012D01*
X31529454Y-103250682D01*
X31530896Y-102716665D01*
X31532178Y-102130597D01*
X31533309Y-101490115D01*
X31534298Y-100792853D01*
X31535153Y-100036449D01*
X31535884Y-99218538D01*
X31536499Y-98336756D01*
X31537008Y-97388740D01*
X31537419Y-96372126D01*
X31537741Y-95284550D01*
X31537984Y-94123647D01*
X31538155Y-92887054D01*
X31538264Y-91572407D01*
X31538320Y-90177342D01*
X31538333Y-89005833D01*
X31538313Y-87544956D01*
X31538247Y-86166381D01*
X31538126Y-84867745D01*
X31537941Y-83646685D01*
X31537683Y-82500835D01*
X31537343Y-81427832D01*
X31536913Y-80425312D01*
X31536384Y-79490912D01*
X31535745Y-78622267D01*
X31534990Y-77817014D01*
X31534108Y-77072787D01*
X31533092Y-76387225D01*
X31531931Y-75757962D01*
X31530617Y-75182635D01*
X31529141Y-74658880D01*
X31527495Y-74184332D01*
X31525668Y-73756629D01*
X31523653Y-73373406D01*
X31521441Y-73032299D01*
X31519022Y-72730944D01*
X31516388Y-72466977D01*
X31513529Y-72238035D01*
X31510438Y-72041754D01*
X31507104Y-71875769D01*
X31503519Y-71737716D01*
X31499675Y-71625233D01*
X31495561Y-71535954D01*
X31491170Y-71467516D01*
X31486492Y-71417556D01*
X31481519Y-71383708D01*
X31476241Y-71363609D01*
X31471809Y-71355857D01*
X31380894Y-71306011D01*
X31284333Y-71289333D01*
X31171116Y-71311921D01*
X31096857Y-71355857D01*
X31091330Y-71366686D01*
X31086114Y-71389381D01*
X31081202Y-71426303D01*
X31076583Y-71479818D01*
X31072249Y-71552289D01*
X31068190Y-71646080D01*
X31064399Y-71763555D01*
X31060866Y-71907078D01*
X31057582Y-72079012D01*
X31054538Y-72281722D01*
X31051726Y-72517572D01*
X31049136Y-72788926D01*
X31046760Y-73098147D01*
X31044588Y-73447599D01*
X31042612Y-73839647D01*
X31040823Y-74276653D01*
X31039212Y-74760983D01*
X31037770Y-75295000D01*
X31036488Y-75881068D01*
X31035357Y-76521551D01*
X31034368Y-77218813D01*
X31033513Y-77975217D01*
X31032782Y-78793128D01*
X31032166Y-79674909D01*
X31031658Y-80622925D01*
X31031247Y-81639539D01*
X31030924Y-82727116D01*
X31030682Y-83888019D01*
X31030511Y-85124612D01*
X31030401Y-86439259D01*
X31030345Y-87834324D01*
X31030333Y-89005833D01*
X31030353Y-90466710D01*
G37*
X31030353Y-90466710D02*
X31030419Y-91845285D01*
X31030540Y-93143920D01*
X31030725Y-94364981D01*
X31030983Y-95510831D01*
X31031322Y-96583834D01*
X31031752Y-97586353D01*
X31032282Y-98520754D01*
X31032920Y-99389399D01*
X31033676Y-100194652D01*
X31034557Y-100938878D01*
X31035574Y-101624441D01*
X31036735Y-102253704D01*
X31038049Y-102829031D01*
X31039525Y-103352786D01*
X31041171Y-103827333D01*
X31042997Y-104255037D01*
X31045012Y-104638260D01*
X31047225Y-104979367D01*
X31049644Y-105280722D01*
X31052278Y-105544688D01*
X31055136Y-105773630D01*
X31058228Y-105969912D01*
X31061562Y-106135897D01*
X31065146Y-106273949D01*
X31068991Y-106386433D01*
X31073104Y-106475711D01*
X31077496Y-106544149D01*
X31082173Y-106594110D01*
X31087147Y-106627958D01*
X31092424Y-106648056D01*
X31096857Y-106655809D01*
X31187771Y-106705655D01*
X31284333Y-106722333D01*
X31397549Y-106699745D01*
X31471809Y-106655809D01*
X31477336Y-106644979D01*
X31482551Y-106622285D01*
X31487464Y-106585362D01*
X31492083Y-106531848D01*
X31496417Y-106459377D01*
X31500475Y-106365586D01*
X31504266Y-106248111D01*
X31507800Y-106104588D01*
X31511084Y-105932654D01*
X31514127Y-105729943D01*
X31516940Y-105494093D01*
X31519529Y-105222740D01*
X31521906Y-104913519D01*
X31524077Y-104564067D01*
X31526053Y-104172019D01*
X31527842Y-103735012D01*
X31529454Y-103250682D01*
X31530896Y-102716665D01*
X31532178Y-102130597D01*
X31533309Y-101490115D01*
X31534298Y-100792853D01*
X31535153Y-100036449D01*
X31535884Y-99218538D01*
X31536499Y-98336756D01*
X31537008Y-97388740D01*
X31537419Y-96372126D01*
X31537741Y-95284550D01*
X31537984Y-94123647D01*
X31538155Y-92887054D01*
X31538264Y-91572407D01*
X31538320Y-90177342D01*
X31538333Y-89005833D01*
X31538313Y-87544956D01*
X31538247Y-86166381D01*
X31538126Y-84867745D01*
X31537941Y-83646685D01*
X31537683Y-82500835D01*
X31537343Y-81427832D01*
X31536913Y-80425312D01*
X31536384Y-79490912D01*
X31535745Y-78622267D01*
X31534990Y-77817014D01*
X31534108Y-77072787D01*
X31533092Y-76387225D01*
X31531931Y-75757962D01*
X31530617Y-75182635D01*
X31529141Y-74658880D01*
X31527495Y-74184332D01*
X31525668Y-73756629D01*
X31523653Y-73373406D01*
X31521441Y-73032299D01*
X31519022Y-72730944D01*
X31516388Y-72466977D01*
X31513529Y-72238035D01*
X31510438Y-72041754D01*
X31507104Y-71875769D01*
X31503519Y-71737716D01*
X31499675Y-71625233D01*
X31495561Y-71535954D01*
X31491170Y-71467516D01*
X31486492Y-71417556D01*
X31481519Y-71383708D01*
X31476241Y-71363609D01*
X31471809Y-71355857D01*
X31380894Y-71306011D01*
X31284333Y-71289333D01*
X31171116Y-71311921D01*
X31096857Y-71355857D01*
X31091330Y-71366686D01*
X31086114Y-71389381D01*
X31081202Y-71426303D01*
X31076583Y-71479818D01*
X31072249Y-71552289D01*
X31068190Y-71646080D01*
X31064399Y-71763555D01*
X31060866Y-71907078D01*
X31057582Y-72079012D01*
X31054538Y-72281722D01*
X31051726Y-72517572D01*
X31049136Y-72788926D01*
X31046760Y-73098147D01*
X31044588Y-73447599D01*
X31042612Y-73839647D01*
X31040823Y-74276653D01*
X31039212Y-74760983D01*
X31037770Y-75295000D01*
X31036488Y-75881068D01*
X31035357Y-76521551D01*
X31034368Y-77218813D01*
X31033513Y-77975217D01*
X31032782Y-78793128D01*
X31032166Y-79674909D01*
X31031658Y-80622925D01*
X31031247Y-81639539D01*
X31030924Y-82727116D01*
X31030682Y-83888019D01*
X31030511Y-85124612D01*
X31030401Y-86439259D01*
X31030345Y-87834324D01*
X31030333Y-89005833D01*
X31030353Y-90466710D01*
G36*
X26459822Y-73406000D02*
G01*
X26673741Y-73406646D01*
X26815777Y-73410082D01*
X26898711Y-73418557D01*
X26935326Y-73434318D01*
X26938403Y-73459612D01*
X26925489Y-73487883D01*
X26899099Y-73586106D01*
X26885401Y-73739439D01*
X26884452Y-73919274D01*
X26896307Y-74097002D01*
X26921025Y-74244017D01*
X26923968Y-74255073D01*
X27017308Y-74440250D01*
X27175017Y-74583385D01*
X27381625Y-74670609D01*
X27389666Y-74672505D01*
X27542749Y-74694857D01*
X27753745Y-74708925D01*
X27996309Y-74714709D01*
X28244094Y-74712209D01*
X28470754Y-74701424D01*
X28649941Y-74682355D01*
X28702000Y-74672505D01*
X28910059Y-74587521D01*
X29069769Y-74446134D01*
X29165660Y-74262212D01*
X29167698Y-74255073D01*
X29183585Y-74155781D01*
X29196738Y-73993490D01*
X29205876Y-73789852D01*
X29209719Y-73566521D01*
X29209763Y-73543583D01*
X29210000Y-72982666D01*
X28098573Y-72982666D01*
X28098573Y-73405998D01*
X28118860Y-73406000D01*
X28880021Y-73406000D01*
X28865094Y-73761419D01*
X28852189Y-73956462D01*
X28830301Y-74086730D01*
X28795180Y-74171981D01*
X28769522Y-74205919D01*
X28733096Y-74240172D01*
X28686567Y-74264331D01*
X28615735Y-74280141D01*
X28506401Y-74289352D01*
X28344365Y-74293711D01*
X28115430Y-74294966D01*
X28045833Y-74295000D01*
X27766609Y-74293322D01*
X27560840Y-74283983D01*
X27417324Y-74260527D01*
X27324859Y-74216497D01*
X27272241Y-74145435D01*
X27248268Y-74040884D01*
X27241738Y-73896388D01*
X27241500Y-73831395D01*
X27242374Y-73689170D01*
X27252150Y-73582792D01*
X27281558Y-73507060D01*
X27341325Y-73456770D01*
X27442181Y-73426721D01*
X27594855Y-73411710D01*
X27810076Y-73406537D01*
X28098573Y-73405998D01*
X28098573Y-72982666D01*
X25950333Y-72982666D01*
X25950333Y-73406000D01*
X26459822Y-73406000D01*
G37*
X26459822Y-73406000D02*
X26673741Y-73406646D01*
X26815777Y-73410082D01*
X26898711Y-73418557D01*
X26935326Y-73434318D01*
X26938403Y-73459612D01*
X26925489Y-73487883D01*
X26899099Y-73586106D01*
X26885401Y-73739439D01*
X26884452Y-73919274D01*
X26896307Y-74097002D01*
X26921025Y-74244017D01*
X26923968Y-74255073D01*
X27017308Y-74440250D01*
X27175017Y-74583385D01*
X27381625Y-74670609D01*
X27389666Y-74672505D01*
X27542749Y-74694857D01*
X27753745Y-74708925D01*
X27996309Y-74714709D01*
X28244094Y-74712209D01*
X28470754Y-74701424D01*
X28649941Y-74682355D01*
X28702000Y-74672505D01*
X28910059Y-74587521D01*
X29069769Y-74446134D01*
X29165660Y-74262212D01*
X29167698Y-74255073D01*
X29183585Y-74155781D01*
X29196738Y-73993490D01*
X29205876Y-73789852D01*
X29209719Y-73566521D01*
X29209763Y-73543583D01*
X29210000Y-72982666D01*
X28098573Y-72982666D01*
X28098573Y-73405998D01*
X28118860Y-73406000D01*
X28880021Y-73406000D01*
X28865094Y-73761419D01*
X28852189Y-73956462D01*
X28830301Y-74086730D01*
X28795180Y-74171981D01*
X28769522Y-74205919D01*
X28733096Y-74240172D01*
X28686567Y-74264331D01*
X28615735Y-74280141D01*
X28506401Y-74289352D01*
X28344365Y-74293711D01*
X28115430Y-74294966D01*
X28045833Y-74295000D01*
X27766609Y-74293322D01*
X27560840Y-74283983D01*
X27417324Y-74260527D01*
X27324859Y-74216497D01*
X27272241Y-74145435D01*
X27248268Y-74040884D01*
X27241738Y-73896388D01*
X27241500Y-73831395D01*
X27242374Y-73689170D01*
X27252150Y-73582792D01*
X27281558Y-73507060D01*
X27341325Y-73456770D01*
X27442181Y-73426721D01*
X27594855Y-73411710D01*
X27810076Y-73406537D01*
X28098573Y-73405998D01*
X28098573Y-72982666D01*
X25950333Y-72982666D01*
X25950333Y-73406000D01*
X26459822Y-73406000D01*
G36*
X26897674Y-77036260D02*
G01*
X26949174Y-77237372D01*
X27042109Y-77390431D01*
X27148559Y-77487564D01*
X27217349Y-77528172D01*
X27304902Y-77555870D01*
X27430015Y-77573985D01*
X27611486Y-77585839D01*
X27730643Y-77590506D01*
X28194000Y-77606366D01*
X28194000Y-76369333D01*
X28437416Y-76369981D01*
X28579176Y-76375606D01*
X28688962Y-76389430D01*
X28731101Y-76402593D01*
X28800113Y-76490479D01*
X28845663Y-76653072D01*
X28868360Y-76893177D01*
X28871333Y-77049422D01*
X28871333Y-77427666D01*
X29210000Y-77427666D01*
X29209070Y-76951416D01*
X29205349Y-76718087D01*
X29193459Y-76548084D01*
X29170717Y-76420245D01*
X29134441Y-76313407D01*
X29125655Y-76293423D01*
X29048324Y-76161643D01*
X28942679Y-76073066D01*
X28847801Y-76025259D01*
X28766362Y-75992717D01*
X28682798Y-75970049D01*
X28581116Y-75955952D01*
X28445325Y-75949122D01*
X28259436Y-75948259D01*
X28007458Y-75952060D01*
X27960538Y-75953002D01*
X27698626Y-75959312D01*
X27606516Y-75963048D01*
X27606516Y-76369333D01*
X27855333Y-76369333D01*
X27855333Y-77226484D01*
X27620350Y-77206997D01*
X27441127Y-77180154D01*
X27327865Y-77125001D01*
X27266586Y-77025652D01*
X27243307Y-76866222D01*
X27241500Y-76776494D01*
X27250261Y-76587281D01*
X27285415Y-76466877D01*
X27360265Y-76400441D01*
X27488117Y-76373131D01*
X27606516Y-76369333D01*
X27606516Y-75963048D01*
X27507056Y-75967083D01*
X27371504Y-75978113D01*
X27277646Y-75994198D01*
X27211158Y-76017139D01*
X27157716Y-76048732D01*
X27149239Y-76054842D01*
X27019247Y-76181083D01*
X26935354Y-76342666D01*
X26891697Y-76555308D01*
X26881798Y-76771500D01*
X26897674Y-77036260D01*
G37*
X26897674Y-77036260D02*
X26949174Y-77237372D01*
X27042109Y-77390431D01*
X27148559Y-77487564D01*
X27217349Y-77528172D01*
X27304902Y-77555870D01*
X27430015Y-77573985D01*
X27611486Y-77585839D01*
X27730643Y-77590506D01*
X28194000Y-77606366D01*
X28194000Y-76369333D01*
X28437416Y-76369981D01*
X28579176Y-76375606D01*
X28688962Y-76389430D01*
X28731101Y-76402593D01*
X28800113Y-76490479D01*
X28845663Y-76653072D01*
X28868360Y-76893177D01*
X28871333Y-77049422D01*
X28871333Y-77427666D01*
X29210000Y-77427666D01*
X29209070Y-76951416D01*
X29205349Y-76718087D01*
X29193459Y-76548084D01*
X29170717Y-76420245D01*
X29134441Y-76313407D01*
X29125655Y-76293423D01*
X29048324Y-76161643D01*
X28942679Y-76073066D01*
X28847801Y-76025259D01*
X28766362Y-75992717D01*
X28682798Y-75970049D01*
X28581116Y-75955952D01*
X28445325Y-75949122D01*
X28259436Y-75948259D01*
X28007458Y-75952060D01*
X27960538Y-75953002D01*
X27698626Y-75959312D01*
X27606516Y-75963048D01*
X27606516Y-76369333D01*
X27855333Y-76369333D01*
X27855333Y-77226484D01*
X27620350Y-77206997D01*
X27441127Y-77180154D01*
X27327865Y-77125001D01*
X27266586Y-77025652D01*
X27243307Y-76866222D01*
X27241500Y-76776494D01*
X27250261Y-76587281D01*
X27285415Y-76466877D01*
X27360265Y-76400441D01*
X27488117Y-76373131D01*
X27606516Y-76369333D01*
X27606516Y-75963048D01*
X27507056Y-75967083D01*
X27371504Y-75978113D01*
X27277646Y-75994198D01*
X27211158Y-76017139D01*
X27157716Y-76048732D01*
X27149239Y-76054842D01*
X27019247Y-76181083D01*
X26935354Y-76342666D01*
X26891697Y-76555308D01*
X26881798Y-76771500D01*
X26897674Y-77036260D01*
G36*
X29210000Y-80602666D02*
G01*
X29210000Y-80415694D01*
X29200040Y-80299103D01*
X29174940Y-80224307D01*
X29161596Y-80212587D01*
X29134363Y-80179528D01*
X29161596Y-80106009D01*
X29186314Y-80012920D01*
X29200853Y-79863068D01*
X29205067Y-79683761D01*
X29198811Y-79502308D01*
X29181939Y-79346015D01*
X29166039Y-79273582D01*
X29096831Y-79119321D01*
X28987340Y-79001501D01*
X28828893Y-78916695D01*
X28612818Y-78861472D01*
X28330444Y-78832406D01*
X28033166Y-78825701D01*
X28032139Y-78825727D01*
X28032139Y-79248000D01*
X28302509Y-79250719D01*
X28501003Y-79260817D01*
X28640294Y-79281198D01*
X28733054Y-79314769D01*
X28791955Y-79364436D01*
X28828704Y-79430684D01*
X28865391Y-79588340D01*
X28868797Y-79769612D01*
X28841359Y-79940076D01*
X28785514Y-80065306D01*
X28783594Y-80067790D01*
X28695854Y-80179333D01*
X27211909Y-80179333D01*
X27226704Y-79794566D01*
X27236507Y-79602779D01*
X27256773Y-79462090D01*
X27299166Y-79364585D01*
X27375347Y-79302348D01*
X27496980Y-79267467D01*
X27675727Y-79252026D01*
X27923249Y-79248111D01*
X28032139Y-79248000D01*
X28032139Y-78825727D01*
X27719515Y-78833893D01*
X27476959Y-78858596D01*
X27293073Y-78902427D01*
X27155435Y-78968000D01*
X27082482Y-79025803D01*
X26993507Y-79134916D01*
X26933376Y-79272723D01*
X26897938Y-79455432D01*
X26883040Y-79699253D01*
X26881902Y-79808916D01*
X26881666Y-80179333D01*
X25950333Y-80179333D01*
X25950333Y-80602666D01*
X29210000Y-80602666D01*
G37*
X29210000Y-80602666D02*
X29210000Y-80415694D01*
X29200040Y-80299103D01*
X29174940Y-80224307D01*
X29161596Y-80212587D01*
X29134363Y-80179528D01*
X29161596Y-80106009D01*
X29186314Y-80012920D01*
X29200853Y-79863068D01*
X29205067Y-79683761D01*
X29198811Y-79502308D01*
X29181939Y-79346015D01*
X29166039Y-79273582D01*
X29096831Y-79119321D01*
X28987340Y-79001501D01*
X28828893Y-78916695D01*
X28612818Y-78861472D01*
X28330444Y-78832406D01*
X28033166Y-78825701D01*
X28032139Y-78825727D01*
X28032139Y-79248000D01*
X28302509Y-79250719D01*
X28501003Y-79260817D01*
X28640294Y-79281198D01*
X28733054Y-79314769D01*
X28791955Y-79364436D01*
X28828704Y-79430684D01*
X28865391Y-79588340D01*
X28868797Y-79769612D01*
X28841359Y-79940076D01*
X28785514Y-80065306D01*
X28783594Y-80067790D01*
X28695854Y-80179333D01*
X27211909Y-80179333D01*
X27226704Y-79794566D01*
X27236507Y-79602779D01*
X27256773Y-79462090D01*
X27299166Y-79364585D01*
X27375347Y-79302348D01*
X27496980Y-79267467D01*
X27675727Y-79252026D01*
X27923249Y-79248111D01*
X28032139Y-79248000D01*
X28032139Y-78825727D01*
X27719515Y-78833893D01*
X27476959Y-78858596D01*
X27293073Y-78902427D01*
X27155435Y-78968000D01*
X27082482Y-79025803D01*
X26993507Y-79134916D01*
X26933376Y-79272723D01*
X26897938Y-79455432D01*
X26883040Y-79699253D01*
X26881902Y-79808916D01*
X26881666Y-80179333D01*
X25950333Y-80179333D01*
X25950333Y-80602666D01*
X29210000Y-80602666D01*
G36*
X26891088Y-82921155D02*
G01*
X26914189Y-83037643D01*
X26956380Y-83151142D01*
X26959733Y-83158772D01*
X27024518Y-83281022D01*
X27104249Y-83373019D01*
X27211088Y-83438830D01*
X27357200Y-83482521D01*
X27554747Y-83508156D01*
X27815893Y-83519801D01*
X28045833Y-83521807D01*
X28360522Y-83517378D01*
X28602911Y-83501522D01*
X28785026Y-83470388D01*
X28918894Y-83420122D01*
X29016542Y-83346872D01*
X29089996Y-83246785D01*
X29125833Y-83175846D01*
X29170421Y-83023680D01*
X29198287Y-82819324D01*
X29208140Y-82593836D01*
X29198693Y-82378276D01*
X29168658Y-82203699D01*
X29166472Y-82196201D01*
X29112326Y-82075071D01*
X29053794Y-81990783D01*
X28981972Y-81919996D01*
X28903888Y-81867716D01*
X28805836Y-81831209D01*
X28674112Y-81807745D01*
X28495008Y-81794591D01*
X28254821Y-81789015D01*
X28037352Y-81788158D01*
X28036869Y-81788159D01*
X28036869Y-82169000D01*
X28306367Y-82171765D01*
X28504034Y-82182015D01*
X28642581Y-82202684D01*
X28734719Y-82236703D01*
X28793163Y-82287007D01*
X28828704Y-82351684D01*
X28860412Y-82495569D01*
X28866193Y-82675551D01*
X28846234Y-82847186D01*
X28826351Y-82916799D01*
X28777805Y-83012889D01*
X28731101Y-83067073D01*
X28672970Y-83078267D01*
X28546279Y-83087838D01*
X28367130Y-83095027D01*
X28151626Y-83099076D01*
X28038273Y-83099685D01*
X27780220Y-83098413D01*
X27594015Y-83093225D01*
X27466885Y-83082960D01*
X27386058Y-83066458D01*
X27338760Y-83042562D01*
X27330853Y-83035472D01*
X27264991Y-82921574D01*
X27231051Y-82762308D01*
X27228071Y-82584881D01*
X27255087Y-82416501D01*
X27311137Y-82284375D01*
X27359248Y-82233152D01*
X27418644Y-82205681D01*
X27513818Y-82186824D01*
X27658174Y-82175312D01*
X27865111Y-82169876D01*
X28036869Y-82169000D01*
X28036869Y-81788159D01*
X27769925Y-81789195D01*
X27572784Y-81793103D01*
X27431561Y-81801287D01*
X27331886Y-81815148D01*
X27259391Y-81836090D01*
X27199709Y-81865516D01*
X27190883Y-81870803D01*
X27066985Y-81961675D01*
X26982539Y-82068307D01*
X26929513Y-82209338D01*
X26899875Y-82403406D01*
X26889164Y-82570999D01*
X26883829Y-82774625D01*
X26891088Y-82921155D01*
G37*
X26891088Y-82921155D02*
X26914189Y-83037643D01*
X26956380Y-83151142D01*
X26959733Y-83158772D01*
X27024518Y-83281022D01*
X27104249Y-83373019D01*
X27211088Y-83438830D01*
X27357200Y-83482521D01*
X27554747Y-83508156D01*
X27815893Y-83519801D01*
X28045833Y-83521807D01*
X28360522Y-83517378D01*
X28602911Y-83501522D01*
X28785026Y-83470388D01*
X28918894Y-83420122D01*
X29016542Y-83346872D01*
X29089996Y-83246785D01*
X29125833Y-83175846D01*
X29170421Y-83023680D01*
X29198287Y-82819324D01*
X29208140Y-82593836D01*
X29198693Y-82378276D01*
X29168658Y-82203699D01*
X29166472Y-82196201D01*
X29112326Y-82075071D01*
X29053794Y-81990783D01*
X28981972Y-81919996D01*
X28903888Y-81867716D01*
X28805836Y-81831209D01*
X28674112Y-81807745D01*
X28495008Y-81794591D01*
X28254821Y-81789015D01*
X28037352Y-81788158D01*
X28036869Y-81788159D01*
X28036869Y-82169000D01*
X28306367Y-82171765D01*
X28504034Y-82182015D01*
X28642581Y-82202684D01*
X28734719Y-82236703D01*
X28793163Y-82287007D01*
X28828704Y-82351684D01*
X28860412Y-82495569D01*
X28866193Y-82675551D01*
X28846234Y-82847186D01*
X28826351Y-82916799D01*
X28777805Y-83012889D01*
X28731101Y-83067073D01*
X28672970Y-83078267D01*
X28546279Y-83087838D01*
X28367130Y-83095027D01*
X28151626Y-83099076D01*
X28038273Y-83099685D01*
X27780220Y-83098413D01*
X27594015Y-83093225D01*
X27466885Y-83082960D01*
X27386058Y-83066458D01*
X27338760Y-83042562D01*
X27330853Y-83035472D01*
X27264991Y-82921574D01*
X27231051Y-82762308D01*
X27228071Y-82584881D01*
X27255087Y-82416501D01*
X27311137Y-82284375D01*
X27359248Y-82233152D01*
X27418644Y-82205681D01*
X27513818Y-82186824D01*
X27658174Y-82175312D01*
X27865111Y-82169876D01*
X28036869Y-82169000D01*
X28036869Y-81788159D01*
X27769925Y-81789195D01*
X27572784Y-81793103D01*
X27431561Y-81801287D01*
X27331886Y-81815148D01*
X27259391Y-81836090D01*
X27199709Y-81865516D01*
X27190883Y-81870803D01*
X27066985Y-81961675D01*
X26982539Y-82068307D01*
X26929513Y-82209338D01*
X26899875Y-82403406D01*
X26889164Y-82570999D01*
X26883829Y-82774625D01*
X26891088Y-82921155D01*
G36*
X29210000Y-86444666D02*
G01*
X29210000Y-86254166D01*
X29201799Y-86140554D01*
X29181051Y-86072405D01*
X29168714Y-86063666D01*
X29148801Y-86029992D01*
X29168714Y-85955077D01*
X29200938Y-85804418D01*
X29210767Y-85605409D01*
X29199709Y-85390922D01*
X29169272Y-85193831D01*
X29127730Y-85061057D01*
X29070897Y-84951637D01*
X29004988Y-84869149D01*
X28917817Y-84809866D01*
X28797198Y-84770060D01*
X28630947Y-84746006D01*
X28406878Y-84733977D01*
X28112807Y-84730245D01*
X28045833Y-84730166D01*
X28045833Y-85132333D01*
X28297319Y-85133439D01*
X28477737Y-85137707D01*
X28600667Y-85146557D01*
X28679688Y-85161413D01*
X28728382Y-85183694D01*
X28753414Y-85206416D01*
X28816749Y-85292903D01*
X28850410Y-85386445D01*
X28860699Y-85514604D01*
X28856511Y-85657213D01*
X28841528Y-85813403D01*
X28810293Y-85911970D01*
X28753893Y-85979639D01*
X28747070Y-85985296D01*
X28702800Y-86014351D01*
X28643882Y-86035285D01*
X28556868Y-86049388D01*
X28428313Y-86057953D01*
X28244768Y-86062272D01*
X27992788Y-86063635D01*
X27931098Y-86063666D01*
X27211909Y-86063666D01*
X27226704Y-85687050D01*
X27235911Y-85493819D01*
X27253851Y-85351648D01*
X27292090Y-85252703D01*
X27362198Y-85189150D01*
X27475740Y-85153156D01*
X27644286Y-85136887D01*
X27879401Y-85132510D01*
X28045833Y-85132333D01*
X28045833Y-84730166D01*
X27775689Y-84731187D01*
X27576057Y-84735134D01*
X27432795Y-84743333D01*
X27331764Y-84757108D01*
X27258824Y-84777786D01*
X27199834Y-84806692D01*
X27194321Y-84809987D01*
X27076973Y-84896793D01*
X26993940Y-85002597D01*
X26939055Y-85143504D01*
X26906153Y-85335620D01*
X26889067Y-85595050D01*
X26888570Y-85608583D01*
X26872300Y-86063666D01*
X25950333Y-86063666D01*
X25950333Y-86444666D01*
X29210000Y-86444666D01*
G37*
X29210000Y-86444666D02*
X29210000Y-86254166D01*
X29201799Y-86140554D01*
X29181051Y-86072405D01*
X29168714Y-86063666D01*
X29148801Y-86029992D01*
X29168714Y-85955077D01*
X29200938Y-85804418D01*
X29210767Y-85605409D01*
X29199709Y-85390922D01*
X29169272Y-85193831D01*
X29127730Y-85061057D01*
X29070897Y-84951637D01*
X29004988Y-84869149D01*
X28917817Y-84809866D01*
X28797198Y-84770060D01*
X28630947Y-84746006D01*
X28406878Y-84733977D01*
X28112807Y-84730245D01*
X28045833Y-84730166D01*
X28045833Y-85132333D01*
X28297319Y-85133439D01*
X28477737Y-85137707D01*
X28600667Y-85146557D01*
X28679688Y-85161413D01*
X28728382Y-85183694D01*
X28753414Y-85206416D01*
X28816749Y-85292903D01*
X28850410Y-85386445D01*
X28860699Y-85514604D01*
X28856511Y-85657213D01*
X28841528Y-85813403D01*
X28810293Y-85911970D01*
X28753893Y-85979639D01*
X28747070Y-85985296D01*
X28702800Y-86014351D01*
X28643882Y-86035285D01*
X28556868Y-86049388D01*
X28428313Y-86057953D01*
X28244768Y-86062272D01*
X27992788Y-86063635D01*
X27931098Y-86063666D01*
X27211909Y-86063666D01*
X27226704Y-85687050D01*
X27235911Y-85493819D01*
X27253851Y-85351648D01*
X27292090Y-85252703D01*
X27362198Y-85189150D01*
X27475740Y-85153156D01*
X27644286Y-85136887D01*
X27879401Y-85132510D01*
X28045833Y-85132333D01*
X28045833Y-84730166D01*
X27775689Y-84731187D01*
X27576057Y-84735134D01*
X27432795Y-84743333D01*
X27331764Y-84757108D01*
X27258824Y-84777786D01*
X27199834Y-84806692D01*
X27194321Y-84809987D01*
X27076973Y-84896793D01*
X26993940Y-85002597D01*
X26939055Y-85143504D01*
X26906153Y-85335620D01*
X26889067Y-85595050D01*
X26888570Y-85608583D01*
X26872300Y-86063666D01*
X25950333Y-86063666D01*
X25950333Y-86444666D01*
X29210000Y-86444666D01*
G36*
X26896948Y-88801839D02*
G01*
X26947507Y-89001553D01*
X27043105Y-89148068D01*
X27192578Y-89249481D01*
X27404758Y-89313891D01*
X27688479Y-89349395D01*
X27770333Y-89354632D01*
X28194000Y-89377978D01*
X28194000Y-88095666D01*
X28422143Y-88095666D01*
X28604001Y-88110940D01*
X28728273Y-88160385D01*
X28750226Y-88176511D01*
X28794361Y-88218417D01*
X28824042Y-88270696D01*
X28842883Y-88350758D01*
X28854499Y-88476013D01*
X28862506Y-88663870D01*
X28864495Y-88726844D01*
X28878824Y-89196333D01*
X29210000Y-89196333D01*
X29206361Y-88720083D01*
X29201694Y-88514932D01*
X29191893Y-88330048D01*
X29178503Y-88188548D01*
X29166472Y-88122867D01*
X29068017Y-87937753D01*
X28900455Y-87794653D01*
X28862952Y-87773832D01*
X28768318Y-87748405D01*
X28607781Y-87729517D01*
X28399850Y-87717138D01*
X28163035Y-87711238D01*
X27915843Y-87711785D01*
X27855333Y-87713548D01*
X27855333Y-88085490D01*
X27855333Y-88942333D01*
X27625523Y-88942333D01*
X27444076Y-88925984D01*
X27326129Y-88870457D01*
X27255805Y-88766029D01*
X27236341Y-88704020D01*
X27223402Y-88585242D01*
X27229348Y-88439084D01*
X27250346Y-88297996D01*
X27282561Y-88194425D01*
X27299584Y-88168815D01*
X27364526Y-88140984D01*
X27485031Y-88116615D01*
X27600703Y-88103908D01*
X27855333Y-88085490D01*
X27855333Y-87713548D01*
X27676784Y-87718751D01*
X27464367Y-87732103D01*
X27297100Y-87751812D01*
X27196450Y-87776573D01*
X27055265Y-87874553D01*
X26957144Y-88035032D01*
X26900216Y-88262564D01*
X26882596Y-88540827D01*
X26896948Y-88801839D01*
G37*
X26896948Y-88801839D02*
X26947507Y-89001553D01*
X27043105Y-89148068D01*
X27192578Y-89249481D01*
X27404758Y-89313891D01*
X27688479Y-89349395D01*
X27770333Y-89354632D01*
X28194000Y-89377978D01*
X28194000Y-88095666D01*
X28422143Y-88095666D01*
X28604001Y-88110940D01*
X28728273Y-88160385D01*
X28750226Y-88176511D01*
X28794361Y-88218417D01*
X28824042Y-88270696D01*
X28842883Y-88350758D01*
X28854499Y-88476013D01*
X28862506Y-88663870D01*
X28864495Y-88726844D01*
X28878824Y-89196333D01*
X29210000Y-89196333D01*
X29206361Y-88720083D01*
X29201694Y-88514932D01*
X29191893Y-88330048D01*
X29178503Y-88188548D01*
X29166472Y-88122867D01*
X29068017Y-87937753D01*
X28900455Y-87794653D01*
X28862952Y-87773832D01*
X28768318Y-87748405D01*
X28607781Y-87729517D01*
X28399850Y-87717138D01*
X28163035Y-87711238D01*
X27915843Y-87711785D01*
X27855333Y-87713548D01*
X27855333Y-88085490D01*
X27855333Y-88942333D01*
X27625523Y-88942333D01*
X27444076Y-88925984D01*
X27326129Y-88870457D01*
X27255805Y-88766029D01*
X27236341Y-88704020D01*
X27223402Y-88585242D01*
X27229348Y-88439084D01*
X27250346Y-88297996D01*
X27282561Y-88194425D01*
X27299584Y-88168815D01*
X27364526Y-88140984D01*
X27485031Y-88116615D01*
X27600703Y-88103908D01*
X27855333Y-88085490D01*
X27855333Y-87713548D01*
X27676784Y-87718751D01*
X27464367Y-87732103D01*
X27297100Y-87751812D01*
X27196450Y-87776573D01*
X27055265Y-87874553D01*
X26957144Y-88035032D01*
X26900216Y-88262564D01*
X26882596Y-88540827D01*
X26896948Y-88801839D01*
G36*
X26887570Y-92327626D02*
G01*
X26902614Y-92401523D01*
X26913416Y-92413841D01*
X26960858Y-92402590D01*
X27078910Y-92370742D01*
X27256868Y-92321298D01*
X27484031Y-92257257D01*
X27749697Y-92181621D01*
X28043162Y-92097389D01*
X28077583Y-92087468D01*
X29210000Y-91760919D01*
X29210000Y-91472131D01*
X29201841Y-91286992D01*
X29177388Y-91184650D01*
X29157083Y-91163752D01*
X29096864Y-91144561D01*
X28970920Y-91106564D01*
X28792060Y-91053483D01*
X28573095Y-90989042D01*
X28326833Y-90916963D01*
X28066086Y-90840969D01*
X27803663Y-90764782D01*
X27552374Y-90692125D01*
X27325028Y-90626722D01*
X27134435Y-90572295D01*
X26993406Y-90532566D01*
X26914750Y-90511258D01*
X26902962Y-90508666D01*
X26890734Y-90546714D01*
X26887116Y-90644321D01*
X26890037Y-90727299D01*
X26902833Y-90945932D01*
X27872408Y-91207622D01*
X28141718Y-91281553D01*
X28379108Y-91349119D01*
X28573900Y-91407080D01*
X28715414Y-91452197D01*
X28792971Y-91481232D01*
X28803742Y-91490129D01*
X28753399Y-91506408D01*
X28633175Y-91540662D01*
X28455138Y-91589592D01*
X28231359Y-91649903D01*
X27973906Y-91718299D01*
X27823583Y-91757838D01*
X26881666Y-92004731D01*
X26881666Y-92209198D01*
X26887570Y-92327626D01*
G37*
X26887570Y-92327626D02*
X26902614Y-92401523D01*
X26913416Y-92413841D01*
X26960858Y-92402590D01*
X27078910Y-92370742D01*
X27256868Y-92321298D01*
X27484031Y-92257257D01*
X27749697Y-92181621D01*
X28043162Y-92097389D01*
X28077583Y-92087468D01*
X29210000Y-91760919D01*
X29210000Y-91472131D01*
X29201841Y-91286992D01*
X29177388Y-91184650D01*
X29157083Y-91163752D01*
X29096864Y-91144561D01*
X28970920Y-91106564D01*
X28792060Y-91053483D01*
X28573095Y-90989042D01*
X28326833Y-90916963D01*
X28066086Y-90840969D01*
X27803663Y-90764782D01*
X27552374Y-90692125D01*
X27325028Y-90626722D01*
X27134435Y-90572295D01*
X26993406Y-90532566D01*
X26914750Y-90511258D01*
X26902962Y-90508666D01*
X26890734Y-90546714D01*
X26887116Y-90644321D01*
X26890037Y-90727299D01*
X26902833Y-90945932D01*
X27872408Y-91207622D01*
X28141718Y-91281553D01*
X28379108Y-91349119D01*
X28573900Y-91407080D01*
X28715414Y-91452197D01*
X28792971Y-91481232D01*
X28803742Y-91490129D01*
X28753399Y-91506408D01*
X28633175Y-91540662D01*
X28455138Y-91589592D01*
X28231359Y-91649903D01*
X27973906Y-91718299D01*
X27823583Y-91757838D01*
X26881666Y-92004731D01*
X26881666Y-92209198D01*
X26887570Y-92327626D01*
G36*
X29210000Y-94615000D02*
G01*
X29210000Y-94149333D01*
X28744333Y-94149333D01*
X28744333Y-94615000D01*
X29210000Y-94615000D01*
G37*
X29210000Y-94615000D02*
X29210000Y-94149333D01*
X28744333Y-94149333D01*
X28744333Y-94615000D01*
X29210000Y-94615000D01*
G36*
X27212399Y-98044000D02*
G01*
X27226949Y-97616864D01*
X27235733Y-97411895D01*
X27253778Y-97261042D01*
X27292618Y-97156010D01*
X27363789Y-97088504D01*
X27478825Y-97050230D01*
X27649261Y-97032893D01*
X27886631Y-97028198D01*
X28045833Y-97028000D01*
X28323929Y-97029327D01*
X28528892Y-97038841D01*
X28672259Y-97064836D01*
X28765564Y-97115605D01*
X28820340Y-97199444D01*
X28848124Y-97324648D01*
X28860449Y-97499511D01*
X28864716Y-97616864D01*
X28879267Y-98044000D01*
X29210000Y-98044000D01*
X29206361Y-97610083D01*
X29201262Y-97412725D01*
X29190507Y-97234943D01*
X29175910Y-97101755D01*
X29166039Y-97053582D01*
X29096831Y-96899321D01*
X28987340Y-96781501D01*
X28828893Y-96696695D01*
X28612818Y-96641472D01*
X28330444Y-96612406D01*
X28033166Y-96605701D01*
X27719515Y-96613893D01*
X27476959Y-96638596D01*
X27293073Y-96682427D01*
X27155435Y-96748000D01*
X27082482Y-96805803D01*
X26997691Y-96907887D01*
X26939126Y-97035049D01*
X26902941Y-97203112D01*
X26885291Y-97427902D01*
X26881902Y-97631250D01*
X26881666Y-98044000D01*
X27212399Y-98044000D01*
G37*
X27212399Y-98044000D02*
X27226949Y-97616864D01*
X27235733Y-97411895D01*
X27253778Y-97261042D01*
X27292618Y-97156010D01*
X27363789Y-97088504D01*
X27478825Y-97050230D01*
X27649261Y-97032893D01*
X27886631Y-97028198D01*
X28045833Y-97028000D01*
X28323929Y-97029327D01*
X28528892Y-97038841D01*
X28672259Y-97064836D01*
X28765564Y-97115605D01*
X28820340Y-97199444D01*
X28848124Y-97324648D01*
X28860449Y-97499511D01*
X28864716Y-97616864D01*
X28879267Y-98044000D01*
X29210000Y-98044000D01*
X29206361Y-97610083D01*
X29201262Y-97412725D01*
X29190507Y-97234943D01*
X29175910Y-97101755D01*
X29166039Y-97053582D01*
X29096831Y-96899321D01*
X28987340Y-96781501D01*
X28828893Y-96696695D01*
X28612818Y-96641472D01*
X28330444Y-96612406D01*
X28033166Y-96605701D01*
X27719515Y-96613893D01*
X27476959Y-96638596D01*
X27293073Y-96682427D01*
X27155435Y-96748000D01*
X27082482Y-96805803D01*
X26997691Y-96907887D01*
X26939126Y-97035049D01*
X26902941Y-97203112D01*
X26885291Y-97427902D01*
X26881902Y-97631250D01*
X26881666Y-98044000D01*
X27212399Y-98044000D01*
G36*
X26887844Y-100470095D02*
G01*
X26910074Y-100620575D01*
X26953900Y-100748837D01*
X26976916Y-100797280D01*
X27041849Y-100910817D01*
X27114917Y-100995853D01*
X27208874Y-101056407D01*
X27336474Y-101096499D01*
X27510469Y-101120148D01*
X27743615Y-101131376D01*
X28045833Y-101134201D01*
X28350239Y-101131324D01*
X28582847Y-101120010D01*
X28756410Y-101096242D01*
X28883682Y-101055999D01*
X28977416Y-100995260D01*
X29050365Y-100910007D01*
X29114750Y-100797280D01*
X29168057Y-100669392D01*
X29197699Y-100530818D01*
X29209220Y-100350662D01*
X29210000Y-100266500D01*
X29203822Y-100062904D01*
X29181592Y-99912424D01*
X29137766Y-99784162D01*
X29114750Y-99735719D01*
X29049817Y-99622182D01*
X28976749Y-99537146D01*
X28882792Y-99476592D01*
X28755192Y-99436500D01*
X28581196Y-99412851D01*
X28348051Y-99401623D01*
X28083552Y-99399151D01*
X28083552Y-99780565D01*
X28295638Y-99786213D01*
X28483920Y-99797535D01*
X28627370Y-99814300D01*
X28700171Y-99833545D01*
X28791144Y-99911565D01*
X28836033Y-99991671D01*
X28856160Y-100120631D01*
X28856252Y-100281739D01*
X28839300Y-100445690D01*
X28808293Y-100583175D01*
X28767498Y-100663644D01*
X28727944Y-100690518D01*
X28662955Y-100709527D01*
X28559368Y-100721921D01*
X28404021Y-100728950D01*
X28183750Y-100731863D01*
X28045833Y-100732166D01*
X27773255Y-100730871D01*
X27573253Y-100723547D01*
X27433739Y-100705034D01*
X27342628Y-100670175D01*
X27287831Y-100613809D01*
X27257263Y-100530778D01*
X27238837Y-100415923D01*
X27235249Y-100386188D01*
X27231575Y-100173849D01*
X27269962Y-99995862D01*
X27344975Y-99869107D01*
X27417738Y-99819374D01*
X27514756Y-99799998D01*
X27672083Y-99787226D01*
X27868691Y-99780826D01*
X28083552Y-99780565D01*
X28083552Y-99399151D01*
X28045833Y-99398798D01*
X27741427Y-99401675D01*
X27508819Y-99412989D01*
X27335256Y-99436757D01*
X27207984Y-99477000D01*
X27114250Y-99537739D01*
X27041300Y-99622992D01*
X26976916Y-99735719D01*
X26923608Y-99863607D01*
X26893967Y-100002181D01*
X26882446Y-100182337D01*
X26881666Y-100266500D01*
X26887844Y-100470095D01*
G37*
X26887844Y-100470095D02*
X26910074Y-100620575D01*
X26953900Y-100748837D01*
X26976916Y-100797280D01*
X27041849Y-100910817D01*
X27114917Y-100995853D01*
X27208874Y-101056407D01*
X27336474Y-101096499D01*
X27510469Y-101120148D01*
X27743615Y-101131376D01*
X28045833Y-101134201D01*
X28350239Y-101131324D01*
X28582847Y-101120010D01*
X28756410Y-101096242D01*
X28883682Y-101055999D01*
X28977416Y-100995260D01*
X29050365Y-100910007D01*
X29114750Y-100797280D01*
X29168057Y-100669392D01*
X29197699Y-100530818D01*
X29209220Y-100350662D01*
X29210000Y-100266500D01*
X29203822Y-100062904D01*
X29181592Y-99912424D01*
X29137766Y-99784162D01*
X29114750Y-99735719D01*
X29049817Y-99622182D01*
X28976749Y-99537146D01*
X28882792Y-99476592D01*
X28755192Y-99436500D01*
X28581196Y-99412851D01*
X28348051Y-99401623D01*
X28083552Y-99399151D01*
X28083552Y-99780565D01*
X28295638Y-99786213D01*
X28483920Y-99797535D01*
X28627370Y-99814300D01*
X28700171Y-99833545D01*
X28791144Y-99911565D01*
X28836033Y-99991671D01*
X28856160Y-100120631D01*
X28856252Y-100281739D01*
X28839300Y-100445690D01*
X28808293Y-100583175D01*
X28767498Y-100663644D01*
X28727944Y-100690518D01*
X28662955Y-100709527D01*
X28559368Y-100721921D01*
X28404021Y-100728950D01*
X28183750Y-100731863D01*
X28045833Y-100732166D01*
X27773255Y-100730871D01*
X27573253Y-100723547D01*
X27433739Y-100705034D01*
X27342628Y-100670175D01*
X27287831Y-100613809D01*
X27257263Y-100530778D01*
X27238837Y-100415923D01*
X27235249Y-100386188D01*
X27231575Y-100173849D01*
X27269962Y-99995862D01*
X27344975Y-99869107D01*
X27417738Y-99819374D01*
X27514756Y-99799998D01*
X27672083Y-99787226D01*
X27868691Y-99780826D01*
X28083552Y-99780565D01*
X28083552Y-99399151D01*
X28045833Y-99398798D01*
X27741427Y-99401675D01*
X27508819Y-99412989D01*
X27335256Y-99436757D01*
X27207984Y-99477000D01*
X27114250Y-99537739D01*
X27041300Y-99622992D01*
X26976916Y-99735719D01*
X26923608Y-99863607D01*
X26893967Y-100002181D01*
X26882446Y-100182337D01*
X26881666Y-100266500D01*
X26887844Y-100470095D01*
G36*
X26891385Y-102425698D02*
G01*
X26915662Y-102484679D01*
X26925489Y-102489000D01*
X26947689Y-102514914D01*
X26925489Y-102570883D01*
X26888265Y-102706158D01*
X26886269Y-102877845D01*
X26917174Y-103046474D01*
X26959301Y-103145166D01*
X27008234Y-103235628D01*
X27010948Y-103300675D01*
X26967454Y-103385823D01*
X26959366Y-103399166D01*
X26898759Y-103566274D01*
X26885791Y-103764688D01*
X26921184Y-103955239D01*
X26947978Y-104018437D01*
X26993240Y-104092369D01*
X27050375Y-104150161D01*
X27129627Y-104193761D01*
X27241239Y-104225114D01*
X27395456Y-104246166D01*
X27602521Y-104258865D01*
X27872678Y-104265156D01*
X28216170Y-104266987D01*
X28256140Y-104267000D01*
X29210000Y-104267000D01*
X29210000Y-103886000D01*
X28286757Y-103886000D01*
X27956751Y-103884976D01*
X27701790Y-103880542D01*
X27512264Y-103870651D01*
X27378564Y-103853257D01*
X27291080Y-103826312D01*
X27240201Y-103787772D01*
X27216317Y-103735590D01*
X27209819Y-103667719D01*
X27209750Y-103656668D01*
X27213572Y-103578199D01*
X27231493Y-103517439D01*
X27273197Y-103471940D01*
X27348367Y-103439257D01*
X27466686Y-103416945D01*
X27637837Y-103402556D01*
X27871503Y-103393645D01*
X28177366Y-103387766D01*
X28280090Y-103386291D01*
X29210000Y-103373417D01*
X29210000Y-102997000D01*
X28282129Y-102997000D01*
X28007068Y-102995865D01*
X27758218Y-102992692D01*
X27548874Y-102987822D01*
X27392335Y-102981600D01*
X27301899Y-102974369D01*
X27287295Y-102971304D01*
X27242313Y-102914587D01*
X27221262Y-102810830D01*
X27225578Y-102694617D01*
X27256699Y-102600532D01*
X27271133Y-102582133D01*
X27318768Y-102563823D01*
X27424537Y-102549916D01*
X27594588Y-102540099D01*
X27835068Y-102534058D01*
X28152122Y-102531479D01*
X28265966Y-102531333D01*
X29210000Y-102531333D01*
X29210000Y-102150333D01*
X26881666Y-102150333D01*
X26881666Y-102319666D01*
X26891385Y-102425698D01*
G37*
X26891385Y-102425698D02*
X26915662Y-102484679D01*
X26925489Y-102489000D01*
X26947689Y-102514914D01*
X26925489Y-102570883D01*
X26888265Y-102706158D01*
X26886269Y-102877845D01*
X26917174Y-103046474D01*
X26959301Y-103145166D01*
X27008234Y-103235628D01*
X27010948Y-103300675D01*
X26967454Y-103385823D01*
X26959366Y-103399166D01*
X26898759Y-103566274D01*
X26885791Y-103764688D01*
X26921184Y-103955239D01*
X26947978Y-104018437D01*
X26993240Y-104092369D01*
X27050375Y-104150161D01*
X27129627Y-104193761D01*
X27241239Y-104225114D01*
X27395456Y-104246166D01*
X27602521Y-104258865D01*
X27872678Y-104265156D01*
X28216170Y-104266987D01*
X28256140Y-104267000D01*
X29210000Y-104267000D01*
X29210000Y-103886000D01*
X28286757Y-103886000D01*
X27956751Y-103884976D01*
X27701790Y-103880542D01*
X27512264Y-103870651D01*
X27378564Y-103853257D01*
X27291080Y-103826312D01*
X27240201Y-103787772D01*
X27216317Y-103735590D01*
X27209819Y-103667719D01*
X27209750Y-103656668D01*
X27213572Y-103578199D01*
X27231493Y-103517439D01*
X27273197Y-103471940D01*
X27348367Y-103439257D01*
X27466686Y-103416945D01*
X27637837Y-103402556D01*
X27871503Y-103393645D01*
X28177366Y-103387766D01*
X28280090Y-103386291D01*
X29210000Y-103373417D01*
X29210000Y-102997000D01*
X28282129Y-102997000D01*
X28007068Y-102995865D01*
X27758218Y-102992692D01*
X27548874Y-102987822D01*
X27392335Y-102981600D01*
X27301899Y-102974369D01*
X27287295Y-102971304D01*
X27242313Y-102914587D01*
X27221262Y-102810830D01*
X27225578Y-102694617D01*
X27256699Y-102600532D01*
X27271133Y-102582133D01*
X27318768Y-102563823D01*
X27424537Y-102549916D01*
X27594588Y-102540099D01*
X27835068Y-102534058D01*
X28152122Y-102531479D01*
X28265966Y-102531333D01*
X29210000Y-102531333D01*
X29210000Y-102150333D01*
X26881666Y-102150333D01*
X26881666Y-102319666D01*
X26891385Y-102425698D01*
D10*
%TO.C,H2*%
X28368750Y-60531250D02*
X28368750Y-58531250D01*
X30368750Y-60531250D02*
X28368750Y-60531250D01*
X30368750Y-58531250D02*
X30368750Y-60531250D01*
X28368750Y-58531250D02*
X30368750Y-58531250D01*
%TO.C,H1*%
X28368750Y-58150000D02*
X28368750Y-56150000D01*
X30368750Y-58150000D02*
X28368750Y-58150000D01*
X30368750Y-56150000D02*
X30368750Y-58150000D01*
X28368750Y-56150000D02*
X30368750Y-56150000D01*
D12*
%TO.C,SW2*%
X45525000Y-130125000D02*
X44275000Y-130125000D01*
D13*
X35825000Y-135225000D02*
X38275000Y-135225000D01*
D10*
X45675000Y-129925000D02*
X37474999Y-129925000D01*
X40875000Y-133525000D02*
X45675000Y-133525000D01*
X35625000Y-135425000D02*
X38655000Y-135425000D01*
X35375000Y-131825000D02*
X35375000Y-132575000D01*
X35625000Y-130975000D02*
X35625000Y-135425000D01*
X35375000Y-132575000D02*
X35575000Y-132575000D01*
X45655000Y-132525000D02*
X45655000Y-130275000D01*
X45675000Y-133525000D02*
X45675000Y-129925000D01*
D14*
X43875000Y-131725000D02*
X37175000Y-131725000D01*
D15*
X45175000Y-130525000D02*
X45175000Y-133025000D01*
D13*
X45475000Y-133275000D02*
X44175000Y-133225000D01*
D16*
X37105000Y-131425000D02*
X37105000Y-133665000D01*
D17*
X35975000Y-134925000D02*
X35975000Y-133125001D01*
D18*
X35475000Y-132475000D02*
X35475000Y-131825000D01*
D10*
X38658682Y-135403529D02*
G75*
G02*
X40875000Y-133525000I2151318J-291471D01*
G01*
X35375000Y-131825001D02*
G75*
G02*
X37474999Y-129925000I2000000J-99999D01*
G01*
D15*
X38258682Y-135003529D02*
G75*
G02*
X40475000Y-133125000I2151318J-291471D01*
G01*
D18*
%TO.C,SW3*%
X54525000Y-132475000D02*
X54525000Y-131825000D01*
D17*
X55025000Y-134925000D02*
X55025000Y-133125001D01*
D16*
X56155000Y-131425000D02*
X56155000Y-133665000D01*
D13*
X64525000Y-133275000D02*
X63225000Y-133225000D01*
D15*
X64225000Y-130525000D02*
X64225000Y-133025000D01*
D14*
X62925000Y-131725000D02*
X56225000Y-131725000D01*
D10*
X64725000Y-133525000D02*
X64725000Y-129925000D01*
X64705000Y-132525000D02*
X64705000Y-130275000D01*
X54425000Y-132575000D02*
X54625000Y-132575000D01*
X54675000Y-130975000D02*
X54675000Y-135425000D01*
X54425000Y-131825000D02*
X54425000Y-132575000D01*
X54675000Y-135425000D02*
X57705000Y-135425000D01*
X59925000Y-133525000D02*
X64725000Y-133525000D01*
X64725000Y-129925000D02*
X56524999Y-129925000D01*
D13*
X54875000Y-135225000D02*
X57325000Y-135225000D01*
D12*
X64575000Y-130125000D02*
X63325000Y-130125000D01*
D15*
X57308682Y-135003529D02*
G75*
G02*
X59525000Y-133125000I2151318J-291471D01*
G01*
D10*
X54425000Y-131825001D02*
G75*
G02*
X56524999Y-129925000I2000000J-99999D01*
G01*
X57708682Y-135403529D02*
G75*
G02*
X59925000Y-133525000I2151318J-291471D01*
G01*
D12*
%TO.C,SW4*%
X102675000Y-53925000D02*
X101425000Y-53925000D01*
D13*
X92975000Y-59025000D02*
X95425000Y-59025000D01*
D10*
X102825000Y-53725000D02*
X94624999Y-53725000D01*
X98025000Y-57325000D02*
X102825000Y-57325000D01*
X92775000Y-59225000D02*
X95805000Y-59225000D01*
X92525000Y-55625000D02*
X92525000Y-56375000D01*
X92775000Y-54775000D02*
X92775000Y-59225000D01*
X92525000Y-56375000D02*
X92725000Y-56375000D01*
X102805000Y-56325000D02*
X102805000Y-54075000D01*
X102825000Y-57325000D02*
X102825000Y-53725000D01*
D14*
X101025000Y-55525000D02*
X94325000Y-55525000D01*
D15*
X102325000Y-54325000D02*
X102325000Y-56825000D01*
D13*
X102625000Y-57075000D02*
X101325000Y-57025000D01*
D16*
X94255000Y-55225000D02*
X94255000Y-57465000D01*
D17*
X93125000Y-58725000D02*
X93125000Y-56925001D01*
D18*
X92625000Y-56275000D02*
X92625000Y-55625000D01*
D10*
X95808682Y-59203529D02*
G75*
G02*
X98025000Y-57325000I2151318J-291471D01*
G01*
X92525000Y-55625001D02*
G75*
G02*
X94624999Y-53725000I2000000J-99999D01*
G01*
D15*
X95408682Y-58803529D02*
G75*
G02*
X97625000Y-56925000I2151318J-291471D01*
G01*
D12*
%TO.C,SW5*%
X102675000Y-72975000D02*
X101425000Y-72975000D01*
D13*
X92975000Y-78075000D02*
X95425000Y-78075000D01*
D10*
X102825000Y-72775000D02*
X94624999Y-72775000D01*
X98025000Y-76375000D02*
X102825000Y-76375000D01*
X92775000Y-78275000D02*
X95805000Y-78275000D01*
X92525000Y-74675000D02*
X92525000Y-75425000D01*
X92775000Y-73825000D02*
X92775000Y-78275000D01*
X92525000Y-75425000D02*
X92725000Y-75425000D01*
X102805000Y-75375000D02*
X102805000Y-73125000D01*
X102825000Y-76375000D02*
X102825000Y-72775000D01*
D14*
X101025000Y-74575000D02*
X94325000Y-74575000D01*
D15*
X102325000Y-73375000D02*
X102325000Y-75875000D01*
D13*
X102625000Y-76125000D02*
X101325000Y-76075000D01*
D16*
X94255000Y-74275000D02*
X94255000Y-76515000D01*
D17*
X93125000Y-77775000D02*
X93125000Y-75975001D01*
D18*
X92625000Y-75325000D02*
X92625000Y-74675000D01*
D10*
X95808682Y-78253529D02*
G75*
G02*
X98025000Y-76375000I2151318J-291471D01*
G01*
X92525000Y-74675001D02*
G75*
G02*
X94624999Y-72775000I2000000J-99999D01*
G01*
D15*
X95408682Y-77853529D02*
G75*
G02*
X97625000Y-75975000I2151318J-291471D01*
G01*
D18*
%TO.C,SW6*%
X92625000Y-94375000D02*
X92625000Y-93725000D01*
D17*
X93125000Y-96825000D02*
X93125000Y-95025001D01*
D16*
X94255000Y-93325000D02*
X94255000Y-95565000D01*
D13*
X102625000Y-95175000D02*
X101325000Y-95125000D01*
D15*
X102325000Y-92425000D02*
X102325000Y-94925000D01*
D14*
X101025000Y-93625000D02*
X94325000Y-93625000D01*
D10*
X102825000Y-95425000D02*
X102825000Y-91825000D01*
X102805000Y-94425000D02*
X102805000Y-92175000D01*
X92525000Y-94475000D02*
X92725000Y-94475000D01*
X92775000Y-92875000D02*
X92775000Y-97325000D01*
X92525000Y-93725000D02*
X92525000Y-94475000D01*
X92775000Y-97325000D02*
X95805000Y-97325000D01*
X98025000Y-95425000D02*
X102825000Y-95425000D01*
X102825000Y-91825000D02*
X94624999Y-91825000D01*
D13*
X92975000Y-97125000D02*
X95425000Y-97125000D01*
D12*
X102675000Y-92025000D02*
X101425000Y-92025000D01*
D15*
X95408682Y-96903529D02*
G75*
G02*
X97625000Y-95025000I2151318J-291471D01*
G01*
D10*
X92525000Y-93725001D02*
G75*
G02*
X94624999Y-91825000I2000000J-99999D01*
G01*
X95808682Y-97303529D02*
G75*
G02*
X98025000Y-95425000I2151318J-291471D01*
G01*
D12*
%TO.C,SW7*%
X102675000Y-111075000D02*
X101425000Y-111075000D01*
D13*
X92975000Y-116175000D02*
X95425000Y-116175000D01*
D10*
X102825000Y-110875000D02*
X94624999Y-110875000D01*
X98025000Y-114475000D02*
X102825000Y-114475000D01*
X92775000Y-116375000D02*
X95805000Y-116375000D01*
X92525000Y-112775000D02*
X92525000Y-113525000D01*
X92775000Y-111925000D02*
X92775000Y-116375000D01*
X92525000Y-113525000D02*
X92725000Y-113525000D01*
X102805000Y-113475000D02*
X102805000Y-111225000D01*
X102825000Y-114475000D02*
X102825000Y-110875000D01*
D14*
X101025000Y-112675000D02*
X94325000Y-112675000D01*
D15*
X102325000Y-111475000D02*
X102325000Y-113975000D01*
D13*
X102625000Y-114225000D02*
X101325000Y-114175000D01*
D16*
X94255000Y-112375000D02*
X94255000Y-114615000D01*
D17*
X93125000Y-115875000D02*
X93125000Y-114075001D01*
D18*
X92625000Y-113425000D02*
X92625000Y-112775000D01*
D10*
X95808682Y-116353529D02*
G75*
G02*
X98025000Y-114475000I2151318J-291471D01*
G01*
X92525000Y-112775001D02*
G75*
G02*
X94624999Y-110875000I2000000J-99999D01*
G01*
D15*
X95408682Y-115953529D02*
G75*
G02*
X97625000Y-114075000I2151318J-291471D01*
G01*
D18*
%TO.C,SW8*%
X92625000Y-132475000D02*
X92625000Y-131825000D01*
D17*
X93125000Y-134925000D02*
X93125000Y-133125001D01*
D16*
X94255000Y-131425000D02*
X94255000Y-133665000D01*
D13*
X102625000Y-133275000D02*
X101325000Y-133225000D01*
D15*
X102325000Y-130525000D02*
X102325000Y-133025000D01*
D14*
X101025000Y-131725000D02*
X94325000Y-131725000D01*
D10*
X102825000Y-133525000D02*
X102825000Y-129925000D01*
X102805000Y-132525000D02*
X102805000Y-130275000D01*
X92525000Y-132575000D02*
X92725000Y-132575000D01*
X92775000Y-130975000D02*
X92775000Y-135425000D01*
X92525000Y-131825000D02*
X92525000Y-132575000D01*
X92775000Y-135425000D02*
X95805000Y-135425000D01*
X98025000Y-133525000D02*
X102825000Y-133525000D01*
X102825000Y-129925000D02*
X94624999Y-129925000D01*
D13*
X92975000Y-135225000D02*
X95425000Y-135225000D01*
D12*
X102675000Y-130125000D02*
X101425000Y-130125000D01*
D15*
X95408682Y-135003529D02*
G75*
G02*
X97625000Y-133125000I2151318J-291471D01*
G01*
D10*
X92525000Y-131825001D02*
G75*
G02*
X94624999Y-129925000I2000000J-99999D01*
G01*
X95808682Y-135403529D02*
G75*
G02*
X98025000Y-133525000I2151318J-291471D01*
G01*
D18*
%TO.C,SW9*%
X111675000Y-56275000D02*
X111675000Y-55625000D01*
D17*
X112175000Y-58725000D02*
X112175000Y-56925001D01*
D16*
X113305000Y-55225000D02*
X113305000Y-57465000D01*
D13*
X121675000Y-57075000D02*
X120375000Y-57025000D01*
D15*
X121375000Y-54325000D02*
X121375000Y-56825000D01*
D14*
X120075000Y-55525000D02*
X113375000Y-55525000D01*
D10*
X121875000Y-57325000D02*
X121875000Y-53725000D01*
X121855000Y-56325000D02*
X121855000Y-54075000D01*
X111575000Y-56375000D02*
X111775000Y-56375000D01*
X111825000Y-54775000D02*
X111825000Y-59225000D01*
X111575000Y-55625000D02*
X111575000Y-56375000D01*
X111825000Y-59225000D02*
X114855000Y-59225000D01*
X117075000Y-57325000D02*
X121875000Y-57325000D01*
X121875000Y-53725000D02*
X113674999Y-53725000D01*
D13*
X112025000Y-59025000D02*
X114475000Y-59025000D01*
D12*
X121725000Y-53925000D02*
X120475000Y-53925000D01*
D15*
X114458682Y-58803529D02*
G75*
G02*
X116675000Y-56925000I2151318J-291471D01*
G01*
D10*
X111575000Y-55625001D02*
G75*
G02*
X113674999Y-53725000I2000000J-99999D01*
G01*
X114858682Y-59203529D02*
G75*
G02*
X117075000Y-57325000I2151318J-291471D01*
G01*
D18*
%TO.C,SW10*%
X111675000Y-75325000D02*
X111675000Y-74675000D01*
D17*
X112175000Y-77775000D02*
X112175000Y-75975001D01*
D16*
X113305000Y-74275000D02*
X113305000Y-76515000D01*
D13*
X121675000Y-76125000D02*
X120375000Y-76075000D01*
D15*
X121375000Y-73375000D02*
X121375000Y-75875000D01*
D14*
X120075000Y-74575000D02*
X113375000Y-74575000D01*
D10*
X121875000Y-76375000D02*
X121875000Y-72775000D01*
X121855000Y-75375000D02*
X121855000Y-73125000D01*
X111575000Y-75425000D02*
X111775000Y-75425000D01*
X111825000Y-73825000D02*
X111825000Y-78275000D01*
X111575000Y-74675000D02*
X111575000Y-75425000D01*
X111825000Y-78275000D02*
X114855000Y-78275000D01*
X117075000Y-76375000D02*
X121875000Y-76375000D01*
X121875000Y-72775000D02*
X113674999Y-72775000D01*
D13*
X112025000Y-78075000D02*
X114475000Y-78075000D01*
D12*
X121725000Y-72975000D02*
X120475000Y-72975000D01*
D15*
X114458682Y-77853529D02*
G75*
G02*
X116675000Y-75975000I2151318J-291471D01*
G01*
D10*
X111575000Y-74675001D02*
G75*
G02*
X113674999Y-72775000I2000000J-99999D01*
G01*
X114858682Y-78253529D02*
G75*
G02*
X117075000Y-76375000I2151318J-291471D01*
G01*
D12*
%TO.C,SW11*%
X121725000Y-92025000D02*
X120475000Y-92025000D01*
D13*
X112025000Y-97125000D02*
X114475000Y-97125000D01*
D10*
X121875000Y-91825000D02*
X113674999Y-91825000D01*
X117075000Y-95425000D02*
X121875000Y-95425000D01*
X111825000Y-97325000D02*
X114855000Y-97325000D01*
X111575000Y-93725000D02*
X111575000Y-94475000D01*
X111825000Y-92875000D02*
X111825000Y-97325000D01*
X111575000Y-94475000D02*
X111775000Y-94475000D01*
X121855000Y-94425000D02*
X121855000Y-92175000D01*
X121875000Y-95425000D02*
X121875000Y-91825000D01*
D14*
X120075000Y-93625000D02*
X113375000Y-93625000D01*
D15*
X121375000Y-92425000D02*
X121375000Y-94925000D01*
D13*
X121675000Y-95175000D02*
X120375000Y-95125000D01*
D16*
X113305000Y-93325000D02*
X113305000Y-95565000D01*
D17*
X112175000Y-96825000D02*
X112175000Y-95025001D01*
D18*
X111675000Y-94375000D02*
X111675000Y-93725000D01*
D10*
X114858682Y-97303529D02*
G75*
G02*
X117075000Y-95425000I2151318J-291471D01*
G01*
X111575000Y-93725001D02*
G75*
G02*
X113674999Y-91825000I2000000J-99999D01*
G01*
D15*
X114458682Y-96903529D02*
G75*
G02*
X116675000Y-95025000I2151318J-291471D01*
G01*
D18*
%TO.C,SW12*%
X111675000Y-113425000D02*
X111675000Y-112775000D01*
D17*
X112175000Y-115875000D02*
X112175000Y-114075001D01*
D16*
X113305000Y-112375000D02*
X113305000Y-114615000D01*
D13*
X121675000Y-114225000D02*
X120375000Y-114175000D01*
D15*
X121375000Y-111475000D02*
X121375000Y-113975000D01*
D14*
X120075000Y-112675000D02*
X113375000Y-112675000D01*
D10*
X121875000Y-114475000D02*
X121875000Y-110875000D01*
X121855000Y-113475000D02*
X121855000Y-111225000D01*
X111575000Y-113525000D02*
X111775000Y-113525000D01*
X111825000Y-111925000D02*
X111825000Y-116375000D01*
X111575000Y-112775000D02*
X111575000Y-113525000D01*
X111825000Y-116375000D02*
X114855000Y-116375000D01*
X117075000Y-114475000D02*
X121875000Y-114475000D01*
X121875000Y-110875000D02*
X113674999Y-110875000D01*
D13*
X112025000Y-116175000D02*
X114475000Y-116175000D01*
D12*
X121725000Y-111075000D02*
X120475000Y-111075000D01*
D15*
X114458682Y-115953529D02*
G75*
G02*
X116675000Y-114075000I2151318J-291471D01*
G01*
D10*
X111575000Y-112775001D02*
G75*
G02*
X113674999Y-110875000I2000000J-99999D01*
G01*
X114858682Y-116353529D02*
G75*
G02*
X117075000Y-114475000I2151318J-291471D01*
G01*
D12*
%TO.C,SW13*%
X121725000Y-130125000D02*
X120475000Y-130125000D01*
D13*
X112025000Y-135225000D02*
X114475000Y-135225000D01*
D10*
X121875000Y-129925000D02*
X113674999Y-129925000D01*
X117075000Y-133525000D02*
X121875000Y-133525000D01*
X111825000Y-135425000D02*
X114855000Y-135425000D01*
X111575000Y-131825000D02*
X111575000Y-132575000D01*
X111825000Y-130975000D02*
X111825000Y-135425000D01*
X111575000Y-132575000D02*
X111775000Y-132575000D01*
X121855000Y-132525000D02*
X121855000Y-130275000D01*
X121875000Y-133525000D02*
X121875000Y-129925000D01*
D14*
X120075000Y-131725000D02*
X113375000Y-131725000D01*
D15*
X121375000Y-130525000D02*
X121375000Y-133025000D01*
D13*
X121675000Y-133275000D02*
X120375000Y-133225000D01*
D16*
X113305000Y-131425000D02*
X113305000Y-133665000D01*
D17*
X112175000Y-134925000D02*
X112175000Y-133125001D01*
D18*
X111675000Y-132475000D02*
X111675000Y-131825000D01*
D10*
X114858682Y-135403529D02*
G75*
G02*
X117075000Y-133525000I2151318J-291471D01*
G01*
X111575000Y-131825001D02*
G75*
G02*
X113674999Y-129925000I2000000J-99999D01*
G01*
D15*
X114458682Y-135003529D02*
G75*
G02*
X116675000Y-133125000I2151318J-291471D01*
G01*
D18*
%TO.C,SW14*%
X130725000Y-56275000D02*
X130725000Y-55625000D01*
D17*
X131225000Y-58725000D02*
X131225000Y-56925001D01*
D16*
X132355000Y-55225000D02*
X132355000Y-57465000D01*
D13*
X140725000Y-57075000D02*
X139425000Y-57025000D01*
D15*
X140425000Y-54325000D02*
X140425000Y-56825000D01*
D14*
X139125000Y-55525000D02*
X132425000Y-55525000D01*
D10*
X140925000Y-57325000D02*
X140925000Y-53725000D01*
X140905000Y-56325000D02*
X140905000Y-54075000D01*
X130625000Y-56375000D02*
X130825000Y-56375000D01*
X130875000Y-54775000D02*
X130875000Y-59225000D01*
X130625000Y-55625000D02*
X130625000Y-56375000D01*
X130875000Y-59225000D02*
X133905000Y-59225000D01*
X136125000Y-57325000D02*
X140925000Y-57325000D01*
X140925000Y-53725000D02*
X132724999Y-53725000D01*
D13*
X131075000Y-59025000D02*
X133525000Y-59025000D01*
D12*
X140775000Y-53925000D02*
X139525000Y-53925000D01*
D15*
X133508682Y-58803529D02*
G75*
G02*
X135725000Y-56925000I2151318J-291471D01*
G01*
D10*
X130625000Y-55625001D02*
G75*
G02*
X132724999Y-53725000I2000000J-99999D01*
G01*
X133908682Y-59203529D02*
G75*
G02*
X136125000Y-57325000I2151318J-291471D01*
G01*
D12*
%TO.C,SW15*%
X140775000Y-72975000D02*
X139525000Y-72975000D01*
D13*
X131075000Y-78075000D02*
X133525000Y-78075000D01*
D10*
X140925000Y-72775000D02*
X132724999Y-72775000D01*
X136125000Y-76375000D02*
X140925000Y-76375000D01*
X130875000Y-78275000D02*
X133905000Y-78275000D01*
X130625000Y-74675000D02*
X130625000Y-75425000D01*
X130875000Y-73825000D02*
X130875000Y-78275000D01*
X130625000Y-75425000D02*
X130825000Y-75425000D01*
X140905000Y-75375000D02*
X140905000Y-73125000D01*
X140925000Y-76375000D02*
X140925000Y-72775000D01*
D14*
X139125000Y-74575000D02*
X132425000Y-74575000D01*
D15*
X140425000Y-73375000D02*
X140425000Y-75875000D01*
D13*
X140725000Y-76125000D02*
X139425000Y-76075000D01*
D16*
X132355000Y-74275000D02*
X132355000Y-76515000D01*
D17*
X131225000Y-77775000D02*
X131225000Y-75975001D01*
D18*
X130725000Y-75325000D02*
X130725000Y-74675000D01*
D10*
X133908682Y-78253529D02*
G75*
G02*
X136125000Y-76375000I2151318J-291471D01*
G01*
X130625000Y-74675001D02*
G75*
G02*
X132724999Y-72775000I2000000J-99999D01*
G01*
D15*
X133508682Y-77853529D02*
G75*
G02*
X135725000Y-75975000I2151318J-291471D01*
G01*
D18*
%TO.C,SW16*%
X130725000Y-94375000D02*
X130725000Y-93725000D01*
D17*
X131225000Y-96825000D02*
X131225000Y-95025001D01*
D16*
X132355000Y-93325000D02*
X132355000Y-95565000D01*
D13*
X140725000Y-95175000D02*
X139425000Y-95125000D01*
D15*
X140425000Y-92425000D02*
X140425000Y-94925000D01*
D14*
X139125000Y-93625000D02*
X132425000Y-93625000D01*
D10*
X140925000Y-95425000D02*
X140925000Y-91825000D01*
X140905000Y-94425000D02*
X140905000Y-92175000D01*
X130625000Y-94475000D02*
X130825000Y-94475000D01*
X130875000Y-92875000D02*
X130875000Y-97325000D01*
X130625000Y-93725000D02*
X130625000Y-94475000D01*
X130875000Y-97325000D02*
X133905000Y-97325000D01*
X136125000Y-95425000D02*
X140925000Y-95425000D01*
X140925000Y-91825000D02*
X132724999Y-91825000D01*
D13*
X131075000Y-97125000D02*
X133525000Y-97125000D01*
D12*
X140775000Y-92025000D02*
X139525000Y-92025000D01*
D15*
X133508682Y-96903529D02*
G75*
G02*
X135725000Y-95025000I2151318J-291471D01*
G01*
D10*
X130625000Y-93725001D02*
G75*
G02*
X132724999Y-91825000I2000000J-99999D01*
G01*
X133908682Y-97303529D02*
G75*
G02*
X136125000Y-95425000I2151318J-291471D01*
G01*
D12*
%TO.C,SW17*%
X140775000Y-111075000D02*
X139525000Y-111075000D01*
D13*
X131075000Y-116175000D02*
X133525000Y-116175000D01*
D10*
X140925000Y-110875000D02*
X132724999Y-110875000D01*
X136125000Y-114475000D02*
X140925000Y-114475000D01*
X130875000Y-116375000D02*
X133905000Y-116375000D01*
X130625000Y-112775000D02*
X130625000Y-113525000D01*
X130875000Y-111925000D02*
X130875000Y-116375000D01*
X130625000Y-113525000D02*
X130825000Y-113525000D01*
X140905000Y-113475000D02*
X140905000Y-111225000D01*
X140925000Y-114475000D02*
X140925000Y-110875000D01*
D14*
X139125000Y-112675000D02*
X132425000Y-112675000D01*
D15*
X140425000Y-111475000D02*
X140425000Y-113975000D01*
D13*
X140725000Y-114225000D02*
X139425000Y-114175000D01*
D16*
X132355000Y-112375000D02*
X132355000Y-114615000D01*
D17*
X131225000Y-115875000D02*
X131225000Y-114075001D01*
D18*
X130725000Y-113425000D02*
X130725000Y-112775000D01*
D10*
X133908682Y-116353529D02*
G75*
G02*
X136125000Y-114475000I2151318J-291471D01*
G01*
X130625000Y-112775001D02*
G75*
G02*
X132724999Y-110875000I2000000J-99999D01*
G01*
D15*
X133508682Y-115953529D02*
G75*
G02*
X135725000Y-114075000I2151318J-291471D01*
G01*
D18*
%TO.C,SW18*%
X130725000Y-132475000D02*
X130725000Y-131825000D01*
D17*
X131225000Y-134925000D02*
X131225000Y-133125001D01*
D16*
X132355000Y-131425000D02*
X132355000Y-133665000D01*
D13*
X140725000Y-133275000D02*
X139425000Y-133225000D01*
D15*
X140425000Y-130525000D02*
X140425000Y-133025000D01*
D14*
X139125000Y-131725000D02*
X132425000Y-131725000D01*
D10*
X140925000Y-133525000D02*
X140925000Y-129925000D01*
X140905000Y-132525000D02*
X140905000Y-130275000D01*
X130625000Y-132575000D02*
X130825000Y-132575000D01*
X130875000Y-130975000D02*
X130875000Y-135425000D01*
X130625000Y-131825000D02*
X130625000Y-132575000D01*
X130875000Y-135425000D02*
X133905000Y-135425000D01*
X136125000Y-133525000D02*
X140925000Y-133525000D01*
X140925000Y-129925000D02*
X132724999Y-129925000D01*
D13*
X131075000Y-135225000D02*
X133525000Y-135225000D01*
D12*
X140775000Y-130125000D02*
X139525000Y-130125000D01*
D15*
X133508682Y-135003529D02*
G75*
G02*
X135725000Y-133125000I2151318J-291471D01*
G01*
D10*
X130625000Y-131825001D02*
G75*
G02*
X132724999Y-129925000I2000000J-99999D01*
G01*
X133908682Y-135403529D02*
G75*
G02*
X136125000Y-133525000I2151318J-291471D01*
G01*
%TO.C,H2*%
X29678388Y-60737145D02*
X29678388Y-60930669D01*
X29871911Y-60853259D02*
X29678388Y-60930669D01*
X29484864Y-60853259D01*
X29794502Y-61085488D02*
X29678388Y-60930669D01*
X29562273Y-61085488D01*
X29059111Y-60737145D02*
X29059111Y-60930669D01*
X29252635Y-60853259D02*
X29059111Y-60930669D01*
X28865588Y-60853259D01*
X29175226Y-61085488D02*
X29059111Y-60930669D01*
X28942997Y-61085488D01*
%TO.C,H1*%
X29678388Y-58355895D02*
X29678388Y-58549419D01*
X29871911Y-58472009D02*
X29678388Y-58549419D01*
X29484864Y-58472009D01*
X29794502Y-58704238D02*
X29678388Y-58549419D01*
X29562273Y-58704238D01*
X29059111Y-58355895D02*
X29059111Y-58549419D01*
X29252635Y-58472009D02*
X29059111Y-58549419D01*
X28865588Y-58472009D01*
X29175226Y-58704238D02*
X29059111Y-58549419D01*
X28942997Y-58704238D01*
%TD*%
M02*
