%TF.GenerationSoftware,KiCad,Pcbnew,(5.1.10)-1*%
%TF.CreationDate,2021-07-10T22:05:52+03:00*%
%TF.ProjectId,BedoPadPcb,4265646f-5061-4645-9063-622e6b696361,rev?*%
%TF.SameCoordinates,Original*%
%TF.FileFunction,Legend,Top*%
%TF.FilePolarity,Positive*%
%FSLAX46Y46*%
G04 Gerber Fmt 4.6, Leading zero omitted, Abs format (unit mm)*
G04 Created by KiCad (PCBNEW (5.1.10)-1) date 2021-07-10 22:05:52*
%MOMM*%
%LPD*%
G01*
G04 APERTURE LIST*
%ADD10C,0.120000*%
%ADD11C,0.150000*%
%ADD12C,0.010000*%
%ADD13C,0.203200*%
%ADD14C,0.125000*%
G04 APERTURE END LIST*
D10*
X41910000Y-55626000D02*
X41910000Y-54610000D01*
X44069000Y-53467000D02*
X42926000Y-53467000D01*
X44069000Y-55626000D02*
X44069000Y-53467000D01*
X41910000Y-55626000D02*
X44069000Y-55626000D01*
D11*
X27884380Y-59872380D02*
X27408190Y-60205714D01*
X27884380Y-60443809D02*
X26884380Y-60443809D01*
X26884380Y-60062857D01*
X26932000Y-59967619D01*
X26979619Y-59920000D01*
X27074857Y-59872380D01*
X27217714Y-59872380D01*
X27312952Y-59920000D01*
X27360571Y-59967619D01*
X27408190Y-60062857D01*
X27408190Y-60443809D01*
X27360571Y-59443809D02*
X27360571Y-59110476D01*
X27884380Y-58967619D02*
X27884380Y-59443809D01*
X26884380Y-59443809D01*
X26884380Y-58967619D01*
X27836761Y-58586666D02*
X27884380Y-58443809D01*
X27884380Y-58205714D01*
X27836761Y-58110476D01*
X27789142Y-58062857D01*
X27693904Y-58015238D01*
X27598666Y-58015238D01*
X27503428Y-58062857D01*
X27455809Y-58110476D01*
X27408190Y-58205714D01*
X27360571Y-58396190D01*
X27312952Y-58491428D01*
X27265333Y-58539047D01*
X27170095Y-58586666D01*
X27074857Y-58586666D01*
X26979619Y-58539047D01*
X26932000Y-58491428D01*
X26884380Y-58396190D01*
X26884380Y-58158095D01*
X26932000Y-58015238D01*
X27360571Y-57586666D02*
X27360571Y-57253333D01*
X27884380Y-57110476D02*
X27884380Y-57586666D01*
X26884380Y-57586666D01*
X26884380Y-57110476D01*
X26884380Y-56824761D02*
X26884380Y-56253333D01*
X27884380Y-56539047D02*
X26884380Y-56539047D01*
X53848095Y-89035000D02*
X53752857Y-88987380D01*
X53610000Y-88987380D01*
X53467142Y-89035000D01*
X53371904Y-89130238D01*
X53324285Y-89225476D01*
X53276666Y-89415952D01*
X53276666Y-89558809D01*
X53324285Y-89749285D01*
X53371904Y-89844523D01*
X53467142Y-89939761D01*
X53610000Y-89987380D01*
X53705238Y-89987380D01*
X53848095Y-89939761D01*
X53895714Y-89892142D01*
X53895714Y-89558809D01*
X53705238Y-89558809D01*
X54324285Y-89987380D02*
X54324285Y-88987380D01*
X54895714Y-89987380D01*
X54895714Y-88987380D01*
X55371904Y-89987380D02*
X55371904Y-88987380D01*
X55610000Y-88987380D01*
X55752857Y-89035000D01*
X55848095Y-89130238D01*
X55895714Y-89225476D01*
X55943333Y-89415952D01*
X55943333Y-89558809D01*
X55895714Y-89749285D01*
X55848095Y-89844523D01*
X55752857Y-89939761D01*
X55610000Y-89987380D01*
X55371904Y-89987380D01*
D10*
X53340000Y-88265000D02*
X53340000Y-86360000D01*
X55880000Y-88265000D02*
X53340000Y-88265000D01*
X55880000Y-86360000D02*
X55880000Y-88265000D01*
X53340000Y-86360000D02*
X55880000Y-86360000D01*
D12*
%TO.C,G\u002A\u002A\u002A*%
G36*
X41437142Y-147237652D02*
G01*
X41474683Y-147266526D01*
X41523608Y-147308260D01*
X41548639Y-147330811D01*
X41662076Y-147434756D01*
X41615653Y-147483211D01*
X41583892Y-147513976D01*
X41562209Y-147530671D01*
X41559244Y-147531666D01*
X41543780Y-147520409D01*
X41510389Y-147490155D01*
X41464762Y-147446177D01*
X41434972Y-147416498D01*
X41320686Y-147301330D01*
X41360318Y-147264098D01*
X41393053Y-147238085D01*
X41417163Y-147226876D01*
X41417575Y-147226866D01*
X41437142Y-147237652D01*
G37*
X41437142Y-147237652D02*
X41474683Y-147266526D01*
X41523608Y-147308260D01*
X41548639Y-147330811D01*
X41662076Y-147434756D01*
X41615653Y-147483211D01*
X41583892Y-147513976D01*
X41562209Y-147530671D01*
X41559244Y-147531666D01*
X41543780Y-147520409D01*
X41510389Y-147490155D01*
X41464762Y-147446177D01*
X41434972Y-147416498D01*
X41320686Y-147301330D01*
X41360318Y-147264098D01*
X41393053Y-147238085D01*
X41417163Y-147226876D01*
X41417575Y-147226866D01*
X41437142Y-147237652D01*
G36*
X41220659Y-147407830D02*
G01*
X41255177Y-147438272D01*
X41299075Y-147480849D01*
X41345890Y-147528886D01*
X41389161Y-147575707D01*
X41422427Y-147614637D01*
X41439225Y-147639000D01*
X41440099Y-147642209D01*
X41427635Y-147663756D01*
X41397037Y-147692465D01*
X41391100Y-147696991D01*
X41342101Y-147733218D01*
X41218878Y-147604420D01*
X41095655Y-147475621D01*
X41141821Y-147435910D01*
X41176065Y-147409518D01*
X41199947Y-147396491D01*
X41201981Y-147396199D01*
X41220659Y-147407830D01*
G37*
X41220659Y-147407830D02*
X41255177Y-147438272D01*
X41299075Y-147480849D01*
X41345890Y-147528886D01*
X41389161Y-147575707D01*
X41422427Y-147614637D01*
X41439225Y-147639000D01*
X41440099Y-147642209D01*
X41427635Y-147663756D01*
X41397037Y-147692465D01*
X41391100Y-147696991D01*
X41342101Y-147733218D01*
X41218878Y-147604420D01*
X41095655Y-147475621D01*
X41141821Y-147435910D01*
X41176065Y-147409518D01*
X41199947Y-147396491D01*
X41201981Y-147396199D01*
X41220659Y-147407830D01*
G36*
X35852810Y-147457804D02*
G01*
X35888213Y-147486875D01*
X35936319Y-147529199D01*
X35969445Y-147559461D01*
X36090914Y-147671922D01*
X36044539Y-147720327D01*
X36012793Y-147751074D01*
X35991127Y-147767746D01*
X35988177Y-147768733D01*
X35972754Y-147757468D01*
X35939314Y-147727142D01*
X35893463Y-147682964D01*
X35860991Y-147650628D01*
X35743791Y-147532523D01*
X35783964Y-147489761D01*
X35814091Y-147461009D01*
X35834675Y-147447210D01*
X35836057Y-147446999D01*
X35852810Y-147457804D01*
G37*
X35852810Y-147457804D02*
X35888213Y-147486875D01*
X35936319Y-147529199D01*
X35969445Y-147559461D01*
X36090914Y-147671922D01*
X36044539Y-147720327D01*
X36012793Y-147751074D01*
X35991127Y-147767746D01*
X35988177Y-147768733D01*
X35972754Y-147757468D01*
X35939314Y-147727142D01*
X35893463Y-147682964D01*
X35860991Y-147650628D01*
X35743791Y-147532523D01*
X35783964Y-147489761D01*
X35814091Y-147461009D01*
X35834675Y-147447210D01*
X35836057Y-147446999D01*
X35852810Y-147457804D01*
G36*
X38866948Y-147508659D02*
G01*
X38902495Y-147536962D01*
X38947748Y-147576297D01*
X38995725Y-147620252D01*
X39039448Y-147662416D01*
X39071935Y-147696377D01*
X39086208Y-147715722D01*
X39086366Y-147716690D01*
X39074072Y-147733627D01*
X39043896Y-147759810D01*
X39038053Y-147764217D01*
X38989740Y-147799936D01*
X38867584Y-147676960D01*
X38745428Y-147553983D01*
X38788301Y-147525891D01*
X38824219Y-147505738D01*
X38848084Y-147497800D01*
X38866948Y-147508659D01*
G37*
X38866948Y-147508659D02*
X38902495Y-147536962D01*
X38947748Y-147576297D01*
X38995725Y-147620252D01*
X39039448Y-147662416D01*
X39071935Y-147696377D01*
X39086208Y-147715722D01*
X39086366Y-147716690D01*
X39074072Y-147733627D01*
X39043896Y-147759810D01*
X39038053Y-147764217D01*
X38989740Y-147799936D01*
X38867584Y-147676960D01*
X38745428Y-147553983D01*
X38788301Y-147525891D01*
X38824219Y-147505738D01*
X38848084Y-147497800D01*
X38866948Y-147508659D01*
G36*
X38420030Y-147717933D02*
G01*
X38418893Y-147802600D01*
X37037433Y-147802600D01*
X37037433Y-147633266D01*
X38421166Y-147633266D01*
X38420030Y-147717933D01*
G37*
X38420030Y-147717933D02*
X38418893Y-147802600D01*
X37037433Y-147802600D01*
X37037433Y-147633266D01*
X38421166Y-147633266D01*
X38420030Y-147717933D01*
G36*
X33133865Y-147525769D02*
G01*
X33168549Y-147555434D01*
X33215557Y-147598562D01*
X33246276Y-147627832D01*
X33363426Y-147740930D01*
X33317661Y-147788698D01*
X33286299Y-147818711D01*
X33265110Y-147834059D01*
X33262365Y-147834621D01*
X33247176Y-147822573D01*
X33213716Y-147791511D01*
X33167436Y-147746593D01*
X33129699Y-147709035D01*
X33006566Y-147585295D01*
X33056113Y-147550014D01*
X33091989Y-147526589D01*
X33115576Y-147515000D01*
X33117393Y-147514733D01*
X33133865Y-147525769D01*
G37*
X33133865Y-147525769D02*
X33168549Y-147555434D01*
X33215557Y-147598562D01*
X33246276Y-147627832D01*
X33363426Y-147740930D01*
X33317661Y-147788698D01*
X33286299Y-147818711D01*
X33265110Y-147834059D01*
X33262365Y-147834621D01*
X33247176Y-147822573D01*
X33213716Y-147791511D01*
X33167436Y-147746593D01*
X33129699Y-147709035D01*
X33006566Y-147585295D01*
X33056113Y-147550014D01*
X33091989Y-147526589D01*
X33115576Y-147515000D01*
X33117393Y-147514733D01*
X33133865Y-147525769D01*
G36*
X35757149Y-147743164D02*
G01*
X35809090Y-147796755D01*
X35849310Y-147842419D01*
X35873234Y-147874678D01*
X35877531Y-147887216D01*
X35857871Y-147906885D01*
X35823453Y-147933219D01*
X35821954Y-147934254D01*
X35775900Y-147965885D01*
X35653534Y-147836226D01*
X35531169Y-147706566D01*
X35579207Y-147660543D01*
X35627246Y-147614519D01*
X35757149Y-147743164D01*
G37*
X35757149Y-147743164D02*
X35809090Y-147796755D01*
X35849310Y-147842419D01*
X35873234Y-147874678D01*
X35877531Y-147887216D01*
X35857871Y-147906885D01*
X35823453Y-147933219D01*
X35821954Y-147934254D01*
X35775900Y-147965885D01*
X35653534Y-147836226D01*
X35531169Y-147706566D01*
X35579207Y-147660543D01*
X35627246Y-147614519D01*
X35757149Y-147743164D01*
G36*
X38751267Y-147783459D02*
G01*
X38874700Y-147901259D01*
X38833648Y-147945062D01*
X38803762Y-147974188D01*
X38783945Y-147988549D01*
X38782424Y-147988866D01*
X38767030Y-147977535D01*
X38733604Y-147946970D01*
X38687626Y-147902312D01*
X38651576Y-147866100D01*
X38530900Y-147743333D01*
X38579367Y-147704496D01*
X38627834Y-147665660D01*
X38751267Y-147783459D01*
G37*
X38751267Y-147783459D02*
X38874700Y-147901259D01*
X38833648Y-147945062D01*
X38803762Y-147974188D01*
X38783945Y-147988549D01*
X38782424Y-147988866D01*
X38767030Y-147977535D01*
X38733604Y-147946970D01*
X38687626Y-147902312D01*
X38651576Y-147866100D01*
X38530900Y-147743333D01*
X38579367Y-147704496D01*
X38627834Y-147665660D01*
X38751267Y-147783459D01*
G36*
X32970028Y-147749103D02*
G01*
X33016419Y-147789050D01*
X33065066Y-147835985D01*
X33109427Y-147882915D01*
X33142961Y-147922847D01*
X33159124Y-147948786D01*
X33159699Y-147951864D01*
X33147890Y-147968122D01*
X33120045Y-147993757D01*
X33087537Y-148019477D01*
X33061739Y-148035987D01*
X33054552Y-148037783D01*
X33041573Y-148025526D01*
X33010447Y-147993941D01*
X32966315Y-147948288D01*
X32930314Y-147910649D01*
X32810994Y-147785397D01*
X32857350Y-147740985D01*
X32903705Y-147696574D01*
X32970028Y-147749103D01*
G37*
X32970028Y-147749103D02*
X33016419Y-147789050D01*
X33065066Y-147835985D01*
X33109427Y-147882915D01*
X33142961Y-147922847D01*
X33159124Y-147948786D01*
X33159699Y-147951864D01*
X33147890Y-147968122D01*
X33120045Y-147993757D01*
X33087537Y-148019477D01*
X33061739Y-148035987D01*
X33054552Y-148037783D01*
X33041573Y-148025526D01*
X33010447Y-147993941D01*
X32966315Y-147948288D01*
X32930314Y-147910649D01*
X32810994Y-147785397D01*
X32857350Y-147740985D01*
X32903705Y-147696574D01*
X32970028Y-147749103D01*
G36*
X35232269Y-148237397D02*
G01*
X35287222Y-148268025D01*
X35356182Y-148310980D01*
X35433793Y-148362408D01*
X35514698Y-148418453D01*
X35593540Y-148475261D01*
X35664963Y-148528977D01*
X35723610Y-148575745D01*
X35764123Y-148611711D01*
X35780874Y-148632195D01*
X35771409Y-148647558D01*
X35744282Y-148675135D01*
X35708852Y-148706724D01*
X35674480Y-148734124D01*
X35650526Y-148749134D01*
X35646463Y-148749965D01*
X35631675Y-148739404D01*
X35597443Y-148712017D01*
X35550117Y-148672924D01*
X35530366Y-148656355D01*
X35470445Y-148608404D01*
X35392995Y-148549995D01*
X35308863Y-148489163D01*
X35242500Y-148443110D01*
X35175790Y-148396486D01*
X35121247Y-148355685D01*
X35084041Y-148324776D01*
X35069341Y-148307825D01*
X35069349Y-148306872D01*
X35081844Y-148283648D01*
X35106270Y-148247568D01*
X35109919Y-148242584D01*
X35145839Y-148193999D01*
X35232269Y-148237397D01*
G37*
X35232269Y-148237397D02*
X35287222Y-148268025D01*
X35356182Y-148310980D01*
X35433793Y-148362408D01*
X35514698Y-148418453D01*
X35593540Y-148475261D01*
X35664963Y-148528977D01*
X35723610Y-148575745D01*
X35764123Y-148611711D01*
X35780874Y-148632195D01*
X35771409Y-148647558D01*
X35744282Y-148675135D01*
X35708852Y-148706724D01*
X35674480Y-148734124D01*
X35650526Y-148749134D01*
X35646463Y-148749965D01*
X35631675Y-148739404D01*
X35597443Y-148712017D01*
X35550117Y-148672924D01*
X35530366Y-148656355D01*
X35470445Y-148608404D01*
X35392995Y-148549995D01*
X35308863Y-148489163D01*
X35242500Y-148443110D01*
X35175790Y-148396486D01*
X35121247Y-148355685D01*
X35084041Y-148324776D01*
X35069341Y-148307825D01*
X35069349Y-148306872D01*
X35081844Y-148283648D01*
X35106270Y-148247568D01*
X35109919Y-148242584D01*
X35145839Y-148193999D01*
X35232269Y-148237397D01*
G36*
X32251820Y-147968326D02*
G01*
X32273754Y-147978446D01*
X32317172Y-148002472D01*
X32373287Y-148039689D01*
X32444800Y-148092119D01*
X32534411Y-148161788D01*
X32644821Y-148250721D01*
X32727900Y-148318891D01*
X32919644Y-148472971D01*
X33091696Y-148602351D01*
X33246044Y-148708346D01*
X33384675Y-148792275D01*
X33509580Y-148855453D01*
X33584540Y-148886085D01*
X33640076Y-148906884D01*
X33681697Y-148923306D01*
X33700469Y-148931825D01*
X33700510Y-148931857D01*
X33694455Y-148946132D01*
X33670294Y-148975099D01*
X33635553Y-149011315D01*
X33597756Y-149047336D01*
X33564428Y-149075717D01*
X33543095Y-149089014D01*
X33541407Y-149089248D01*
X33516753Y-149080865D01*
X33477082Y-149060339D01*
X33464499Y-149052910D01*
X33338729Y-148974136D01*
X33215538Y-148891943D01*
X33088785Y-148801912D01*
X32952326Y-148699620D01*
X32800018Y-148580647D01*
X32724377Y-148520252D01*
X32625246Y-148441403D01*
X32530875Y-148367721D01*
X32445598Y-148302488D01*
X32373754Y-148248980D01*
X32319677Y-148210479D01*
X32288640Y-148190749D01*
X32241505Y-148167809D01*
X32210435Y-148160896D01*
X32182650Y-148168290D01*
X32169787Y-148174765D01*
X32145937Y-148193136D01*
X32102339Y-148232227D01*
X32042789Y-148288414D01*
X31971082Y-148358072D01*
X31891013Y-148437577D01*
X31829185Y-148500034D01*
X31747518Y-148582688D01*
X31673555Y-148656696D01*
X31610620Y-148718801D01*
X31562034Y-148765749D01*
X31531121Y-148794284D01*
X31521365Y-148801666D01*
X31504129Y-148790704D01*
X31471027Y-148762270D01*
X31437874Y-148730898D01*
X31365766Y-148660129D01*
X31454166Y-148601272D01*
X31492720Y-148571528D01*
X31549871Y-148522091D01*
X31620611Y-148457558D01*
X31699933Y-148382522D01*
X31782829Y-148301579D01*
X31806597Y-148277883D01*
X31912735Y-148173607D01*
X32002206Y-148090038D01*
X32073418Y-148028581D01*
X32124783Y-147990644D01*
X32141638Y-147981329D01*
X32187335Y-147962501D01*
X32218708Y-147958284D01*
X32251820Y-147968326D01*
G37*
X32251820Y-147968326D02*
X32273754Y-147978446D01*
X32317172Y-148002472D01*
X32373287Y-148039689D01*
X32444800Y-148092119D01*
X32534411Y-148161788D01*
X32644821Y-148250721D01*
X32727900Y-148318891D01*
X32919644Y-148472971D01*
X33091696Y-148602351D01*
X33246044Y-148708346D01*
X33384675Y-148792275D01*
X33509580Y-148855453D01*
X33584540Y-148886085D01*
X33640076Y-148906884D01*
X33681697Y-148923306D01*
X33700469Y-148931825D01*
X33700510Y-148931857D01*
X33694455Y-148946132D01*
X33670294Y-148975099D01*
X33635553Y-149011315D01*
X33597756Y-149047336D01*
X33564428Y-149075717D01*
X33543095Y-149089014D01*
X33541407Y-149089248D01*
X33516753Y-149080865D01*
X33477082Y-149060339D01*
X33464499Y-149052910D01*
X33338729Y-148974136D01*
X33215538Y-148891943D01*
X33088785Y-148801912D01*
X32952326Y-148699620D01*
X32800018Y-148580647D01*
X32724377Y-148520252D01*
X32625246Y-148441403D01*
X32530875Y-148367721D01*
X32445598Y-148302488D01*
X32373754Y-148248980D01*
X32319677Y-148210479D01*
X32288640Y-148190749D01*
X32241505Y-148167809D01*
X32210435Y-148160896D01*
X32182650Y-148168290D01*
X32169787Y-148174765D01*
X32145937Y-148193136D01*
X32102339Y-148232227D01*
X32042789Y-148288414D01*
X31971082Y-148358072D01*
X31891013Y-148437577D01*
X31829185Y-148500034D01*
X31747518Y-148582688D01*
X31673555Y-148656696D01*
X31610620Y-148718801D01*
X31562034Y-148765749D01*
X31531121Y-148794284D01*
X31521365Y-148801666D01*
X31504129Y-148790704D01*
X31471027Y-148762270D01*
X31437874Y-148730898D01*
X31365766Y-148660129D01*
X31454166Y-148601272D01*
X31492720Y-148571528D01*
X31549871Y-148522091D01*
X31620611Y-148457558D01*
X31699933Y-148382522D01*
X31782829Y-148301579D01*
X31806597Y-148277883D01*
X31912735Y-148173607D01*
X32002206Y-148090038D01*
X32073418Y-148028581D01*
X32124783Y-147990644D01*
X32141638Y-147981329D01*
X32187335Y-147962501D01*
X32218708Y-147958284D01*
X32251820Y-147968326D01*
G36*
X38781566Y-148360855D02*
G01*
X38320133Y-148365361D01*
X37858700Y-148369866D01*
X37847641Y-148513800D01*
X37819506Y-148717090D01*
X37767086Y-148898935D01*
X37688742Y-149063070D01*
X37582834Y-149213231D01*
X37502123Y-149301440D01*
X37449054Y-149350386D01*
X37384634Y-149403781D01*
X37316928Y-149455580D01*
X37254002Y-149499733D01*
X37203922Y-149530195D01*
X37185936Y-149538506D01*
X37162160Y-149532529D01*
X37124269Y-149508683D01*
X37096700Y-149486274D01*
X37062431Y-149451950D01*
X37045435Y-149426807D01*
X37046782Y-149418409D01*
X37069350Y-149406438D01*
X37112130Y-149382139D01*
X37166259Y-149350553D01*
X37171475Y-149347472D01*
X37301179Y-149252848D01*
X37417659Y-149132959D01*
X37517278Y-148994085D01*
X37596398Y-148842506D01*
X37651383Y-148684501D01*
X37678597Y-148526350D01*
X37680900Y-148467908D01*
X37680900Y-148361400D01*
X36698766Y-148361400D01*
X36698766Y-148209000D01*
X38781566Y-148209000D01*
X38781566Y-148360855D01*
G37*
X38781566Y-148360855D02*
X38320133Y-148365361D01*
X37858700Y-148369866D01*
X37847641Y-148513800D01*
X37819506Y-148717090D01*
X37767086Y-148898935D01*
X37688742Y-149063070D01*
X37582834Y-149213231D01*
X37502123Y-149301440D01*
X37449054Y-149350386D01*
X37384634Y-149403781D01*
X37316928Y-149455580D01*
X37254002Y-149499733D01*
X37203922Y-149530195D01*
X37185936Y-149538506D01*
X37162160Y-149532529D01*
X37124269Y-149508683D01*
X37096700Y-149486274D01*
X37062431Y-149451950D01*
X37045435Y-149426807D01*
X37046782Y-149418409D01*
X37069350Y-149406438D01*
X37112130Y-149382139D01*
X37166259Y-149350553D01*
X37171475Y-149347472D01*
X37301179Y-149252848D01*
X37417659Y-149132959D01*
X37517278Y-148994085D01*
X37596398Y-148842506D01*
X37651383Y-148684501D01*
X37678597Y-148526350D01*
X37680900Y-148467908D01*
X37680900Y-148361400D01*
X36698766Y-148361400D01*
X36698766Y-148209000D01*
X38781566Y-148209000D01*
X38781566Y-148360855D01*
G36*
X41125502Y-147742213D02*
G01*
X41158325Y-147761229D01*
X41202578Y-147798874D01*
X41203033Y-147799280D01*
X41279233Y-147867385D01*
X41248639Y-147915426D01*
X41223770Y-147959677D01*
X41195065Y-148017967D01*
X41181508Y-148048133D01*
X41117711Y-148188498D01*
X41045502Y-148334852D01*
X40969968Y-148477561D01*
X40896194Y-148606990D01*
X40833882Y-148706606D01*
X40751144Y-148820349D01*
X40649485Y-148943573D01*
X40537399Y-149067010D01*
X40423380Y-149181389D01*
X40315921Y-149277441D01*
X40296087Y-149293538D01*
X40237154Y-149338146D01*
X40167639Y-149387243D01*
X40093672Y-149436921D01*
X40021383Y-149483269D01*
X39956902Y-149522378D01*
X39906358Y-149550337D01*
X39875880Y-149563237D01*
X39872605Y-149563666D01*
X39850603Y-149551312D01*
X39817847Y-149519732D01*
X39796948Y-149495152D01*
X39767480Y-149455573D01*
X39750613Y-149428190D01*
X39748958Y-149420989D01*
X39766339Y-149410901D01*
X39804688Y-149390736D01*
X39841314Y-149372113D01*
X39969845Y-149299136D01*
X40107211Y-149206542D01*
X40242590Y-149102294D01*
X40365162Y-148994354D01*
X40397075Y-148963188D01*
X40571463Y-148769131D01*
X40722993Y-148558480D01*
X40855622Y-148326604D01*
X40894840Y-148247320D01*
X40933993Y-148163643D01*
X40970242Y-148082176D01*
X41000749Y-148009522D01*
X41022677Y-147952284D01*
X41033187Y-147917065D01*
X41033699Y-147912280D01*
X41017309Y-147910674D01*
X40970307Y-147909175D01*
X40895949Y-147907814D01*
X40797490Y-147906623D01*
X40678186Y-147905634D01*
X40541291Y-147904880D01*
X40390062Y-147904391D01*
X40227753Y-147904201D01*
X40212433Y-147904200D01*
X39391166Y-147904200D01*
X39391166Y-147751800D01*
X40174333Y-147751652D01*
X40337251Y-147751404D01*
X40492379Y-147750753D01*
X40635885Y-147749744D01*
X40763937Y-147748422D01*
X40872705Y-147746834D01*
X40958358Y-147745024D01*
X41017064Y-147743038D01*
X41042166Y-147741340D01*
X41091114Y-147737143D01*
X41125502Y-147742213D01*
G37*
X41125502Y-147742213D02*
X41158325Y-147761229D01*
X41202578Y-147798874D01*
X41203033Y-147799280D01*
X41279233Y-147867385D01*
X41248639Y-147915426D01*
X41223770Y-147959677D01*
X41195065Y-148017967D01*
X41181508Y-148048133D01*
X41117711Y-148188498D01*
X41045502Y-148334852D01*
X40969968Y-148477561D01*
X40896194Y-148606990D01*
X40833882Y-148706606D01*
X40751144Y-148820349D01*
X40649485Y-148943573D01*
X40537399Y-149067010D01*
X40423380Y-149181389D01*
X40315921Y-149277441D01*
X40296087Y-149293538D01*
X40237154Y-149338146D01*
X40167639Y-149387243D01*
X40093672Y-149436921D01*
X40021383Y-149483269D01*
X39956902Y-149522378D01*
X39906358Y-149550337D01*
X39875880Y-149563237D01*
X39872605Y-149563666D01*
X39850603Y-149551312D01*
X39817847Y-149519732D01*
X39796948Y-149495152D01*
X39767480Y-149455573D01*
X39750613Y-149428190D01*
X39748958Y-149420989D01*
X39766339Y-149410901D01*
X39804688Y-149390736D01*
X39841314Y-149372113D01*
X39969845Y-149299136D01*
X40107211Y-149206542D01*
X40242590Y-149102294D01*
X40365162Y-148994354D01*
X40397075Y-148963188D01*
X40571463Y-148769131D01*
X40722993Y-148558480D01*
X40855622Y-148326604D01*
X40894840Y-148247320D01*
X40933993Y-148163643D01*
X40970242Y-148082176D01*
X41000749Y-148009522D01*
X41022677Y-147952284D01*
X41033187Y-147917065D01*
X41033699Y-147912280D01*
X41017309Y-147910674D01*
X40970307Y-147909175D01*
X40895949Y-147907814D01*
X40797490Y-147906623D01*
X40678186Y-147905634D01*
X40541291Y-147904880D01*
X40390062Y-147904391D01*
X40227753Y-147904201D01*
X40212433Y-147904200D01*
X39391166Y-147904200D01*
X39391166Y-147751800D01*
X40174333Y-147751652D01*
X40337251Y-147751404D01*
X40492379Y-147750753D01*
X40635885Y-147749744D01*
X40763937Y-147748422D01*
X40872705Y-147746834D01*
X40958358Y-147745024D01*
X41017064Y-147743038D01*
X41042166Y-147741340D01*
X41091114Y-147737143D01*
X41125502Y-147742213D01*
G36*
X34925000Y-147522062D02*
G01*
X34976504Y-147530676D01*
X35012541Y-147540135D01*
X35022366Y-147545410D01*
X35023814Y-147563998D01*
X35025023Y-147613461D01*
X35025982Y-147690807D01*
X35026681Y-147793047D01*
X35027108Y-147917189D01*
X35027255Y-148060243D01*
X35027109Y-148219217D01*
X35026660Y-148391120D01*
X35025960Y-148560366D01*
X35021087Y-149563666D01*
X34836100Y-149563666D01*
X34836100Y-147510370D01*
X34925000Y-147522062D01*
G37*
X34925000Y-147522062D02*
X34976504Y-147530676D01*
X35012541Y-147540135D01*
X35022366Y-147545410D01*
X35023814Y-147563998D01*
X35025023Y-147613461D01*
X35025982Y-147690807D01*
X35026681Y-147793047D01*
X35027108Y-147917189D01*
X35027255Y-148060243D01*
X35027109Y-148219217D01*
X35026660Y-148391120D01*
X35025960Y-148560366D01*
X35021087Y-149563666D01*
X34836100Y-149563666D01*
X34836100Y-147510370D01*
X34925000Y-147522062D01*
D13*
%TO.C,D1*%
X61563250Y-108013500D02*
X63849250Y-108013500D01*
X61563250Y-111061500D02*
X61563250Y-108013500D01*
X63849250Y-111061500D02*
X61563250Y-111061500D01*
X63849250Y-108013500D02*
X63849250Y-111061500D01*
D11*
X61606250Y-110837500D02*
X63706250Y-110837500D01*
X63806250Y-110837500D02*
X63706250Y-110837500D01*
X63706250Y-110837500D02*
X63806250Y-110837500D01*
X63806250Y-110637500D02*
X61606250Y-110637500D01*
X61606250Y-110437500D02*
X63806250Y-110437500D01*
D13*
%TO.C,D2*%
X48863250Y-135794750D02*
X51149250Y-135794750D01*
X48863250Y-138842750D02*
X48863250Y-135794750D01*
X51149250Y-138842750D02*
X48863250Y-138842750D01*
X51149250Y-135794750D02*
X51149250Y-138842750D01*
D11*
X48906250Y-138618750D02*
X51006250Y-138618750D01*
X51106250Y-138618750D02*
X51006250Y-138618750D01*
X51006250Y-138618750D02*
X51106250Y-138618750D01*
X51106250Y-138418750D02*
X48906250Y-138418750D01*
X48906250Y-138218750D02*
X51106250Y-138218750D01*
D13*
%TO.C,D3*%
X67913250Y-135794750D02*
X70199250Y-135794750D01*
X67913250Y-138842750D02*
X67913250Y-135794750D01*
X70199250Y-138842750D02*
X67913250Y-138842750D01*
X70199250Y-135794750D02*
X70199250Y-138842750D01*
D11*
X67956250Y-138618750D02*
X70056250Y-138618750D01*
X70156250Y-138618750D02*
X70056250Y-138618750D01*
X70056250Y-138618750D02*
X70156250Y-138618750D01*
X70156250Y-138418750D02*
X67956250Y-138418750D01*
X67956250Y-138218750D02*
X70156250Y-138218750D01*
D13*
%TO.C,D4*%
X106013250Y-59594750D02*
X108299250Y-59594750D01*
X106013250Y-62642750D02*
X106013250Y-59594750D01*
X108299250Y-62642750D02*
X106013250Y-62642750D01*
X108299250Y-59594750D02*
X108299250Y-62642750D01*
D11*
X106056250Y-62418750D02*
X108156250Y-62418750D01*
X108256250Y-62418750D02*
X108156250Y-62418750D01*
X108156250Y-62418750D02*
X108256250Y-62418750D01*
X108256250Y-62218750D02*
X106056250Y-62218750D01*
X106056250Y-62018750D02*
X108256250Y-62018750D01*
D13*
%TO.C,D5*%
X106013250Y-78644750D02*
X108299250Y-78644750D01*
X106013250Y-81692750D02*
X106013250Y-78644750D01*
X108299250Y-81692750D02*
X106013250Y-81692750D01*
X108299250Y-78644750D02*
X108299250Y-81692750D01*
D11*
X106056250Y-81468750D02*
X108156250Y-81468750D01*
X108256250Y-81468750D02*
X108156250Y-81468750D01*
X108156250Y-81468750D02*
X108256250Y-81468750D01*
X108256250Y-81268750D02*
X106056250Y-81268750D01*
X106056250Y-81068750D02*
X108256250Y-81068750D01*
D13*
%TO.C,D6*%
X106013250Y-97694750D02*
X108299250Y-97694750D01*
X106013250Y-100742750D02*
X106013250Y-97694750D01*
X108299250Y-100742750D02*
X106013250Y-100742750D01*
X108299250Y-97694750D02*
X108299250Y-100742750D01*
D11*
X106056250Y-100518750D02*
X108156250Y-100518750D01*
X108256250Y-100518750D02*
X108156250Y-100518750D01*
X108156250Y-100518750D02*
X108256250Y-100518750D01*
X108256250Y-100318750D02*
X106056250Y-100318750D01*
X106056250Y-100118750D02*
X108256250Y-100118750D01*
D13*
%TO.C,D7*%
X106013250Y-116744750D02*
X108299250Y-116744750D01*
X106013250Y-119792750D02*
X106013250Y-116744750D01*
X108299250Y-119792750D02*
X106013250Y-119792750D01*
X108299250Y-116744750D02*
X108299250Y-119792750D01*
D11*
X106056250Y-119568750D02*
X108156250Y-119568750D01*
X108256250Y-119568750D02*
X108156250Y-119568750D01*
X108156250Y-119568750D02*
X108256250Y-119568750D01*
X108256250Y-119368750D02*
X106056250Y-119368750D01*
X106056250Y-119168750D02*
X108256250Y-119168750D01*
D13*
%TO.C,D8*%
X106013250Y-135794750D02*
X108299250Y-135794750D01*
X106013250Y-138842750D02*
X106013250Y-135794750D01*
X108299250Y-138842750D02*
X106013250Y-138842750D01*
X108299250Y-135794750D02*
X108299250Y-138842750D01*
D11*
X106056250Y-138618750D02*
X108156250Y-138618750D01*
X108256250Y-138618750D02*
X108156250Y-138618750D01*
X108156250Y-138618750D02*
X108256250Y-138618750D01*
X108256250Y-138418750D02*
X106056250Y-138418750D01*
X106056250Y-138218750D02*
X108256250Y-138218750D01*
D13*
%TO.C,D9*%
X125063250Y-59594750D02*
X127349250Y-59594750D01*
X125063250Y-62642750D02*
X125063250Y-59594750D01*
X127349250Y-62642750D02*
X125063250Y-62642750D01*
X127349250Y-59594750D02*
X127349250Y-62642750D01*
D11*
X125106250Y-62418750D02*
X127206250Y-62418750D01*
X127306250Y-62418750D02*
X127206250Y-62418750D01*
X127206250Y-62418750D02*
X127306250Y-62418750D01*
X127306250Y-62218750D02*
X125106250Y-62218750D01*
X125106250Y-62018750D02*
X127306250Y-62018750D01*
D13*
%TO.C,D10*%
X125063250Y-78644750D02*
X127349250Y-78644750D01*
X125063250Y-81692750D02*
X125063250Y-78644750D01*
X127349250Y-81692750D02*
X125063250Y-81692750D01*
X127349250Y-78644750D02*
X127349250Y-81692750D01*
D11*
X125106250Y-81468750D02*
X127206250Y-81468750D01*
X127306250Y-81468750D02*
X127206250Y-81468750D01*
X127206250Y-81468750D02*
X127306250Y-81468750D01*
X127306250Y-81268750D02*
X125106250Y-81268750D01*
X125106250Y-81068750D02*
X127306250Y-81068750D01*
D13*
%TO.C,D11*%
X125063250Y-97694750D02*
X127349250Y-97694750D01*
X125063250Y-100742750D02*
X125063250Y-97694750D01*
X127349250Y-100742750D02*
X125063250Y-100742750D01*
X127349250Y-97694750D02*
X127349250Y-100742750D01*
D11*
X125106250Y-100518750D02*
X127206250Y-100518750D01*
X127306250Y-100518750D02*
X127206250Y-100518750D01*
X127206250Y-100518750D02*
X127306250Y-100518750D01*
X127306250Y-100318750D02*
X125106250Y-100318750D01*
X125106250Y-100118750D02*
X127306250Y-100118750D01*
D13*
%TO.C,D12*%
X125063250Y-116744750D02*
X127349250Y-116744750D01*
X125063250Y-119792750D02*
X125063250Y-116744750D01*
X127349250Y-119792750D02*
X125063250Y-119792750D01*
X127349250Y-116744750D02*
X127349250Y-119792750D01*
D11*
X125106250Y-119568750D02*
X127206250Y-119568750D01*
X127306250Y-119568750D02*
X127206250Y-119568750D01*
X127206250Y-119568750D02*
X127306250Y-119568750D01*
X127306250Y-119368750D02*
X125106250Y-119368750D01*
X125106250Y-119168750D02*
X127306250Y-119168750D01*
D13*
%TO.C,D13*%
X125063250Y-135794750D02*
X127349250Y-135794750D01*
X125063250Y-138842750D02*
X125063250Y-135794750D01*
X127349250Y-138842750D02*
X125063250Y-138842750D01*
X127349250Y-135794750D02*
X127349250Y-138842750D01*
D11*
X125106250Y-138618750D02*
X127206250Y-138618750D01*
X127306250Y-138618750D02*
X127206250Y-138618750D01*
X127206250Y-138618750D02*
X127306250Y-138618750D01*
X127306250Y-138418750D02*
X125106250Y-138418750D01*
X125106250Y-138218750D02*
X127306250Y-138218750D01*
D13*
%TO.C,D14*%
X144113250Y-59594750D02*
X146399250Y-59594750D01*
X144113250Y-62642750D02*
X144113250Y-59594750D01*
X146399250Y-62642750D02*
X144113250Y-62642750D01*
X146399250Y-59594750D02*
X146399250Y-62642750D01*
D11*
X144156250Y-62418750D02*
X146256250Y-62418750D01*
X146356250Y-62418750D02*
X146256250Y-62418750D01*
X146256250Y-62418750D02*
X146356250Y-62418750D01*
X146356250Y-62218750D02*
X144156250Y-62218750D01*
X144156250Y-62018750D02*
X146356250Y-62018750D01*
D13*
%TO.C,D15*%
X144113250Y-78644750D02*
X146399250Y-78644750D01*
X144113250Y-81692750D02*
X144113250Y-78644750D01*
X146399250Y-81692750D02*
X144113250Y-81692750D01*
X146399250Y-78644750D02*
X146399250Y-81692750D01*
D11*
X144156250Y-81468750D02*
X146256250Y-81468750D01*
X146356250Y-81468750D02*
X146256250Y-81468750D01*
X146256250Y-81468750D02*
X146356250Y-81468750D01*
X146356250Y-81268750D02*
X144156250Y-81268750D01*
X144156250Y-81068750D02*
X146356250Y-81068750D01*
D13*
%TO.C,D16*%
X144113250Y-97694750D02*
X146399250Y-97694750D01*
X144113250Y-100742750D02*
X144113250Y-97694750D01*
X146399250Y-100742750D02*
X144113250Y-100742750D01*
X146399250Y-97694750D02*
X146399250Y-100742750D01*
D11*
X144156250Y-100518750D02*
X146256250Y-100518750D01*
X146356250Y-100518750D02*
X146256250Y-100518750D01*
X146256250Y-100518750D02*
X146356250Y-100518750D01*
X146356250Y-100318750D02*
X144156250Y-100318750D01*
X144156250Y-100118750D02*
X146356250Y-100118750D01*
D13*
%TO.C,D17*%
X144113250Y-116744750D02*
X146399250Y-116744750D01*
X144113250Y-119792750D02*
X144113250Y-116744750D01*
X146399250Y-119792750D02*
X144113250Y-119792750D01*
X146399250Y-116744750D02*
X146399250Y-119792750D01*
D11*
X144156250Y-119568750D02*
X146256250Y-119568750D01*
X146356250Y-119568750D02*
X146256250Y-119568750D01*
X146256250Y-119568750D02*
X146356250Y-119568750D01*
X146356250Y-119368750D02*
X144156250Y-119368750D01*
X144156250Y-119168750D02*
X146356250Y-119168750D01*
D13*
%TO.C,D18*%
X144113250Y-135794750D02*
X146399250Y-135794750D01*
X144113250Y-138842750D02*
X144113250Y-135794750D01*
X146399250Y-138842750D02*
X144113250Y-138842750D01*
X146399250Y-135794750D02*
X146399250Y-138842750D01*
D11*
X144156250Y-138618750D02*
X146256250Y-138618750D01*
X146356250Y-138618750D02*
X146256250Y-138618750D01*
X146256250Y-138618750D02*
X146356250Y-138618750D01*
X146356250Y-138418750D02*
X144156250Y-138418750D01*
X144156250Y-138218750D02*
X146356250Y-138218750D01*
%TO.C,U1*%
X41891250Y-83656250D02*
X42751250Y-83656250D01*
X59391250Y-83656250D02*
X58541250Y-83656250D01*
X41891250Y-82806250D02*
X41891250Y-83656250D01*
X59391250Y-82756250D02*
X59391250Y-83656250D01*
X41891250Y-53456250D02*
X42691250Y-53456250D01*
X59391250Y-53456250D02*
X58541250Y-53456250D01*
X41891250Y-53456250D02*
X41891250Y-54306250D01*
X59391250Y-53456250D02*
X59391250Y-54306250D01*
X54391250Y-47856250D02*
X54391250Y-49156250D01*
X54391250Y-49156250D02*
X46891250Y-49156250D01*
X46891250Y-49156250D02*
X46891250Y-47856250D01*
X46891250Y-47856250D02*
X54391250Y-47856250D01*
X51141250Y-48206250D02*
X50141250Y-48206250D01*
X50141250Y-48206250D02*
X50641250Y-48856250D01*
X50641250Y-48856250D02*
X51141250Y-48206250D01*
X50991250Y-48356250D02*
X50291250Y-48356250D01*
X50891250Y-48506250D02*
X50391250Y-48506250D01*
X50791250Y-48656250D02*
X50491250Y-48656250D01*
%TO.C,H2*%
X30368750Y-58531250D02*
X28368750Y-58531250D01*
X30368750Y-60531250D02*
X30368750Y-58531250D01*
X28368750Y-60531250D02*
X30368750Y-60531250D01*
X28368750Y-58531250D02*
X28368750Y-60531250D01*
%TO.C,H1*%
X30368750Y-56150000D02*
X28368750Y-56150000D01*
X30368750Y-58150000D02*
X30368750Y-56150000D01*
X28368750Y-58150000D02*
X30368750Y-58150000D01*
X28368750Y-56150000D02*
X28368750Y-58150000D01*
D10*
%TO.C,SW1*%
X50300000Y-107950000D02*
X51300000Y-107950000D01*
X50800000Y-107450000D02*
X50800000Y-108450000D01*
X56900000Y-111450000D02*
X56900000Y-113850000D01*
X56900000Y-106650000D02*
X56900000Y-109250000D01*
X56900000Y-102050000D02*
X56900000Y-104450000D01*
X43600000Y-103850000D02*
X43300000Y-104150000D01*
X43000000Y-103850000D02*
X43600000Y-103850000D01*
X43300000Y-104150000D02*
X43000000Y-103850000D01*
X44700000Y-102050000D02*
X44700000Y-113850000D01*
X48800000Y-102050000D02*
X44700000Y-102050000D01*
X48800000Y-113850000D02*
X44700000Y-113850000D01*
X56900000Y-113850000D02*
X52800000Y-113850000D01*
X52800000Y-102050000D02*
X56900000Y-102050000D01*
X53800000Y-107950000D02*
G75*
G03*
X53800000Y-107950000I-3000000J0D01*
G01*
%TO.C,REF\u002A\u002A*%
D11*
X68961166Y-100075880D02*
X68627833Y-99599690D01*
X68389738Y-100075880D02*
X68389738Y-99075880D01*
X68770690Y-99075880D01*
X68865928Y-99123500D01*
X68913547Y-99171119D01*
X68961166Y-99266357D01*
X68961166Y-99409214D01*
X68913547Y-99504452D01*
X68865928Y-99552071D01*
X68770690Y-99599690D01*
X68389738Y-99599690D01*
X69389738Y-99552071D02*
X69723071Y-99552071D01*
X69865928Y-100075880D02*
X69389738Y-100075880D01*
X69389738Y-99075880D01*
X69865928Y-99075880D01*
X70627833Y-99552071D02*
X70294500Y-99552071D01*
X70294500Y-100075880D02*
X70294500Y-99075880D01*
X70770690Y-99075880D01*
X71294500Y-99075880D02*
X71294500Y-99313976D01*
X71056404Y-99218738D02*
X71294500Y-99313976D01*
X71532595Y-99218738D01*
X71151642Y-99504452D02*
X71294500Y-99313976D01*
X71437357Y-99504452D01*
X72056404Y-99075880D02*
X72056404Y-99313976D01*
X71818309Y-99218738D02*
X72056404Y-99313976D01*
X72294500Y-99218738D01*
X71913547Y-99504452D02*
X72056404Y-99313976D01*
X72199261Y-99504452D01*
X146304166Y-148589880D02*
X145970833Y-148113690D01*
X145732738Y-148589880D02*
X145732738Y-147589880D01*
X146113690Y-147589880D01*
X146208928Y-147637500D01*
X146256547Y-147685119D01*
X146304166Y-147780357D01*
X146304166Y-147923214D01*
X146256547Y-148018452D01*
X146208928Y-148066071D01*
X146113690Y-148113690D01*
X145732738Y-148113690D01*
X146732738Y-148066071D02*
X147066071Y-148066071D01*
X147208928Y-148589880D02*
X146732738Y-148589880D01*
X146732738Y-147589880D01*
X147208928Y-147589880D01*
X147970833Y-148066071D02*
X147637500Y-148066071D01*
X147637500Y-148589880D02*
X147637500Y-147589880D01*
X148113690Y-147589880D01*
X148637500Y-147589880D02*
X148637500Y-147827976D01*
X148399404Y-147732738D02*
X148637500Y-147827976D01*
X148875595Y-147732738D01*
X148494642Y-148018452D02*
X148637500Y-147827976D01*
X148780357Y-148018452D01*
X149399404Y-147589880D02*
X149399404Y-147827976D01*
X149161309Y-147732738D02*
X149399404Y-147827976D01*
X149637500Y-147732738D01*
X149256547Y-148018452D02*
X149399404Y-147827976D01*
X149542261Y-148018452D01*
X25654166Y-148589880D02*
X25320833Y-148113690D01*
X25082738Y-148589880D02*
X25082738Y-147589880D01*
X25463690Y-147589880D01*
X25558928Y-147637500D01*
X25606547Y-147685119D01*
X25654166Y-147780357D01*
X25654166Y-147923214D01*
X25606547Y-148018452D01*
X25558928Y-148066071D01*
X25463690Y-148113690D01*
X25082738Y-148113690D01*
X26082738Y-148066071D02*
X26416071Y-148066071D01*
X26558928Y-148589880D02*
X26082738Y-148589880D01*
X26082738Y-147589880D01*
X26558928Y-147589880D01*
X27320833Y-148066071D02*
X26987500Y-148066071D01*
X26987500Y-148589880D02*
X26987500Y-147589880D01*
X27463690Y-147589880D01*
X27987500Y-147589880D02*
X27987500Y-147827976D01*
X27749404Y-147732738D02*
X27987500Y-147827976D01*
X28225595Y-147732738D01*
X27844642Y-148018452D02*
X27987500Y-147827976D01*
X28130357Y-148018452D01*
X28749404Y-147589880D02*
X28749404Y-147827976D01*
X28511309Y-147732738D02*
X28749404Y-147827976D01*
X28987500Y-147732738D01*
X28606547Y-148018452D02*
X28749404Y-147827976D01*
X28892261Y-148018452D01*
X25654166Y-53339880D02*
X25320833Y-52863690D01*
X25082738Y-53339880D02*
X25082738Y-52339880D01*
X25463690Y-52339880D01*
X25558928Y-52387500D01*
X25606547Y-52435119D01*
X25654166Y-52530357D01*
X25654166Y-52673214D01*
X25606547Y-52768452D01*
X25558928Y-52816071D01*
X25463690Y-52863690D01*
X25082738Y-52863690D01*
X26082738Y-52816071D02*
X26416071Y-52816071D01*
X26558928Y-53339880D02*
X26082738Y-53339880D01*
X26082738Y-52339880D01*
X26558928Y-52339880D01*
X27320833Y-52816071D02*
X26987500Y-52816071D01*
X26987500Y-53339880D02*
X26987500Y-52339880D01*
X27463690Y-52339880D01*
X27987500Y-52339880D02*
X27987500Y-52577976D01*
X27749404Y-52482738D02*
X27987500Y-52577976D01*
X28225595Y-52482738D01*
X27844642Y-52768452D02*
X27987500Y-52577976D01*
X28130357Y-52768452D01*
X28749404Y-52339880D02*
X28749404Y-52577976D01*
X28511309Y-52482738D02*
X28749404Y-52577976D01*
X28987500Y-52482738D01*
X28606547Y-52768452D02*
X28749404Y-52577976D01*
X28892261Y-52768452D01*
X146304166Y-53339880D02*
X145970833Y-52863690D01*
X145732738Y-53339880D02*
X145732738Y-52339880D01*
X146113690Y-52339880D01*
X146208928Y-52387500D01*
X146256547Y-52435119D01*
X146304166Y-52530357D01*
X146304166Y-52673214D01*
X146256547Y-52768452D01*
X146208928Y-52816071D01*
X146113690Y-52863690D01*
X145732738Y-52863690D01*
X146732738Y-52816071D02*
X147066071Y-52816071D01*
X147208928Y-53339880D02*
X146732738Y-53339880D01*
X146732738Y-52339880D01*
X147208928Y-52339880D01*
X147970833Y-52816071D02*
X147637500Y-52816071D01*
X147637500Y-53339880D02*
X147637500Y-52339880D01*
X148113690Y-52339880D01*
X148637500Y-52339880D02*
X148637500Y-52577976D01*
X148399404Y-52482738D02*
X148637500Y-52577976D01*
X148875595Y-52482738D01*
X148494642Y-52768452D02*
X148637500Y-52577976D01*
X148780357Y-52768452D01*
X149399404Y-52339880D02*
X149399404Y-52577976D01*
X149161309Y-52482738D02*
X149399404Y-52577976D01*
X149637500Y-52482738D01*
X149256547Y-52768452D02*
X149399404Y-52577976D01*
X149542261Y-52768452D01*
%TO.C,U1*%
D10*
X48244821Y-50445535D02*
X48244821Y-49695535D01*
X48494821Y-50231250D01*
X48744821Y-49695535D01*
X48744821Y-50445535D01*
X49101964Y-50445535D02*
X49101964Y-49945535D01*
X49101964Y-49695535D02*
X49066250Y-49731250D01*
X49101964Y-49766964D01*
X49137678Y-49731250D01*
X49101964Y-49695535D01*
X49101964Y-49766964D01*
X49780535Y-50409821D02*
X49709107Y-50445535D01*
X49566250Y-50445535D01*
X49494821Y-50409821D01*
X49459107Y-50374107D01*
X49423392Y-50302678D01*
X49423392Y-50088392D01*
X49459107Y-50016964D01*
X49494821Y-49981250D01*
X49566250Y-49945535D01*
X49709107Y-49945535D01*
X49780535Y-49981250D01*
X50101964Y-50445535D02*
X50101964Y-49945535D01*
X50101964Y-50088392D02*
X50137678Y-50016964D01*
X50173392Y-49981250D01*
X50244821Y-49945535D01*
X50316250Y-49945535D01*
X50673392Y-50445535D02*
X50601964Y-50409821D01*
X50566250Y-50374107D01*
X50530535Y-50302678D01*
X50530535Y-50088392D01*
X50566250Y-50016964D01*
X50601964Y-49981250D01*
X50673392Y-49945535D01*
X50780535Y-49945535D01*
X50851964Y-49981250D01*
X50887678Y-50016964D01*
X50923392Y-50088392D01*
X50923392Y-50302678D01*
X50887678Y-50374107D01*
X50851964Y-50409821D01*
X50780535Y-50445535D01*
X50673392Y-50445535D01*
X51244821Y-49695535D02*
X51244821Y-50302678D01*
X51280535Y-50374107D01*
X51316250Y-50409821D01*
X51387678Y-50445535D01*
X51530535Y-50445535D01*
X51601964Y-50409821D01*
X51637678Y-50374107D01*
X51673392Y-50302678D01*
X51673392Y-49695535D01*
X51994821Y-50409821D02*
X52101964Y-50445535D01*
X52280535Y-50445535D01*
X52351964Y-50409821D01*
X52387678Y-50374107D01*
X52423392Y-50302678D01*
X52423392Y-50231250D01*
X52387678Y-50159821D01*
X52351964Y-50124107D01*
X52280535Y-50088392D01*
X52137678Y-50052678D01*
X52066250Y-50016964D01*
X52030535Y-49981250D01*
X51994821Y-49909821D01*
X51994821Y-49838392D01*
X52030535Y-49766964D01*
X52066250Y-49731250D01*
X52137678Y-49695535D01*
X52316250Y-49695535D01*
X52423392Y-49731250D01*
X52994821Y-50052678D02*
X53101964Y-50088392D01*
X53137678Y-50124107D01*
X53173392Y-50195535D01*
X53173392Y-50302678D01*
X53137678Y-50374107D01*
X53101964Y-50409821D01*
X53030535Y-50445535D01*
X52744821Y-50445535D01*
X52744821Y-49695535D01*
X52994821Y-49695535D01*
X53066250Y-49731250D01*
X53101964Y-49766964D01*
X53137678Y-49838392D01*
X53137678Y-49909821D01*
X53101964Y-49981250D01*
X53066250Y-50016964D01*
X52994821Y-50052678D01*
X52744821Y-50052678D01*
X48244821Y-50445535D02*
X48244821Y-49695535D01*
X48494821Y-50231250D01*
X48744821Y-49695535D01*
X48744821Y-50445535D01*
X49101964Y-50445535D02*
X49101964Y-49945535D01*
X49101964Y-49695535D02*
X49066250Y-49731250D01*
X49101964Y-49766964D01*
X49137678Y-49731250D01*
X49101964Y-49695535D01*
X49101964Y-49766964D01*
X49780535Y-50409821D02*
X49709107Y-50445535D01*
X49566250Y-50445535D01*
X49494821Y-50409821D01*
X49459107Y-50374107D01*
X49423392Y-50302678D01*
X49423392Y-50088392D01*
X49459107Y-50016964D01*
X49494821Y-49981250D01*
X49566250Y-49945535D01*
X49709107Y-49945535D01*
X49780535Y-49981250D01*
X50101964Y-50445535D02*
X50101964Y-49945535D01*
X50101964Y-50088392D02*
X50137678Y-50016964D01*
X50173392Y-49981250D01*
X50244821Y-49945535D01*
X50316250Y-49945535D01*
X50673392Y-50445535D02*
X50601964Y-50409821D01*
X50566250Y-50374107D01*
X50530535Y-50302678D01*
X50530535Y-50088392D01*
X50566250Y-50016964D01*
X50601964Y-49981250D01*
X50673392Y-49945535D01*
X50780535Y-49945535D01*
X50851964Y-49981250D01*
X50887678Y-50016964D01*
X50923392Y-50088392D01*
X50923392Y-50302678D01*
X50887678Y-50374107D01*
X50851964Y-50409821D01*
X50780535Y-50445535D01*
X50673392Y-50445535D01*
X51244821Y-49695535D02*
X51244821Y-50302678D01*
X51280535Y-50374107D01*
X51316250Y-50409821D01*
X51387678Y-50445535D01*
X51530535Y-50445535D01*
X51601964Y-50409821D01*
X51637678Y-50374107D01*
X51673392Y-50302678D01*
X51673392Y-49695535D01*
X51994821Y-50409821D02*
X52101964Y-50445535D01*
X52280535Y-50445535D01*
X52351964Y-50409821D01*
X52387678Y-50374107D01*
X52423392Y-50302678D01*
X52423392Y-50231250D01*
X52387678Y-50159821D01*
X52351964Y-50124107D01*
X52280535Y-50088392D01*
X52137678Y-50052678D01*
X52066250Y-50016964D01*
X52030535Y-49981250D01*
X51994821Y-49909821D01*
X51994821Y-49838392D01*
X52030535Y-49766964D01*
X52066250Y-49731250D01*
X52137678Y-49695535D01*
X52316250Y-49695535D01*
X52423392Y-49731250D01*
X52994821Y-50052678D02*
X53101964Y-50088392D01*
X53137678Y-50124107D01*
X53173392Y-50195535D01*
X53173392Y-50302678D01*
X53137678Y-50374107D01*
X53101964Y-50409821D01*
X53030535Y-50445535D01*
X52744821Y-50445535D01*
X52744821Y-49695535D01*
X52994821Y-49695535D01*
X53066250Y-49731250D01*
X53101964Y-49766964D01*
X53137678Y-49838392D01*
X53137678Y-49909821D01*
X53101964Y-49981250D01*
X53066250Y-50016964D01*
X52994821Y-50052678D01*
X52744821Y-50052678D01*
D14*
X44995059Y-79802678D02*
X45090773Y-79838392D01*
X45122678Y-79874107D01*
X45154583Y-79945535D01*
X45154583Y-80052678D01*
X45122678Y-80124107D01*
X45090773Y-80159821D01*
X45026964Y-80195535D01*
X44771726Y-80195535D01*
X44771726Y-79445535D01*
X44995059Y-79445535D01*
X45058869Y-79481250D01*
X45090773Y-79516964D01*
X45122678Y-79588392D01*
X45122678Y-79659821D01*
X45090773Y-79731250D01*
X45058869Y-79766964D01*
X44995059Y-79802678D01*
X44771726Y-79802678D01*
X45728869Y-79695535D02*
X45728869Y-80195535D01*
X45569345Y-79409821D02*
X45409821Y-79945535D01*
X45824583Y-79945535D01*
X46558392Y-79409821D02*
X45984107Y-80374107D01*
X46877440Y-79766964D02*
X46813630Y-79731250D01*
X46781726Y-79695535D01*
X46749821Y-79624107D01*
X46749821Y-79588392D01*
X46781726Y-79516964D01*
X46813630Y-79481250D01*
X46877440Y-79445535D01*
X47005059Y-79445535D01*
X47068869Y-79481250D01*
X47100773Y-79516964D01*
X47132678Y-79588392D01*
X47132678Y-79624107D01*
X47100773Y-79695535D01*
X47068869Y-79731250D01*
X47005059Y-79766964D01*
X46877440Y-79766964D01*
X46813630Y-79802678D01*
X46781726Y-79838392D01*
X46749821Y-79909821D01*
X46749821Y-80052678D01*
X46781726Y-80124107D01*
X46813630Y-80159821D01*
X46877440Y-80195535D01*
X47005059Y-80195535D01*
X47068869Y-80159821D01*
X47100773Y-80124107D01*
X47132678Y-80052678D01*
X47132678Y-79909821D01*
X47100773Y-79838392D01*
X47068869Y-79802678D01*
X47005059Y-79766964D01*
X44667678Y-57495535D02*
X44667678Y-56745535D01*
X44827202Y-56745535D01*
X44922916Y-56781250D01*
X44986726Y-56852678D01*
X45018630Y-56924107D01*
X45050535Y-57066964D01*
X45050535Y-57174107D01*
X45018630Y-57316964D01*
X44986726Y-57388392D01*
X44922916Y-57459821D01*
X44827202Y-57495535D01*
X44667678Y-57495535D01*
X45305773Y-56816964D02*
X45337678Y-56781250D01*
X45401488Y-56745535D01*
X45561011Y-56745535D01*
X45624821Y-56781250D01*
X45656726Y-56816964D01*
X45688630Y-56888392D01*
X45688630Y-56959821D01*
X45656726Y-57066964D01*
X45273869Y-57495535D01*
X45688630Y-57495535D01*
X46454345Y-56709821D02*
X45880059Y-57674107D01*
X47060535Y-57495535D02*
X46837202Y-57138392D01*
X46677678Y-57495535D02*
X46677678Y-56745535D01*
X46932916Y-56745535D01*
X46996726Y-56781250D01*
X47028630Y-56816964D01*
X47060535Y-56888392D01*
X47060535Y-56995535D01*
X47028630Y-57066964D01*
X46996726Y-57102678D01*
X46932916Y-57138392D01*
X46677678Y-57138392D01*
X47283869Y-56745535D02*
X47730535Y-57495535D01*
X47730535Y-56745535D02*
X47283869Y-57495535D01*
X48336726Y-57495535D02*
X47953869Y-57495535D01*
X48145297Y-57495535D02*
X48145297Y-56745535D01*
X48081488Y-56852678D01*
X48017678Y-56924107D01*
X47953869Y-56959821D01*
X44995059Y-82302678D02*
X45090773Y-82338392D01*
X45122678Y-82374107D01*
X45154583Y-82445535D01*
X45154583Y-82552678D01*
X45122678Y-82624107D01*
X45090773Y-82659821D01*
X45026964Y-82695535D01*
X44771726Y-82695535D01*
X44771726Y-81945535D01*
X44995059Y-81945535D01*
X45058869Y-81981250D01*
X45090773Y-82016964D01*
X45122678Y-82088392D01*
X45122678Y-82159821D01*
X45090773Y-82231250D01*
X45058869Y-82266964D01*
X44995059Y-82302678D01*
X44771726Y-82302678D01*
X45760773Y-81945535D02*
X45441726Y-81945535D01*
X45409821Y-82302678D01*
X45441726Y-82266964D01*
X45505535Y-82231250D01*
X45665059Y-82231250D01*
X45728869Y-82266964D01*
X45760773Y-82302678D01*
X45792678Y-82374107D01*
X45792678Y-82552678D01*
X45760773Y-82624107D01*
X45728869Y-82659821D01*
X45665059Y-82695535D01*
X45505535Y-82695535D01*
X45441726Y-82659821D01*
X45409821Y-82624107D01*
X46558392Y-81909821D02*
X45984107Y-82874107D01*
X46813630Y-82695535D02*
X46941250Y-82695535D01*
X47005059Y-82659821D01*
X47036964Y-82624107D01*
X47100773Y-82516964D01*
X47132678Y-82374107D01*
X47132678Y-82088392D01*
X47100773Y-82016964D01*
X47068869Y-81981250D01*
X47005059Y-81945535D01*
X46877440Y-81945535D01*
X46813630Y-81981250D01*
X46781726Y-82016964D01*
X46749821Y-82088392D01*
X46749821Y-82266964D01*
X46781726Y-82338392D01*
X46813630Y-82374107D01*
X46877440Y-82409821D01*
X47005059Y-82409821D01*
X47068869Y-82374107D01*
X47100773Y-82338392D01*
X47132678Y-82266964D01*
X45154583Y-72474107D02*
X45122678Y-72509821D01*
X45026964Y-72545535D01*
X44963154Y-72545535D01*
X44867440Y-72509821D01*
X44803630Y-72438392D01*
X44771726Y-72366964D01*
X44739821Y-72224107D01*
X44739821Y-72116964D01*
X44771726Y-71974107D01*
X44803630Y-71902678D01*
X44867440Y-71831250D01*
X44963154Y-71795535D01*
X45026964Y-71795535D01*
X45122678Y-71831250D01*
X45154583Y-71866964D01*
X45728869Y-71795535D02*
X45601250Y-71795535D01*
X45537440Y-71831250D01*
X45505535Y-71866964D01*
X45441726Y-71974107D01*
X45409821Y-72116964D01*
X45409821Y-72402678D01*
X45441726Y-72474107D01*
X45473630Y-72509821D01*
X45537440Y-72545535D01*
X45665059Y-72545535D01*
X45728869Y-72509821D01*
X45760773Y-72474107D01*
X45792678Y-72402678D01*
X45792678Y-72224107D01*
X45760773Y-72152678D01*
X45728869Y-72116964D01*
X45665059Y-72081250D01*
X45537440Y-72081250D01*
X45473630Y-72116964D01*
X45441726Y-72152678D01*
X45409821Y-72224107D01*
X46558392Y-71759821D02*
X45984107Y-72724107D01*
X47100773Y-71795535D02*
X46781726Y-71795535D01*
X46749821Y-72152678D01*
X46781726Y-72116964D01*
X46845535Y-72081250D01*
X47005059Y-72081250D01*
X47068869Y-72116964D01*
X47100773Y-72152678D01*
X47132678Y-72224107D01*
X47132678Y-72402678D01*
X47100773Y-72474107D01*
X47068869Y-72509821D01*
X47005059Y-72545535D01*
X46845535Y-72545535D01*
X46781726Y-72509821D01*
X46749821Y-72474107D01*
X44713630Y-67459821D02*
X44809345Y-67495535D01*
X44968869Y-67495535D01*
X45032678Y-67459821D01*
X45064583Y-67424107D01*
X45096488Y-67352678D01*
X45096488Y-67281250D01*
X45064583Y-67209821D01*
X45032678Y-67174107D01*
X44968869Y-67138392D01*
X44841250Y-67102678D01*
X44777440Y-67066964D01*
X44745535Y-67031250D01*
X44713630Y-66959821D01*
X44713630Y-66888392D01*
X44745535Y-66816964D01*
X44777440Y-66781250D01*
X44841250Y-66745535D01*
X45000773Y-66745535D01*
X45096488Y-66781250D01*
X45766488Y-67424107D02*
X45734583Y-67459821D01*
X45638869Y-67495535D01*
X45575059Y-67495535D01*
X45479345Y-67459821D01*
X45415535Y-67388392D01*
X45383630Y-67316964D01*
X45351726Y-67174107D01*
X45351726Y-67066964D01*
X45383630Y-66924107D01*
X45415535Y-66852678D01*
X45479345Y-66781250D01*
X45575059Y-66745535D01*
X45638869Y-66745535D01*
X45734583Y-66781250D01*
X45766488Y-66816964D01*
X46372678Y-67495535D02*
X46053630Y-67495535D01*
X46053630Y-66745535D01*
X47074583Y-66709821D02*
X46500297Y-67674107D01*
X47297916Y-67495535D02*
X47297916Y-66745535D01*
X47457440Y-66745535D01*
X47553154Y-66781250D01*
X47616964Y-66852678D01*
X47648869Y-66924107D01*
X47680773Y-67066964D01*
X47680773Y-67174107D01*
X47648869Y-67316964D01*
X47616964Y-67388392D01*
X47553154Y-67459821D01*
X47457440Y-67495535D01*
X47297916Y-67495535D01*
X48095535Y-66745535D02*
X48159345Y-66745535D01*
X48223154Y-66781250D01*
X48255059Y-66816964D01*
X48286964Y-66888392D01*
X48318869Y-67031250D01*
X48318869Y-67209821D01*
X48286964Y-67352678D01*
X48255059Y-67424107D01*
X48223154Y-67459821D01*
X48159345Y-67495535D01*
X48095535Y-67495535D01*
X48031726Y-67459821D01*
X47999821Y-67424107D01*
X47967916Y-67352678D01*
X47936011Y-67209821D01*
X47936011Y-67031250D01*
X47967916Y-66888392D01*
X47999821Y-66816964D01*
X48031726Y-66781250D01*
X48095535Y-66745535D01*
X49084583Y-66709821D02*
X48510297Y-67674107D01*
X49244107Y-66745535D02*
X49658869Y-66745535D01*
X49435535Y-67031250D01*
X49531250Y-67031250D01*
X49595059Y-67066964D01*
X49626964Y-67102678D01*
X49658869Y-67174107D01*
X49658869Y-67352678D01*
X49626964Y-67424107D01*
X49595059Y-67459821D01*
X49531250Y-67495535D01*
X49339821Y-67495535D01*
X49276011Y-67459821D01*
X49244107Y-67424107D01*
X44697678Y-64959821D02*
X44793392Y-64995535D01*
X44952916Y-64995535D01*
X45016726Y-64959821D01*
X45048630Y-64924107D01*
X45080535Y-64852678D01*
X45080535Y-64781250D01*
X45048630Y-64709821D01*
X45016726Y-64674107D01*
X44952916Y-64638392D01*
X44825297Y-64602678D01*
X44761488Y-64566964D01*
X44729583Y-64531250D01*
X44697678Y-64459821D01*
X44697678Y-64388392D01*
X44729583Y-64316964D01*
X44761488Y-64281250D01*
X44825297Y-64245535D01*
X44984821Y-64245535D01*
X45080535Y-64281250D01*
X45367678Y-64995535D02*
X45367678Y-64245535D01*
X45527202Y-64245535D01*
X45622916Y-64281250D01*
X45686726Y-64352678D01*
X45718630Y-64424107D01*
X45750535Y-64566964D01*
X45750535Y-64674107D01*
X45718630Y-64816964D01*
X45686726Y-64888392D01*
X45622916Y-64959821D01*
X45527202Y-64995535D01*
X45367678Y-64995535D01*
X46005773Y-64781250D02*
X46324821Y-64781250D01*
X45941964Y-64995535D02*
X46165297Y-64245535D01*
X46388630Y-64995535D01*
X47090535Y-64209821D02*
X46516250Y-65174107D01*
X47313869Y-64995535D02*
X47313869Y-64245535D01*
X47473392Y-64245535D01*
X47569107Y-64281250D01*
X47632916Y-64352678D01*
X47664821Y-64424107D01*
X47696726Y-64566964D01*
X47696726Y-64674107D01*
X47664821Y-64816964D01*
X47632916Y-64888392D01*
X47569107Y-64959821D01*
X47473392Y-64995535D01*
X47313869Y-64995535D01*
X48334821Y-64995535D02*
X47951964Y-64995535D01*
X48143392Y-64995535D02*
X48143392Y-64245535D01*
X48079583Y-64352678D01*
X48015773Y-64424107D01*
X47951964Y-64459821D01*
X49100535Y-64209821D02*
X48526250Y-65174107D01*
X49291964Y-64316964D02*
X49323869Y-64281250D01*
X49387678Y-64245535D01*
X49547202Y-64245535D01*
X49611011Y-64281250D01*
X49642916Y-64316964D01*
X49674821Y-64388392D01*
X49674821Y-64459821D01*
X49642916Y-64566964D01*
X49260059Y-64995535D01*
X49674821Y-64995535D01*
X44771726Y-69995535D02*
X44771726Y-69245535D01*
X44931250Y-69245535D01*
X45026964Y-69281250D01*
X45090773Y-69352678D01*
X45122678Y-69424107D01*
X45154583Y-69566964D01*
X45154583Y-69674107D01*
X45122678Y-69816964D01*
X45090773Y-69888392D01*
X45026964Y-69959821D01*
X44931250Y-69995535D01*
X44771726Y-69995535D01*
X45728869Y-69495535D02*
X45728869Y-69995535D01*
X45569345Y-69209821D02*
X45409821Y-69745535D01*
X45824583Y-69745535D01*
X46558392Y-69209821D02*
X45984107Y-70174107D01*
X47068869Y-69495535D02*
X47068869Y-69995535D01*
X46909345Y-69209821D02*
X46749821Y-69745535D01*
X47164583Y-69745535D01*
X44747440Y-54945535D02*
X44747440Y-54195535D01*
X44906964Y-54195535D01*
X45002678Y-54231250D01*
X45066488Y-54302678D01*
X45098392Y-54374107D01*
X45130297Y-54516964D01*
X45130297Y-54624107D01*
X45098392Y-54766964D01*
X45066488Y-54838392D01*
X45002678Y-54909821D01*
X44906964Y-54945535D01*
X44747440Y-54945535D01*
X45353630Y-54195535D02*
X45768392Y-54195535D01*
X45545059Y-54481250D01*
X45640773Y-54481250D01*
X45704583Y-54516964D01*
X45736488Y-54552678D01*
X45768392Y-54624107D01*
X45768392Y-54802678D01*
X45736488Y-54874107D01*
X45704583Y-54909821D01*
X45640773Y-54945535D01*
X45449345Y-54945535D01*
X45385535Y-54909821D01*
X45353630Y-54874107D01*
X46534107Y-54159821D02*
X45959821Y-55124107D01*
X46661726Y-54195535D02*
X47044583Y-54195535D01*
X46853154Y-54945535D02*
X46853154Y-54195535D01*
X47204107Y-54195535D02*
X47650773Y-54945535D01*
X47650773Y-54195535D02*
X47204107Y-54945535D01*
X48033630Y-54195535D02*
X48097440Y-54195535D01*
X48161250Y-54231250D01*
X48193154Y-54266964D01*
X48225059Y-54338392D01*
X48256964Y-54481250D01*
X48256964Y-54659821D01*
X48225059Y-54802678D01*
X48193154Y-54874107D01*
X48161250Y-54909821D01*
X48097440Y-54945535D01*
X48033630Y-54945535D01*
X47969821Y-54909821D01*
X47937916Y-54874107D01*
X47906011Y-54802678D01*
X47874107Y-54659821D01*
X47874107Y-54481250D01*
X47906011Y-54338392D01*
X47937916Y-54266964D01*
X47969821Y-54231250D01*
X48033630Y-54195535D01*
X45175773Y-61781250D02*
X45111964Y-61745535D01*
X45016250Y-61745535D01*
X44920535Y-61781250D01*
X44856726Y-61852678D01*
X44824821Y-61924107D01*
X44792916Y-62066964D01*
X44792916Y-62174107D01*
X44824821Y-62316964D01*
X44856726Y-62388392D01*
X44920535Y-62459821D01*
X45016250Y-62495535D01*
X45080059Y-62495535D01*
X45175773Y-62459821D01*
X45207678Y-62424107D01*
X45207678Y-62174107D01*
X45080059Y-62174107D01*
X45494821Y-62495535D02*
X45494821Y-61745535D01*
X45877678Y-62495535D01*
X45877678Y-61745535D01*
X46196726Y-62495535D02*
X46196726Y-61745535D01*
X46356250Y-61745535D01*
X46451964Y-61781250D01*
X46515773Y-61852678D01*
X46547678Y-61924107D01*
X46579583Y-62066964D01*
X46579583Y-62174107D01*
X46547678Y-62316964D01*
X46515773Y-62388392D01*
X46451964Y-62459821D01*
X46356250Y-62495535D01*
X46196726Y-62495535D01*
X45175773Y-59331250D02*
X45111964Y-59295535D01*
X45016250Y-59295535D01*
X44920535Y-59331250D01*
X44856726Y-59402678D01*
X44824821Y-59474107D01*
X44792916Y-59616964D01*
X44792916Y-59724107D01*
X44824821Y-59866964D01*
X44856726Y-59938392D01*
X44920535Y-60009821D01*
X45016250Y-60045535D01*
X45080059Y-60045535D01*
X45175773Y-60009821D01*
X45207678Y-59974107D01*
X45207678Y-59724107D01*
X45080059Y-59724107D01*
X45494821Y-60045535D02*
X45494821Y-59295535D01*
X45877678Y-60045535D01*
X45877678Y-59295535D01*
X46196726Y-60045535D02*
X46196726Y-59295535D01*
X46356250Y-59295535D01*
X46451964Y-59331250D01*
X46515773Y-59402678D01*
X46547678Y-59474107D01*
X46579583Y-59616964D01*
X46579583Y-59724107D01*
X46547678Y-59866964D01*
X46515773Y-59938392D01*
X46451964Y-60009821D01*
X46356250Y-60045535D01*
X46196726Y-60045535D01*
X44771726Y-75095535D02*
X44771726Y-74345535D01*
X44931250Y-74345535D01*
X45026964Y-74381250D01*
X45090773Y-74452678D01*
X45122678Y-74524107D01*
X45154583Y-74666964D01*
X45154583Y-74774107D01*
X45122678Y-74916964D01*
X45090773Y-74988392D01*
X45026964Y-75059821D01*
X44931250Y-75095535D01*
X44771726Y-75095535D01*
X45377916Y-74345535D02*
X45824583Y-74345535D01*
X45537440Y-75095535D01*
X46558392Y-74309821D02*
X45984107Y-75274107D01*
X47068869Y-74345535D02*
X46941250Y-74345535D01*
X46877440Y-74381250D01*
X46845535Y-74416964D01*
X46781726Y-74524107D01*
X46749821Y-74666964D01*
X46749821Y-74952678D01*
X46781726Y-75024107D01*
X46813630Y-75059821D01*
X46877440Y-75095535D01*
X47005059Y-75095535D01*
X47068869Y-75059821D01*
X47100773Y-75024107D01*
X47132678Y-74952678D01*
X47132678Y-74774107D01*
X47100773Y-74702678D01*
X47068869Y-74666964D01*
X47005059Y-74631250D01*
X46877440Y-74631250D01*
X46813630Y-74666964D01*
X46781726Y-74702678D01*
X46749821Y-74774107D01*
X44803630Y-77252678D02*
X45026964Y-77252678D01*
X45122678Y-77645535D02*
X44803630Y-77645535D01*
X44803630Y-76895535D01*
X45122678Y-76895535D01*
X45696964Y-76895535D02*
X45569345Y-76895535D01*
X45505535Y-76931250D01*
X45473630Y-76966964D01*
X45409821Y-77074107D01*
X45377916Y-77216964D01*
X45377916Y-77502678D01*
X45409821Y-77574107D01*
X45441726Y-77609821D01*
X45505535Y-77645535D01*
X45633154Y-77645535D01*
X45696964Y-77609821D01*
X45728869Y-77574107D01*
X45760773Y-77502678D01*
X45760773Y-77324107D01*
X45728869Y-77252678D01*
X45696964Y-77216964D01*
X45633154Y-77181250D01*
X45505535Y-77181250D01*
X45441726Y-77216964D01*
X45409821Y-77252678D01*
X45377916Y-77324107D01*
X46526488Y-76859821D02*
X45952202Y-77824107D01*
X46686011Y-76895535D02*
X47132678Y-76895535D01*
X46845535Y-77645535D01*
X53903630Y-80345535D02*
X53520773Y-80345535D01*
X53712202Y-80345535D02*
X53712202Y-79595535D01*
X53648392Y-79702678D01*
X53584583Y-79774107D01*
X53520773Y-79809821D01*
X54477916Y-79595535D02*
X54350297Y-79595535D01*
X54286488Y-79631250D01*
X54254583Y-79666964D01*
X54190773Y-79774107D01*
X54158869Y-79916964D01*
X54158869Y-80202678D01*
X54190773Y-80274107D01*
X54222678Y-80309821D01*
X54286488Y-80345535D01*
X54414107Y-80345535D01*
X54477916Y-80309821D01*
X54509821Y-80274107D01*
X54541726Y-80202678D01*
X54541726Y-80024107D01*
X54509821Y-79952678D01*
X54477916Y-79916964D01*
X54414107Y-79881250D01*
X54286488Y-79881250D01*
X54222678Y-79916964D01*
X54190773Y-79952678D01*
X54158869Y-80024107D01*
X55307440Y-79559821D02*
X54733154Y-80524107D01*
X55754107Y-79952678D02*
X55849821Y-79988392D01*
X55881726Y-80024107D01*
X55913630Y-80095535D01*
X55913630Y-80202678D01*
X55881726Y-80274107D01*
X55849821Y-80309821D01*
X55786011Y-80345535D01*
X55530773Y-80345535D01*
X55530773Y-79595535D01*
X55754107Y-79595535D01*
X55817916Y-79631250D01*
X55849821Y-79666964D01*
X55881726Y-79738392D01*
X55881726Y-79809821D01*
X55849821Y-79881250D01*
X55817916Y-79916964D01*
X55754107Y-79952678D01*
X55530773Y-79952678D01*
X56168869Y-79666964D02*
X56200773Y-79631250D01*
X56264583Y-79595535D01*
X56424107Y-79595535D01*
X56487916Y-79631250D01*
X56519821Y-79666964D01*
X56551726Y-79738392D01*
X56551726Y-79809821D01*
X56519821Y-79916964D01*
X56136964Y-80345535D01*
X56551726Y-80345535D01*
X53903630Y-82845535D02*
X53520773Y-82845535D01*
X53712202Y-82845535D02*
X53712202Y-82095535D01*
X53648392Y-82202678D01*
X53584583Y-82274107D01*
X53520773Y-82309821D01*
X54318392Y-82095535D02*
X54382202Y-82095535D01*
X54446011Y-82131250D01*
X54477916Y-82166964D01*
X54509821Y-82238392D01*
X54541726Y-82381250D01*
X54541726Y-82559821D01*
X54509821Y-82702678D01*
X54477916Y-82774107D01*
X54446011Y-82809821D01*
X54382202Y-82845535D01*
X54318392Y-82845535D01*
X54254583Y-82809821D01*
X54222678Y-82774107D01*
X54190773Y-82702678D01*
X54158869Y-82559821D01*
X54158869Y-82381250D01*
X54190773Y-82238392D01*
X54222678Y-82166964D01*
X54254583Y-82131250D01*
X54318392Y-82095535D01*
X55307440Y-82059821D02*
X54733154Y-83024107D01*
X55754107Y-82452678D02*
X55849821Y-82488392D01*
X55881726Y-82524107D01*
X55913630Y-82595535D01*
X55913630Y-82702678D01*
X55881726Y-82774107D01*
X55849821Y-82809821D01*
X55786011Y-82845535D01*
X55530773Y-82845535D01*
X55530773Y-82095535D01*
X55754107Y-82095535D01*
X55817916Y-82131250D01*
X55849821Y-82166964D01*
X55881726Y-82238392D01*
X55881726Y-82309821D01*
X55849821Y-82381250D01*
X55817916Y-82416964D01*
X55754107Y-82452678D01*
X55530773Y-82452678D01*
X56487916Y-82095535D02*
X56360297Y-82095535D01*
X56296488Y-82131250D01*
X56264583Y-82166964D01*
X56200773Y-82274107D01*
X56168869Y-82416964D01*
X56168869Y-82702678D01*
X56200773Y-82774107D01*
X56232678Y-82809821D01*
X56296488Y-82845535D01*
X56424107Y-82845535D01*
X56487916Y-82809821D01*
X56519821Y-82774107D01*
X56551726Y-82702678D01*
X56551726Y-82524107D01*
X56519821Y-82452678D01*
X56487916Y-82416964D01*
X56424107Y-82381250D01*
X56296488Y-82381250D01*
X56232678Y-82416964D01*
X56200773Y-82452678D01*
X56168869Y-82524107D01*
X53903630Y-77795535D02*
X53520773Y-77795535D01*
X53712202Y-77795535D02*
X53712202Y-77045535D01*
X53648392Y-77152678D01*
X53584583Y-77224107D01*
X53520773Y-77259821D01*
X54477916Y-77295535D02*
X54477916Y-77795535D01*
X54318392Y-77009821D02*
X54158869Y-77545535D01*
X54573630Y-77545535D01*
X55307440Y-77009821D02*
X54733154Y-77974107D01*
X55754107Y-77402678D02*
X55849821Y-77438392D01*
X55881726Y-77474107D01*
X55913630Y-77545535D01*
X55913630Y-77652678D01*
X55881726Y-77724107D01*
X55849821Y-77759821D01*
X55786011Y-77795535D01*
X55530773Y-77795535D01*
X55530773Y-77045535D01*
X55754107Y-77045535D01*
X55817916Y-77081250D01*
X55849821Y-77116964D01*
X55881726Y-77188392D01*
X55881726Y-77259821D01*
X55849821Y-77331250D01*
X55817916Y-77366964D01*
X55754107Y-77402678D01*
X55530773Y-77402678D01*
X56136964Y-77045535D02*
X56551726Y-77045535D01*
X56328392Y-77331250D01*
X56424107Y-77331250D01*
X56487916Y-77366964D01*
X56519821Y-77402678D01*
X56551726Y-77474107D01*
X56551726Y-77652678D01*
X56519821Y-77724107D01*
X56487916Y-77759821D01*
X56424107Y-77795535D01*
X56232678Y-77795535D01*
X56168869Y-77759821D01*
X56136964Y-77724107D01*
X53903630Y-75245535D02*
X53520773Y-75245535D01*
X53712202Y-75245535D02*
X53712202Y-74495535D01*
X53648392Y-74602678D01*
X53584583Y-74674107D01*
X53520773Y-74709821D01*
X54509821Y-74495535D02*
X54190773Y-74495535D01*
X54158869Y-74852678D01*
X54190773Y-74816964D01*
X54254583Y-74781250D01*
X54414107Y-74781250D01*
X54477916Y-74816964D01*
X54509821Y-74852678D01*
X54541726Y-74924107D01*
X54541726Y-75102678D01*
X54509821Y-75174107D01*
X54477916Y-75209821D01*
X54414107Y-75245535D01*
X54254583Y-75245535D01*
X54190773Y-75209821D01*
X54158869Y-75174107D01*
X55307440Y-74459821D02*
X54733154Y-75424107D01*
X55754107Y-74852678D02*
X55849821Y-74888392D01*
X55881726Y-74924107D01*
X55913630Y-74995535D01*
X55913630Y-75102678D01*
X55881726Y-75174107D01*
X55849821Y-75209821D01*
X55786011Y-75245535D01*
X55530773Y-75245535D01*
X55530773Y-74495535D01*
X55754107Y-74495535D01*
X55817916Y-74531250D01*
X55849821Y-74566964D01*
X55881726Y-74638392D01*
X55881726Y-74709821D01*
X55849821Y-74781250D01*
X55817916Y-74816964D01*
X55754107Y-74852678D01*
X55530773Y-74852678D01*
X56551726Y-75245535D02*
X56168869Y-75245535D01*
X56360297Y-75245535D02*
X56360297Y-74495535D01*
X56296488Y-74602678D01*
X56232678Y-74674107D01*
X56168869Y-74709821D01*
X53600535Y-72481250D02*
X53919583Y-72481250D01*
X53536726Y-72695535D02*
X53760059Y-71945535D01*
X53983392Y-72695535D01*
X54334345Y-71945535D02*
X54398154Y-71945535D01*
X54461964Y-71981250D01*
X54493869Y-72016964D01*
X54525773Y-72088392D01*
X54557678Y-72231250D01*
X54557678Y-72409821D01*
X54525773Y-72552678D01*
X54493869Y-72624107D01*
X54461964Y-72659821D01*
X54398154Y-72695535D01*
X54334345Y-72695535D01*
X54270535Y-72659821D01*
X54238630Y-72624107D01*
X54206726Y-72552678D01*
X54174821Y-72409821D01*
X54174821Y-72231250D01*
X54206726Y-72088392D01*
X54238630Y-72016964D01*
X54270535Y-71981250D01*
X54334345Y-71945535D01*
X55323392Y-71909821D02*
X54749107Y-72874107D01*
X55770059Y-72302678D02*
X55546726Y-72302678D01*
X55546726Y-72695535D02*
X55546726Y-71945535D01*
X55865773Y-71945535D01*
X56057202Y-71945535D02*
X56503869Y-71945535D01*
X56216726Y-72695535D01*
X53600535Y-69931250D02*
X53919583Y-69931250D01*
X53536726Y-70145535D02*
X53760059Y-69395535D01*
X53983392Y-70145535D01*
X54557678Y-70145535D02*
X54174821Y-70145535D01*
X54366250Y-70145535D02*
X54366250Y-69395535D01*
X54302440Y-69502678D01*
X54238630Y-69574107D01*
X54174821Y-69609821D01*
X55323392Y-69359821D02*
X54749107Y-70324107D01*
X55770059Y-69752678D02*
X55546726Y-69752678D01*
X55546726Y-70145535D02*
X55546726Y-69395535D01*
X55865773Y-69395535D01*
X56408154Y-69395535D02*
X56280535Y-69395535D01*
X56216726Y-69431250D01*
X56184821Y-69466964D01*
X56121011Y-69574107D01*
X56089107Y-69716964D01*
X56089107Y-70002678D01*
X56121011Y-70074107D01*
X56152916Y-70109821D01*
X56216726Y-70145535D01*
X56344345Y-70145535D01*
X56408154Y-70109821D01*
X56440059Y-70074107D01*
X56471964Y-70002678D01*
X56471964Y-69824107D01*
X56440059Y-69752678D01*
X56408154Y-69716964D01*
X56344345Y-69681250D01*
X56216726Y-69681250D01*
X56152916Y-69716964D01*
X56121011Y-69752678D01*
X56089107Y-69824107D01*
X53600535Y-67431250D02*
X53919583Y-67431250D01*
X53536726Y-67645535D02*
X53760059Y-66895535D01*
X53983392Y-67645535D01*
X54174821Y-66966964D02*
X54206726Y-66931250D01*
X54270535Y-66895535D01*
X54430059Y-66895535D01*
X54493869Y-66931250D01*
X54525773Y-66966964D01*
X54557678Y-67038392D01*
X54557678Y-67109821D01*
X54525773Y-67216964D01*
X54142916Y-67645535D01*
X54557678Y-67645535D01*
X55323392Y-66859821D02*
X54749107Y-67824107D01*
X55770059Y-67252678D02*
X55546726Y-67252678D01*
X55546726Y-67645535D02*
X55546726Y-66895535D01*
X55865773Y-66895535D01*
X56440059Y-66895535D02*
X56121011Y-66895535D01*
X56089107Y-67252678D01*
X56121011Y-67216964D01*
X56184821Y-67181250D01*
X56344345Y-67181250D01*
X56408154Y-67216964D01*
X56440059Y-67252678D01*
X56471964Y-67324107D01*
X56471964Y-67502678D01*
X56440059Y-67574107D01*
X56408154Y-67609821D01*
X56344345Y-67645535D01*
X56184821Y-67645535D01*
X56121011Y-67609821D01*
X56089107Y-67574107D01*
X53600535Y-64931250D02*
X53919583Y-64931250D01*
X53536726Y-65145535D02*
X53760059Y-64395535D01*
X53983392Y-65145535D01*
X54142916Y-64395535D02*
X54557678Y-64395535D01*
X54334345Y-64681250D01*
X54430059Y-64681250D01*
X54493869Y-64716964D01*
X54525773Y-64752678D01*
X54557678Y-64824107D01*
X54557678Y-65002678D01*
X54525773Y-65074107D01*
X54493869Y-65109821D01*
X54430059Y-65145535D01*
X54238630Y-65145535D01*
X54174821Y-65109821D01*
X54142916Y-65074107D01*
X55323392Y-64359821D02*
X54749107Y-65324107D01*
X55770059Y-64752678D02*
X55546726Y-64752678D01*
X55546726Y-65145535D02*
X55546726Y-64395535D01*
X55865773Y-64395535D01*
X56408154Y-64645535D02*
X56408154Y-65145535D01*
X56248630Y-64359821D02*
X56089107Y-64895535D01*
X56503869Y-64895535D01*
X54742916Y-61695535D02*
X54966250Y-62445535D01*
X55189583Y-61695535D01*
X55795773Y-62374107D02*
X55763869Y-62409821D01*
X55668154Y-62445535D01*
X55604345Y-62445535D01*
X55508630Y-62409821D01*
X55444821Y-62338392D01*
X55412916Y-62266964D01*
X55381011Y-62124107D01*
X55381011Y-62016964D01*
X55412916Y-61874107D01*
X55444821Y-61802678D01*
X55508630Y-61731250D01*
X55604345Y-61695535D01*
X55668154Y-61695535D01*
X55763869Y-61731250D01*
X55795773Y-61766964D01*
X56465773Y-62374107D02*
X56433869Y-62409821D01*
X56338154Y-62445535D01*
X56274345Y-62445535D01*
X56178630Y-62409821D01*
X56114821Y-62338392D01*
X56082916Y-62266964D01*
X56051011Y-62124107D01*
X56051011Y-62016964D01*
X56082916Y-61874107D01*
X56114821Y-61802678D01*
X56178630Y-61731250D01*
X56274345Y-61695535D01*
X56338154Y-61695535D01*
X56433869Y-61731250D01*
X56465773Y-61766964D01*
X55269345Y-59995535D02*
X55046011Y-59638392D01*
X54886488Y-59995535D02*
X54886488Y-59245535D01*
X55141726Y-59245535D01*
X55205535Y-59281250D01*
X55237440Y-59316964D01*
X55269345Y-59388392D01*
X55269345Y-59495535D01*
X55237440Y-59566964D01*
X55205535Y-59602678D01*
X55141726Y-59638392D01*
X54886488Y-59638392D01*
X55524583Y-59959821D02*
X55620297Y-59995535D01*
X55779821Y-59995535D01*
X55843630Y-59959821D01*
X55875535Y-59924107D01*
X55907440Y-59852678D01*
X55907440Y-59781250D01*
X55875535Y-59709821D01*
X55843630Y-59674107D01*
X55779821Y-59638392D01*
X55652202Y-59602678D01*
X55588392Y-59566964D01*
X55556488Y-59531250D01*
X55524583Y-59459821D01*
X55524583Y-59388392D01*
X55556488Y-59316964D01*
X55588392Y-59281250D01*
X55652202Y-59245535D01*
X55811726Y-59245535D01*
X55907440Y-59281250D01*
X56098869Y-59245535D02*
X56481726Y-59245535D01*
X56290297Y-59995535D02*
X56290297Y-59245535D01*
X55125773Y-56731250D02*
X55061964Y-56695535D01*
X54966250Y-56695535D01*
X54870535Y-56731250D01*
X54806726Y-56802678D01*
X54774821Y-56874107D01*
X54742916Y-57016964D01*
X54742916Y-57124107D01*
X54774821Y-57266964D01*
X54806726Y-57338392D01*
X54870535Y-57409821D01*
X54966250Y-57445535D01*
X55030059Y-57445535D01*
X55125773Y-57409821D01*
X55157678Y-57374107D01*
X55157678Y-57124107D01*
X55030059Y-57124107D01*
X55444821Y-57445535D02*
X55444821Y-56695535D01*
X55827678Y-57445535D01*
X55827678Y-56695535D01*
X56146726Y-57445535D02*
X56146726Y-56695535D01*
X56306250Y-56695535D01*
X56401964Y-56731250D01*
X56465773Y-56802678D01*
X56497678Y-56874107D01*
X56529583Y-57016964D01*
X56529583Y-57124107D01*
X56497678Y-57266964D01*
X56465773Y-57338392D01*
X56401964Y-57409821D01*
X56306250Y-57445535D01*
X56146726Y-57445535D01*
X55173630Y-54895535D02*
X54950297Y-54538392D01*
X54790773Y-54895535D02*
X54790773Y-54145535D01*
X55046011Y-54145535D01*
X55109821Y-54181250D01*
X55141726Y-54216964D01*
X55173630Y-54288392D01*
X55173630Y-54395535D01*
X55141726Y-54466964D01*
X55109821Y-54502678D01*
X55046011Y-54538392D01*
X54790773Y-54538392D01*
X55428869Y-54681250D02*
X55747916Y-54681250D01*
X55365059Y-54895535D02*
X55588392Y-54145535D01*
X55811726Y-54895535D01*
X55971250Y-54145535D02*
X56130773Y-54895535D01*
X56258392Y-54359821D01*
X56386011Y-54895535D01*
X56545535Y-54145535D01*
%TO.C,OL1*%
D11*
X49347619Y-85214880D02*
X49538095Y-85214880D01*
X49633333Y-85262500D01*
X49728571Y-85357738D01*
X49776190Y-85548214D01*
X49776190Y-85881547D01*
X49728571Y-86072023D01*
X49633333Y-86167261D01*
X49538095Y-86214880D01*
X49347619Y-86214880D01*
X49252380Y-86167261D01*
X49157142Y-86072023D01*
X49109523Y-85881547D01*
X49109523Y-85548214D01*
X49157142Y-85357738D01*
X49252380Y-85262500D01*
X49347619Y-85214880D01*
X50680952Y-86214880D02*
X50204761Y-86214880D01*
X50204761Y-85214880D01*
X51014285Y-85691071D02*
X51347619Y-85691071D01*
X51490476Y-86214880D02*
X51014285Y-86214880D01*
X51014285Y-85214880D01*
X51490476Y-85214880D01*
X51919047Y-86214880D02*
X51919047Y-85214880D01*
X52157142Y-85214880D01*
X52300000Y-85262500D01*
X52395238Y-85357738D01*
X52442857Y-85452976D01*
X52490476Y-85643452D01*
X52490476Y-85786309D01*
X52442857Y-85976785D01*
X52395238Y-86072023D01*
X52300000Y-86167261D01*
X52157142Y-86214880D01*
X51919047Y-86214880D01*
%TD*%
M02*
