%TF.GenerationSoftware,KiCad,Pcbnew,(5.1.10)-1*%
%TF.CreationDate,2021-07-10T22:05:52+03:00*%
%TF.ProjectId,BedoPadPcb,4265646f-5061-4645-9063-622e6b696361,rev?*%
%TF.SameCoordinates,Original*%
%TF.FileFunction,Copper,L2,Bot*%
%TF.FilePolarity,Positive*%
%FSLAX46Y46*%
G04 Gerber Fmt 4.6, Leading zero omitted, Abs format (unit mm)*
G04 Created by KiCad (PCBNEW (5.1.10)-1) date 2021-07-10 22:05:52*
%MOMM*%
%LPD*%
G01*
G04 APERTURE LIST*
%TA.AperFunction,ComponentPad*%
%ADD10C,4.200000*%
%TD*%
%TA.AperFunction,ComponentPad*%
%ADD11R,1.651000X1.651000*%
%TD*%
%TA.AperFunction,ComponentPad*%
%ADD12C,1.651000*%
%TD*%
%TA.AperFunction,ComponentPad*%
%ADD13C,1.524000*%
%TD*%
%TA.AperFunction,ComponentPad*%
%ADD14C,1.397000*%
%TD*%
%TA.AperFunction,ComponentPad*%
%ADD15C,2.000000*%
%TD*%
%TA.AperFunction,WasherPad*%
%ADD16R,3.200000X2.000000*%
%TD*%
%TA.AperFunction,ComponentPad*%
%ADD17R,2.000000X2.000000*%
%TD*%
%TA.AperFunction,SMDPad,CuDef*%
%ADD18R,2.550000X2.500000*%
%TD*%
%TA.AperFunction,Conductor*%
%ADD19C,0.250000*%
%TD*%
G04 APERTURE END LIST*
D10*
%TO.P,REF\u002A\u002A,*%
%TO.N,*%
X70294500Y-99123500D03*
%TD*%
%TO.P,REF\u002A\u002A,*%
%TO.N,*%
X147637500Y-147637500D03*
%TD*%
%TO.P,REF\u002A\u002A,*%
%TO.N,*%
X26987500Y-147637500D03*
%TD*%
%TO.P,REF\u002A\u002A,*%
%TO.N,*%
X26987500Y-52387500D03*
%TD*%
%TO.P,REF\u002A\u002A,*%
%TO.N,*%
X147637500Y-52387500D03*
%TD*%
D11*
%TO.P,D1,2*%
%TO.N,Row2*%
X62706250Y-113347500D03*
D12*
%TO.P,D1,1*%
%TO.N,Net-(D1-Pad1)*%
X62706250Y-105727500D03*
%TD*%
D11*
%TO.P,D2,2*%
%TO.N,Row3*%
X50006250Y-141128750D03*
D12*
%TO.P,D2,1*%
%TO.N,Net-(D2-Pad1)*%
X50006250Y-133508750D03*
%TD*%
D11*
%TO.P,D3,2*%
%TO.N,Row4*%
X69056250Y-141128750D03*
D12*
%TO.P,D3,1*%
%TO.N,Net-(D3-Pad1)*%
X69056250Y-133508750D03*
%TD*%
D11*
%TO.P,D4,2*%
%TO.N,Row0*%
X107156250Y-64928750D03*
D12*
%TO.P,D4,1*%
%TO.N,Net-(D4-Pad1)*%
X107156250Y-57308750D03*
%TD*%
D11*
%TO.P,D5,2*%
%TO.N,Row1*%
X107156250Y-83978750D03*
D12*
%TO.P,D5,1*%
%TO.N,Net-(D5-Pad1)*%
X107156250Y-76358750D03*
%TD*%
D11*
%TO.P,D6,2*%
%TO.N,Row2*%
X107156250Y-103028750D03*
D12*
%TO.P,D6,1*%
%TO.N,Net-(D6-Pad1)*%
X107156250Y-95408750D03*
%TD*%
D11*
%TO.P,D7,2*%
%TO.N,Row3*%
X107156250Y-122078750D03*
D12*
%TO.P,D7,1*%
%TO.N,Net-(D7-Pad1)*%
X107156250Y-114458750D03*
%TD*%
D11*
%TO.P,D8,2*%
%TO.N,Row4*%
X107156250Y-141128750D03*
D12*
%TO.P,D8,1*%
%TO.N,Net-(D8-Pad1)*%
X107156250Y-133508750D03*
%TD*%
D11*
%TO.P,D9,2*%
%TO.N,Row0*%
X126206250Y-64928750D03*
D12*
%TO.P,D9,1*%
%TO.N,Net-(D9-Pad1)*%
X126206250Y-57308750D03*
%TD*%
D11*
%TO.P,D10,2*%
%TO.N,Row1*%
X126206250Y-83978750D03*
D12*
%TO.P,D10,1*%
%TO.N,Net-(D10-Pad1)*%
X126206250Y-76358750D03*
%TD*%
D11*
%TO.P,D11,2*%
%TO.N,Row2*%
X126206250Y-103028750D03*
D12*
%TO.P,D11,1*%
%TO.N,Net-(D11-Pad1)*%
X126206250Y-95408750D03*
%TD*%
D11*
%TO.P,D12,2*%
%TO.N,Row3*%
X126206250Y-122078750D03*
D12*
%TO.P,D12,1*%
%TO.N,Net-(D12-Pad1)*%
X126206250Y-114458750D03*
%TD*%
D11*
%TO.P,D13,2*%
%TO.N,Row4*%
X126206250Y-141128750D03*
D12*
%TO.P,D13,1*%
%TO.N,Net-(D13-Pad1)*%
X126206250Y-133508750D03*
%TD*%
D11*
%TO.P,D14,2*%
%TO.N,Row0*%
X145256250Y-64928750D03*
D12*
%TO.P,D14,1*%
%TO.N,Net-(D14-Pad1)*%
X145256250Y-57308750D03*
%TD*%
D11*
%TO.P,D15,2*%
%TO.N,Row1*%
X145256250Y-83978750D03*
D12*
%TO.P,D15,1*%
%TO.N,Net-(D15-Pad1)*%
X145256250Y-76358750D03*
%TD*%
D11*
%TO.P,D16,2*%
%TO.N,Row2*%
X145256250Y-103028750D03*
D12*
%TO.P,D16,1*%
%TO.N,Net-(D16-Pad1)*%
X145256250Y-95408750D03*
%TD*%
D11*
%TO.P,D17,2*%
%TO.N,Row3*%
X145256250Y-122078750D03*
D12*
%TO.P,D17,1*%
%TO.N,Net-(D17-Pad1)*%
X145256250Y-114458750D03*
%TD*%
D11*
%TO.P,D18,2*%
%TO.N,Row4*%
X145256250Y-141128750D03*
D12*
%TO.P,D18,1*%
%TO.N,Net-(D18-Pad1)*%
X145256250Y-133508750D03*
%TD*%
D13*
%TO.P,U1,1*%
%TO.N,N/C*%
X43029850Y-54578250D03*
%TO.P,U1,2*%
X43029850Y-57118250D03*
%TO.P,U1,3*%
%TO.N,EncoderGND*%
X43029850Y-59658250D03*
%TO.P,U1,4*%
%TO.N,OledGND*%
X43029850Y-62198250D03*
%TO.P,U1,5*%
%TO.N,OledSDA*%
X43029850Y-64738250D03*
%TO.P,U1,6*%
%TO.N,OledSCL*%
X43029850Y-67278250D03*
%TO.P,U1,7*%
%TO.N,Col0*%
X43029850Y-69818250D03*
%TO.P,U1,8*%
%TO.N,N/C*%
X43029850Y-72358250D03*
%TO.P,U1,9*%
X43029850Y-74898250D03*
%TO.P,U1,10*%
%TO.N,EncoderPadA*%
X43029850Y-77438250D03*
%TO.P,U1,11*%
%TO.N,EncoderPadB*%
X43029850Y-79978250D03*
%TO.P,U1,12*%
%TO.N,N/C*%
X43029850Y-82518250D03*
%TO.P,U1,13*%
%TO.N,Col3*%
X58249850Y-82518250D03*
%TO.P,U1,14*%
%TO.N,Col2*%
X58249850Y-79978250D03*
%TO.P,U1,15*%
%TO.N,Col1*%
X58249850Y-77438250D03*
%TO.P,U1,16*%
%TO.N,Row4*%
X58249850Y-74898250D03*
%TO.P,U1,17*%
%TO.N,Row3*%
X58249850Y-72358250D03*
%TO.P,U1,18*%
%TO.N,Row2*%
X58249850Y-69818250D03*
%TO.P,U1,19*%
%TO.N,Row1*%
X58249850Y-67278250D03*
%TO.P,U1,20*%
%TO.N,Row0*%
X58249850Y-64738250D03*
%TO.P,U1,21*%
%TO.N,OledVCC*%
X58249850Y-62198250D03*
%TO.P,U1,22*%
%TO.N,ResetVIA2*%
X58249850Y-59658250D03*
%TO.P,U1,23*%
%TO.N,ResetVIA1*%
X58249850Y-57118250D03*
%TO.P,U1,24*%
%TO.N,N/C*%
X58249850Y-54578250D03*
%TD*%
D14*
%TO.P,H2,1*%
%TO.N,ResetVIA2*%
X29368750Y-59531250D03*
%TD*%
%TO.P,H1,1*%
%TO.N,ResetVIA1*%
X29368750Y-57150000D03*
%TD*%
%TO.P,OL1,1*%
%TO.N,OledSDA*%
X46990000Y-87312500D03*
%TO.P,OL1,2*%
%TO.N,OledSCL*%
X49530000Y-87312500D03*
%TO.P,OL1,3*%
%TO.N,OledVCC*%
X52070000Y-87312500D03*
%TO.P,OL1,4*%
%TO.N,OledGND*%
X54610000Y-87312500D03*
%TD*%
D15*
%TO.P,SW1,S1*%
%TO.N,Col0*%
X57800000Y-110450000D03*
%TO.P,SW1,S2*%
%TO.N,Net-(D1-Pad1)*%
X57800000Y-105450000D03*
D16*
%TO.P,SW1,*%
%TO.N,*%
X50800000Y-113550000D03*
X50800000Y-102350000D03*
D15*
%TO.P,SW1,B*%
%TO.N,EncoderPadB*%
X43300000Y-110450000D03*
%TO.P,SW1,C*%
%TO.N,EncoderGND*%
X43300000Y-107950000D03*
D17*
%TO.P,SW1,A*%
%TO.N,EncoderPadA*%
X43300000Y-105450000D03*
%TD*%
D18*
%TO.P,SW2,2*%
%TO.N,Net-(D2-Pad1)*%
X47117000Y-131445000D03*
%TO.P,SW2,1*%
%TO.N,Col0*%
X34190000Y-133985000D03*
%TD*%
%TO.P,SW3,1*%
%TO.N,Col0*%
X53240000Y-133985000D03*
%TO.P,SW3,2*%
%TO.N,Net-(D3-Pad1)*%
X66167000Y-131445000D03*
%TD*%
%TO.P,SW4,2*%
%TO.N,Net-(D4-Pad1)*%
X104267000Y-55245000D03*
%TO.P,SW4,1*%
%TO.N,Col1*%
X91340000Y-57785000D03*
%TD*%
%TO.P,SW5,2*%
%TO.N,Net-(D5-Pad1)*%
X104267000Y-74295000D03*
%TO.P,SW5,1*%
%TO.N,Col1*%
X91340000Y-76835000D03*
%TD*%
%TO.P,SW6,1*%
%TO.N,Col1*%
X91340000Y-95885000D03*
%TO.P,SW6,2*%
%TO.N,Net-(D6-Pad1)*%
X104267000Y-93345000D03*
%TD*%
%TO.P,SW7,2*%
%TO.N,Net-(D7-Pad1)*%
X104267000Y-112395000D03*
%TO.P,SW7,1*%
%TO.N,Col1*%
X91340000Y-114935000D03*
%TD*%
%TO.P,SW8,1*%
%TO.N,Col1*%
X91340000Y-133985000D03*
%TO.P,SW8,2*%
%TO.N,Net-(D8-Pad1)*%
X104267000Y-131445000D03*
%TD*%
%TO.P,SW9,1*%
%TO.N,Col2*%
X110390000Y-57785000D03*
%TO.P,SW9,2*%
%TO.N,Net-(D9-Pad1)*%
X123317000Y-55245000D03*
%TD*%
%TO.P,SW10,1*%
%TO.N,Col2*%
X110390000Y-76835000D03*
%TO.P,SW10,2*%
%TO.N,Net-(D10-Pad1)*%
X123317000Y-74295000D03*
%TD*%
%TO.P,SW11,2*%
%TO.N,Net-(D11-Pad1)*%
X123317000Y-93345000D03*
%TO.P,SW11,1*%
%TO.N,Col2*%
X110390000Y-95885000D03*
%TD*%
%TO.P,SW12,1*%
%TO.N,Col2*%
X110390000Y-114935000D03*
%TO.P,SW12,2*%
%TO.N,Net-(D12-Pad1)*%
X123317000Y-112395000D03*
%TD*%
%TO.P,SW13,2*%
%TO.N,Net-(D13-Pad1)*%
X123317000Y-131445000D03*
%TO.P,SW13,1*%
%TO.N,Col2*%
X110390000Y-133985000D03*
%TD*%
%TO.P,SW14,1*%
%TO.N,Col3*%
X129440000Y-57785000D03*
%TO.P,SW14,2*%
%TO.N,Net-(D14-Pad1)*%
X142367000Y-55245000D03*
%TD*%
%TO.P,SW15,2*%
%TO.N,Net-(D15-Pad1)*%
X142367000Y-74295000D03*
%TO.P,SW15,1*%
%TO.N,Col3*%
X129440000Y-76835000D03*
%TD*%
%TO.P,SW16,1*%
%TO.N,Col3*%
X129440000Y-95885000D03*
%TO.P,SW16,2*%
%TO.N,Net-(D16-Pad1)*%
X142367000Y-93345000D03*
%TD*%
%TO.P,SW17,2*%
%TO.N,Net-(D17-Pad1)*%
X142367000Y-112395000D03*
%TO.P,SW17,1*%
%TO.N,Col3*%
X129440000Y-114935000D03*
%TD*%
%TO.P,SW18,1*%
%TO.N,Col3*%
X129440000Y-133985000D03*
%TO.P,SW18,2*%
%TO.N,Net-(D18-Pad1)*%
X142367000Y-131445000D03*
%TD*%
D19*
%TO.N,OledSCL*%
X49530000Y-73778400D02*
X49530000Y-87312500D01*
X43029850Y-67278250D02*
X49530000Y-73778400D01*
%TO.N,OledGND*%
X54610000Y-73778400D02*
X54610000Y-87312500D01*
X43029850Y-62198250D02*
X54610000Y-73778400D01*
%TO.N,Col0*%
X57912000Y-110562000D02*
X57800000Y-110450000D01*
X34190000Y-133985000D02*
X34190000Y-126084000D01*
X34190000Y-126084000D02*
X36195000Y-124079000D01*
X36195000Y-124079000D02*
X48895000Y-124079000D01*
X48895000Y-124079000D02*
X51435000Y-126619000D01*
X51435000Y-132180000D02*
X53240000Y-133985000D01*
X51435000Y-126619000D02*
X51435000Y-132180000D01*
X57800000Y-110450000D02*
X57800000Y-116571000D01*
X57800000Y-116571000D02*
X56134000Y-118237000D01*
X56134000Y-118237000D02*
X37719000Y-118237000D01*
X37719000Y-118237000D02*
X29718000Y-126238000D01*
X29718000Y-129513000D02*
X34190000Y-133985000D01*
X29718000Y-126238000D02*
X29718000Y-129513000D01*
X54483000Y-96647000D02*
X45593000Y-87757000D01*
X45593000Y-72381400D02*
X43029850Y-69818250D01*
X45593000Y-87757000D02*
X45593000Y-72381400D01*
X54483000Y-107133000D02*
X54483000Y-96647000D01*
X57800000Y-110450000D02*
X54483000Y-107133000D01*
%TO.N,EncoderPadB*%
X43300000Y-110450000D02*
X45379000Y-110450000D01*
X45379000Y-110450000D02*
X46482000Y-109347000D01*
X46482000Y-109347000D02*
X46482000Y-91186000D01*
X46482000Y-91186000D02*
X44704000Y-89408000D01*
X44704000Y-81652400D02*
X43029850Y-79978250D01*
X44704000Y-89408000D02*
X44704000Y-81652400D01*
%TO.N,EncoderGND*%
X43300000Y-107950000D02*
X39878000Y-104528000D01*
X39878000Y-62810100D02*
X43029850Y-59658250D01*
X39878000Y-104528000D02*
X39878000Y-62810100D01*
%TO.N,EncoderPadA*%
X43300000Y-105450000D02*
X42712000Y-105450000D01*
X42712000Y-105450000D02*
X41021000Y-103759000D01*
X41021000Y-79447100D02*
X43029850Y-77438250D01*
X41021000Y-103759000D02*
X41021000Y-79447100D01*
%TO.N,Col1*%
X91340000Y-57785000D02*
X91340000Y-76835000D01*
X91340000Y-76835000D02*
X91340000Y-95885000D01*
X91340000Y-95885000D02*
X91340000Y-114935000D01*
X91340000Y-114935000D02*
X91340000Y-133985000D01*
X91340000Y-133985000D02*
X88265000Y-133985000D01*
X88265000Y-133985000D02*
X81534000Y-127254000D01*
X81534000Y-127254000D02*
X81534000Y-85471000D01*
X73501250Y-77438250D02*
X58249850Y-77438250D01*
X81534000Y-85471000D02*
X73501250Y-77438250D01*
%TO.N,Col2*%
X110390000Y-117592998D02*
X110390000Y-114935000D01*
X110390000Y-133985000D02*
X110390000Y-117592998D01*
X110390000Y-114935000D02*
X110390000Y-95885000D01*
X110390000Y-76835000D02*
X110390000Y-95885000D01*
X110390000Y-76835000D02*
X110390000Y-57785000D01*
X110390000Y-133985000D02*
X110390000Y-145769000D01*
X110390000Y-145769000D02*
X109474000Y-146685000D01*
X109474000Y-146685000D02*
X98425000Y-146685000D01*
X98425000Y-146685000D02*
X79375000Y-127635000D01*
X79375000Y-127635000D02*
X79375000Y-86741000D01*
X72612250Y-79978250D02*
X58249850Y-79978250D01*
X79375000Y-86741000D02*
X72612250Y-79978250D01*
%TO.N,Col3*%
X129440000Y-57785000D02*
X129440000Y-76835000D01*
X129440000Y-79257002D02*
X129440000Y-95885000D01*
X129440000Y-76835000D02*
X129440000Y-79257002D01*
X129440000Y-95885000D02*
X129440000Y-114935000D01*
X129440000Y-114935000D02*
X129440000Y-133985000D01*
X96901000Y-148209000D02*
X125603000Y-148209000D01*
X77343000Y-128651000D02*
X96901000Y-148209000D01*
X125603000Y-148209000D02*
X129440000Y-144372000D01*
X77343000Y-88392000D02*
X77343000Y-128651000D01*
X71469250Y-82518250D02*
X77343000Y-88392000D01*
X129440000Y-144372000D02*
X129440000Y-133985000D01*
X58249850Y-82518250D02*
X71469250Y-82518250D01*
%TO.N,ResetVIA2*%
X57162849Y-58571249D02*
X58249850Y-59658250D01*
X30328751Y-58571249D02*
X57162849Y-58571249D01*
X29368750Y-59531250D02*
X30328751Y-58571249D01*
%TO.N,ResetVIA1*%
X57162849Y-56031249D02*
X58249850Y-57118250D01*
X30487501Y-56031249D02*
X57162849Y-56031249D01*
X29368750Y-57150000D02*
X30487501Y-56031249D01*
%TO.N,Net-(D1-Pad1)*%
X62428750Y-105450000D02*
X62706250Y-105727500D01*
X57800000Y-105450000D02*
X62428750Y-105450000D01*
%TO.N,Net-(D2-Pad1)*%
X47117000Y-131445000D02*
X47132500Y-131445000D01*
X47942500Y-131445000D02*
X50006250Y-133508750D01*
X47117000Y-131445000D02*
X47942500Y-131445000D01*
%TO.N,Net-(D3-Pad1)*%
X66167000Y-131445000D02*
X66182500Y-131445000D01*
X66992500Y-131445000D02*
X69056250Y-133508750D01*
X66167000Y-131445000D02*
X66992500Y-131445000D01*
%TO.N,Net-(D4-Pad1)*%
X104267000Y-55245000D02*
X104282500Y-55245000D01*
X105092500Y-55245000D02*
X107156250Y-57308750D01*
X104267000Y-55245000D02*
X105092500Y-55245000D01*
%TO.N,Net-(D5-Pad1)*%
X104267000Y-74295000D02*
X104282500Y-74295000D01*
X105092500Y-74295000D02*
X107156250Y-76358750D01*
X104267000Y-74295000D02*
X105092500Y-74295000D01*
%TO.N,Net-(D6-Pad1)*%
X105092500Y-93345000D02*
X107156250Y-95408750D01*
X104267000Y-93345000D02*
X105092500Y-93345000D01*
X104267000Y-93345000D02*
X104282500Y-93345000D01*
%TO.N,Net-(D7-Pad1)*%
X104267000Y-112395000D02*
X104282500Y-112395000D01*
X105092500Y-112395000D02*
X107156250Y-114458750D01*
X104267000Y-112395000D02*
X105092500Y-112395000D01*
%TO.N,Net-(D8-Pad1)*%
X104267000Y-131445000D02*
X104282500Y-131445000D01*
X105092500Y-131445000D02*
X107156250Y-133508750D01*
X104267000Y-131445000D02*
X105092500Y-131445000D01*
%TO.N,Net-(D9-Pad1)*%
X123317000Y-55245000D02*
X123332500Y-55245000D01*
X124142500Y-55245000D02*
X126206250Y-57308750D01*
X123317000Y-55245000D02*
X124142500Y-55245000D01*
%TO.N,Net-(D10-Pad1)*%
X123317000Y-74295000D02*
X123332500Y-74295000D01*
X124142500Y-74295000D02*
X126206250Y-76358750D01*
X123317000Y-74295000D02*
X124142500Y-74295000D01*
%TO.N,Net-(D11-Pad1)*%
X123317000Y-93345000D02*
X123332500Y-93345000D01*
X124142500Y-93345000D02*
X126206250Y-95408750D01*
X123317000Y-93345000D02*
X124142500Y-93345000D01*
%TO.N,Net-(D12-Pad1)*%
X123317000Y-112395000D02*
X123332500Y-112395000D01*
X124142500Y-112395000D02*
X126206250Y-114458750D01*
X123317000Y-112395000D02*
X124142500Y-112395000D01*
%TO.N,Net-(D13-Pad1)*%
X123317000Y-131445000D02*
X123332500Y-131445000D01*
X124142500Y-131445000D02*
X126206250Y-133508750D01*
X123317000Y-131445000D02*
X124142500Y-131445000D01*
%TO.N,Net-(D14-Pad1)*%
X142367000Y-55245000D02*
X142382500Y-55245000D01*
X143192500Y-55245000D02*
X145256250Y-57308750D01*
X142367000Y-55245000D02*
X143192500Y-55245000D01*
%TO.N,Net-(D15-Pad1)*%
X142367000Y-74295000D02*
X142382500Y-74295000D01*
X143192500Y-74295000D02*
X145256250Y-76358750D01*
X142367000Y-74295000D02*
X143192500Y-74295000D01*
%TO.N,Net-(D16-Pad1)*%
X142367000Y-93345000D02*
X142382500Y-93345000D01*
X143192500Y-93345000D02*
X145256250Y-95408750D01*
X142367000Y-93345000D02*
X143192500Y-93345000D01*
%TO.N,Net-(D17-Pad1)*%
X142367000Y-112395000D02*
X142382500Y-112395000D01*
X143192500Y-112395000D02*
X145256250Y-114458750D01*
X142367000Y-112395000D02*
X143192500Y-112395000D01*
%TO.N,Net-(D18-Pad1)*%
X142367000Y-131445000D02*
X142382500Y-131445000D01*
X143192500Y-131445000D02*
X145256250Y-133508750D01*
X142367000Y-131445000D02*
X143192500Y-131445000D01*
%TD*%
M02*
