M48
; DRILL file {KiCad (5.1.10)-1} date 07/10/21 22:05:55
; FORMAT={-:-/ absolute / metric / decimal}
; #@! TF.CreationDate,2021-07-10T22:05:55+03:00
; #@! TF.GenerationSoftware,Kicad,Pcbnew,(5.1.10)-1
FMAT,2
METRIC
T1C0.813
T2C0.991
T3C1.000
T4C2.300
T5C1.500
T6C1.900
T7C3.000
T8C4.100
%
G90
G05
T1
X29.369Y-57.15
X29.369Y-59.531
X43.03Y-54.578
X43.03Y-57.118
X43.03Y-59.658
X43.03Y-62.198
X43.03Y-64.738
X43.03Y-67.278
X43.03Y-69.818
X43.03Y-72.358
X43.03Y-74.898
X43.03Y-77.438
X43.03Y-79.978
X43.03Y-82.518
X46.99Y-87.312
X49.53Y-87.312
X52.07Y-87.312
X54.61Y-87.312
X58.25Y-54.578
X58.25Y-57.118
X58.25Y-59.658
X58.25Y-62.198
X58.25Y-64.738
X58.25Y-67.278
X58.25Y-69.818
X58.25Y-72.358
X58.25Y-74.898
X58.25Y-77.438
X58.25Y-79.978
X58.25Y-82.518
T2
X50.006Y-133.509
X50.006Y-141.129
X62.706Y-105.727
X62.706Y-113.347
X69.056Y-133.509
X69.056Y-141.129
X107.156Y-57.309
X107.156Y-64.929
X107.156Y-76.359
X107.156Y-83.979
X107.156Y-95.409
X107.156Y-103.029
X107.156Y-114.459
X107.156Y-122.079
X107.156Y-133.509
X107.156Y-141.129
X126.206Y-57.309
X126.206Y-64.929
X126.206Y-76.359
X126.206Y-83.979
X126.206Y-95.409
X126.206Y-103.029
X126.206Y-114.459
X126.206Y-122.079
X126.206Y-133.509
X126.206Y-141.129
X145.256Y-57.309
X145.256Y-64.929
X145.256Y-76.359
X145.256Y-83.979
X145.256Y-95.409
X145.256Y-103.029
X145.256Y-114.459
X145.256Y-122.079
X145.256Y-133.509
X145.256Y-141.129
T3
X43.3Y-105.45
X43.3Y-107.95
X43.3Y-110.45
X57.8Y-105.45
X57.8Y-110.45
T4
X26.987Y-52.387
X26.987Y-147.637
X70.294Y-99.123
X147.637Y-52.387
X147.637Y-147.637
T6
X36.195Y-136.525
X46.355Y-136.525
X55.245Y-136.525
X65.405Y-136.525
X93.345Y-60.325
X93.345Y-79.375
X93.345Y-98.425
X93.345Y-117.475
X93.345Y-136.525
X103.505Y-60.325
X103.505Y-79.375
X103.505Y-98.425
X103.505Y-117.475
X103.505Y-136.525
X112.395Y-60.325
X112.395Y-79.375
X112.395Y-98.425
X112.395Y-117.475
X112.395Y-136.525
X122.555Y-60.325
X122.555Y-79.375
X122.555Y-98.425
X122.555Y-117.475
X122.555Y-136.525
X131.445Y-60.325
X131.445Y-79.375
X131.445Y-98.425
X131.445Y-117.475
X131.445Y-136.525
X141.605Y-60.325
X141.605Y-79.375
X141.605Y-98.425
X141.605Y-117.475
X141.605Y-136.525
T7
X37.465Y-133.985
X43.815Y-131.445
X56.515Y-133.985
X62.865Y-131.445
X94.615Y-57.785
X94.615Y-76.835
X94.615Y-95.885
X94.615Y-114.935
X94.615Y-133.985
X100.965Y-55.245
X100.965Y-74.295
X100.965Y-93.345
X100.965Y-112.395
X100.965Y-131.445
X113.665Y-57.785
X113.665Y-76.835
X113.665Y-95.885
X113.665Y-114.935
X113.665Y-133.985
X120.015Y-55.245
X120.015Y-74.295
X120.015Y-93.345
X120.015Y-112.395
X120.015Y-131.445
X132.715Y-57.785
X132.715Y-76.835
X132.715Y-95.885
X132.715Y-114.935
X132.715Y-133.985
X139.065Y-55.245
X139.065Y-74.295
X139.065Y-93.345
X139.065Y-112.395
X139.065Y-131.445
T8
X41.275Y-136.525
X60.325Y-136.525
X98.425Y-60.325
X98.425Y-79.375
X98.425Y-98.425
X98.425Y-117.475
X98.425Y-136.525
X117.475Y-60.325
X117.475Y-79.375
X117.475Y-98.425
X117.475Y-117.475
X117.475Y-136.525
X136.525Y-60.325
X136.525Y-79.375
X136.525Y-98.425
X136.525Y-117.475
X136.525Y-136.525
T5
G00X50.15Y-102.35
M15
G01X51.45Y-102.35
M16
G05
G00X50.15Y-113.55
M15
G01X51.45Y-113.55
M16
G05
T0
M30
