%TF.GenerationSoftware,KiCad,Pcbnew,(5.1.10)-1*%
%TF.CreationDate,2021-07-10T22:05:52+03:00*%
%TF.ProjectId,BedoPadPcb,4265646f-5061-4645-9063-622e6b696361,rev?*%
%TF.SameCoordinates,Original*%
%TF.FileFunction,Soldermask,Top*%
%TF.FilePolarity,Negative*%
%FSLAX46Y46*%
G04 Gerber Fmt 4.6, Leading zero omitted, Abs format (unit mm)*
G04 Created by KiCad (PCBNEW (5.1.10)-1) date 2021-07-10 22:05:52*
%MOMM*%
%LPD*%
G01*
G04 APERTURE LIST*
%ADD10C,4.200000*%
%ADD11R,1.651000X1.651000*%
%ADD12C,1.651000*%
%ADD13C,1.397000*%
%ADD14C,2.000000*%
%ADD15R,3.200000X2.000000*%
%ADD16R,2.000000X2.000000*%
%ADD17C,3.000000*%
%ADD18C,1.900000*%
%ADD19C,4.100000*%
G04 APERTURE END LIST*
D10*
%TO.C,REF\u002A\u002A*%
X70294500Y-99123500D03*
%TD*%
%TO.C,REF\u002A\u002A*%
X147637500Y-147637500D03*
%TD*%
%TO.C,REF\u002A\u002A*%
X26987500Y-147637500D03*
%TD*%
%TO.C,REF\u002A\u002A*%
X26987500Y-52387500D03*
%TD*%
%TO.C,REF\u002A\u002A*%
X147637500Y-52387500D03*
%TD*%
D11*
%TO.C,D1*%
X62706250Y-113347500D03*
D12*
X62706250Y-105727500D03*
%TD*%
D11*
%TO.C,D2*%
X50006250Y-141128750D03*
D12*
X50006250Y-133508750D03*
%TD*%
D11*
%TO.C,D3*%
X69056250Y-141128750D03*
D12*
X69056250Y-133508750D03*
%TD*%
D11*
%TO.C,D4*%
X107156250Y-64928750D03*
D12*
X107156250Y-57308750D03*
%TD*%
D11*
%TO.C,D5*%
X107156250Y-83978750D03*
D12*
X107156250Y-76358750D03*
%TD*%
D11*
%TO.C,D6*%
X107156250Y-103028750D03*
D12*
X107156250Y-95408750D03*
%TD*%
D11*
%TO.C,D7*%
X107156250Y-122078750D03*
D12*
X107156250Y-114458750D03*
%TD*%
D11*
%TO.C,D8*%
X107156250Y-141128750D03*
D12*
X107156250Y-133508750D03*
%TD*%
D11*
%TO.C,D9*%
X126206250Y-64928750D03*
D12*
X126206250Y-57308750D03*
%TD*%
D11*
%TO.C,D10*%
X126206250Y-83978750D03*
D12*
X126206250Y-76358750D03*
%TD*%
D11*
%TO.C,D11*%
X126206250Y-103028750D03*
D12*
X126206250Y-95408750D03*
%TD*%
D11*
%TO.C,D12*%
X126206250Y-122078750D03*
D12*
X126206250Y-114458750D03*
%TD*%
D11*
%TO.C,D13*%
X126206250Y-141128750D03*
D12*
X126206250Y-133508750D03*
%TD*%
D11*
%TO.C,D14*%
X145256250Y-64928750D03*
D12*
X145256250Y-57308750D03*
%TD*%
D11*
%TO.C,D15*%
X145256250Y-83978750D03*
D12*
X145256250Y-76358750D03*
%TD*%
D11*
%TO.C,D16*%
X145256250Y-103028750D03*
D12*
X145256250Y-95408750D03*
%TD*%
D11*
%TO.C,D17*%
X145256250Y-122078750D03*
D12*
X145256250Y-114458750D03*
%TD*%
D11*
%TO.C,D18*%
X145256250Y-141128750D03*
D12*
X145256250Y-133508750D03*
%TD*%
D13*
%TO.C,H2*%
X29368750Y-59531250D03*
%TD*%
%TO.C,H1*%
X29368750Y-57150000D03*
%TD*%
D14*
%TO.C,SW1*%
X57800000Y-110450000D03*
X57800000Y-105450000D03*
D15*
X50800000Y-113550000D03*
X50800000Y-102350000D03*
D14*
X43300000Y-110450000D03*
X43300000Y-107950000D03*
D16*
X43300000Y-105450000D03*
%TD*%
D17*
%TO.C,SW2*%
X43815000Y-131445000D03*
X37465000Y-133985000D03*
D18*
X36195000Y-136525000D03*
X46355000Y-136525000D03*
D19*
X41275000Y-136525000D03*
%TD*%
%TO.C,SW3*%
X60325000Y-136525000D03*
D18*
X65405000Y-136525000D03*
X55245000Y-136525000D03*
D17*
X56515000Y-133985000D03*
X62865000Y-131445000D03*
%TD*%
%TO.C,SW4*%
X100965000Y-55245000D03*
X94615000Y-57785000D03*
D18*
X93345000Y-60325000D03*
X103505000Y-60325000D03*
D19*
X98425000Y-60325000D03*
%TD*%
D17*
%TO.C,SW5*%
X100965000Y-74295000D03*
X94615000Y-76835000D03*
D18*
X93345000Y-79375000D03*
X103505000Y-79375000D03*
D19*
X98425000Y-79375000D03*
%TD*%
%TO.C,SW6*%
X98425000Y-98425000D03*
D18*
X103505000Y-98425000D03*
X93345000Y-98425000D03*
D17*
X94615000Y-95885000D03*
X100965000Y-93345000D03*
%TD*%
%TO.C,SW7*%
X100965000Y-112395000D03*
X94615000Y-114935000D03*
D18*
X93345000Y-117475000D03*
X103505000Y-117475000D03*
D19*
X98425000Y-117475000D03*
%TD*%
%TO.C,SW8*%
X98425000Y-136525000D03*
D18*
X103505000Y-136525000D03*
X93345000Y-136525000D03*
D17*
X94615000Y-133985000D03*
X100965000Y-131445000D03*
%TD*%
D19*
%TO.C,SW9*%
X117475000Y-60325000D03*
D18*
X122555000Y-60325000D03*
X112395000Y-60325000D03*
D17*
X113665000Y-57785000D03*
X120015000Y-55245000D03*
%TD*%
D19*
%TO.C,SW10*%
X117475000Y-79375000D03*
D18*
X122555000Y-79375000D03*
X112395000Y-79375000D03*
D17*
X113665000Y-76835000D03*
X120015000Y-74295000D03*
%TD*%
%TO.C,SW11*%
X120015000Y-93345000D03*
X113665000Y-95885000D03*
D18*
X112395000Y-98425000D03*
X122555000Y-98425000D03*
D19*
X117475000Y-98425000D03*
%TD*%
%TO.C,SW12*%
X117475000Y-117475000D03*
D18*
X122555000Y-117475000D03*
X112395000Y-117475000D03*
D17*
X113665000Y-114935000D03*
X120015000Y-112395000D03*
%TD*%
%TO.C,SW13*%
X120015000Y-131445000D03*
X113665000Y-133985000D03*
D18*
X112395000Y-136525000D03*
X122555000Y-136525000D03*
D19*
X117475000Y-136525000D03*
%TD*%
%TO.C,SW14*%
X136525000Y-60325000D03*
D18*
X141605000Y-60325000D03*
X131445000Y-60325000D03*
D17*
X132715000Y-57785000D03*
X139065000Y-55245000D03*
%TD*%
%TO.C,SW15*%
X139065000Y-74295000D03*
X132715000Y-76835000D03*
D18*
X131445000Y-79375000D03*
X141605000Y-79375000D03*
D19*
X136525000Y-79375000D03*
%TD*%
%TO.C,SW16*%
X136525000Y-98425000D03*
D18*
X141605000Y-98425000D03*
X131445000Y-98425000D03*
D17*
X132715000Y-95885000D03*
X139065000Y-93345000D03*
%TD*%
%TO.C,SW17*%
X139065000Y-112395000D03*
X132715000Y-114935000D03*
D18*
X131445000Y-117475000D03*
X141605000Y-117475000D03*
D19*
X136525000Y-117475000D03*
%TD*%
%TO.C,SW18*%
X136525000Y-136525000D03*
D18*
X141605000Y-136525000D03*
X131445000Y-136525000D03*
D17*
X132715000Y-133985000D03*
X139065000Y-131445000D03*
%TD*%
M02*
